<svg width="809" height="800" viewBox="0 0 809 800" fill="none" xmlns="http://www.w3.org/2000/svg">
<path d="M668.201 218.508L482.183 32.0656C472.335 21.9202 460.549 13.8543 447.525 8.34623C434.501 2.83816 420.502 0 406.36 0C392.218 0 378.22 2.83816 365.195 8.34623C352.171 13.8543 340.385 21.9202 330.537 32.0656L144.014 218.508L405.349 348.866L668.201 218.508ZM739.575 293.793L776.476 330.677C786.689 340.484 794.815 352.252 800.366 365.276C805.916 378.3 808.777 392.31 808.777 406.466C808.777 420.623 805.916 434.633 800.366 447.657C794.815 460.68 786.689 472.449 776.476 482.256L479.217 782.316C472.171 789.52 463.971 795.497 454.954 800V436.277L739.575 293.793ZM69.2022 293.793L32.3019 330.677C22.0886 340.484 13.9627 352.252 8.41197 365.276C2.86123 378.3 0 392.31 0 406.466C0 420.623 2.86123 434.633 8.41197 447.657C13.9627 460.68 22.0886 472.449 32.3019 482.256L329.594 782.316C336.671 789.524 344.86 795.52 353.857 800V436.277L69.2022 293.793Z" fill="white"/>
<path fill-rule="evenodd" clip-rule="evenodd" d="M363.988 87.3941C383.021 63.8758 404.958 51.0845 421.43 72.0063C440.36 72.9982 448.475 101.733 435.454 115.903C436.389 115.891 437.266 116.082 438.028 116.5C439.023 117.044 439.778 117.925 440.157 119.173C440.536 120.402 440.536 121.996 440 123.976L439.935 124.171C439.697 124.872 439.491 125.76 439.28 126.675C438.407 130.459 437.446 134.618 433.133 134.389C432.904 134.373 432.678 134.35 432.448 134.312C432.291 142.132 428.469 145.732 423.471 150.431C424.811 152.388 426.156 154.361 427.768 156.183L427.772 156.176C436.228 163.789 458.023 165.313 467.333 170.51C470.278 172.15 472.939 174.241 475.08 177.067C475.39 177.473 475.681 177.883 475.961 178.292C475.754 178.277 475.559 178.269 475.383 178.269H332.795C333.067 177.867 333.354 177.465 333.656 177.067C335.797 174.241 338.459 172.15 341.404 170.51C350.423 165.478 370.939 163.889 380.115 156.884C380.685 155.908 381.279 154.675 381.853 153.369C382.596 151.668 383.293 149.864 383.868 148.298C380.23 144.928 377.434 141.286 376.802 134.339L376.369 134.346C375.358 134.331 374.389 134.101 373.482 133.584C371.471 132.443 370.376 130.264 369.847 127.778C369.169 124.619 369.395 120.873 369.721 118.507C369.744 118.342 369.786 118.189 369.847 118.043C370.548 116.079 371.433 115.018 372.54 114.566C372.038 105.179 373.623 90.3085 363.988 87.3941ZM332.144 183.034H475.383C479.025 183.034 481.997 186.45 481.438 190.616L473.521 249.751C472.978 253.883 470.109 257.334 465.939 257.334H341.588C337.417 257.334 334.556 253.883 334.005 249.751L326.085 190.616C325.537 186.446 328.498 183.034 332.144 183.034ZM403.07 210.412C408.091 210.412 412.166 214.483 412.166 219.504C412.166 224.529 408.091 228.6 403.07 228.6C398.049 228.6 393.978 224.529 393.978 219.504C393.978 214.483 398.049 210.412 403.07 210.412ZM421.085 152.691C416.137 157.298 410.749 159.538 405.276 159.538C399.543 159.542 393.806 157.091 388.471 152.342L386.595 150.703L386.468 150.596C385.974 151.913 385.411 153.323 384.825 154.663C384.021 156.49 383.163 158.209 382.332 159.454C391.317 177.668 417.872 178.304 426.481 159.557C424.317 157.367 422.682 155.027 421.085 152.691ZM418.891 89.6115C414.548 93.9889 409.952 95.2488 405.448 95.6433C404.119 95.8769 402.825 96.0378 401.534 96.1986C397.214 96.7309 392.902 97.2633 387.196 101.216C384.5 103.077 382.704 105.332 381.773 107.956C380.819 110.66 380.754 113.815 381.543 117.404C381.616 117.735 381.598 118.079 381.492 118.401C381.385 118.722 381.195 119.009 380.939 119.232C380.684 119.455 380.374 119.605 380.041 119.667C379.708 119.728 379.364 119.699 379.046 119.583L376.859 118.782C375.082 118.162 373.968 117.955 373.436 119.223C373.164 121.299 372.991 124.427 373.539 126.993C373.865 128.514 374.424 129.781 375.343 130.306C375.668 130.49 376.028 130.574 376.411 130.578C376.894 130.586 377.434 130.478 378.008 130.302C378.173 130.252 378.342 130.226 378.518 130.222C379.559 130.199 380.425 131.022 380.448 132.06C380.655 140.612 384.446 143.879 389.061 147.85L390.983 149.52C395.617 153.644 400.496 155.774 405.276 155.774C409.925 155.77 414.571 153.74 418.906 149.558L420.859 147.704C425.7 143.159 429.265 139.808 428.58 131.646C428.553 131.241 428.649 130.823 428.89 130.459C429.164 130.042 429.593 129.75 430.082 129.649C430.571 129.548 431.081 129.645 431.498 129.919C431.812 130.126 432.126 130.295 432.436 130.413L432.517 130.44C432.8 130.544 433.076 130.605 433.329 130.62C434.481 130.681 435.067 128.142 435.6 125.833C435.837 124.81 436.067 123.815 436.366 122.949C436.691 121.716 436.726 120.847 436.553 120.28C436.48 120.042 436.366 119.885 436.224 119.809C435.998 119.686 435.661 119.648 435.259 119.686C434.298 119.774 433.141 120.284 432.053 121.107C431.848 121.263 431.613 121.375 431.363 121.436C431.112 121.497 430.852 121.507 430.598 121.463C430.104 121.379 429.664 121.102 429.374 120.693C429.084 120.285 428.968 119.778 429.051 119.284C430.832 108.906 430.016 102.142 427.806 97.5275C425.868 93.4872 422.778 91.0361 419.427 89.2055L418.891 89.6115Z" fill="#8BC34A"/>
</svg>
