<svg width="1080" height="1080" viewBox="0 0 1080 1080" fill="none" xmlns="http://www.w3.org/2000/svg">
<g clip-path="url(#clip0_236_674)">
<rect width="1080" height="1080" fill="#EBF7F2"/>
<line y1="26.5" x2="1080" y2="26.5" stroke="#C4C4C4"/>
<line y1="53.5" x2="1080" y2="53.5" stroke="#C4C4C4"/>
<line y1="80.5" x2="1080" y2="80.5" stroke="#C4C4C4"/>
<line y1="107.5" x2="1080" y2="107.5" stroke="#C4C4C4"/>
<line y1="134.5" x2="1080" y2="134.5" stroke="#C4C4C4"/>
<line y1="161.5" x2="1080" y2="161.5" stroke="#C4C4C4"/>
<line y1="188.5" x2="1080" y2="188.5" stroke="#C4C4C4"/>
<line y1="215.5" x2="1080" y2="215.5" stroke="#C4C4C4"/>
<line y1="242.5" x2="1080" y2="242.5" stroke="#C4C4C4"/>
<line y1="269.5" x2="1080" y2="269.5" stroke="#C4C4C4"/>
<line y1="296.5" x2="1080" y2="296.5" stroke="#C4C4C4"/>
<line y1="323.5" x2="1080" y2="323.5" stroke="#C4C4C4"/>
<line y1="350.5" x2="1080" y2="350.5" stroke="#C4C4C4"/>
<line y1="377.5" x2="1080" y2="377.5" stroke="#C4C4C4"/>
<line y1="404.5" x2="1080" y2="404.5" stroke="#C4C4C4"/>
<line y1="431.5" x2="1080" y2="431.5" stroke="#C4C4C4"/>
<line y1="458.5" x2="1080" y2="458.5" stroke="#C4C4C4"/>
<line y1="485.5" x2="1080" y2="485.5" stroke="#C4C4C4"/>
<line y1="512.5" x2="1080" y2="512.5" stroke="#C4C4C4"/>
<line y1="539.5" x2="1080" y2="539.5" stroke="#C4C4C4"/>
<line y1="566.5" x2="1080" y2="566.5" stroke="#C4C4C4"/>
<line y1="593.5" x2="1080" y2="593.5" stroke="#C4C4C4"/>
<line y1="620.5" x2="1080" y2="620.5" stroke="#C4C4C4"/>
<line y1="647.5" x2="1080" y2="647.5" stroke="#C4C4C4"/>
<line y1="674.5" x2="1080" y2="674.5" stroke="#C4C4C4"/>
<line y1="701.5" x2="1080" y2="701.5" stroke="#C4C4C4"/>
<line y1="728.5" x2="1080" y2="728.5" stroke="#C4C4C4"/>
<line y1="755.5" x2="1080" y2="755.5" stroke="#C4C4C4"/>
<line y1="782.5" x2="1080" y2="782.5" stroke="#C4C4C4"/>
<line y1="809.5" x2="1080" y2="809.5" stroke="#C4C4C4"/>
<line y1="836.5" x2="1080" y2="836.5" stroke="#C4C4C4"/>
<line y1="863.5" x2="1080" y2="863.5" stroke="#C4C4C4"/>
<line y1="890.5" x2="1080" y2="890.5" stroke="#C4C4C4"/>
<line y1="917.5" x2="1080" y2="917.5" stroke="#C4C4C4"/>
<line y1="944.5" x2="1080" y2="944.5" stroke="#C4C4C4"/>
<line y1="971.5" x2="1080" y2="971.5" stroke="#C4C4C4"/>
<line y1="998.5" x2="1080" y2="998.5" stroke="#C4C4C4"/>
<line y1="1025.5" x2="1080" y2="1025.5" stroke="#C4C4C4"/>
<line y1="1052.5" x2="1080" y2="1052.5" stroke="#C4C4C4"/>
<line x1="26.5" y1="1080" x2="26.5" stroke="#C4C4C4"/>
<line x1="53.5" y1="1080" x2="53.5" stroke="#C4C4C4"/>
<line x1="80.5" y1="1080" x2="80.5" stroke="#C4C4C4"/>
<line x1="107.5" y1="1080" x2="107.5" stroke="#C4C4C4"/>
<line x1="134.5" y1="1080" x2="134.5" stroke="#C4C4C4"/>
<line x1="161.5" y1="1080" x2="161.5" stroke="#C4C4C4"/>
<line x1="188.5" y1="1080" x2="188.5" stroke="#C4C4C4"/>
<line x1="215.5" y1="1080" x2="215.5" stroke="#C4C4C4"/>
<line x1="242.5" y1="1080" x2="242.5" stroke="#C4C4C4"/>
<line x1="269.5" y1="1080" x2="269.5" stroke="#C4C4C4"/>
<line x1="296.5" y1="1080" x2="296.5" stroke="#C4C4C4"/>
<line x1="323.5" y1="1080" x2="323.5" stroke="#C4C4C4"/>
<line x1="350.5" y1="1080" x2="350.5" stroke="#C4C4C4"/>
<line x1="377.5" y1="1080" x2="377.5" stroke="#C4C4C4"/>
<line x1="404.5" y1="1080" x2="404.5" stroke="#C4C4C4"/>
<line x1="431.5" y1="1080" x2="431.5" stroke="#C4C4C4"/>
<line x1="458.5" y1="1080" x2="458.5" stroke="#C4C4C4"/>
<line x1="485.5" y1="1080" x2="485.5" stroke="#C4C4C4"/>
<line x1="512.5" y1="1080" x2="512.5" stroke="#C4C4C4"/>
<line x1="539.5" y1="1080" x2="539.5" stroke="#C4C4C4"/>
<line x1="566.5" y1="1080" x2="566.5" stroke="#C4C4C4"/>
<line x1="593.5" y1="1080" x2="593.5" stroke="#C4C4C4"/>
<line x1="620.5" y1="1080" x2="620.5" stroke="#C4C4C4"/>
<line x1="647.5" y1="1080" x2="647.5" stroke="#C4C4C4"/>
<line x1="674.5" y1="1080" x2="674.5" stroke="#C4C4C4"/>
<line x1="701.5" y1="1080" x2="701.5" stroke="#C4C4C4"/>
<line x1="728.5" y1="1080" x2="728.5" stroke="#C4C4C4"/>
<line x1="755.5" y1="1080" x2="755.5" stroke="#C4C4C4"/>
<line x1="782.5" y1="1080" x2="782.5" stroke="#C4C4C4"/>
<line x1="809.5" y1="1080" x2="809.5" stroke="#C4C4C4"/>
<line x1="836.5" y1="1080" x2="836.5" stroke="#C4C4C4"/>
<line x1="863.5" y1="1080" x2="863.5" stroke="#C4C4C4"/>
<line x1="890.5" y1="1080" x2="890.5" stroke="#C4C4C4"/>
<line x1="917.5" y1="1080" x2="917.5" stroke="#C4C4C4"/>
<line x1="944.5" y1="1080" x2="944.5" stroke="#C4C4C4"/>
<line x1="971.5" y1="1080" x2="971.5" stroke="#C4C4C4"/>
<line x1="998.5" y1="1080" x2="998.5" stroke="#C4C4C4"/>
<line x1="1025.5" y1="1080" x2="1025.5" stroke="#C4C4C4"/>
<line x1="1052.5" y1="1080" x2="1052.5" stroke="#C4C4C4"/>
<rect width="1080" height="1080" fill="url(#paint0_radial_236_674)"/>
<path d="M191.342 196.2L191.982 194.84C194.302 194.893 196.222 195.267 197.742 195.96C199.262 196.627 200.382 197.547 201.102 198.72C201.822 199.867 202.182 201.187 202.182 202.68C202.182 204.28 201.795 205.707 201.022 206.96C200.275 208.213 199.169 209.2 197.702 209.92C196.235 210.64 194.395 211 192.182 211H171.142L173.462 195.6L171.142 181H191.422C194.195 181 196.342 181.653 197.862 182.96C199.409 184.24 200.182 186.013 200.182 188.28C200.182 189.507 199.889 190.693 199.302 191.84C198.742 192.987 197.809 193.96 196.502 194.76C195.222 195.533 193.502 196.013 191.342 196.2ZM177.862 209.28L175.262 206H190.782C192.222 206 193.329 205.667 194.102 205C194.902 204.307 195.302 203.347 195.302 202.12C195.302 200.867 194.849 199.88 193.942 199.16C193.035 198.413 191.702 198.04 189.942 198.04H177.302V193.16H189.142C190.342 193.16 191.329 192.827 192.102 192.16C192.902 191.467 193.302 190.507 193.302 189.28C193.302 188.347 192.969 187.573 192.302 186.96C191.635 186.32 190.675 186 189.422 186H175.262L177.862 182.72L179.982 195.6L177.862 209.28ZM214.311 181V208L211.231 205H233.751V211H207.511V181H214.311ZM252.828 211.6C249.334 211.6 246.268 210.947 243.628 209.64C241.014 208.333 238.974 206.52 237.508 204.2C236.041 201.853 235.308 199.12 235.308 196C235.308 192.88 236.041 190.16 237.508 187.84C238.974 185.493 241.014 183.667 243.628 182.36C246.268 181.053 249.334 180.4 252.828 180.4C256.321 180.4 259.374 181.053 261.988 182.36C264.628 183.667 266.681 185.493 268.148 187.84C269.614 190.16 270.348 192.88 270.348 196C270.348 199.12 269.614 201.853 268.148 204.2C266.681 206.52 264.628 208.333 261.988 209.64C259.374 210.947 256.321 211.6 252.828 211.6ZM252.828 205.56C255.014 205.56 256.894 205.173 258.468 204.4C260.068 203.627 261.294 202.52 262.148 201.08C263.028 199.64 263.468 197.947 263.468 196C263.468 194.053 263.028 192.36 262.148 190.92C261.294 189.48 260.068 188.373 258.468 187.6C256.894 186.827 255.014 186.44 252.828 186.44C250.668 186.44 248.788 186.827 247.188 187.6C245.588 188.373 244.348 189.48 243.468 190.92C242.614 192.36 242.188 194.053 242.188 196C242.188 197.947 242.614 199.64 243.468 201.08C244.348 202.52 245.588 203.627 247.188 204.4C248.788 205.173 250.668 205.56 252.828 205.56ZM308.31 198.8C308.017 201.333 307.123 203.573 305.63 205.52C304.163 207.44 302.217 208.933 299.79 210C297.39 211.067 294.643 211.6 291.55 211.6C288.137 211.6 285.137 210.947 282.55 209.64C279.99 208.333 277.99 206.52 276.55 204.2C275.11 201.853 274.39 199.12 274.39 196C274.39 192.88 275.11 190.16 276.55 187.84C277.99 185.493 279.99 183.667 282.55 182.36C285.137 181.053 288.137 180.4 291.55 180.4C294.643 180.4 297.39 180.933 299.79 182C302.217 183.067 304.163 184.56 305.63 186.48C307.123 188.4 308.017 190.64 308.31 193.2H301.47C301.203 191.787 300.63 190.573 299.75 189.56C298.87 188.52 297.737 187.72 296.35 187.16C294.963 186.6 293.35 186.32 291.51 186.32C289.403 186.32 287.577 186.72 286.03 187.52C284.51 188.293 283.337 189.413 282.51 190.88C281.683 192.32 281.27 194.027 281.27 196C281.27 197.973 281.683 199.693 282.51 201.16C283.337 202.6 284.51 203.72 286.03 204.52C287.577 205.293 289.403 205.68 291.51 205.68C293.35 205.68 294.963 205.413 296.35 204.88C297.737 204.32 298.87 203.533 299.75 202.52C300.63 201.48 301.203 200.24 301.47 198.8H308.31ZM313.544 211V181H320.304V205.48L318.384 204.12L336.944 181H344.184L319.664 211H313.544ZM327.864 196.32L332.744 191.96L344.624 211H336.864L327.864 196.32ZM378.973 198.8C378.679 201.333 377.786 203.573 376.293 205.52C374.826 207.44 372.879 208.933 370.453 210C368.053 211.067 365.306 211.6 362.213 211.6C358.799 211.6 355.799 210.947 353.213 209.64C350.653 208.333 348.653 206.52 347.213 204.2C345.773 201.853 345.053 199.12 345.053 196C345.053 192.88 345.773 190.16 347.213 187.84C348.653 185.493 350.653 183.667 353.213 182.36C355.799 181.053 358.799 180.4 362.213 180.4C365.306 180.4 368.053 180.933 370.453 182C372.879 183.067 374.826 184.56 376.293 186.48C377.786 188.4 378.679 190.64 378.973 193.2H372.133C371.866 191.787 371.293 190.573 370.413 189.56C369.533 188.52 368.399 187.72 367.013 187.16C365.626 186.6 364.013 186.32 362.173 186.32C360.066 186.32 358.239 186.72 356.693 187.52C355.173 188.293 353.999 189.413 353.173 190.88C352.346 192.32 351.933 194.027 351.933 196C351.933 197.973 352.346 199.693 353.173 201.16C353.999 202.6 355.173 203.72 356.693 204.52C358.239 205.293 360.066 205.68 362.173 205.68C364.013 205.68 365.626 205.413 367.013 204.88C368.399 204.32 369.533 203.533 370.413 202.52C371.293 201.48 371.866 200.24 372.133 198.8H378.973ZM384.207 181H391.007V211H384.207V181ZM408.207 181H415.007V211H408.207V181ZM387.927 192.84H411.207V198.8H387.927V192.84ZM426.88 204.68V199.16H447.68V204.68H426.88ZM441.8 181L455.84 211H448.6L436.32 183.76H438.56L426.28 211H419.04L433.08 181H441.8ZM459.869 181H466.669V211H459.869V181ZM501.399 206.52L499.039 206.88V181H505.639V211H497.039L477.839 185.12L480.159 184.76V211H473.599V181H482.399L501.399 206.52ZM537.837 181C541.331 181 544.384 181.627 546.997 182.88C549.637 184.133 551.691 185.88 553.157 188.12C554.624 190.36 555.357 192.987 555.357 196C555.357 198.987 554.624 201.613 553.157 203.88C551.691 206.12 549.637 207.867 546.997 209.12C544.384 210.373 541.331 211 537.837 211H523.597V181H537.837ZM530.357 208.32L526.917 205H538.357C540.384 205 542.157 204.627 543.677 203.88C545.224 203.133 546.411 202.08 547.237 200.72C548.064 199.36 548.477 197.787 548.477 196C548.477 194.187 548.064 192.613 547.237 191.28C546.411 189.92 545.224 188.867 543.677 188.12C542.157 187.373 540.384 187 538.357 187H526.917L530.357 183.68V208.32ZM585.33 193.4V198.6H563.85V193.4H585.33ZM568.41 196L566.41 208.72L563.45 205.36H586.57V211H559.57L561.89 196L559.57 181H586.37V186.64H563.45L566.41 183.28L568.41 196ZM608.558 208H605.558L617.798 181H624.998L610.758 211H603.118L588.918 181H596.198L608.558 208ZM653.844 193.4V198.6H632.364V193.4H653.844ZM636.924 196L634.924 208.72L631.964 205.36H655.084V211H628.084L630.404 196L628.084 181H654.884V186.64H631.964L634.924 183.28L636.924 196ZM667.855 181V208L664.775 205H687.295V211H661.055V181H667.855ZM706.372 211.6C702.878 211.6 699.812 210.947 697.172 209.64C694.558 208.333 692.518 206.52 691.052 204.2C689.585 201.853 688.852 199.12 688.852 196C688.852 192.88 689.585 190.16 691.052 187.84C692.518 185.493 694.558 183.667 697.172 182.36C699.812 181.053 702.878 180.4 706.372 180.4C709.865 180.4 712.918 181.053 715.532 182.36C718.172 183.667 720.225 185.493 721.692 187.84C723.158 190.16 723.892 192.88 723.892 196C723.892 199.12 723.158 201.853 721.692 204.2C720.225 206.52 718.172 208.333 715.532 209.64C712.918 210.947 709.865 211.6 706.372 211.6ZM706.372 205.56C708.558 205.56 710.438 205.173 712.012 204.4C713.612 203.627 714.838 202.52 715.692 201.08C716.572 199.64 717.012 197.947 717.012 196C717.012 194.053 716.572 192.36 715.692 190.92C714.838 189.48 713.612 188.373 712.012 187.6C710.438 186.827 708.558 186.44 706.372 186.44C704.212 186.44 702.332 186.827 700.732 187.6C699.132 188.373 697.892 189.48 697.012 190.92C696.158 192.36 695.732 194.053 695.732 196C695.732 197.947 696.158 199.64 697.012 201.08C697.892 202.52 699.132 203.627 700.732 204.4C702.332 205.173 704.212 205.56 706.372 205.56ZM745.734 181C748.107 181 750.16 181.413 751.894 182.24C753.627 183.067 754.947 184.227 755.854 185.72C756.787 187.213 757.254 188.947 757.254 190.92C757.254 192.893 756.787 194.627 755.854 196.12C754.947 197.587 753.627 198.747 751.894 199.6C750.16 200.427 748.107 200.84 745.734 200.84H732.494V195.24H745.374C746.947 195.24 748.174 194.853 749.054 194.08C749.96 193.307 750.414 192.253 750.414 190.92C750.414 189.56 749.96 188.507 749.054 187.76C748.174 186.987 746.947 186.6 745.374 186.6H733.094L736.174 183.36V211H729.374V181H745.734ZM804.13 181V211H797.65V183.28L799.37 183.4L786.57 211H779.57L766.77 183.48L768.45 183.32V211H762.01V181H772.45L784.53 207.72H781.61L793.69 181H804.13ZM835.852 193.4V198.6H814.372V193.4H835.852ZM818.932 196L816.932 208.72L813.972 205.36H837.092V211H810.092L812.412 196L810.092 181H836.892V186.64H813.972L816.932 183.28L818.932 196ZM870.863 206.52L868.503 206.88V181H875.103V211H866.503L847.303 185.12L849.623 184.76V211H843.063V181H851.863L870.863 206.52ZM891.587 184.04H898.347V211H891.587V184.04ZM879.627 181H910.267V187H879.627V181Z" fill="#0E5F66"/>
<path d="M257 763.288V726.063H823.97V763.288C823.97 793.298 799.573 817.695 769.564 817.695H311.408C281.398 817.695 257 793.298 257 763.288ZM823.97 708.882V419.672C823.97 389.663 799.573 365.266 769.564 365.266H739.383C740.07 368.53 740.528 371.852 740.528 375.231V549.99C740.528 567.314 731.193 583.464 716.189 592.14L564.828 679.535C557.469 683.801 549.051 686.063 540.489 686.063C531.927 686.063 523.509 683.801 516.15 679.535L364.811 592.17C349.807 583.493 340.472 567.344 340.472 550.019V375.26C340.472 371.853 340.93 368.531 341.617 365.295H311.436C281.427 365.295 257.03 389.692 257.03 419.702V708.912H824L823.97 708.882ZM626.274 834.879H454.696L445.762 874.968H635.211L626.274 834.879ZM697.975 900.739C697.975 895.986 694.138 892.148 689.384 892.148H391.583C386.829 892.148 382.992 895.985 382.992 900.739C382.992 905.493 386.829 909.33 391.583 909.33H689.384C694.138 909.33 697.975 905.493 697.975 900.739ZM531.895 471.077C530.664 470.618 529.433 470.246 528.259 469.588L358.228 371.425C357.999 372.914 357.626 374.374 357.626 375.892V550.651C357.626 561.875 363.668 572.327 373.375 577.94L524.735 665.334C526.997 666.652 529.431 667.597 531.894 668.284L531.895 471.077ZM536.849 454.697C539.082 455.986 541.86 455.986 544.093 454.697L715.671 355.648C713.352 352.927 710.746 350.436 707.567 348.603L556.207 261.209C546.5 255.597 534.416 255.597 524.709 261.209L373.349 348.603C370.17 350.436 367.564 352.927 365.245 355.648L536.822 454.697H536.849ZM552.684 469.587C551.539 470.246 550.279 470.618 549.048 471.076V668.252C551.51 667.564 553.944 666.619 556.206 665.302L707.566 577.908C717.273 572.296 723.315 561.844 723.315 550.619V375.86C723.315 374.342 722.943 372.882 722.714 371.393L552.684 469.587Z" fill="url(#paint1_linear_236_674)"/>
<path fill-rule="evenodd" clip-rule="evenodd" d="M519.535 312.353C529.328 300.252 540.615 293.671 549.09 304.436C558.83 304.946 563.005 319.73 556.306 327.021C556.787 327.015 557.238 327.113 557.63 327.328C558.142 327.608 558.53 328.061 558.726 328.704C558.921 329.336 558.921 330.156 558.645 331.175L558.611 331.275C558.489 331.636 558.383 332.093 558.274 332.564C557.825 334.511 557.33 336.65 555.112 336.532C554.994 336.524 554.877 336.513 554.759 336.493C554.678 340.516 552.712 342.369 550.14 344.786C550.83 345.793 551.522 346.808 552.351 347.746L552.353 347.742C556.704 351.659 567.918 352.444 572.708 355.118C574.223 355.961 575.593 357.037 576.694 358.491C576.854 358.7 577.003 358.911 577.147 359.121C577.041 359.114 576.94 359.11 576.85 359.11H503.486C503.626 358.903 503.774 358.696 503.929 358.491C505.031 357.037 506.4 355.961 507.916 355.118C512.556 352.528 523.112 351.711 527.833 348.107C528.126 347.604 528.432 346.97 528.727 346.298C529.11 345.423 529.468 344.495 529.764 343.689C527.892 341.955 526.454 340.081 526.128 336.507L525.906 336.511C525.386 336.503 524.887 336.384 524.42 336.118C523.386 335.531 522.822 334.41 522.55 333.131C522.201 331.506 522.318 329.579 522.485 328.361C522.497 328.276 522.519 328.197 522.55 328.122C522.911 327.111 523.366 326.566 523.935 326.333C523.677 321.504 524.493 313.852 519.535 312.353ZM503.151 361.561H576.85C578.724 361.561 580.253 363.319 579.965 365.462L575.892 395.888C575.612 398.014 574.136 399.79 571.991 399.79H508.01C505.864 399.79 504.392 398.014 504.109 395.888L500.034 365.462C499.752 363.317 501.275 361.561 503.151 361.561ZM539.644 375.648C542.227 375.648 544.324 377.742 544.324 380.326C544.324 382.911 542.227 385.005 539.644 385.005C537.06 385.005 534.966 382.911 534.966 380.326C534.966 377.742 537.06 375.648 539.644 375.648ZM548.913 345.949C546.367 348.319 543.594 349.472 540.779 349.472C537.829 349.474 534.877 348.213 532.132 345.77L531.167 344.926L531.102 344.871C530.848 345.549 530.558 346.274 530.256 346.964C529.843 347.904 529.401 348.788 528.974 349.429C533.596 358.8 547.26 359.127 551.689 349.482C550.576 348.355 549.734 347.151 548.913 345.949ZM547.784 313.494C545.549 315.746 543.185 316.394 540.867 316.597C540.184 316.717 539.518 316.8 538.854 316.883C536.631 317.157 534.412 317.431 531.476 319.464C530.089 320.422 529.165 321.582 528.686 322.932C528.195 324.323 528.162 325.947 528.568 327.793C528.605 327.964 528.596 328.141 528.541 328.306C528.487 328.472 528.389 328.619 528.257 328.734C528.126 328.849 527.966 328.926 527.795 328.958C527.623 328.989 527.447 328.974 527.283 328.914L526.158 328.503C525.244 328.183 524.67 328.077 524.396 328.729C524.256 329.797 524.168 331.407 524.45 332.727C524.617 333.51 524.905 334.162 525.378 334.432C525.545 334.526 525.73 334.57 525.927 334.572C526.176 334.576 526.454 334.52 526.749 334.43C526.834 334.404 526.921 334.39 527.011 334.388C527.547 334.377 527.992 334.8 528.004 335.334C528.111 339.734 530.061 341.415 532.436 343.458L533.425 344.317C535.809 346.44 538.32 347.535 540.779 347.535C543.171 347.533 545.561 346.489 547.792 344.337L548.796 343.383C551.287 341.045 553.122 339.32 552.769 335.121C552.755 334.913 552.804 334.698 552.928 334.511C553.07 334.296 553.29 334.146 553.542 334.094C553.794 334.042 554.056 334.092 554.27 334.233C554.432 334.339 554.594 334.426 554.753 334.487L554.795 334.501C554.94 334.554 555.082 334.585 555.212 334.593C555.805 334.625 556.107 333.318 556.381 332.13C556.503 331.604 556.621 331.092 556.775 330.646C556.942 330.012 556.96 329.565 556.871 329.273C556.834 329.151 556.775 329.07 556.702 329.031C556.586 328.968 556.412 328.948 556.205 328.968C555.711 329.013 555.116 329.275 554.556 329.699C554.45 329.779 554.329 329.836 554.201 329.868C554.072 329.899 553.938 329.904 553.807 329.882C553.553 329.838 553.327 329.696 553.178 329.486C553.028 329.276 552.969 329.015 553.011 328.761C553.928 323.421 553.508 319.941 552.371 317.567C551.374 315.488 549.784 314.227 548.06 313.285L547.784 313.494Z" fill="white"/>
</g>
<defs>
<radialGradient id="paint0_radial_236_674" cx="0" cy="0" r="1" gradientUnits="userSpaceOnUse" gradientTransform="translate(540 540) rotate(90) scale(540)">
<stop offset="0.745" stop-color="#EBF7F2" stop-opacity="0"/>
<stop offset="1" stop-color="#EBF7F2"/>
</radialGradient>
<linearGradient id="paint1_linear_236_674" x1="540.5" y1="909.33" x2="540.5" y2="257" gradientUnits="userSpaceOnUse">
<stop stop-color="#38AD7E"/>
<stop offset="1" stop-color="#0E5F66"/>
</linearGradient>
<clipPath id="clip0_236_674">
<rect width="1080" height="1080" fill="white"/>
</clipPath>
</defs>
</svg>
