<svg width="1080" height="1080" viewBox="0 0 1080 1080" fill="none" xmlns="http://www.w3.org/2000/svg">
<g clip-path="url(#clip0_236_674)">
<rect width="1080" height="1080" fill="#EBF7F2"/>
<line y1="26.5" x2="1080" y2="26.5" stroke="#C4C4C4"/>
<line y1="53.5" x2="1080" y2="53.5" stroke="#C4C4C4"/>
<line y1="80.5" x2="1080" y2="80.5" stroke="#C4C4C4"/>
<line y1="107.5" x2="1080" y2="107.5" stroke="#C4C4C4"/>
<line y1="134.5" x2="1080" y2="134.5" stroke="#C4C4C4"/>
<line y1="161.5" x2="1080" y2="161.5" stroke="#C4C4C4"/>
<line y1="188.5" x2="1080" y2="188.5" stroke="#C4C4C4"/>
<line y1="215.5" x2="1080" y2="215.5" stroke="#C4C4C4"/>
<line y1="242.5" x2="1080" y2="242.5" stroke="#C4C4C4"/>
<line y1="269.5" x2="1080" y2="269.5" stroke="#C4C4C4"/>
<line y1="296.5" x2="1080" y2="296.5" stroke="#C4C4C4"/>
<line y1="323.5" x2="1080" y2="323.5" stroke="#C4C4C4"/>
<line y1="350.5" x2="1080" y2="350.5" stroke="#C4C4C4"/>
<line y1="377.5" x2="1080" y2="377.5" stroke="#C4C4C4"/>
<line y1="404.5" x2="1080" y2="404.5" stroke="#C4C4C4"/>
<line y1="431.5" x2="1080" y2="431.5" stroke="#C4C4C4"/>
<line y1="458.5" x2="1080" y2="458.5" stroke="#C4C4C4"/>
<line y1="485.5" x2="1080" y2="485.5" stroke="#C4C4C4"/>
<line y1="512.5" x2="1080" y2="512.5" stroke="#C4C4C4"/>
<line y1="539.5" x2="1080" y2="539.5" stroke="#C4C4C4"/>
<line y1="566.5" x2="1080" y2="566.5" stroke="#C4C4C4"/>
<line y1="593.5" x2="1080" y2="593.5" stroke="#C4C4C4"/>
<line y1="620.5" x2="1080" y2="620.5" stroke="#C4C4C4"/>
<line y1="647.5" x2="1080" y2="647.5" stroke="#C4C4C4"/>
<line y1="674.5" x2="1080" y2="674.5" stroke="#C4C4C4"/>
<line y1="701.5" x2="1080" y2="701.5" stroke="#C4C4C4"/>
<line y1="728.5" x2="1080" y2="728.5" stroke="#C4C4C4"/>
<line y1="755.5" x2="1080" y2="755.5" stroke="#C4C4C4"/>
<line y1="782.5" x2="1080" y2="782.5" stroke="#C4C4C4"/>
<line y1="809.5" x2="1080" y2="809.5" stroke="#C4C4C4"/>
<line y1="836.5" x2="1080" y2="836.5" stroke="#C4C4C4"/>
<line y1="863.5" x2="1080" y2="863.5" stroke="#C4C4C4"/>
<line y1="890.5" x2="1080" y2="890.5" stroke="#C4C4C4"/>
<line y1="917.5" x2="1080" y2="917.5" stroke="#C4C4C4"/>
<line y1="944.5" x2="1080" y2="944.5" stroke="#C4C4C4"/>
<line y1="971.5" x2="1080" y2="971.5" stroke="#C4C4C4"/>
<line y1="998.5" x2="1080" y2="998.5" stroke="#C4C4C4"/>
<line y1="1025.5" x2="1080" y2="1025.5" stroke="#C4C4C4"/>
<line y1="1052.5" x2="1080" y2="1052.5" stroke="#C4C4C4"/>
<line x1="26.5" y1="1080" x2="26.5" stroke="#C4C4C4"/>
<line x1="53.5" y1="1080" x2="53.5" stroke="#C4C4C4"/>
<line x1="80.5" y1="1080" x2="80.5" stroke="#C4C4C4"/>
<line x1="107.5" y1="1080" x2="107.5" stroke="#C4C4C4"/>
<line x1="134.5" y1="1080" x2="134.5" stroke="#C4C4C4"/>
<line x1="161.5" y1="1080" x2="161.5" stroke="#C4C4C4"/>
<line x1="188.5" y1="1080" x2="188.5" stroke="#C4C4C4"/>
<line x1="215.5" y1="1080" x2="215.5" stroke="#C4C4C4"/>
<line x1="242.5" y1="1080" x2="242.5" stroke="#C4C4C4"/>
<line x1="269.5" y1="1080" x2="269.5" stroke="#C4C4C4"/>
<line x1="296.5" y1="1080" x2="296.5" stroke="#C4C4C4"/>
<line x1="323.5" y1="1080" x2="323.5" stroke="#C4C4C4"/>
<line x1="350.5" y1="1080" x2="350.5" stroke="#C4C4C4"/>
<line x1="377.5" y1="1080" x2="377.5" stroke="#C4C4C4"/>
<line x1="404.5" y1="1080" x2="404.5" stroke="#C4C4C4"/>
<line x1="431.5" y1="1080" x2="431.5" stroke="#C4C4C4"/>
<line x1="458.5" y1="1080" x2="458.5" stroke="#C4C4C4"/>
<line x1="485.5" y1="1080" x2="485.5" stroke="#C4C4C4"/>
<line x1="512.5" y1="1080" x2="512.5" stroke="#C4C4C4"/>
<line x1="539.5" y1="1080" x2="539.5" stroke="#C4C4C4"/>
<line x1="566.5" y1="1080" x2="566.5" stroke="#C4C4C4"/>
<line x1="593.5" y1="1080" x2="593.5" stroke="#C4C4C4"/>
<line x1="620.5" y1="1080" x2="620.5" stroke="#C4C4C4"/>
<line x1="647.5" y1="1080" x2="647.5" stroke="#C4C4C4"/>
<line x1="674.5" y1="1080" x2="674.5" stroke="#C4C4C4"/>
<line x1="701.5" y1="1080" x2="701.5" stroke="#C4C4C4"/>
<line x1="728.5" y1="1080" x2="728.5" stroke="#C4C4C4"/>
<line x1="755.5" y1="1080" x2="755.5" stroke="#C4C4C4"/>
<line x1="782.5" y1="1080" x2="782.5" stroke="#C4C4C4"/>
<line x1="809.5" y1="1080" x2="809.5" stroke="#C4C4C4"/>
<line x1="836.5" y1="1080" x2="836.5" stroke="#C4C4C4"/>
<line x1="863.5" y1="1080" x2="863.5" stroke="#C4C4C4"/>
<line x1="890.5" y1="1080" x2="890.5" stroke="#C4C4C4"/>
<line x1="917.5" y1="1080" x2="917.5" stroke="#C4C4C4"/>
<line x1="944.5" y1="1080" x2="944.5" stroke="#C4C4C4"/>
<line x1="971.5" y1="1080" x2="971.5" stroke="#C4C4C4"/>
<line x1="998.5" y1="1080" x2="998.5" stroke="#C4C4C4"/>
<line x1="1025.5" y1="1080" x2="1025.5" stroke="#C4C4C4"/>
<line x1="1052.5" y1="1080" x2="1052.5" stroke="#C4C4C4"/>
<rect width="1080" height="1080" fill="url(#paint0_radial_236_674)"/>
<path d="M191.342 155.2L191.982 153.84C194.302 153.893 196.222 154.267 197.742 154.96C199.262 155.627 200.382 156.547 201.102 157.72C201.822 158.867 202.182 160.187 202.182 161.68C202.182 163.28 201.795 164.707 201.022 165.96C200.275 167.213 199.169 168.2 197.702 168.92C196.235 169.64 194.395 170 192.182 170H171.142L173.462 154.6L171.142 140H191.422C194.195 140 196.342 140.653 197.862 141.96C199.409 143.24 200.182 145.013 200.182 147.28C200.182 148.507 199.889 149.693 199.302 150.84C198.742 151.987 197.809 152.96 196.502 153.76C195.222 154.533 193.502 155.013 191.342 155.2ZM177.862 168.28L175.262 165H190.782C192.222 165 193.329 164.667 194.102 164C194.902 163.307 195.302 162.347 195.302 161.12C195.302 159.867 194.849 158.88 193.942 158.16C193.035 157.413 191.702 157.04 189.942 157.04H177.302V152.16H189.142C190.342 152.16 191.329 151.827 192.102 151.16C192.902 150.467 193.302 149.507 193.302 148.28C193.302 147.347 192.969 146.573 192.302 145.96C191.635 145.32 190.675 145 189.422 145H175.262L177.862 141.72L179.982 154.6L177.862 168.28ZM214.311 140V167L211.231 164H233.751V170H207.511V140H214.311ZM252.828 170.6C249.334 170.6 246.268 169.947 243.628 168.64C241.014 167.333 238.974 165.52 237.508 163.2C236.041 160.853 235.308 158.12 235.308 155C235.308 151.88 236.041 149.16 237.508 146.84C238.974 144.493 241.014 142.667 243.628 141.36C246.268 140.053 249.334 139.4 252.828 139.4C256.321 139.4 259.374 140.053 261.988 141.36C264.628 142.667 266.681 144.493 268.148 146.84C269.614 149.16 270.348 151.88 270.348 155C270.348 158.12 269.614 160.853 268.148 163.2C266.681 165.52 264.628 167.333 261.988 168.64C259.374 169.947 256.321 170.6 252.828 170.6ZM252.828 164.56C255.014 164.56 256.894 164.173 258.468 163.4C260.068 162.627 261.294 161.52 262.148 160.08C263.028 158.64 263.468 156.947 263.468 155C263.468 153.053 263.028 151.36 262.148 149.92C261.294 148.48 260.068 147.373 258.468 146.6C256.894 145.827 255.014 145.44 252.828 145.44C250.668 145.44 248.788 145.827 247.188 146.6C245.588 147.373 244.348 148.48 243.468 149.92C242.614 151.36 242.188 153.053 242.188 155C242.188 156.947 242.614 158.64 243.468 160.08C244.348 161.52 245.588 162.627 247.188 163.4C248.788 164.173 250.668 164.56 252.828 164.56ZM308.31 157.8C308.017 160.333 307.123 162.573 305.63 164.52C304.163 166.44 302.217 167.933 299.79 169C297.39 170.067 294.643 170.6 291.55 170.6C288.137 170.6 285.137 169.947 282.55 168.64C279.99 167.333 277.99 165.52 276.55 163.2C275.11 160.853 274.39 158.12 274.39 155C274.39 151.88 275.11 149.16 276.55 146.84C277.99 144.493 279.99 142.667 282.55 141.36C285.137 140.053 288.137 139.4 291.55 139.4C294.643 139.4 297.39 139.933 299.79 141C302.217 142.067 304.163 143.56 305.63 145.48C307.123 147.4 308.017 149.64 308.31 152.2H301.47C301.203 150.787 300.63 149.573 299.75 148.56C298.87 147.52 297.737 146.72 296.35 146.16C294.963 145.6 293.35 145.32 291.51 145.32C289.403 145.32 287.577 145.72 286.03 146.52C284.51 147.293 283.337 148.413 282.51 149.88C281.683 151.32 281.27 153.027 281.27 155C281.27 156.973 281.683 158.693 282.51 160.16C283.337 161.6 284.51 162.72 286.03 163.52C287.577 164.293 289.403 164.68 291.51 164.68C293.35 164.68 294.963 164.413 296.35 163.88C297.737 163.32 298.87 162.533 299.75 161.52C300.63 160.48 301.203 159.24 301.47 157.8H308.31ZM313.544 170V140H320.304V164.48L318.384 163.12L336.944 140H344.184L319.664 170H313.544ZM327.864 155.32L332.744 150.96L344.624 170H336.864L327.864 155.32ZM378.973 157.8C378.679 160.333 377.786 162.573 376.293 164.52C374.826 166.44 372.879 167.933 370.453 169C368.053 170.067 365.306 170.6 362.213 170.6C358.799 170.6 355.799 169.947 353.213 168.64C350.653 167.333 348.653 165.52 347.213 163.2C345.773 160.853 345.053 158.12 345.053 155C345.053 151.88 345.773 149.16 347.213 146.84C348.653 144.493 350.653 142.667 353.213 141.36C355.799 140.053 358.799 139.4 362.213 139.4C365.306 139.4 368.053 139.933 370.453 141C372.879 142.067 374.826 143.56 376.293 145.48C377.786 147.4 378.679 149.64 378.973 152.2H372.133C371.866 150.787 371.293 149.573 370.413 148.56C369.533 147.52 368.399 146.72 367.013 146.16C365.626 145.6 364.013 145.32 362.173 145.32C360.066 145.32 358.239 145.72 356.693 146.52C355.173 147.293 353.999 148.413 353.173 149.88C352.346 151.32 351.933 153.027 351.933 155C351.933 156.973 352.346 158.693 353.173 160.16C353.999 161.6 355.173 162.72 356.693 163.52C358.239 164.293 360.066 164.68 362.173 164.68C364.013 164.68 365.626 164.413 367.013 163.88C368.399 163.32 369.533 162.533 370.413 161.52C371.293 160.48 371.866 159.24 372.133 157.8H378.973ZM384.207 140H391.007V170H384.207V140ZM408.207 140H415.007V170H408.207V140ZM387.927 151.84H411.207V157.8H387.927V151.84ZM426.88 163.68V158.16H447.68V163.68H426.88ZM441.8 140L455.84 170H448.6L436.32 142.76H438.56L426.28 170H419.04L433.08 140H441.8ZM459.869 140H466.669V170H459.869V140ZM501.399 165.52L499.039 165.88V140H505.639V170H497.039L477.839 144.12L480.159 143.76V170H473.599V140H482.399L501.399 165.52ZM537.837 140C541.331 140 544.384 140.627 546.997 141.88C549.637 143.133 551.691 144.88 553.157 147.12C554.624 149.36 555.357 151.987 555.357 155C555.357 157.987 554.624 160.613 553.157 162.88C551.691 165.12 549.637 166.867 546.997 168.12C544.384 169.373 541.331 170 537.837 170H523.597V140H537.837ZM530.357 167.32L526.917 164H538.357C540.384 164 542.157 163.627 543.677 162.88C545.224 162.133 546.411 161.08 547.237 159.72C548.064 158.36 548.477 156.787 548.477 155C548.477 153.187 548.064 151.613 547.237 150.28C546.411 148.92 545.224 147.867 543.677 147.12C542.157 146.373 540.384 146 538.357 146H526.917L530.357 142.68V167.32ZM585.33 152.4V157.6H563.85V152.4H585.33ZM568.41 155L566.41 167.72L563.45 164.36H586.57V170H559.57L561.89 155L559.57 140H586.37V145.64H563.45L566.41 142.28L568.41 155ZM608.558 167H605.558L617.798 140H624.998L610.758 170H603.118L588.918 140H596.198L608.558 167ZM653.844 152.4V157.6H632.364V152.4H653.844ZM636.924 155L634.924 167.72L631.964 164.36H655.084V170H628.084L630.404 155L628.084 140H654.884V145.64H631.964L634.924 142.28L636.924 155ZM667.855 140V167L664.775 164H687.295V170H661.055V140H667.855ZM706.372 170.6C702.878 170.6 699.812 169.947 697.172 168.64C694.558 167.333 692.518 165.52 691.052 163.2C689.585 160.853 688.852 158.12 688.852 155C688.852 151.88 689.585 149.16 691.052 146.84C692.518 144.493 694.558 142.667 697.172 141.36C699.812 140.053 702.878 139.4 706.372 139.4C709.865 139.4 712.918 140.053 715.532 141.36C718.172 142.667 720.225 144.493 721.692 146.84C723.158 149.16 723.892 151.88 723.892 155C723.892 158.12 723.158 160.853 721.692 163.2C720.225 165.52 718.172 167.333 715.532 168.64C712.918 169.947 709.865 170.6 706.372 170.6ZM706.372 164.56C708.558 164.56 710.438 164.173 712.012 163.4C713.612 162.627 714.838 161.52 715.692 160.08C716.572 158.64 717.012 156.947 717.012 155C717.012 153.053 716.572 151.36 715.692 149.92C714.838 148.48 713.612 147.373 712.012 146.6C710.438 145.827 708.558 145.44 706.372 145.44C704.212 145.44 702.332 145.827 700.732 146.6C699.132 147.373 697.892 148.48 697.012 149.92C696.158 151.36 695.732 153.053 695.732 155C695.732 156.947 696.158 158.64 697.012 160.08C697.892 161.52 699.132 162.627 700.732 163.4C702.332 164.173 704.212 164.56 706.372 164.56ZM745.734 140C748.107 140 750.16 140.413 751.894 141.24C753.627 142.067 754.947 143.227 755.854 144.72C756.787 146.213 757.254 147.947 757.254 149.92C757.254 151.893 756.787 153.627 755.854 155.12C754.947 156.587 753.627 157.747 751.894 158.6C750.16 159.427 748.107 159.84 745.734 159.84H732.494V154.24H745.374C746.947 154.24 748.174 153.853 749.054 153.08C749.96 152.307 750.414 151.253 750.414 149.92C750.414 148.56 749.96 147.507 749.054 146.76C748.174 145.987 746.947 145.6 745.374 145.6H733.094L736.174 142.36V170H729.374V140H745.734ZM804.13 140V170H797.65V142.28L799.37 142.4L786.57 170H779.57L766.77 142.48L768.45 142.32V170H762.01V140H772.45L784.53 166.72H781.61L793.69 140H804.13ZM835.852 152.4V157.6H814.372V152.4H835.852ZM818.932 155L816.932 167.72L813.972 164.36H837.092V170H810.092L812.412 155L810.092 140H836.892V145.64H813.972L816.932 142.28L818.932 155ZM870.863 165.52L868.503 165.88V140H875.103V170H866.503L847.303 144.12L849.623 143.76V170H843.063V140H851.863L870.863 165.52ZM891.587 143.04H898.347V170H891.587V143.04ZM879.627 140H910.267V146H879.627V140Z" fill="#0E5F66"/>
<path d="M750.89 395.26L602.541 246.572C594.687 238.481 585.288 232.049 574.901 227.656C564.514 223.263 553.351 221 542.072 221C530.794 221 519.63 223.263 509.243 227.656C498.856 232.049 489.457 238.481 481.604 246.572L332.851 395.26L541.266 499.221L750.89 395.26ZM807.811 455.3L837.239 484.715C845.384 492.536 851.865 501.921 856.291 512.308C860.718 522.694 863 533.867 863 545.157C863 556.447 860.718 567.62 856.291 578.006C851.865 588.393 845.384 597.778 837.239 605.599L600.176 844.897C594.557 850.642 588.017 855.409 580.826 859V568.931L807.811 455.3ZM273.189 455.3L243.761 484.715C235.616 492.536 229.135 501.921 224.709 512.308C220.282 522.694 218 533.867 218 545.157C218 556.447 220.282 567.62 224.709 578.006C229.135 588.393 235.616 597.778 243.761 605.599L480.851 844.897C486.495 850.646 493.025 855.427 500.201 859V568.931L273.189 455.3Z" fill="url(#paint1_linear_236_674)"/>
<path fill-rule="evenodd" clip-rule="evenodd" d="M508.28 290.697C523.459 271.941 540.953 261.74 554.09 278.425C569.187 279.216 575.658 302.132 565.274 313.432C566.019 313.423 566.719 313.576 567.327 313.909C568.121 314.342 568.722 315.045 569.025 316.041C569.327 317.021 569.327 318.292 568.899 319.871L568.847 320.026C568.658 320.585 568.493 321.294 568.325 322.024C567.629 325.041 566.862 328.358 563.423 328.175C563.24 328.163 563.06 328.144 562.877 328.114C562.751 334.351 559.703 337.221 555.717 340.969C556.786 342.53 557.858 344.103 559.144 345.556L559.147 345.55C565.891 351.622 583.272 352.838 590.697 356.982C593.046 358.289 595.169 359.957 596.876 362.211C597.123 362.535 597.355 362.861 597.578 363.188C597.413 363.176 597.258 363.17 597.117 363.17H483.403C483.62 362.849 483.849 362.529 484.09 362.211C485.798 359.957 487.92 358.289 490.269 356.982C497.462 352.969 513.823 351.701 521.141 346.115C521.596 345.336 522.069 344.353 522.528 343.312C523.12 341.955 523.676 340.517 524.134 339.268C521.233 336.58 519.003 333.676 518.499 328.135L518.154 328.141C517.348 328.129 516.575 327.946 515.851 327.534C514.248 326.623 513.374 324.886 512.953 322.903C512.412 320.384 512.592 317.397 512.852 315.509C512.87 315.378 512.904 315.256 512.953 315.14C513.512 313.573 514.217 312.727 515.1 312.366C514.7 304.881 515.964 293.021 508.28 290.697ZM482.884 366.969H597.117C600.022 366.969 602.392 369.694 601.946 373.017L595.633 420.177C595.199 423.472 592.912 426.224 589.586 426.224H490.416C487.09 426.224 484.808 423.472 484.368 420.177L478.052 373.017C477.616 369.691 479.976 366.969 482.884 366.969ZM539.448 388.804C543.452 388.804 546.701 392.05 546.701 396.055C546.701 400.062 543.452 403.308 539.448 403.308C535.444 403.308 532.197 400.062 532.197 396.055C532.197 392.05 535.444 388.804 539.448 388.804ZM553.815 342.771C549.869 346.445 545.571 348.232 541.207 348.232C536.635 348.235 532.06 346.28 527.805 342.493L526.309 341.186L526.208 341.1C525.814 342.151 525.365 343.275 524.898 344.344C524.256 345.801 523.572 347.172 522.909 348.165C530.074 362.69 551.252 363.197 558.118 348.247C556.392 346.5 555.088 344.634 553.815 342.771ZM552.065 292.465C548.601 295.956 544.936 296.961 541.344 297.276C540.285 297.462 539.252 297.59 538.223 297.718C534.778 298.143 531.339 298.568 526.788 301.719C524.638 303.204 523.206 305.003 522.463 307.095C521.703 309.251 521.651 311.768 522.28 314.63C522.338 314.893 522.324 315.168 522.239 315.425C522.154 315.681 522.002 315.91 521.799 316.088C521.595 316.265 521.348 316.385 521.082 316.434C520.816 316.483 520.542 316.46 520.289 316.367L518.545 315.729C517.128 315.234 516.239 315.069 515.814 316.08C515.598 317.736 515.46 320.231 515.897 322.277C516.156 323.49 516.602 324.501 517.335 324.919C517.595 325.066 517.882 325.133 518.187 325.136C518.572 325.142 519.003 325.057 519.461 324.916C519.592 324.876 519.727 324.855 519.867 324.852C520.698 324.834 521.388 325.49 521.407 326.318C521.572 333.138 524.595 335.743 528.276 338.91L529.809 340.242C533.504 343.531 537.395 345.23 541.207 345.23C544.915 345.227 548.62 343.608 552.077 340.273L553.635 338.794C557.495 335.169 560.338 332.497 559.792 325.988C559.77 325.664 559.847 325.331 560.039 325.041C560.258 324.708 560.6 324.476 560.99 324.395C561.38 324.315 561.786 324.392 562.119 324.611C562.37 324.776 562.62 324.91 562.867 325.005L562.932 325.026C563.158 325.109 563.377 325.157 563.579 325.17C564.498 325.218 564.966 323.194 565.39 321.352C565.579 320.536 565.763 319.742 566.001 319.052C566.261 318.069 566.288 317.375 566.151 316.923C566.093 316.734 566.001 316.609 565.888 316.548C565.708 316.45 565.439 316.419 565.118 316.45C564.352 316.52 563.429 316.926 562.562 317.583C562.398 317.707 562.211 317.796 562.011 317.845C561.811 317.894 561.604 317.902 561.401 317.867C561.008 317.8 560.657 317.579 560.425 317.253C560.194 316.927 560.101 316.523 560.167 316.129C561.588 307.852 560.937 302.459 559.175 298.778C557.629 295.556 555.165 293.601 552.492 292.142L552.065 292.465Z" fill="white"/>
</g>
<defs>
<radialGradient id="paint0_radial_236_674" cx="0" cy="0" r="1" gradientUnits="userSpaceOnUse" gradientTransform="translate(540 540) rotate(90) scale(540)">
<stop offset="0.745" stop-color="#EBF7F2" stop-opacity="0"/>
<stop offset="1" stop-color="#EBF7F2"/>
</radialGradient>
<linearGradient id="paint1_linear_236_674" x1="540.5" y1="221" x2="540.5" y2="859" gradientUnits="userSpaceOnUse">
<stop stop-color="#0E5F66"/>
<stop offset="1" stop-color="#38AD7E"/>
</linearGradient>
<clipPath id="clip0_236_674">
<rect width="1080" height="1080" fill="white"/>
</clipPath>
</defs>
</svg>
