<svg width="1080" height="1080" viewBox="0 0 1080 1080" fill="none" xmlns="http://www.w3.org/2000/svg">
<g clip-path="url(#clip0_236_585)">
<rect width="1080" height="1080" fill="white"/>
<line y1="26.5" x2="1080" y2="26.5" stroke="#C4C4C4"/>
<line y1="53.5" x2="1080" y2="53.5" stroke="#C4C4C4"/>
<line y1="80.5" x2="1080" y2="80.5" stroke="#C4C4C4"/>
<line y1="107.5" x2="1080" y2="107.5" stroke="#C4C4C4"/>
<line y1="134.5" x2="1080" y2="134.5" stroke="#C4C4C4"/>
<line y1="161.5" x2="1080" y2="161.5" stroke="#C4C4C4"/>
<line y1="188.5" x2="1080" y2="188.5" stroke="#C4C4C4"/>
<line y1="215.5" x2="1080" y2="215.5" stroke="#C4C4C4"/>
<line y1="242.5" x2="1080" y2="242.5" stroke="#C4C4C4"/>
<line y1="269.5" x2="1080" y2="269.5" stroke="#C4C4C4"/>
<line y1="296.5" x2="1080" y2="296.5" stroke="#C4C4C4"/>
<line y1="323.5" x2="1080" y2="323.5" stroke="#C4C4C4"/>
<line y1="350.5" x2="1080" y2="350.5" stroke="#C4C4C4"/>
<line y1="377.5" x2="1080" y2="377.5" stroke="#C4C4C4"/>
<line y1="404.5" x2="1080" y2="404.5" stroke="#C4C4C4"/>
<line y1="431.5" x2="1080" y2="431.5" stroke="#C4C4C4"/>
<line y1="458.5" x2="1080" y2="458.5" stroke="#C4C4C4"/>
<line y1="485.5" x2="1080" y2="485.5" stroke="#C4C4C4"/>
<line y1="512.5" x2="1080" y2="512.5" stroke="#C4C4C4"/>
<line y1="539.5" x2="1080" y2="539.5" stroke="#C4C4C4"/>
<line y1="566.5" x2="1080" y2="566.5" stroke="#C4C4C4"/>
<line y1="593.5" x2="1080" y2="593.5" stroke="#C4C4C4"/>
<line y1="620.5" x2="1080" y2="620.5" stroke="#C4C4C4"/>
<line y1="647.5" x2="1080" y2="647.5" stroke="#C4C4C4"/>
<line y1="674.5" x2="1080" y2="674.5" stroke="#C4C4C4"/>
<line y1="701.5" x2="1080" y2="701.5" stroke="#C4C4C4"/>
<line y1="728.5" x2="1080" y2="728.5" stroke="#C4C4C4"/>
<line y1="755.5" x2="1080" y2="755.5" stroke="#C4C4C4"/>
<line y1="782.5" x2="1080" y2="782.5" stroke="#C4C4C4"/>
<line y1="809.5" x2="1080" y2="809.5" stroke="#C4C4C4"/>
<line y1="836.5" x2="1080" y2="836.5" stroke="#C4C4C4"/>
<line y1="863.5" x2="1080" y2="863.5" stroke="#C4C4C4"/>
<line y1="890.5" x2="1080" y2="890.5" stroke="#C4C4C4"/>
<line y1="917.5" x2="1080" y2="917.5" stroke="#C4C4C4"/>
<line y1="944.5" x2="1080" y2="944.5" stroke="#C4C4C4"/>
<line y1="971.5" x2="1080" y2="971.5" stroke="#C4C4C4"/>
<line y1="998.5" x2="1080" y2="998.5" stroke="#C4C4C4"/>
<line y1="1025.5" x2="1080" y2="1025.5" stroke="#C4C4C4"/>
<line y1="1052.5" x2="1080" y2="1052.5" stroke="#C4C4C4"/>
<line x1="26.5" y1="1080" x2="26.5" stroke="#C4C4C4"/>
<line x1="53.5" y1="1080" x2="53.5" stroke="#C4C4C4"/>
<line x1="80.5" y1="1080" x2="80.5" stroke="#C4C4C4"/>
<line x1="107.5" y1="1080" x2="107.5" stroke="#C4C4C4"/>
<line x1="134.5" y1="1080" x2="134.5" stroke="#C4C4C4"/>
<line x1="161.5" y1="1080" x2="161.5" stroke="#C4C4C4"/>
<line x1="188.5" y1="1080" x2="188.5" stroke="#C4C4C4"/>
<line x1="215.5" y1="1080" x2="215.5" stroke="#C4C4C4"/>
<line x1="242.5" y1="1080" x2="242.5" stroke="#C4C4C4"/>
<line x1="269.5" y1="1080" x2="269.5" stroke="#C4C4C4"/>
<line x1="296.5" y1="1080" x2="296.5" stroke="#C4C4C4"/>
<line x1="323.5" y1="1080" x2="323.5" stroke="#C4C4C4"/>
<line x1="350.5" y1="1080" x2="350.5" stroke="#C4C4C4"/>
<line x1="377.5" y1="1080" x2="377.5" stroke="#C4C4C4"/>
<line x1="404.5" y1="1080" x2="404.5" stroke="#C4C4C4"/>
<line x1="431.5" y1="1080" x2="431.5" stroke="#C4C4C4"/>
<line x1="458.5" y1="1080" x2="458.5" stroke="#C4C4C4"/>
<line x1="485.5" y1="1080" x2="485.5" stroke="#C4C4C4"/>
<line x1="512.5" y1="1080" x2="512.5" stroke="#C4C4C4"/>
<line x1="539.5" y1="1080" x2="539.5" stroke="#C4C4C4"/>
<line x1="566.5" y1="1080" x2="566.5" stroke="#C4C4C4"/>
<line x1="593.5" y1="1080" x2="593.5" stroke="#C4C4C4"/>
<line x1="620.5" y1="1080" x2="620.5" stroke="#C4C4C4"/>
<line x1="647.5" y1="1080" x2="647.5" stroke="#C4C4C4"/>
<line x1="674.5" y1="1080" x2="674.5" stroke="#C4C4C4"/>
<line x1="701.5" y1="1080" x2="701.5" stroke="#C4C4C4"/>
<line x1="728.5" y1="1080" x2="728.5" stroke="#C4C4C4"/>
<line x1="755.5" y1="1080" x2="755.5" stroke="#C4C4C4"/>
<line x1="782.5" y1="1080" x2="782.5" stroke="#C4C4C4"/>
<line x1="809.5" y1="1080" x2="809.5" stroke="#C4C4C4"/>
<line x1="836.5" y1="1080" x2="836.5" stroke="#C4C4C4"/>
<line x1="863.5" y1="1080" x2="863.5" stroke="#C4C4C4"/>
<line x1="890.5" y1="1080" x2="890.5" stroke="#C4C4C4"/>
<line x1="917.5" y1="1080" x2="917.5" stroke="#C4C4C4"/>
<line x1="944.5" y1="1080" x2="944.5" stroke="#C4C4C4"/>
<line x1="971.5" y1="1080" x2="971.5" stroke="#C4C4C4"/>
<line x1="998.5" y1="1080" x2="998.5" stroke="#C4C4C4"/>
<line x1="1025.5" y1="1080" x2="1025.5" stroke="#C4C4C4"/>
<line x1="1052.5" y1="1080" x2="1052.5" stroke="#C4C4C4"/>
<rect width="1080" height="1080" fill="url(#paint0_radial_236_585)"/>
<path d="M191.342 201.2L191.982 199.84C194.302 199.893 196.222 200.267 197.742 200.96C199.262 201.627 200.382 202.547 201.102 203.72C201.822 204.867 202.182 206.187 202.182 207.68C202.182 209.28 201.795 210.707 201.022 211.96C200.275 213.213 199.169 214.2 197.702 214.92C196.235 215.64 194.395 216 192.182 216H171.142L173.462 200.6L171.142 186H191.422C194.195 186 196.342 186.653 197.862 187.96C199.409 189.24 200.182 191.013 200.182 193.28C200.182 194.507 199.889 195.693 199.302 196.84C198.742 197.987 197.809 198.96 196.502 199.76C195.222 200.533 193.502 201.013 191.342 201.2ZM177.862 214.28L175.262 211H190.782C192.222 211 193.329 210.667 194.102 210C194.902 209.307 195.302 208.347 195.302 207.12C195.302 205.867 194.849 204.88 193.942 204.16C193.035 203.413 191.702 203.04 189.942 203.04H177.302V198.16H189.142C190.342 198.16 191.329 197.827 192.102 197.16C192.902 196.467 193.302 195.507 193.302 194.28C193.302 193.347 192.969 192.573 192.302 191.96C191.635 191.32 190.675 191 189.422 191H175.262L177.862 187.72L179.982 200.6L177.862 214.28ZM214.311 186V213L211.231 210H233.751V216H207.511V186H214.311ZM252.828 216.6C249.334 216.6 246.268 215.947 243.628 214.64C241.014 213.333 238.974 211.52 237.508 209.2C236.041 206.853 235.308 204.12 235.308 201C235.308 197.88 236.041 195.16 237.508 192.84C238.974 190.493 241.014 188.667 243.628 187.36C246.268 186.053 249.334 185.4 252.828 185.4C256.321 185.4 259.374 186.053 261.988 187.36C264.628 188.667 266.681 190.493 268.148 192.84C269.614 195.16 270.348 197.88 270.348 201C270.348 204.12 269.614 206.853 268.148 209.2C266.681 211.52 264.628 213.333 261.988 214.64C259.374 215.947 256.321 216.6 252.828 216.6ZM252.828 210.56C255.014 210.56 256.894 210.173 258.468 209.4C260.068 208.627 261.294 207.52 262.148 206.08C263.028 204.64 263.468 202.947 263.468 201C263.468 199.053 263.028 197.36 262.148 195.92C261.294 194.48 260.068 193.373 258.468 192.6C256.894 191.827 255.014 191.44 252.828 191.44C250.668 191.44 248.788 191.827 247.188 192.6C245.588 193.373 244.348 194.48 243.468 195.92C242.614 197.36 242.188 199.053 242.188 201C242.188 202.947 242.614 204.64 243.468 206.08C244.348 207.52 245.588 208.627 247.188 209.4C248.788 210.173 250.668 210.56 252.828 210.56ZM308.31 203.8C308.017 206.333 307.123 208.573 305.63 210.52C304.163 212.44 302.217 213.933 299.79 215C297.39 216.067 294.643 216.6 291.55 216.6C288.137 216.6 285.137 215.947 282.55 214.64C279.99 213.333 277.99 211.52 276.55 209.2C275.11 206.853 274.39 204.12 274.39 201C274.39 197.88 275.11 195.16 276.55 192.84C277.99 190.493 279.99 188.667 282.55 187.36C285.137 186.053 288.137 185.4 291.55 185.4C294.643 185.4 297.39 185.933 299.79 187C302.217 188.067 304.163 189.56 305.63 191.48C307.123 193.4 308.017 195.64 308.31 198.2H301.47C301.203 196.787 300.63 195.573 299.75 194.56C298.87 193.52 297.737 192.72 296.35 192.16C294.963 191.6 293.35 191.32 291.51 191.32C289.403 191.32 287.577 191.72 286.03 192.52C284.51 193.293 283.337 194.413 282.51 195.88C281.683 197.32 281.27 199.027 281.27 201C281.27 202.973 281.683 204.693 282.51 206.16C283.337 207.6 284.51 208.72 286.03 209.52C287.577 210.293 289.403 210.68 291.51 210.68C293.35 210.68 294.963 210.413 296.35 209.88C297.737 209.32 298.87 208.533 299.75 207.52C300.63 206.48 301.203 205.24 301.47 203.8H308.31ZM313.544 216V186H320.304V210.48L318.384 209.12L336.944 186H344.184L319.664 216H313.544ZM327.864 201.32L332.744 196.96L344.624 216H336.864L327.864 201.32ZM378.973 203.8C378.679 206.333 377.786 208.573 376.293 210.52C374.826 212.44 372.879 213.933 370.453 215C368.053 216.067 365.306 216.6 362.213 216.6C358.799 216.6 355.799 215.947 353.213 214.64C350.653 213.333 348.653 211.52 347.213 209.2C345.773 206.853 345.053 204.12 345.053 201C345.053 197.88 345.773 195.16 347.213 192.84C348.653 190.493 350.653 188.667 353.213 187.36C355.799 186.053 358.799 185.4 362.213 185.4C365.306 185.4 368.053 185.933 370.453 187C372.879 188.067 374.826 189.56 376.293 191.48C377.786 193.4 378.679 195.64 378.973 198.2H372.133C371.866 196.787 371.293 195.573 370.413 194.56C369.533 193.52 368.399 192.72 367.013 192.16C365.626 191.6 364.013 191.32 362.173 191.32C360.066 191.32 358.239 191.72 356.693 192.52C355.173 193.293 353.999 194.413 353.173 195.88C352.346 197.32 351.933 199.027 351.933 201C351.933 202.973 352.346 204.693 353.173 206.16C353.999 207.6 355.173 208.72 356.693 209.52C358.239 210.293 360.066 210.68 362.173 210.68C364.013 210.68 365.626 210.413 367.013 209.88C368.399 209.32 369.533 208.533 370.413 207.52C371.293 206.48 371.866 205.24 372.133 203.8H378.973ZM384.207 186H391.007V216H384.207V186ZM408.207 186H415.007V216H408.207V186ZM387.927 197.84H411.207V203.8H387.927V197.84ZM426.88 209.68V204.16H447.68V209.68H426.88ZM441.8 186L455.84 216H448.6L436.32 188.76H438.56L426.28 216H419.04L433.08 186H441.8ZM459.869 186H466.669V216H459.869V186ZM501.399 211.52L499.039 211.88V186H505.639V216H497.039L477.839 190.12L480.159 189.76V216H473.599V186H482.399L501.399 211.52ZM537.837 186C541.331 186 544.384 186.627 546.997 187.88C549.637 189.133 551.691 190.88 553.157 193.12C554.624 195.36 555.357 197.987 555.357 201C555.357 203.987 554.624 206.613 553.157 208.88C551.691 211.12 549.637 212.867 546.997 214.12C544.384 215.373 541.331 216 537.837 216H523.597V186H537.837ZM530.357 213.32L526.917 210H538.357C540.384 210 542.157 209.627 543.677 208.88C545.224 208.133 546.411 207.08 547.237 205.72C548.064 204.36 548.477 202.787 548.477 201C548.477 199.187 548.064 197.613 547.237 196.28C546.411 194.92 545.224 193.867 543.677 193.12C542.157 192.373 540.384 192 538.357 192H526.917L530.357 188.68V213.32ZM585.33 198.4V203.6H563.85V198.4H585.33ZM568.41 201L566.41 213.72L563.45 210.36H586.57V216H559.57L561.89 201L559.57 186H586.37V191.64H563.45L566.41 188.28L568.41 201ZM608.558 213H605.558L617.798 186H624.998L610.758 216H603.118L588.918 186H596.198L608.558 213ZM653.844 198.4V203.6H632.364V198.4H653.844ZM636.924 201L634.924 213.72L631.964 210.36H655.084V216H628.084L630.404 201L628.084 186H654.884V191.64H631.964L634.924 188.28L636.924 201ZM667.855 186V213L664.775 210H687.295V216H661.055V186H667.855ZM706.372 216.6C702.878 216.6 699.812 215.947 697.172 214.64C694.558 213.333 692.518 211.52 691.052 209.2C689.585 206.853 688.852 204.12 688.852 201C688.852 197.88 689.585 195.16 691.052 192.84C692.518 190.493 694.558 188.667 697.172 187.36C699.812 186.053 702.878 185.4 706.372 185.4C709.865 185.4 712.918 186.053 715.532 187.36C718.172 188.667 720.225 190.493 721.692 192.84C723.158 195.16 723.892 197.88 723.892 201C723.892 204.12 723.158 206.853 721.692 209.2C720.225 211.52 718.172 213.333 715.532 214.64C712.918 215.947 709.865 216.6 706.372 216.6ZM706.372 210.56C708.558 210.56 710.438 210.173 712.012 209.4C713.612 208.627 714.838 207.52 715.692 206.08C716.572 204.64 717.012 202.947 717.012 201C717.012 199.053 716.572 197.36 715.692 195.92C714.838 194.48 713.612 193.373 712.012 192.6C710.438 191.827 708.558 191.44 706.372 191.44C704.212 191.44 702.332 191.827 700.732 192.6C699.132 193.373 697.892 194.48 697.012 195.92C696.158 197.36 695.732 199.053 695.732 201C695.732 202.947 696.158 204.64 697.012 206.08C697.892 207.52 699.132 208.627 700.732 209.4C702.332 210.173 704.212 210.56 706.372 210.56ZM745.734 186C748.107 186 750.16 186.413 751.894 187.24C753.627 188.067 754.947 189.227 755.854 190.72C756.787 192.213 757.254 193.947 757.254 195.92C757.254 197.893 756.787 199.627 755.854 201.12C754.947 202.587 753.627 203.747 751.894 204.6C750.16 205.427 748.107 205.84 745.734 205.84H732.494V200.24H745.374C746.947 200.24 748.174 199.853 749.054 199.08C749.96 198.307 750.414 197.253 750.414 195.92C750.414 194.56 749.96 193.507 749.054 192.76C748.174 191.987 746.947 191.6 745.374 191.6H733.094L736.174 188.36V216H729.374V186H745.734ZM804.13 186V216H797.65V188.28L799.37 188.4L786.57 216H779.57L766.77 188.48L768.45 188.32V216H762.01V186H772.45L784.53 212.72H781.61L793.69 186H804.13ZM835.852 198.4V203.6H814.372V198.4H835.852ZM818.932 201L816.932 213.72L813.972 210.36H837.092V216H810.092L812.412 201L810.092 186H836.892V191.64H813.972L816.932 188.28L818.932 201ZM870.863 211.52L868.503 211.88V186H875.103V216H866.503L847.303 190.12L849.623 189.76V216H843.063V186H851.863L870.863 211.52ZM891.587 189.04H898.347V216H891.587V189.04ZM879.627 186H910.267V192H879.627V186Z" fill="#0E5F66"/>
<path d="M750.89 441.26L602.541 292.572C594.687 284.481 585.288 278.049 574.901 273.656C564.514 269.263 553.351 267 542.072 267C530.794 267 519.63 269.263 509.243 273.656C498.856 278.049 489.457 284.481 481.604 292.572L332.851 441.26L541.266 545.221L750.89 441.26ZM807.811 501.3L837.239 530.715C845.384 538.536 851.865 547.921 856.292 558.308C860.718 568.694 863 579.867 863 591.157C863 602.447 860.718 613.62 856.292 624.006C851.865 634.393 845.384 643.778 837.239 651.599L600.176 890.897C594.557 896.642 588.017 901.409 580.826 905V614.931L807.811 501.3ZM273.189 501.3L243.761 530.715C235.616 538.536 229.135 547.921 224.709 558.308C220.282 568.694 218 579.867 218 591.157C218 602.447 220.282 613.62 224.709 624.006C229.135 634.393 235.616 643.778 243.761 651.599L480.851 890.897C486.495 896.646 493.025 901.427 500.201 905V614.931L273.189 501.3Z" fill="url(#paint1_linear_236_585)"/>
<path fill-rule="evenodd" clip-rule="evenodd" d="M508.28 336.697C523.459 317.941 540.953 307.74 554.09 324.425C569.187 325.216 575.658 348.132 565.274 359.432C566.019 359.423 566.719 359.576 567.326 359.909C568.121 360.342 568.722 361.045 569.025 362.041C569.327 363.021 569.327 364.292 568.899 365.871L568.847 366.026C568.658 366.585 568.493 367.294 568.325 368.024C567.629 371.041 566.862 374.358 563.423 374.175C563.24 374.163 563.06 374.144 562.877 374.114C562.751 380.351 559.703 383.221 555.717 386.969C556.786 388.53 557.858 390.103 559.144 391.556L559.147 391.55C565.891 397.622 583.272 398.838 590.697 402.982C593.046 404.289 595.169 405.957 596.876 408.211C597.123 408.535 597.355 408.861 597.578 409.188C597.413 409.176 597.258 409.17 597.117 409.17H483.403C483.62 408.849 483.849 408.529 484.09 408.211C485.798 405.957 487.92 404.289 490.269 402.982C497.462 398.969 513.823 397.701 521.141 392.115C521.596 391.336 522.069 390.353 522.528 389.312C523.12 387.955 523.676 386.517 524.134 385.268C521.233 382.58 519.003 379.676 518.499 374.135L518.154 374.141C517.348 374.129 516.575 373.946 515.851 373.534C514.248 372.623 513.374 370.886 512.953 368.903C512.412 366.384 512.592 363.397 512.852 361.509C512.87 361.378 512.904 361.256 512.953 361.14C513.512 359.573 514.217 358.727 515.1 358.366C514.7 350.881 515.964 339.021 508.28 336.697ZM482.884 412.969H597.117C600.022 412.969 602.392 415.694 601.946 419.017L595.633 466.177C595.199 469.472 592.912 472.224 589.586 472.224H490.416C487.09 472.224 484.808 469.472 484.368 466.177L478.052 419.017C477.616 415.691 479.976 412.969 482.884 412.969ZM539.448 434.804C543.452 434.804 546.701 438.05 546.701 442.055C546.701 446.062 543.452 449.308 539.448 449.308C535.444 449.308 532.197 446.062 532.197 442.055C532.197 438.05 535.444 434.804 539.448 434.804ZM553.815 388.771C549.869 392.445 545.571 394.232 541.207 394.232C536.635 394.235 532.06 392.28 527.805 388.493L526.309 387.186L526.208 387.1C525.814 388.151 525.365 389.275 524.898 390.344C524.256 391.801 523.572 393.172 522.909 394.165C530.074 408.69 551.252 409.197 558.118 394.247C556.392 392.5 555.088 390.634 553.815 388.771ZM552.065 338.465C548.601 341.956 544.936 342.961 541.344 343.276C540.285 343.462 539.252 343.59 538.223 343.718C534.778 344.143 531.339 344.568 526.788 347.719C524.638 349.204 523.206 351.003 522.463 353.095C521.703 355.251 521.651 357.768 522.28 360.63C522.338 360.893 522.324 361.168 522.239 361.425C522.154 361.681 522.002 361.91 521.799 362.088C521.595 362.265 521.348 362.385 521.082 362.434C520.816 362.483 520.542 362.46 520.289 362.367L518.545 361.729C517.128 361.234 516.239 361.069 515.814 362.08C515.598 363.736 515.46 366.231 515.897 368.277C516.156 369.49 516.602 370.501 517.335 370.919C517.595 371.066 517.882 371.133 518.187 371.136C518.572 371.142 519.003 371.057 519.461 370.916C519.592 370.876 519.727 370.855 519.867 370.852C520.698 370.834 521.388 371.49 521.407 372.318C521.572 379.138 524.595 381.743 528.276 384.91L529.809 386.242C533.504 389.531 537.395 391.23 541.207 391.23C544.915 391.227 548.62 389.608 552.077 386.273L553.635 384.794C557.495 381.169 560.338 378.497 559.792 371.988C559.77 371.664 559.847 371.331 560.039 371.041C560.258 370.708 560.6 370.476 560.99 370.395C561.38 370.315 561.786 370.392 562.119 370.611C562.37 370.776 562.62 370.91 562.867 371.005L562.932 371.026C563.158 371.109 563.377 371.157 563.579 371.17C564.498 371.218 564.966 369.194 565.39 367.352C565.579 366.536 565.763 365.742 566.001 365.052C566.261 364.069 566.288 363.375 566.151 362.923C566.093 362.734 566.001 362.609 565.888 362.548C565.708 362.45 565.439 362.419 565.118 362.45C564.352 362.52 563.429 362.926 562.562 363.583C562.398 363.707 562.211 363.796 562.011 363.845C561.811 363.894 561.604 363.902 561.401 363.867C561.008 363.8 560.657 363.579 560.425 363.253C560.194 362.927 560.101 362.523 560.167 362.129C561.588 353.852 560.937 348.459 559.175 344.778C557.629 341.556 555.165 339.601 552.492 338.142L552.065 338.465Z" fill="white"/>
</g>
<defs>
<radialGradient id="paint0_radial_236_585" cx="0" cy="0" r="1" gradientUnits="userSpaceOnUse" gradientTransform="translate(540 540) rotate(90) scale(540)">
<stop offset="0.745" stop-color="white" stop-opacity="0"/>
<stop offset="1" stop-color="white"/>
</radialGradient>
<linearGradient id="paint1_linear_236_585" x1="540.5" y1="267" x2="540.5" y2="905" gradientUnits="userSpaceOnUse">
<stop stop-color="#0E5F66"/>
<stop offset="1" stop-color="#38AD7E"/>
</linearGradient>
<clipPath id="clip0_236_585">
<rect width="1080" height="1080" fill="white"/>
</clipPath>
</defs>
</svg>
