<svg width="942" height="800" viewBox="0 0 942 800" fill="none" xmlns="http://www.w3.org/2000/svg">
<path fill-rule="evenodd" clip-rule="evenodd" d="M912.522 627.567C914.616 629.732 915.666 630.814 916.645 631.887C931.755 648.48 940.438 669.92 941.129 692.348C941.176 693.803 941.176 695.308 941.176 698.32C941.176 705.341 941.176 708.852 940.988 711.817C938 759.125 900.301 796.824 852.993 799.812C850.028 800 846.518 800 839.496 800H101.679C94.6579 800 91.1473 800 88.1826 799.812C40.8776 796.824 3.176 759.125 0.18729 711.817C-3.70338e-06 708.852 0 705.341 0 698.32C0 695.308 5.25375e-06 693.803 0.0451817 692.348C0.738358 669.92 9.42212 648.48 24.5304 631.887C25.5096 630.814 26.5567 629.732 28.6508 627.572L89.5581 564.706H851.619L912.522 627.567ZM317.647 705.883C317.647 686.391 333.449 670.588 352.941 670.588H588.235C607.727 670.588 623.529 686.391 623.529 705.883C623.529 725.374 607.727 741.177 588.235 741.177H352.941C333.449 741.177 317.647 725.374 317.647 705.883Z" fill="white"/>
<path fill-rule="evenodd" clip-rule="evenodd" d="M110.727 188.235C110.727 99.5002 110.727 55.1327 138.293 27.5666C165.859 -2.39354e-06 210.227 0 298.962 0H642.216C730.951 0 775.318 -2.39354e-06 802.885 27.5666C830.452 55.1327 830.452 99.5002 830.452 188.235V517.647H110.727V188.235ZM470.588 164.706C490.08 164.706 505.882 148.904 505.882 129.412C505.882 109.92 490.08 94.1176 470.588 94.1176C451.096 94.1176 435.294 109.92 435.294 129.412C435.294 148.904 451.096 164.706 470.588 164.706Z" fill="white"/>
<path d="M424.378 284.779C422.206 286.515 421.267 289.373 421.987 292.059L442.935 370.24C443.655 372.926 445.897 374.932 448.646 375.349L544.654 389.919C549.645 390.676 553.772 386.062 552.466 381.186L511.37 227.814C510.063 222.938 504.182 221.006 500.238 224.157L424.378 284.779Z" fill="#0B76CB"/>
<path d="M540.573 262.206L560.56 336.799C581.158 331.279 593.382 310.107 587.863 289.509C582.344 268.911 561.171 256.687 540.573 262.206Z" fill="#0B76CB"/>
<path d="M384.262 297.429C382.128 298 379.935 296.734 379.363 294.6L378.102 289.895C377.53 287.761 375.337 286.495 373.203 287.067L362.282 289.993C360.148 290.565 358.882 292.758 359.454 294.892L360.714 299.596C361.286 301.73 360.02 303.924 357.886 304.495L352.426 305.959C342.127 308.719 336.015 319.305 338.774 329.604L352.099 379.332C354.859 389.631 365.445 395.743 375.744 392.984L421.609 380.695C423.742 380.123 425.009 377.929 424.437 375.796L403.189 296.498C402.618 294.364 400.424 293.098 398.29 293.67L384.262 297.429Z" fill="#0B76CB"/>
<path d="M421.145 407.495C419.93 404.045 416.263 402.112 412.73 403.059L388.997 409.418C385.058 410.473 382.852 414.658 384.206 418.505L403.123 472.228C404.338 475.678 408.005 477.611 411.538 476.664L435.271 470.305C439.21 469.25 441.416 465.065 440.062 461.219L421.145 407.495Z" fill="#0B76CB"/>
</svg>
