<svg width="1080" height="1080" viewBox="0 0 1080 1080" fill="none" xmlns="http://www.w3.org/2000/svg">
<g clip-path="url(#clip0_240_99)">
<rect width="1080" height="1080" fill="white"/>
<line y1="26.5" x2="1080" y2="26.5" stroke="#C4C4C4"/>
<line y1="53.5" x2="1080" y2="53.5" stroke="#C4C4C4"/>
<line y1="80.5" x2="1080" y2="80.5" stroke="#C4C4C4"/>
<line y1="107.5" x2="1080" y2="107.5" stroke="#C4C4C4"/>
<line y1="134.5" x2="1080" y2="134.5" stroke="#C4C4C4"/>
<line y1="161.5" x2="1080" y2="161.5" stroke="#C4C4C4"/>
<line y1="188.5" x2="1080" y2="188.5" stroke="#C4C4C4"/>
<line y1="215.5" x2="1080" y2="215.5" stroke="#C4C4C4"/>
<line y1="242.5" x2="1080" y2="242.5" stroke="#C4C4C4"/>
<line y1="269.5" x2="1080" y2="269.5" stroke="#C4C4C4"/>
<line y1="296.5" x2="1080" y2="296.5" stroke="#C4C4C4"/>
<line y1="323.5" x2="1080" y2="323.5" stroke="#C4C4C4"/>
<line y1="350.5" x2="1080" y2="350.5" stroke="#C4C4C4"/>
<line y1="377.5" x2="1080" y2="377.5" stroke="#C4C4C4"/>
<line y1="404.5" x2="1080" y2="404.5" stroke="#C4C4C4"/>
<line y1="431.5" x2="1080" y2="431.5" stroke="#C4C4C4"/>
<line y1="458.5" x2="1080" y2="458.5" stroke="#C4C4C4"/>
<line y1="485.5" x2="1080" y2="485.5" stroke="#C4C4C4"/>
<line y1="512.5" x2="1080" y2="512.5" stroke="#C4C4C4"/>
<line y1="539.5" x2="1080" y2="539.5" stroke="#C4C4C4"/>
<line y1="566.5" x2="1080" y2="566.5" stroke="#C4C4C4"/>
<line y1="593.5" x2="1080" y2="593.5" stroke="#C4C4C4"/>
<line y1="620.5" x2="1080" y2="620.5" stroke="#C4C4C4"/>
<line y1="647.5" x2="1080" y2="647.5" stroke="#C4C4C4"/>
<line y1="674.5" x2="1080" y2="674.5" stroke="#C4C4C4"/>
<line y1="701.5" x2="1080" y2="701.5" stroke="#C4C4C4"/>
<line y1="728.5" x2="1080" y2="728.5" stroke="#C4C4C4"/>
<line y1="755.5" x2="1080" y2="755.5" stroke="#C4C4C4"/>
<line y1="782.5" x2="1080" y2="782.5" stroke="#C4C4C4"/>
<line y1="809.5" x2="1080" y2="809.5" stroke="#C4C4C4"/>
<line y1="836.5" x2="1080" y2="836.5" stroke="#C4C4C4"/>
<line y1="863.5" x2="1080" y2="863.5" stroke="#C4C4C4"/>
<line y1="890.5" x2="1080" y2="890.5" stroke="#C4C4C4"/>
<line y1="917.5" x2="1080" y2="917.5" stroke="#C4C4C4"/>
<line y1="944.5" x2="1080" y2="944.5" stroke="#C4C4C4"/>
<line y1="971.5" x2="1080" y2="971.5" stroke="#C4C4C4"/>
<line y1="998.5" x2="1080" y2="998.5" stroke="#C4C4C4"/>
<line y1="1025.5" x2="1080" y2="1025.5" stroke="#C4C4C4"/>
<line y1="1052.5" x2="1080" y2="1052.5" stroke="#C4C4C4"/>
<line x1="26.5" y1="1080" x2="26.5" stroke="#C4C4C4"/>
<line x1="53.5" y1="1080" x2="53.5" stroke="#C4C4C4"/>
<line x1="80.5" y1="1080" x2="80.5" stroke="#C4C4C4"/>
<line x1="107.5" y1="1080" x2="107.5" stroke="#C4C4C4"/>
<line x1="134.5" y1="1080" x2="134.5" stroke="#C4C4C4"/>
<line x1="161.5" y1="1080" x2="161.5" stroke="#C4C4C4"/>
<line x1="188.5" y1="1080" x2="188.5" stroke="#C4C4C4"/>
<line x1="215.5" y1="1080" x2="215.5" stroke="#C4C4C4"/>
<line x1="242.5" y1="1080" x2="242.5" stroke="#C4C4C4"/>
<line x1="269.5" y1="1080" x2="269.5" stroke="#C4C4C4"/>
<line x1="296.5" y1="1080" x2="296.5" stroke="#C4C4C4"/>
<line x1="323.5" y1="1080" x2="323.5" stroke="#C4C4C4"/>
<line x1="350.5" y1="1080" x2="350.5" stroke="#C4C4C4"/>
<line x1="377.5" y1="1080" x2="377.5" stroke="#C4C4C4"/>
<line x1="404.5" y1="1080" x2="404.5" stroke="#C4C4C4"/>
<line x1="431.5" y1="1080" x2="431.5" stroke="#C4C4C4"/>
<line x1="458.5" y1="1080" x2="458.5" stroke="#C4C4C4"/>
<line x1="485.5" y1="1080" x2="485.5" stroke="#C4C4C4"/>
<line x1="512.5" y1="1080" x2="512.5" stroke="#C4C4C4"/>
<line x1="539.5" y1="1080" x2="539.5" stroke="#C4C4C4"/>
<line x1="566.5" y1="1080" x2="566.5" stroke="#C4C4C4"/>
<line x1="593.5" y1="1080" x2="593.5" stroke="#C4C4C4"/>
<line x1="620.5" y1="1080" x2="620.5" stroke="#C4C4C4"/>
<line x1="647.5" y1="1080" x2="647.5" stroke="#C4C4C4"/>
<line x1="674.5" y1="1080" x2="674.5" stroke="#C4C4C4"/>
<line x1="701.5" y1="1080" x2="701.5" stroke="#C4C4C4"/>
<line x1="728.5" y1="1080" x2="728.5" stroke="#C4C4C4"/>
<line x1="755.5" y1="1080" x2="755.5" stroke="#C4C4C4"/>
<line x1="782.5" y1="1080" x2="782.5" stroke="#C4C4C4"/>
<line x1="809.5" y1="1080" x2="809.5" stroke="#C4C4C4"/>
<line x1="836.5" y1="1080" x2="836.5" stroke="#C4C4C4"/>
<line x1="863.5" y1="1080" x2="863.5" stroke="#C4C4C4"/>
<line x1="890.5" y1="1080" x2="890.5" stroke="#C4C4C4"/>
<line x1="917.5" y1="1080" x2="917.5" stroke="#C4C4C4"/>
<line x1="944.5" y1="1080" x2="944.5" stroke="#C4C4C4"/>
<line x1="971.5" y1="1080" x2="971.5" stroke="#C4C4C4"/>
<line x1="998.5" y1="1080" x2="998.5" stroke="#C4C4C4"/>
<line x1="1025.5" y1="1080" x2="1025.5" stroke="#C4C4C4"/>
<line x1="1052.5" y1="1080" x2="1052.5" stroke="#C4C4C4"/>
<rect width="1080" height="1080" fill="url(#paint0_radial_240_99)"/>
<path d="M115.338 233.798C92.9064 244.257 83.127 271.201 93.6861 293.845C103.233 314.319 126.084 324.352 147.011 318.332L133.645 289.669L123.286 294.499L117.749 282.625L128.108 277.794L123.888 268.744C119.095 258.467 122.537 249.982 131.876 245.627C136.322 243.554 141.334 242.164 141.334 242.164L146.05 252.278L140.912 254.674C135.854 257.033 135.734 260.927 137.242 264.162L140.832 271.86L152.17 266.573L155.872 279.304L146.369 283.735L159.735 312.399C168.635 306.393 175.091 297.389 177.936 287.012C180.782 276.635 179.831 265.568 175.254 255.809C164.695 233.165 137.769 223.338 115.338 233.798Z" fill="url(#paint1_linear_240_99)"/>
<path d="M970.518 270.687C968.517 269.754 966.285 269.436 964.103 269.772C961.922 270.107 959.889 271.082 958.262 272.574C956.634 274.065 955.486 276.005 954.961 278.149C954.436 280.293 954.559 282.544 955.314 284.619C956.069 286.693 957.422 288.496 959.202 289.802C960.982 291.107 963.109 291.855 965.314 291.951C967.52 292.047 969.704 291.488 971.591 290.342C973.478 289.197 974.983 287.519 975.916 285.518C976.535 284.19 976.887 282.753 976.951 281.288C977.014 279.824 976.789 278.362 976.288 276.985C975.787 275.608 975.019 274.343 974.029 273.262C973.039 272.182 971.846 271.307 970.518 270.687ZM1015.68 279.58C1017.12 276.42 1018 273.029 1018.26 269.564C1018.45 267.026 1018.09 264.477 1017.22 262.085C1016.35 259.694 1014.99 257.514 1013.21 255.69C1010.78 253.204 1007.93 251.169 1004.79 249.679C999.664 246.94 998.115 246.218 984.819 240.018C971.523 233.818 969.974 233.095 964.579 230.928C961.42 229.48 958.029 228.605 954.564 228.342C952.025 228.155 949.476 228.509 947.085 229.379C944.693 230.25 942.514 231.617 940.69 233.392C938.204 235.821 936.169 238.671 934.679 241.811C931.94 246.939 931.217 248.488 925.017 261.784C918.818 275.079 918.095 276.629 915.927 282.023C914.497 285.204 913.617 288.605 913.323 292.08C913.137 294.607 913.495 297.144 914.372 299.52C915.231 301.919 916.603 304.1 918.392 305.913C920.82 308.399 923.671 310.434 926.81 311.924C931.938 314.663 933.488 315.386 946.783 321.586C960.079 327.785 961.629 328.508 967.023 330.676C970.182 332.123 973.574 332.998 977.039 333.261C979.578 333.466 982.131 333.115 984.52 332.231C986.904 331.375 989.078 330.019 990.894 328.252C993.385 325.808 995.426 322.945 996.924 319.793C999.663 314.665 1000.39 313.115 1006.59 299.819C1012.78 286.524 1013.51 284.974 1015.68 279.58ZM990.102 307.376C988.798 309.832 987.104 312.061 985.088 313.976C983.384 315.563 981.378 316.791 979.19 317.588C977.002 318.384 974.676 318.733 972.35 318.612C969.577 318.379 966.859 317.699 964.303 316.597C961.081 315.095 960.225 314.695 951.823 310.778C943.422 306.86 942.565 306.461 939.343 304.958C936.856 303.708 934.588 302.064 932.627 300.089C930.955 298.394 929.688 296.343 928.92 294.09C928.124 291.938 927.807 289.638 927.991 287.351C928.219 284.578 928.914 281.864 930.046 279.322C931.549 276.101 931.948 275.244 935.866 266.843C939.784 258.441 940.183 257.585 941.685 254.363C942.904 251.862 944.537 249.585 946.514 247.627C948.209 245.955 950.26 244.688 952.513 243.92C954.668 243.136 956.965 242.819 959.252 242.991C962.026 243.224 964.743 243.905 967.299 245.006C970.521 246.508 971.378 246.908 979.779 250.826C988.181 254.743 989.037 255.143 992.259 256.645C994.746 257.895 997.014 259.54 998.975 261.515C1000.65 263.209 1001.91 265.26 1002.68 267.513C1003.48 269.666 1003.8 271.965 1003.61 274.252C1003.38 277.026 1002.7 279.744 1001.6 282.3C1000.09 285.522 999.695 286.378 995.777 294.78C991.86 303.181 991.746 304.171 990.121 307.336L990.102 307.376ZM997.726 273.99C997.855 272.447 997.647 270.893 997.117 269.438C996.587 267.982 995.748 266.658 994.657 265.558C993.14 264.088 991.377 262.896 989.447 262.037C986.266 260.553 985.369 260.135 977.212 256.331C969.055 252.528 968.158 252.109 964.977 250.626C963.044 249.748 960.971 249.218 958.854 249.062C957.341 248.921 955.815 249.103 954.377 249.597C952.94 250.091 951.624 250.885 950.517 251.927C949.078 253.467 947.902 255.234 947.036 257.156C945.553 260.337 945.134 261.234 941.331 269.391C937.527 277.548 937.109 278.445 935.626 281.626C934.77 283.567 934.241 285.636 934.061 287.749C933.933 289.293 934.14 290.846 934.67 292.302C935.2 293.757 936.04 295.081 937.13 296.181C938.572 297.632 940.236 298.844 942.06 299.771C945.241 301.254 946.139 301.672 954.295 305.476C962.452 309.279 963.349 309.698 966.531 311.181C968.463 312.06 970.536 312.589 972.653 312.745C974.197 312.874 975.75 312.666 977.206 312.136C978.662 311.607 979.985 310.767 981.085 309.676C982.607 308.196 983.854 306.458 984.77 304.543C986.253 301.361 986.672 300.464 990.475 292.307C994.279 284.151 994.697 283.253 996.181 280.072C997.08 278.147 997.61 276.07 997.745 273.95L997.726 273.99ZM958.536 296.381C956.492 295.428 954.657 294.081 953.134 292.417C951.611 290.753 950.432 288.806 949.663 286.685C948.895 284.565 948.552 282.314 948.655 280.061C948.758 277.808 949.304 275.597 950.263 273.556C951.7 270.473 954.02 267.886 956.929 266.122C959.838 264.358 963.205 263.497 966.603 263.648C970.001 263.798 973.279 264.954 976.02 266.968C978.762 268.982 980.844 271.764 982.003 274.963C983.162 278.161 983.347 281.631 982.533 284.934C981.719 288.237 979.943 291.224 977.43 293.517C974.918 295.811 971.781 297.307 968.418 297.817C965.055 298.326 961.616 297.827 958.536 296.381ZM987.953 275.888C987.096 275.372 986.46 274.558 986.168 273.601C985.876 272.644 985.948 271.613 986.371 270.707C986.794 269.8 987.537 269.082 988.458 268.691C989.378 268.3 990.411 268.263 991.357 268.588C992.214 269.104 992.85 269.918 993.142 270.875C993.435 271.832 993.362 272.863 992.939 273.769C992.517 274.676 991.773 275.394 990.853 275.785C989.932 276.176 988.899 276.213 987.953 275.888Z" fill="url(#paint2_linear_240_99)"/>
<path d="M183.075 535.999L115.019 504.264C114.161 503.814 113.222 503.537 112.257 503.45C111.292 503.363 110.319 503.468 109.395 503.757C108.47 504.046 107.611 504.515 106.868 505.137C106.125 505.759 105.512 506.521 105.063 507.38L73.2566 575.589C72.4519 577.449 72.3896 579.547 73.0829 581.451C73.776 583.355 75.1719 584.922 76.9839 585.83L145.04 617.565C146.862 618.318 148.907 618.327 150.736 617.59C152.564 616.853 154.031 615.43 154.822 613.624L186.629 545.414C187.042 544.567 187.277 543.645 187.321 542.704C187.364 541.762 187.215 540.822 186.882 539.94C186.55 539.059 186.04 538.255 185.386 537.577C184.731 536.899 183.945 536.362 183.075 535.999ZM101.812 580.899L89.9344 575.36L106.884 539.012L118.762 544.551L101.812 580.899ZM115.67 536.407C114.828 536.049 114.069 535.521 113.44 534.856C112.812 534.191 112.328 533.403 112.018 532.542C111.709 531.68 111.581 530.765 111.642 529.852C111.703 528.939 111.953 528.048 112.375 527.236C112.729 526.381 113.258 525.61 113.927 524.972C114.597 524.333 115.392 523.842 116.263 523.529C117.133 523.216 118.059 523.089 118.982 523.155C119.905 523.221 120.803 523.48 121.62 523.913C122.463 524.271 123.222 524.799 123.85 525.464C124.479 526.129 124.963 526.917 125.273 527.778C125.582 528.639 125.71 529.555 125.649 530.468C125.587 531.381 125.338 532.272 124.916 533.084C124.562 533.939 124.033 534.71 123.364 535.348C122.694 535.986 121.899 536.478 121.028 536.791C120.158 537.104 119.231 537.231 118.309 537.165C117.386 537.099 116.487 536.84 115.67 536.407ZM144.329 600.724L132.4 595.162L141.671 575.28C143.881 570.539 143.72 566.492 139.489 564.519C138.17 563.917 136.696 563.739 135.271 564.007C133.845 564.276 132.538 564.979 131.528 566.02C130.762 566.796 130.163 567.72 129.765 568.736L120.114 589.433L108.389 583.965L125.338 547.618L137.063 553.085L134.686 558.183C136.621 556.754 138.914 555.888 141.311 555.68C143.708 555.472 146.115 555.931 148.268 557.006C155.966 560.596 159.4 568.404 154.337 579.262L144.329 600.724Z" fill="url(#paint3_linear_240_99)"/>
<path fill-rule="evenodd" clip-rule="evenodd" d="M539.811 976.939L529.138 954.052C539.046 954.087 547.061 954.845 556.36 955.357C551.809 961.624 545.994 968.986 539.811 976.939ZM569.111 921.555C566.848 920.362 563.789 920.038 561.024 920.748C552.887 922.814 506.252 944.556 499.445 949.463C497.584 950.796 496.199 952.567 495.308 954.73C491.58 963.896 508.896 995.653 512.952 1000.21C514.687 1002.2 516.32 1003.45 517.911 1004.03C519.978 1004.81 522.353 1004.91 524.757 1004.33C531.505 1002.73 563.545 988.658 586.519 975.761C588.534 974.356 590 972.43 590.834 970.219C594.078 961.309 577.551 926.948 569.111 921.555Z" fill="url(#paint4_linear_240_99)"/>
<path fill-rule="evenodd" clip-rule="evenodd" d="M984.819 544.018C962.294 533.514 935.52 543.26 925.018 565.783C914.514 588.308 924.259 615.082 946.783 625.586C969.307 636.088 996.082 626.344 1006.59 603.819C1017.09 581.295 1007.34 554.521 984.819 544.018ZM955.155 608.877C942.009 602.747 936.339 587.108 942.485 573.929C948.63 560.75 964.255 555.041 977.401 561.17C983.825 564.166 988.087 569.039 990.414 574.807L980.57 578.403L980.577 578.388C979.192 574.838 976.595 572.139 973.056 570.488C965.204 566.827 955.724 570.501 952.054 578.373C948.384 586.244 951.655 595.883 959.507 599.545C966.63 602.866 973.382 601.042 976.993 595.901L964.025 589.854L968.363 580.551L990.743 590.987C990.297 592.72 989.681 594.466 988.868 596.211C982.513 609.837 968.895 615.284 955.155 608.877Z" fill="url(#paint5_linear_240_99)"/>
<path fill-rule="evenodd" clip-rule="evenodd" d="M892.166 721.093C893.835 722.818 894.671 723.68 895.451 724.535C907.493 737.758 914.411 754.843 914.963 772.715C915 773.874 915 775.074 915 777.474C915 783.069 915 785.866 914.85 788.229C912.469 825.928 882.428 855.969 844.729 858.35C842.366 858.5 839.569 858.5 833.974 858.5H246.025C240.43 858.5 237.633 858.5 235.27 858.35C197.574 855.969 167.531 825.928 165.149 788.229C165 785.866 165 783.069 165 777.474C165 775.074 165 773.874 165.036 772.715C165.588 754.843 172.508 737.758 184.548 724.535C185.328 723.68 186.162 722.817 187.831 721.096L236.367 671H843.634L892.166 721.093ZM418.125 783.5C418.125 767.967 430.717 755.375 446.25 755.375H633.75C649.283 755.375 661.875 767.967 661.875 783.5C661.875 799.033 649.283 811.625 633.75 811.625H446.25C430.717 811.625 418.125 799.033 418.125 783.5Z" fill="#38AD7E"/>
<path fill-rule="evenodd" clip-rule="evenodd" d="M253.235 371C253.235 300.289 253.235 264.934 275.202 242.967C297.169 221 332.525 221 403.235 221H676.766C747.476 221 782.831 221 804.799 242.967C826.766 264.934 826.766 300.289 826.766 371V633.5H253.235V371ZM540 352.25C555.533 352.25 568.125 339.658 568.125 324.125C568.125 308.592 555.533 296 540 296C524.468 296 511.875 308.592 511.875 324.125C511.875 339.658 524.468 352.25 540 352.25Z" fill="#0E5F66"/>
<path d="M296.818 140C300.312 140 303.365 140.627 305.978 141.88C308.618 143.133 310.672 144.88 312.138 147.12C313.605 149.36 314.338 151.987 314.338 155C314.338 157.987 313.605 160.613 312.138 162.88C310.672 165.12 308.618 166.867 305.978 168.12C303.365 169.373 300.312 170 296.818 170H282.578V140H296.818ZM289.338 167.32L285.898 164H297.338C299.365 164 301.138 163.627 302.658 162.88C304.205 162.133 305.392 161.08 306.218 159.72C307.045 158.36 307.458 156.787 307.458 155C307.458 153.187 307.045 151.613 306.218 150.28C305.392 148.92 304.205 147.867 302.658 147.12C301.138 146.373 299.365 146 297.338 146H285.898L289.338 142.68V167.32ZM319.824 140H326.624V170H319.824V140ZM363.913 157C363.887 158.813 363.527 160.547 362.833 162.2C362.167 163.827 361.207 165.28 359.953 166.56C358.7 167.813 357.153 168.8 355.313 169.52C353.473 170.24 351.34 170.6 348.913 170.6C346.567 170.6 344.367 170.253 342.313 169.56C340.287 168.84 338.5 167.813 336.953 166.48C335.433 165.147 334.247 163.52 333.393 161.6C332.54 159.653 332.113 157.453 332.113 155C332.113 152.547 332.54 150.36 333.393 148.44C334.273 146.493 335.487 144.853 337.033 143.52C338.58 142.187 340.393 141.173 342.473 140.48C344.553 139.76 346.82 139.4 349.273 139.4C352.473 139.4 355.247 139.907 357.593 140.92C359.94 141.907 361.833 143.28 363.273 145.04C364.74 146.8 365.647 148.813 365.993 151.08H359.153C358.887 149.853 358.3 148.8 357.393 147.92C356.513 147.04 355.38 146.36 353.993 145.88C352.633 145.4 351.06 145.16 349.273 145.16C347.167 145.16 345.34 145.547 343.793 146.32C342.273 147.067 341.087 148.173 340.233 149.64C339.407 151.107 338.993 152.893 338.993 155C338.993 157.107 339.433 158.907 340.313 160.4C341.193 161.893 342.447 163.04 344.073 163.84C345.7 164.613 347.62 165 349.833 165C351.993 165 353.887 164.667 355.513 164C357.14 163.307 358.42 162.347 359.353 161.12C360.313 159.867 360.86 158.387 360.993 156.68L363.913 157ZM350.753 159.76V154.84H366.313V170H361.433L360.513 157.84L361.913 159.76H350.753ZM372.557 140H379.357V170H372.557V140ZM395.846 143.04H402.606V170H395.846V143.04ZM383.886 140H414.526V146H383.886V140ZM418.998 163.68V158.16H439.798V163.68H418.998ZM433.918 140L447.958 170H440.718L428.438 142.76H430.678L418.398 170H411.158L425.198 140H433.918ZM458.788 140V167L455.708 164H478.228V170H451.988V140H458.788ZM534.614 140V170H528.134V142.28L529.854 142.4L517.054 170H510.054L497.254 142.48L498.934 142.32V170H492.494V140H502.934L515.014 166.72H512.094L524.174 140H534.614ZM546.456 163.68V158.16H567.256V163.68H546.456ZM561.376 140L575.416 170H568.176L555.896 142.76H558.136L545.856 170H538.616L552.656 140H561.376ZM584.166 153.32H595.726C597.246 153.32 598.446 152.973 599.326 152.28C600.232 151.56 600.686 150.573 600.686 149.32C600.686 148.067 600.232 147.093 599.326 146.4C598.446 145.707 597.246 145.36 595.726 145.36H583.166L586.246 141.88V170H579.446V140H596.526C598.712 140 600.632 140.4 602.286 141.2C603.939 141.973 605.232 143.053 606.166 144.44C607.099 145.827 607.566 147.453 607.566 149.32C607.566 151.16 607.099 152.773 606.166 154.16C605.232 155.547 603.939 156.64 602.286 157.44C600.632 158.213 598.712 158.6 596.526 158.6H584.166V153.32ZM589.366 155.96H597.126L608.446 170H600.486L589.366 155.96ZM613.449 170V140H620.209V164.48L618.289 163.12L636.849 140H644.089L619.569 170H613.449ZM627.769 155.32L632.649 150.96L644.529 170H636.769L627.769 155.32ZM673.072 152.4V157.6H651.592V152.4H673.072ZM656.152 155L654.152 167.72L651.192 164.36H674.312V170H647.312L649.632 155L647.312 140H674.112V145.64H651.192L654.152 142.28L656.152 155ZM689.413 143.04H696.173V170H689.413V143.04ZM677.453 140H708.093V146H677.453V140ZM712.685 140H719.485V170H712.685V140ZM754.214 165.52L751.854 165.88V140H758.454V170H749.854L730.654 144.12L732.974 143.76V170H726.414V140H735.214L754.214 165.52ZM795.738 157C795.712 158.813 795.352 160.547 794.658 162.2C793.992 163.827 793.032 165.28 791.778 166.56C790.525 167.813 788.978 168.8 787.138 169.52C785.298 170.24 783.165 170.6 780.738 170.6C778.392 170.6 776.192 170.253 774.138 169.56C772.112 168.84 770.325 167.813 768.778 166.48C767.258 165.147 766.072 163.52 765.218 161.6C764.365 159.653 763.938 157.453 763.938 155C763.938 152.547 764.365 150.36 765.218 148.44C766.098 146.493 767.312 144.853 768.858 143.52C770.405 142.187 772.218 141.173 774.298 140.48C776.378 139.76 778.645 139.4 781.098 139.4C784.298 139.4 787.072 139.907 789.418 140.92C791.765 141.907 793.658 143.28 795.098 145.04C796.565 146.8 797.472 148.813 797.818 151.08H790.978C790.712 149.853 790.125 148.8 789.218 147.92C788.338 147.04 787.205 146.36 785.818 145.88C784.458 145.4 782.885 145.16 781.098 145.16C778.992 145.16 777.165 145.547 775.618 146.32C774.098 147.067 772.912 148.173 772.058 149.64C771.232 151.107 770.818 152.893 770.818 155C770.818 157.107 771.258 158.907 772.138 160.4C773.018 161.893 774.272 163.04 775.898 163.84C777.525 164.613 779.445 165 781.658 165C783.818 165 785.712 164.667 787.338 164C788.965 163.307 790.245 162.347 791.178 161.12C792.138 159.867 792.685 158.387 792.818 156.68L795.738 157ZM782.578 159.76V154.84H798.138V170H793.258L792.338 157.84L793.738 159.76H782.578Z" fill="#0E5F66"/>
<path d="M503.904 447.353C501.732 449.089 500.793 451.947 501.513 454.633L517.725 515.137C518.445 517.823 520.686 519.828 523.436 520.246L596.873 531.39C601.864 532.148 605.992 527.534 604.685 522.658L573.062 404.639C571.755 399.763 565.874 397.831 561.93 400.982L503.904 447.353Z" fill="white"/>
<path d="M595.771 429.946L611.698 489.387C628.112 484.989 637.853 468.117 633.455 451.703C629.056 435.289 612.185 425.548 595.771 429.946Z" fill="white"/>
<path d="M471.993 457.803C469.859 458.375 467.666 457.108 467.094 454.975L466.51 452.795C465.939 450.661 463.745 449.395 461.611 449.966L454.478 451.878C452.344 452.45 451.078 454.643 451.65 456.777L452.234 458.956C452.806 461.09 451.539 463.283 449.405 463.855L445.839 464.811C437.632 467.01 432.762 475.446 434.961 483.653L445.579 523.28C447.778 531.487 456.214 536.358 464.421 534.159L500.184 524.576C502.318 524.004 503.585 521.811 503.013 519.677L486.502 458.057C485.93 455.923 483.736 454.656 481.603 455.228L471.993 457.803Z" fill="white"/>
<path d="M501.037 546.966C499.822 543.516 496.155 541.582 492.622 542.529L476.465 546.858C472.526 547.914 470.319 552.099 471.674 555.945L485.801 596.066C487.016 599.516 490.682 601.449 494.216 600.502L510.373 596.173C514.312 595.117 516.518 590.932 515.164 587.086L501.037 546.966Z" fill="#F7F7F7"/>
</g>
<defs>
<radialGradient id="paint0_radial_240_99" cx="0" cy="0" r="1" gradientUnits="userSpaceOnUse" gradientTransform="translate(540 540) rotate(90) scale(540)">
<stop offset="0.745" stop-color="white" stop-opacity="0"/>
<stop offset="1" stop-color="white"/>
</radialGradient>
<linearGradient id="paint1_linear_240_99" x1="153.373" y1="315.365" x2="115.338" y2="233.798" gradientUnits="userSpaceOnUse">
<stop stop-color="#38AD7E"/>
<stop offset="1" stop-color="#0E5F66"/>
</linearGradient>
<linearGradient id="paint2_linear_240_99" x1="946.783" y1="321.586" x2="984.819" y2="240.018" gradientUnits="userSpaceOnUse">
<stop stop-color="#38AD7E"/>
<stop offset="1" stop-color="#0E5F66"/>
</linearGradient>
<linearGradient id="paint3_linear_240_99" x1="110.782" y1="601.59" x2="148.818" y2="520.016" gradientUnits="userSpaceOnUse">
<stop stop-color="#38AD7E"/>
<stop offset="1" stop-color="#0E5F66"/>
</linearGradient>
<linearGradient id="paint4_linear_240_99" x1="556.409" y1="991.115" x2="529.784" y2="934.018" gradientUnits="userSpaceOnUse">
<stop stop-color="#38AD7E"/>
<stop offset="1" stop-color="#0E5F66"/>
</linearGradient>
<linearGradient id="paint5_linear_240_99" x1="946.783" y1="625.586" x2="984.819" y2="544.018" gradientUnits="userSpaceOnUse">
<stop stop-color="#38AD7E"/>
<stop offset="1" stop-color="#0E5F66"/>
</linearGradient>
<clipPath id="clip0_240_99">
<rect width="1080" height="1080" fill="white"/>
</clipPath>
</defs>
</svg>
