<svg width="1080" height="1080" viewBox="0 0 1080 1080" fill="none" xmlns="http://www.w3.org/2000/svg">
<g clip-path="url(#clip0_240_99)">
<rect width="1080" height="1080" fill="white"/>
<line y1="26.5" x2="1080" y2="26.5" stroke="#C4C4C4"/>
<line y1="53.5" x2="1080" y2="53.5" stroke="#C4C4C4"/>
<line y1="80.5" x2="1080" y2="80.5" stroke="#C4C4C4"/>
<line y1="107.5" x2="1080" y2="107.5" stroke="#C4C4C4"/>
<line y1="134.5" x2="1080" y2="134.5" stroke="#C4C4C4"/>
<line y1="161.5" x2="1080" y2="161.5" stroke="#C4C4C4"/>
<line y1="188.5" x2="1080" y2="188.5" stroke="#C4C4C4"/>
<line y1="215.5" x2="1080" y2="215.5" stroke="#C4C4C4"/>
<line y1="242.5" x2="1080" y2="242.5" stroke="#C4C4C4"/>
<line y1="269.5" x2="1080" y2="269.5" stroke="#C4C4C4"/>
<line y1="296.5" x2="1080" y2="296.5" stroke="#C4C4C4"/>
<line y1="323.5" x2="1080" y2="323.5" stroke="#C4C4C4"/>
<line y1="350.5" x2="1080" y2="350.5" stroke="#C4C4C4"/>
<line y1="377.5" x2="1080" y2="377.5" stroke="#C4C4C4"/>
<line y1="404.5" x2="1080" y2="404.5" stroke="#C4C4C4"/>
<line y1="431.5" x2="1080" y2="431.5" stroke="#C4C4C4"/>
<line y1="458.5" x2="1080" y2="458.5" stroke="#C4C4C4"/>
<line y1="485.5" x2="1080" y2="485.5" stroke="#C4C4C4"/>
<line y1="512.5" x2="1080" y2="512.5" stroke="#C4C4C4"/>
<line y1="539.5" x2="1080" y2="539.5" stroke="#C4C4C4"/>
<line y1="566.5" x2="1080" y2="566.5" stroke="#C4C4C4"/>
<line y1="593.5" x2="1080" y2="593.5" stroke="#C4C4C4"/>
<line y1="620.5" x2="1080" y2="620.5" stroke="#C4C4C4"/>
<line y1="647.5" x2="1080" y2="647.5" stroke="#C4C4C4"/>
<line y1="674.5" x2="1080" y2="674.5" stroke="#C4C4C4"/>
<line y1="701.5" x2="1080" y2="701.5" stroke="#C4C4C4"/>
<line y1="728.5" x2="1080" y2="728.5" stroke="#C4C4C4"/>
<line y1="755.5" x2="1080" y2="755.5" stroke="#C4C4C4"/>
<line y1="782.5" x2="1080" y2="782.5" stroke="#C4C4C4"/>
<line y1="809.5" x2="1080" y2="809.5" stroke="#C4C4C4"/>
<line y1="836.5" x2="1080" y2="836.5" stroke="#C4C4C4"/>
<line y1="863.5" x2="1080" y2="863.5" stroke="#C4C4C4"/>
<line y1="890.5" x2="1080" y2="890.5" stroke="#C4C4C4"/>
<line y1="917.5" x2="1080" y2="917.5" stroke="#C4C4C4"/>
<line y1="944.5" x2="1080" y2="944.5" stroke="#C4C4C4"/>
<line y1="971.5" x2="1080" y2="971.5" stroke="#C4C4C4"/>
<line y1="998.5" x2="1080" y2="998.5" stroke="#C4C4C4"/>
<line y1="1025.5" x2="1080" y2="1025.5" stroke="#C4C4C4"/>
<line y1="1052.5" x2="1080" y2="1052.5" stroke="#C4C4C4"/>
<line x1="26.5" y1="1080" x2="26.5" stroke="#C4C4C4"/>
<line x1="53.5" y1="1080" x2="53.5" stroke="#C4C4C4"/>
<line x1="80.5" y1="1080" x2="80.5" stroke="#C4C4C4"/>
<line x1="107.5" y1="1080" x2="107.5" stroke="#C4C4C4"/>
<line x1="134.5" y1="1080" x2="134.5" stroke="#C4C4C4"/>
<line x1="161.5" y1="1080" x2="161.5" stroke="#C4C4C4"/>
<line x1="188.5" y1="1080" x2="188.5" stroke="#C4C4C4"/>
<line x1="215.5" y1="1080" x2="215.5" stroke="#C4C4C4"/>
<line x1="242.5" y1="1080" x2="242.5" stroke="#C4C4C4"/>
<line x1="269.5" y1="1080" x2="269.5" stroke="#C4C4C4"/>
<line x1="296.5" y1="1080" x2="296.5" stroke="#C4C4C4"/>
<line x1="323.5" y1="1080" x2="323.5" stroke="#C4C4C4"/>
<line x1="350.5" y1="1080" x2="350.5" stroke="#C4C4C4"/>
<line x1="377.5" y1="1080" x2="377.5" stroke="#C4C4C4"/>
<line x1="404.5" y1="1080" x2="404.5" stroke="#C4C4C4"/>
<line x1="431.5" y1="1080" x2="431.5" stroke="#C4C4C4"/>
<line x1="458.5" y1="1080" x2="458.5" stroke="#C4C4C4"/>
<line x1="485.5" y1="1080" x2="485.5" stroke="#C4C4C4"/>
<line x1="512.5" y1="1080" x2="512.5" stroke="#C4C4C4"/>
<line x1="539.5" y1="1080" x2="539.5" stroke="#C4C4C4"/>
<line x1="566.5" y1="1080" x2="566.5" stroke="#C4C4C4"/>
<line x1="593.5" y1="1080" x2="593.5" stroke="#C4C4C4"/>
<line x1="620.5" y1="1080" x2="620.5" stroke="#C4C4C4"/>
<line x1="647.5" y1="1080" x2="647.5" stroke="#C4C4C4"/>
<line x1="674.5" y1="1080" x2="674.5" stroke="#C4C4C4"/>
<line x1="701.5" y1="1080" x2="701.5" stroke="#C4C4C4"/>
<line x1="728.5" y1="1080" x2="728.5" stroke="#C4C4C4"/>
<line x1="755.5" y1="1080" x2="755.5" stroke="#C4C4C4"/>
<line x1="782.5" y1="1080" x2="782.5" stroke="#C4C4C4"/>
<line x1="809.5" y1="1080" x2="809.5" stroke="#C4C4C4"/>
<line x1="836.5" y1="1080" x2="836.5" stroke="#C4C4C4"/>
<line x1="863.5" y1="1080" x2="863.5" stroke="#C4C4C4"/>
<line x1="890.5" y1="1080" x2="890.5" stroke="#C4C4C4"/>
<line x1="917.5" y1="1080" x2="917.5" stroke="#C4C4C4"/>
<line x1="944.5" y1="1080" x2="944.5" stroke="#C4C4C4"/>
<line x1="971.5" y1="1080" x2="971.5" stroke="#C4C4C4"/>
<line x1="998.5" y1="1080" x2="998.5" stroke="#C4C4C4"/>
<line x1="1025.5" y1="1080" x2="1025.5" stroke="#C4C4C4"/>
<line x1="1052.5" y1="1080" x2="1052.5" stroke="#C4C4C4"/>
<rect width="1080" height="1080" fill="url(#paint0_radial_240_99)"/>
<path d="M107.338 203.798C84.9064 214.257 75.127 241.201 85.6861 263.845C95.2332 284.319 118.084 294.352 139.011 288.332L125.645 259.669L115.286 264.499L109.749 252.625L120.108 247.794L115.888 238.744C111.095 228.467 114.537 219.982 123.876 215.627C128.322 213.554 133.334 212.164 133.334 212.164L138.05 222.278L132.912 224.674C127.854 227.033 127.734 230.927 129.242 234.162L132.832 241.86L144.17 236.573L147.872 249.304L138.369 253.735L151.735 282.399C160.635 276.393 167.091 267.389 169.936 257.012C172.782 246.635 171.831 235.568 167.254 225.809C156.695 203.165 129.769 193.338 107.338 203.798Z" fill="url(#paint1_linear_240_99)"/>
<path d="M962.518 240.687C960.517 239.754 958.285 239.436 956.103 239.772C953.922 240.107 951.889 241.082 950.262 242.574C948.634 244.065 947.486 246.005 946.961 248.149C946.436 250.293 946.559 252.544 947.314 254.619C948.069 256.693 949.422 258.496 951.202 259.802C952.982 261.107 955.109 261.855 957.314 261.951C959.52 262.047 961.704 261.488 963.591 260.342C965.478 259.197 966.983 257.519 967.916 255.518C968.535 254.19 968.887 252.753 968.951 251.288C969.014 249.824 968.789 248.362 968.288 246.985C967.787 245.608 967.019 244.343 966.029 243.262C965.039 242.182 963.846 241.307 962.518 240.687ZM1007.68 249.58C1009.12 246.42 1010 243.029 1010.26 239.564C1010.45 237.026 1010.09 234.477 1009.22 232.085C1008.35 229.694 1006.99 227.514 1005.21 225.69C1002.78 223.204 999.932 221.169 996.792 219.679C991.664 216.94 990.115 216.218 976.819 210.018C963.523 203.818 961.974 203.095 956.579 200.928C953.42 199.48 950.029 198.605 946.564 198.342C944.025 198.155 941.477 198.509 939.085 199.379C936.693 200.25 934.514 201.617 932.69 203.392C930.204 205.821 928.169 208.671 926.679 211.811C923.94 216.939 923.217 218.488 917.017 231.784C910.818 245.079 910.095 246.629 907.927 252.023C906.497 255.204 905.617 258.605 905.323 262.08C905.137 264.607 905.495 267.144 906.372 269.52C907.231 271.919 908.603 274.1 910.392 275.913C912.82 278.399 915.671 280.434 918.81 281.924C923.938 284.663 925.488 285.386 938.783 291.586C952.079 297.785 953.629 298.508 959.023 300.676C962.182 302.123 965.574 302.998 969.039 303.261C971.578 303.466 974.131 303.115 976.52 302.231C978.904 301.375 981.078 300.019 982.894 298.252C985.385 295.808 987.426 292.945 988.924 289.793C991.663 284.665 992.385 283.115 998.585 269.819C1004.78 256.524 1005.51 254.974 1007.68 249.58ZM982.102 277.376C980.798 279.832 979.104 282.061 977.088 283.976C975.384 285.563 973.378 286.791 971.19 287.588C969.002 288.384 966.676 288.733 964.35 288.612C961.577 288.379 958.859 287.699 956.303 286.597C953.081 285.095 952.225 284.695 943.823 280.778C935.422 276.86 934.565 276.461 931.343 274.958C928.856 273.708 926.588 272.064 924.627 270.089C922.955 268.394 921.688 266.343 920.92 264.09C920.124 261.938 919.807 259.638 919.991 257.351C920.219 254.578 920.914 251.864 922.046 249.322C923.549 246.101 923.948 245.244 927.866 236.843C931.784 228.441 932.183 227.585 933.685 224.363C934.904 221.862 936.537 219.585 938.514 217.627C940.209 215.955 942.26 214.688 944.513 213.92C946.668 213.136 948.965 212.819 951.252 212.991C954.026 213.224 956.743 213.905 959.299 215.006C962.521 216.508 963.378 216.908 971.779 220.826C980.181 224.743 981.037 225.143 984.259 226.645C986.746 227.895 989.014 229.54 990.975 231.515C992.647 233.209 993.915 235.26 994.683 237.513C995.478 239.666 995.795 241.965 995.612 244.252C995.379 247.026 994.698 249.744 993.597 252.3C992.094 255.522 991.695 256.378 987.777 264.78C983.86 273.181 983.746 274.171 982.121 277.336L982.102 277.376ZM989.726 243.99C989.855 242.447 989.647 240.893 989.117 239.438C988.587 237.982 987.748 236.658 986.657 235.558C985.14 234.088 983.377 232.896 981.447 232.037C978.266 230.553 977.369 230.135 969.212 226.331C961.055 222.528 960.158 222.109 956.977 220.626C955.044 219.748 952.971 219.218 950.854 219.062C949.341 218.921 947.815 219.103 946.377 219.597C944.94 220.091 943.624 220.885 942.517 221.927C941.078 223.467 939.902 225.234 939.036 227.156C937.553 230.337 937.134 231.234 933.331 239.391C929.527 247.548 929.109 248.445 927.626 251.626C926.77 253.567 926.241 255.636 926.061 257.749C925.933 259.293 926.14 260.846 926.67 262.302C927.2 263.757 928.04 265.081 929.13 266.181C930.572 267.632 932.236 268.844 934.06 269.771C937.241 271.254 938.139 271.672 946.295 275.476C954.452 279.279 955.349 279.698 958.531 281.181C960.463 282.06 962.536 282.589 964.653 282.745C966.197 282.874 967.75 282.666 969.206 282.136C970.662 281.607 971.985 280.767 973.085 279.676C974.607 278.196 975.854 276.458 976.77 274.543C978.253 271.361 978.672 270.464 982.475 262.307C986.279 254.151 986.697 253.253 988.181 250.072C989.08 248.147 989.61 246.07 989.745 243.95L989.726 243.99ZM950.536 266.381C948.492 265.428 946.657 264.081 945.134 262.417C943.611 260.753 942.432 258.806 941.663 256.685C940.895 254.565 940.552 252.314 940.655 250.061C940.758 247.808 941.304 245.597 942.263 243.556C943.7 240.473 946.02 237.886 948.929 236.122C951.838 234.358 955.205 233.497 958.603 233.648C962.001 233.798 965.279 234.954 968.02 236.968C970.762 238.982 972.844 241.764 974.003 244.963C975.162 248.161 975.347 251.631 974.533 254.934C973.719 258.237 971.943 261.224 969.43 263.517C966.918 265.811 963.781 267.307 960.418 267.817C957.055 268.326 953.616 267.827 950.536 266.381ZM979.953 245.888C979.096 245.372 978.46 244.558 978.168 243.601C977.876 242.644 977.948 241.613 978.371 240.707C978.794 239.8 979.537 239.082 980.458 238.691C981.378 238.3 982.411 238.263 983.357 238.588C984.214 239.104 984.85 239.918 985.142 240.875C985.435 241.832 985.362 242.863 984.939 243.769C984.517 244.676 983.773 245.394 982.853 245.785C981.932 246.176 980.899 246.213 979.953 245.888Z" fill="url(#paint2_linear_240_99)"/>
<path d="M175.075 505.999L107.019 474.264C106.161 473.814 105.222 473.537 104.257 473.45C103.292 473.363 102.319 473.468 101.395 473.757C100.47 474.046 99.6114 474.515 98.8682 475.137C98.1249 475.759 97.5115 476.521 97.0632 477.38L65.2566 545.589C64.4519 547.449 64.3896 549.547 65.0829 551.451C65.776 553.355 67.1719 554.922 68.9839 555.83L137.04 587.565C138.862 588.318 140.907 588.327 142.736 587.59C144.564 586.853 146.031 585.43 146.822 583.624L178.629 515.414C179.042 514.567 179.277 513.645 179.321 512.704C179.364 511.762 179.215 510.822 178.882 509.94C178.55 509.059 178.04 508.255 177.386 507.577C176.731 506.899 175.945 506.362 175.075 505.999ZM93.8124 550.899L81.9344 545.36L98.8837 509.012L110.762 514.551L93.8124 550.899ZM107.67 506.407C106.828 506.049 106.069 505.521 105.44 504.856C104.812 504.191 104.328 503.403 104.018 502.542C103.709 501.68 103.581 500.765 103.642 499.852C103.703 498.939 103.953 498.048 104.375 497.236C104.729 496.381 105.258 495.61 105.927 494.972C106.597 494.333 107.392 493.842 108.263 493.529C109.133 493.216 110.059 493.089 110.982 493.155C111.905 493.221 112.803 493.48 113.62 493.913C114.463 494.271 115.222 494.799 115.85 495.464C116.479 496.129 116.963 496.917 117.273 497.778C117.582 498.639 117.71 499.555 117.649 500.468C117.587 501.381 117.338 502.272 116.916 503.084C116.562 503.939 116.033 504.71 115.364 505.348C114.694 505.986 113.899 506.478 113.028 506.791C112.158 507.104 111.231 507.231 110.309 507.165C109.386 507.099 108.487 506.84 107.67 506.407ZM136.329 570.724L124.4 565.162L133.671 545.28C135.881 540.539 135.72 536.492 131.489 534.519C130.17 533.917 128.696 533.739 127.271 534.007C125.845 534.276 124.538 534.979 123.528 536.02C122.762 536.796 122.163 537.72 121.765 538.736L112.114 559.433L100.389 553.965L117.338 517.618L129.063 523.085L126.686 528.183C128.621 526.754 130.914 525.888 133.311 525.68C135.708 525.472 138.115 525.931 140.268 527.006C147.966 530.596 151.4 538.404 146.337 549.262L136.329 570.724Z" fill="url(#paint3_linear_240_99)"/>
<path fill-rule="evenodd" clip-rule="evenodd" d="M531.811 946.939L521.138 924.052C531.046 924.087 539.061 924.845 548.36 925.357C543.809 931.624 537.994 938.986 531.811 946.939ZM561.111 891.555C558.848 890.362 555.789 890.038 553.024 890.748C544.887 892.814 498.252 914.556 491.445 919.463C489.584 920.796 488.199 922.567 487.308 924.73C483.58 933.896 500.896 965.653 504.952 970.214C506.687 972.197 508.32 973.45 509.911 974.03C511.978 974.814 514.353 974.91 516.757 974.329C523.505 972.732 555.545 958.658 578.519 945.761C580.534 944.356 582 942.43 582.834 940.219C586.078 931.309 569.551 896.948 561.111 891.555Z" fill="url(#paint4_linear_240_99)"/>
<path fill-rule="evenodd" clip-rule="evenodd" d="M976.819 514.018C954.294 503.514 927.52 513.26 917.018 535.783C906.514 558.308 916.259 585.082 938.783 595.586C961.307 606.088 988.082 596.344 998.585 573.819C1009.09 551.295 999.342 524.521 976.819 514.018ZM947.155 578.877C934.009 572.747 928.339 557.108 934.485 543.929C940.63 530.75 956.255 525.041 969.401 531.17C975.825 534.166 980.087 539.039 982.414 544.807L972.57 548.403L972.577 548.388C971.192 544.838 968.595 542.139 965.056 540.488C957.204 536.827 947.724 540.501 944.054 548.373C940.384 556.244 943.655 565.883 951.507 569.545C958.63 572.866 965.382 571.042 968.993 565.901L956.025 559.854L960.363 550.551L982.743 560.987C982.297 562.72 981.681 564.466 980.868 566.211C974.513 579.837 960.895 585.284 947.155 578.877Z" fill="url(#paint5_linear_240_99)"/>
<path fill-rule="evenodd" clip-rule="evenodd" d="M884.166 691.093C885.835 692.818 886.671 693.68 887.451 694.535C899.493 707.758 906.411 724.843 906.963 742.715C907 743.874 907 745.074 907 747.474C907 753.069 907 755.866 906.85 758.229C904.469 795.928 874.428 825.969 836.729 828.35C834.366 828.5 831.569 828.5 825.974 828.5H238.025C232.43 828.5 229.633 828.5 227.271 828.35C189.574 825.969 159.531 795.928 157.149 758.229C157 755.866 157 753.069 157 747.474C157 745.074 157 743.874 157.036 742.715C157.588 724.843 164.508 707.758 176.548 694.535C177.328 693.68 178.162 692.817 179.831 691.096L228.367 641H835.634L884.166 691.093ZM410.125 753.5C410.125 737.967 422.717 725.375 438.25 725.375H625.75C641.283 725.375 653.875 737.967 653.875 753.5C653.875 769.033 641.283 781.625 625.75 781.625H438.25C422.717 781.625 410.125 769.033 410.125 753.5Z" fill="#38AD7E"/>
<path fill-rule="evenodd" clip-rule="evenodd" d="M245.235 341C245.235 270.289 245.235 234.934 267.202 212.967C289.169 191 324.525 191 395.235 191H668.766C739.476 191 774.831 191 796.799 212.967C818.766 234.934 818.766 270.289 818.766 341V603.5H245.235V341ZM532 322.25C547.533 322.25 560.125 309.658 560.125 294.125C560.125 278.592 547.533 266 532 266C516.468 266 503.875 278.592 503.875 294.125C503.875 309.658 516.468 322.25 532 322.25Z" fill="#0E5F66"/>
<path d="M288.818 110C292.312 110 295.365 110.627 297.978 111.88C300.618 113.133 302.672 114.88 304.138 117.12C305.605 119.36 306.338 121.987 306.338 125C306.338 127.987 305.605 130.613 304.138 132.88C302.672 135.12 300.618 136.867 297.978 138.12C295.365 139.373 292.312 140 288.818 140H274.578V110H288.818ZM281.338 137.32L277.898 134H289.338C291.365 134 293.138 133.627 294.658 132.88C296.205 132.133 297.392 131.08 298.218 129.72C299.045 128.36 299.458 126.787 299.458 125C299.458 123.187 299.045 121.613 298.218 120.28C297.392 118.92 296.205 117.867 294.658 117.12C293.138 116.373 291.365 116 289.338 116H277.898L281.338 112.68V137.32ZM311.824 110H318.624V140H311.824V110ZM355.913 127C355.887 128.813 355.527 130.547 354.833 132.2C354.167 133.827 353.207 135.28 351.953 136.56C350.7 137.813 349.153 138.8 347.313 139.52C345.473 140.24 343.34 140.6 340.913 140.6C338.567 140.6 336.367 140.253 334.313 139.56C332.287 138.84 330.5 137.813 328.953 136.48C327.433 135.147 326.247 133.52 325.393 131.6C324.54 129.653 324.113 127.453 324.113 125C324.113 122.547 324.54 120.36 325.393 118.44C326.273 116.493 327.487 114.853 329.033 113.52C330.58 112.187 332.393 111.173 334.473 110.48C336.553 109.76 338.82 109.4 341.273 109.4C344.473 109.4 347.247 109.907 349.593 110.92C351.94 111.907 353.833 113.28 355.273 115.04C356.74 116.8 357.647 118.813 357.993 121.08H351.153C350.887 119.853 350.3 118.8 349.393 117.92C348.513 117.04 347.38 116.36 345.993 115.88C344.633 115.4 343.06 115.16 341.273 115.16C339.167 115.16 337.34 115.547 335.793 116.32C334.273 117.067 333.087 118.173 332.233 119.64C331.407 121.107 330.993 122.893 330.993 125C330.993 127.107 331.433 128.907 332.313 130.4C333.193 131.893 334.447 133.04 336.073 133.84C337.7 134.613 339.62 135 341.833 135C343.993 135 345.887 134.667 347.513 134C349.14 133.307 350.42 132.347 351.353 131.12C352.313 129.867 352.86 128.387 352.993 126.68L355.913 127ZM342.753 129.76V124.84H358.313V140H353.433L352.513 127.84L353.913 129.76H342.753ZM364.557 110H371.357V140H364.557V110ZM387.846 113.04H394.606V140H387.846V113.04ZM375.886 110H406.526V116H375.886V110ZM410.998 133.68V128.16H431.798V133.68H410.998ZM425.918 110L439.958 140H432.718L420.438 112.76H422.678L410.398 140H403.158L417.198 110H425.918ZM450.788 110V137L447.708 134H470.228V140H443.988V110H450.788ZM526.614 110V140H520.134V112.28L521.854 112.4L509.054 140H502.054L489.254 112.48L490.934 112.32V140H484.494V110H494.934L507.014 136.72H504.094L516.174 110H526.614ZM538.456 133.68V128.16H559.256V133.68H538.456ZM553.376 110L567.416 140H560.176L547.896 112.76H550.136L537.856 140H530.616L544.656 110H553.376ZM576.166 123.32H587.726C589.246 123.32 590.446 122.973 591.326 122.28C592.232 121.56 592.686 120.573 592.686 119.32C592.686 118.067 592.232 117.093 591.326 116.4C590.446 115.707 589.246 115.36 587.726 115.36H575.166L578.246 111.88V140H571.446V110H588.526C590.712 110 592.632 110.4 594.286 111.2C595.939 111.973 597.232 113.053 598.166 114.44C599.099 115.827 599.566 117.453 599.566 119.32C599.566 121.16 599.099 122.773 598.166 124.16C597.232 125.547 595.939 126.64 594.286 127.44C592.632 128.213 590.712 128.6 588.526 128.6H576.166V123.32ZM581.366 125.96H589.126L600.446 140H592.486L581.366 125.96ZM605.449 140V110H612.209V134.48L610.289 133.12L628.849 110H636.089L611.569 140H605.449ZM619.769 125.32L624.649 120.96L636.529 140H628.769L619.769 125.32ZM665.072 122.4V127.6H643.592V122.4H665.072ZM648.152 125L646.152 137.72L643.192 134.36H666.312V140H639.312L641.632 125L639.312 110H666.112V115.64H643.192L646.152 112.28L648.152 125ZM681.413 113.04H688.173V140H681.413V113.04ZM669.453 110H700.093V116H669.453V110ZM704.685 110H711.485V140H704.685V110ZM746.214 135.52L743.854 135.88V110H750.454V140H741.854L722.654 114.12L724.974 113.76V140H718.414V110H727.214L746.214 135.52ZM787.738 127C787.712 128.813 787.352 130.547 786.658 132.2C785.992 133.827 785.032 135.28 783.778 136.56C782.525 137.813 780.978 138.8 779.138 139.52C777.298 140.24 775.165 140.6 772.738 140.6C770.392 140.6 768.192 140.253 766.138 139.56C764.112 138.84 762.325 137.813 760.778 136.48C759.258 135.147 758.072 133.52 757.218 131.6C756.365 129.653 755.938 127.453 755.938 125C755.938 122.547 756.365 120.36 757.218 118.44C758.098 116.493 759.312 114.853 760.858 113.52C762.405 112.187 764.218 111.173 766.298 110.48C768.378 109.76 770.645 109.4 773.098 109.4C776.298 109.4 779.072 109.907 781.418 110.92C783.765 111.907 785.658 113.28 787.098 115.04C788.565 116.8 789.472 118.813 789.818 121.08H782.978C782.712 119.853 782.125 118.8 781.218 117.92C780.338 117.04 779.205 116.36 777.818 115.88C776.458 115.4 774.885 115.16 773.098 115.16C770.992 115.16 769.165 115.547 767.618 116.32C766.098 117.067 764.912 118.173 764.058 119.64C763.232 121.107 762.818 122.893 762.818 125C762.818 127.107 763.258 128.907 764.138 130.4C765.018 131.893 766.272 133.04 767.898 133.84C769.525 134.613 771.445 135 773.658 135C775.818 135 777.712 134.667 779.338 134C780.965 133.307 782.245 132.347 783.178 131.12C784.138 129.867 784.685 128.387 784.818 126.68L787.738 127ZM774.578 129.76V124.84H790.138V140H785.258L784.338 127.84L785.738 129.76H774.578Z" fill="#0E5F66"/>
<path d="M495.904 417.353C493.732 419.089 492.793 421.947 493.513 424.633L509.725 485.137C510.445 487.823 512.686 489.828 515.436 490.246L588.873 501.39C593.864 502.148 597.992 497.534 596.685 492.658L565.062 374.639C563.755 369.763 557.874 367.831 553.93 370.982L495.904 417.353Z" fill="white"/>
<path d="M587.771 399.946L603.698 459.387C620.112 454.989 629.853 438.117 625.455 421.703C621.056 405.289 604.185 395.548 587.771 399.946Z" fill="white"/>
<path d="M463.993 427.803C461.859 428.375 459.666 427.108 459.094 424.975L458.51 422.795C457.939 420.661 455.745 419.395 453.611 419.966L446.478 421.878C444.344 422.45 443.078 424.643 443.65 426.777L444.234 428.956C444.806 431.09 443.539 433.283 441.405 433.855L437.839 434.811C429.632 437.01 424.762 445.446 426.961 453.653L437.579 493.28C439.778 501.487 448.214 506.358 456.421 504.159L492.184 494.576C494.318 494.004 495.585 491.811 495.013 489.677L478.502 428.057C477.93 425.923 475.736 424.656 473.603 425.228L463.993 427.803Z" fill="white"/>
<path d="M493.037 516.966C491.822 513.516 488.155 511.582 484.622 512.529L468.465 516.858C464.526 517.914 462.319 522.099 463.674 525.945L477.801 566.066C479.016 569.516 482.682 571.449 486.216 570.502L502.373 566.173C506.312 565.117 508.518 560.932 507.164 557.086L493.037 516.966Z" fill="#F7F7F7"/>
</g>
<defs>
<radialGradient id="paint0_radial_240_99" cx="0" cy="0" r="1" gradientUnits="userSpaceOnUse" gradientTransform="translate(540 540) rotate(90) scale(540)">
<stop offset="0.745" stop-color="white" stop-opacity="0"/>
<stop offset="1" stop-color="white"/>
</radialGradient>
<linearGradient id="paint1_linear_240_99" x1="145.373" y1="285.365" x2="107.338" y2="203.798" gradientUnits="userSpaceOnUse">
<stop stop-color="#38AD7E"/>
<stop offset="1" stop-color="#0E5F66"/>
</linearGradient>
<linearGradient id="paint2_linear_240_99" x1="938.783" y1="291.586" x2="976.819" y2="210.018" gradientUnits="userSpaceOnUse">
<stop stop-color="#38AD7E"/>
<stop offset="1" stop-color="#0E5F66"/>
</linearGradient>
<linearGradient id="paint3_linear_240_99" x1="102.782" y1="571.59" x2="140.818" y2="490.016" gradientUnits="userSpaceOnUse">
<stop stop-color="#38AD7E"/>
<stop offset="1" stop-color="#0E5F66"/>
</linearGradient>
<linearGradient id="paint4_linear_240_99" x1="548.409" y1="961.115" x2="521.784" y2="904.018" gradientUnits="userSpaceOnUse">
<stop stop-color="#38AD7E"/>
<stop offset="1" stop-color="#0E5F66"/>
</linearGradient>
<linearGradient id="paint5_linear_240_99" x1="938.783" y1="595.586" x2="976.819" y2="514.018" gradientUnits="userSpaceOnUse">
<stop stop-color="#38AD7E"/>
<stop offset="1" stop-color="#0E5F66"/>
</linearGradient>
<clipPath id="clip0_240_99">
<rect width="1080" height="1080" fill="white"/>
</clipPath>
</defs>
</svg>
