<svg width="1080" height="1080" viewBox="0 0 1080 1080" fill="none" xmlns="http://www.w3.org/2000/svg">
<g clip-path="url(#clip0_241_215)">
<rect width="1080" height="1080" fill="#EBF7F2"/>
<line y1="26.5" x2="1080" y2="26.5" stroke="#C4C4C4"/>
<line y1="53.5" x2="1080" y2="53.5" stroke="#C4C4C4"/>
<line y1="80.5" x2="1080" y2="80.5" stroke="#C4C4C4"/>
<line y1="107.5" x2="1080" y2="107.5" stroke="#C4C4C4"/>
<line y1="134.5" x2="1080" y2="134.5" stroke="#C4C4C4"/>
<line y1="161.5" x2="1080" y2="161.5" stroke="#C4C4C4"/>
<line y1="188.5" x2="1080" y2="188.5" stroke="#C4C4C4"/>
<line y1="215.5" x2="1080" y2="215.5" stroke="#C4C4C4"/>
<line y1="242.5" x2="1080" y2="242.5" stroke="#C4C4C4"/>
<line y1="269.5" x2="1080" y2="269.5" stroke="#C4C4C4"/>
<line y1="296.5" x2="1080" y2="296.5" stroke="#C4C4C4"/>
<line y1="323.5" x2="1080" y2="323.5" stroke="#C4C4C4"/>
<line y1="350.5" x2="1080" y2="350.5" stroke="#C4C4C4"/>
<line y1="377.5" x2="1080" y2="377.5" stroke="#C4C4C4"/>
<line y1="404.5" x2="1080" y2="404.5" stroke="#C4C4C4"/>
<line y1="431.5" x2="1080" y2="431.5" stroke="#C4C4C4"/>
<line y1="458.5" x2="1080" y2="458.5" stroke="#C4C4C4"/>
<line y1="485.5" x2="1080" y2="485.5" stroke="#C4C4C4"/>
<line y1="512.5" x2="1080" y2="512.5" stroke="#C4C4C4"/>
<line y1="539.5" x2="1080" y2="539.5" stroke="#C4C4C4"/>
<line y1="566.5" x2="1080" y2="566.5" stroke="#C4C4C4"/>
<line y1="593.5" x2="1080" y2="593.5" stroke="#C4C4C4"/>
<line y1="620.5" x2="1080" y2="620.5" stroke="#C4C4C4"/>
<line y1="647.5" x2="1080" y2="647.5" stroke="#C4C4C4"/>
<line y1="674.5" x2="1080" y2="674.5" stroke="#C4C4C4"/>
<line y1="701.5" x2="1080" y2="701.5" stroke="#C4C4C4"/>
<line y1="728.5" x2="1080" y2="728.5" stroke="#C4C4C4"/>
<line y1="755.5" x2="1080" y2="755.5" stroke="#C4C4C4"/>
<line y1="782.5" x2="1080" y2="782.5" stroke="#C4C4C4"/>
<line y1="809.5" x2="1080" y2="809.5" stroke="#C4C4C4"/>
<line y1="836.5" x2="1080" y2="836.5" stroke="#C4C4C4"/>
<line y1="863.5" x2="1080" y2="863.5" stroke="#C4C4C4"/>
<line y1="890.5" x2="1080" y2="890.5" stroke="#C4C4C4"/>
<line y1="917.5" x2="1080" y2="917.5" stroke="#C4C4C4"/>
<line y1="944.5" x2="1080" y2="944.5" stroke="#C4C4C4"/>
<line y1="971.5" x2="1080" y2="971.5" stroke="#C4C4C4"/>
<line y1="998.5" x2="1080" y2="998.5" stroke="#C4C4C4"/>
<line y1="1025.5" x2="1080" y2="1025.5" stroke="#C4C4C4"/>
<line y1="1052.5" x2="1080" y2="1052.5" stroke="#C4C4C4"/>
<line x1="26.5" y1="1080" x2="26.5" stroke="#C4C4C4"/>
<line x1="53.5" y1="1080" x2="53.5" stroke="#C4C4C4"/>
<line x1="80.5" y1="1080" x2="80.5" stroke="#C4C4C4"/>
<line x1="107.5" y1="1080" x2="107.5" stroke="#C4C4C4"/>
<line x1="134.5" y1="1080" x2="134.5" stroke="#C4C4C4"/>
<line x1="161.5" y1="1080" x2="161.5" stroke="#C4C4C4"/>
<line x1="188.5" y1="1080" x2="188.5" stroke="#C4C4C4"/>
<line x1="215.5" y1="1080" x2="215.5" stroke="#C4C4C4"/>
<line x1="242.5" y1="1080" x2="242.5" stroke="#C4C4C4"/>
<line x1="269.5" y1="1080" x2="269.5" stroke="#C4C4C4"/>
<line x1="296.5" y1="1080" x2="296.5" stroke="#C4C4C4"/>
<line x1="323.5" y1="1080" x2="323.5" stroke="#C4C4C4"/>
<line x1="350.5" y1="1080" x2="350.5" stroke="#C4C4C4"/>
<line x1="377.5" y1="1080" x2="377.5" stroke="#C4C4C4"/>
<line x1="404.5" y1="1080" x2="404.5" stroke="#C4C4C4"/>
<line x1="431.5" y1="1080" x2="431.5" stroke="#C4C4C4"/>
<line x1="458.5" y1="1080" x2="458.5" stroke="#C4C4C4"/>
<line x1="485.5" y1="1080" x2="485.5" stroke="#C4C4C4"/>
<line x1="512.5" y1="1080" x2="512.5" stroke="#C4C4C4"/>
<line x1="539.5" y1="1080" x2="539.5" stroke="#C4C4C4"/>
<line x1="566.5" y1="1080" x2="566.5" stroke="#C4C4C4"/>
<line x1="593.5" y1="1080" x2="593.5" stroke="#C4C4C4"/>
<line x1="620.5" y1="1080" x2="620.5" stroke="#C4C4C4"/>
<line x1="647.5" y1="1080" x2="647.5" stroke="#C4C4C4"/>
<line x1="674.5" y1="1080" x2="674.5" stroke="#C4C4C4"/>
<line x1="701.5" y1="1080" x2="701.5" stroke="#C4C4C4"/>
<line x1="728.5" y1="1080" x2="728.5" stroke="#C4C4C4"/>
<line x1="755.5" y1="1080" x2="755.5" stroke="#C4C4C4"/>
<line x1="782.5" y1="1080" x2="782.5" stroke="#C4C4C4"/>
<line x1="809.5" y1="1080" x2="809.5" stroke="#C4C4C4"/>
<line x1="836.5" y1="1080" x2="836.5" stroke="#C4C4C4"/>
<line x1="863.5" y1="1080" x2="863.5" stroke="#C4C4C4"/>
<line x1="890.5" y1="1080" x2="890.5" stroke="#C4C4C4"/>
<line x1="917.5" y1="1080" x2="917.5" stroke="#C4C4C4"/>
<line x1="944.5" y1="1080" x2="944.5" stroke="#C4C4C4"/>
<line x1="971.5" y1="1080" x2="971.5" stroke="#C4C4C4"/>
<line x1="998.5" y1="1080" x2="998.5" stroke="#C4C4C4"/>
<line x1="1025.5" y1="1080" x2="1025.5" stroke="#C4C4C4"/>
<line x1="1052.5" y1="1080" x2="1052.5" stroke="#C4C4C4"/>
<rect width="1080" height="1080" fill="url(#paint0_radial_241_215)"/>
<path d="M144.652 231.795C151.722 229.901 155.918 222.634 154.023 215.564C152.129 208.494 144.862 204.298 137.792 206.192C130.722 208.087 126.526 215.354 128.42 222.424C130.315 229.494 137.582 233.69 144.652 231.795Z" fill="#38AD7E"/>
<path d="M146.211 237.614C135.923 240.371 125.358 234.271 122.601 223.983C121.691 220.585 121.82 217.158 122.713 213.975L78.2109 225.899C65.3629 229.342 57.7171 242.517 61.1472 255.318L68.6062 283.155L69.8535 287.81C73.2836 300.612 86.4925 308.199 99.3405 304.756L106.323 302.885C107.58 302.548 109.48 302.937 110.546 303.749L120.011 311.142C124.181 314.415 129.208 313.068 131.183 308.148L135.683 297.014C136.256 295.613 137.465 294.54 138.909 294.154L145.891 292.283C158.739 288.84 166.385 275.665 162.955 262.864L154.822 232.513C152.512 234.878 149.609 236.704 146.211 237.614Z" fill="#0E5F66"/>
<path d="M113.96 266.213C111.353 266.911 108.744 265.365 108.058 262.805C107.372 260.245 108.905 257.589 111.466 256.903C114.026 256.217 116.682 257.75 117.368 260.31C118.054 262.871 116.567 265.514 113.96 266.213Z" fill="white"/>
<path d="M132.579 261.223C129.973 261.922 127.363 260.376 126.677 257.816C125.991 255.255 127.524 252.599 130.085 251.913C132.645 251.227 135.301 252.761 135.987 255.321C136.673 257.881 135.186 260.525 132.579 261.223Z" fill="white"/>
<path d="M95.3392 271.202C92.7323 271.9 90.1228 270.355 89.4368 267.794C88.7507 265.234 90.2842 262.578 92.8445 261.892C95.4048 261.206 98.0609 262.739 98.7469 265.3C99.4329 267.86 97.946 270.503 95.3392 271.202Z" fill="white"/>
<path d="M940.678 214.406L989.585 237.212C993.965 239.255 995.846 244.425 993.804 248.805L975.462 288.139C973.42 292.519 968.249 294.401 963.869 292.359L914.962 269.553C910.582 267.51 908.7 262.34 910.743 257.96L929.085 218.626C931.127 214.246 936.298 212.364 940.678 214.406Z" fill="#0E5F66"/>
<path d="M1017.32 257.249C1016.78 257.019 1016.17 256.966 1015.54 257.094L994.563 261.424L985.616 280.612L995.782 299.464C996.105 300.063 996.576 300.518 997.147 300.784C997.718 301.049 998.369 301.117 999.035 300.979C999.701 300.842 1000.36 300.504 1000.94 300C1001.52 299.495 1002.01 298.842 1002.36 298.106L1018.73 263.003C1018.99 262.441 1019.16 261.845 1019.23 261.248C1019.3 260.652 1019.27 260.068 1019.14 259.532C1019.01 258.995 1018.78 258.517 1018.47 258.125C1018.16 257.733 1017.77 257.435 1017.32 257.249Z" fill="#38AD7E"/>
<path d="M163.332 550.751C161.182 550.751 159.482 549.001 159.482 546.901C159.482 545.051 157.632 541.201 154.532 537.851C151.482 534.601 148.132 532.701 145.331 532.701C143.181 532.701 141.481 530.951 141.481 528.851C141.481 526.751 143.231 525 145.331 525C150.332 525 155.582 527.701 160.182 532.551C164.482 537.101 167.232 542.751 167.232 546.851C167.232 549.001 165.482 550.751 163.332 550.751Z" fill="#0E5F66"/>
<path d="M181.381 550.75C179.231 550.75 177.531 549 177.531 546.9C177.531 529.15 163.081 514.75 145.38 514.75C143.23 514.75 141.53 513 141.53 510.9C141.53 508.8 143.23 507 145.33 507C167.331 507 185.231 524.9 185.231 546.9C185.231 549 183.481 550.75 181.381 550.75Z" fill="#0E5F66"/>
<path d="M134.181 568.051L117.831 584.401C116.031 582.801 114.281 581.151 112.581 579.451C107.431 574.251 102.781 568.801 98.6306 563.101C94.5306 557.401 91.2305 551.7 88.8305 546.05C86.4305 540.35 85.2305 534.9 85.2305 529.7C85.2305 526.3 85.8305 523.05 87.0305 520.05C88.2305 517 90.1305 514.2 92.7806 511.7C95.9806 508.55 99.4806 507 103.181 507C104.581 507 105.981 507.3 107.231 507.9C108.531 508.5 109.681 509.4 110.581 510.7L122.181 527.05C123.081 528.3 123.731 529.45 124.181 530.55C124.631 531.6 124.881 532.65 124.881 533.6C124.881 534.8 124.531 536 123.831 537.15C123.181 538.3 122.231 539.5 121.031 540.7L117.231 544.65C116.681 545.2 116.431 545.85 116.431 546.65C116.431 547.05 116.481 547.4 116.581 547.8C116.731 548.2 116.881 548.5 116.981 548.8C117.881 550.45 119.431 552.601 121.631 555.201C123.881 557.801 126.281 560.451 128.881 563.101C130.681 564.851 132.431 566.551 134.181 568.051Z" fill="#38AD7E"/>
<path d="M185.08 588.651C185.08 590.051 184.83 591.501 184.33 592.901C184.18 593.301 184.03 593.701 183.83 594.101C182.98 595.901 181.88 597.601 180.43 599.201C177.98 601.901 175.28 603.851 172.23 605.101C172.18 605.101 172.13 605.151 172.08 605.151C169.13 606.351 165.93 607.001 162.48 607.001C157.38 607.001 151.93 605.801 146.18 603.351C140.43 600.901 134.68 597.601 128.98 593.451C127.029 592.001 125.08 590.551 123.229 589.001L139.58 572.651C140.98 573.701 142.23 574.501 143.28 575.051C143.53 575.151 143.83 575.301 144.18 575.451C144.58 575.601 144.98 575.651 145.43 575.651C146.28 575.651 146.93 575.351 147.48 574.801L151.28 571.051C152.53 569.801 153.73 568.851 154.88 568.251C156.03 567.551 157.18 567.201 158.43 567.201C159.38 567.201 160.38 567.401 161.48 567.851C162.58 568.301 163.73 568.951 164.98 569.801L181.53 581.551C182.83 582.451 183.73 583.501 184.28 584.751C184.78 586.001 185.08 587.251 185.08 588.651Z" fill="#0E5F66"/>
<path d="M570.525 912.517C562.368 916.321 552.401 912.693 548.597 904.537C544.794 896.38 548.421 886.413 556.578 882.609C564.735 878.806 574.702 882.433 578.505 890.59C582.309 898.747 578.681 908.714 570.525 912.517Z" fill="#38AD7E"/>
<path d="M543.159 907.072C541.511 903.538 540.805 899.895 541.169 896.415L506.095 912.77C499.841 915.686 496.577 922.174 497.608 928.644L546.794 936.162L557.057 919.129C551.203 917.224 545.949 913.054 543.159 907.072Z" fill="#0E5F66"/>
<path d="M573.06 917.955C570.069 919.35 566.698 919.929 563.744 919.983L550.961 940.839C550.544 941.365 550.127 941.89 549.583 942.144C549.039 942.397 548.369 942.379 547.698 942.361L499.98 935.151L516.589 970.769C520.139 978.382 528.91 981.575 536.523 978.025L585.464 955.203C593.077 951.653 596.269 942.882 592.719 935.269L581.435 911.071C579.477 913.97 576.595 916.307 573.06 917.955Z" fill="#0E5F66"/>
<path d="M983.615 496.163C982.665 495.909 981.686 496.474 981.431 497.426C981.407 497.514 981.424 497.601 981.414 497.69L981.363 497.676L970.412 538.548C970.157 539.5 970.722 540.479 971.673 540.734L1012.54 551.685L1012.56 551.634C1012.64 551.67 1012.71 551.728 1012.8 551.752C1013.75 552.007 1014.72 551.442 1014.98 550.49C1021.05 526.867 1007.11 502.721 983.615 496.163Z" fill="#38AD7E"/>
<path d="M1002.36 557.743C1002.61 556.792 1002.05 555.813 1001.1 555.558L963.526 545.491C962.575 545.236 962.011 544.257 962.266 543.305L972.296 505.873L972.245 505.859C972.281 505.777 972.339 505.71 972.363 505.622C972.618 504.669 972.053 503.691 971.101 503.436C971.059 503.425 971.02 503.436 970.979 503.428L970.982 503.417C970.829 503.374 970.68 503.323 970.526 503.282C946.605 496.872 922.016 511.069 915.606 534.99C909.196 558.911 923.393 583.501 947.314 589.911C971.235 596.32 995.825 582.124 1002.23 558.202C1002.27 558.065 1002.3 557.926 1002.34 557.786C1002.34 557.77 1002.35 557.759 1002.36 557.743Z" fill="#0E5F66"/>
<path fill-rule="evenodd" clip-rule="evenodd" d="M892.397 687.093C894.065 688.818 894.902 689.68 895.682 690.535C907.723 703.758 914.642 720.843 915.193 738.715C915.23 739.874 915.23 741.074 915.23 743.474C915.23 749.069 915.23 751.866 915.081 754.229C912.699 791.928 882.658 821.969 844.959 824.35C842.597 824.5 839.799 824.5 834.204 824.5H246.256C240.661 824.5 237.863 824.5 235.501 824.35C197.805 821.969 167.761 791.928 165.38 754.229C165.23 751.866 165.23 749.069 165.23 743.474C165.23 741.074 165.23 739.874 165.266 738.715C165.819 720.843 172.739 703.758 184.778 690.535C185.558 689.68 186.393 688.817 188.062 687.096L236.597 637H843.864L892.397 687.093ZM418.355 749.5C418.355 733.967 430.948 721.375 446.48 721.375H633.98C649.513 721.375 662.105 733.967 662.105 749.5C662.105 765.033 649.513 777.625 633.98 777.625H446.48C430.948 777.625 418.355 765.033 418.355 749.5Z" fill="#38AD7E"/>
<path fill-rule="evenodd" clip-rule="evenodd" d="M253.466 337C253.466 266.289 253.466 230.934 275.433 208.967C297.4 187 332.755 187 403.466 187H676.997C747.707 187 783.062 187 805.029 208.967C826.997 230.934 826.997 266.289 826.997 337V599.5H253.466V337ZM540.231 318.25C555.763 318.25 568.356 305.658 568.356 290.125C568.356 274.592 555.763 262 540.231 262C524.698 262 512.106 274.592 512.106 290.125C512.106 305.658 524.698 318.25 540.231 318.25Z" fill="#0E5F66"/>
<path d="M297.049 106C300.542 106 303.596 106.627 306.209 107.88C308.849 109.133 310.902 110.88 312.369 113.12C313.836 115.36 314.569 117.987 314.569 121C314.569 123.987 313.836 126.613 312.369 128.88C310.902 131.12 308.849 132.867 306.209 134.12C303.596 135.373 300.542 136 297.049 136H282.809V106H297.049ZM289.569 133.32L286.129 130H297.569C299.596 130 301.369 129.627 302.889 128.88C304.436 128.133 305.622 127.08 306.449 125.72C307.276 124.36 307.689 122.787 307.689 121C307.689 119.187 307.276 117.613 306.449 116.28C305.622 114.92 304.436 113.867 302.889 113.12C301.369 112.373 299.596 112 297.569 112H286.129L289.569 108.68V133.32ZM320.054 106H326.854V136H320.054V106ZM364.144 123C364.117 124.813 363.757 126.547 363.064 128.2C362.397 129.827 361.437 131.28 360.184 132.56C358.931 133.813 357.384 134.8 355.544 135.52C353.704 136.24 351.571 136.6 349.144 136.6C346.797 136.6 344.597 136.253 342.544 135.56C340.517 134.84 338.731 133.813 337.184 132.48C335.664 131.147 334.477 129.52 333.624 127.6C332.771 125.653 332.344 123.453 332.344 121C332.344 118.547 332.771 116.36 333.624 114.44C334.504 112.493 335.717 110.853 337.264 109.52C338.811 108.187 340.624 107.173 342.704 106.48C344.784 105.76 347.051 105.4 349.504 105.4C352.704 105.4 355.477 105.907 357.824 106.92C360.171 107.907 362.064 109.28 363.504 111.04C364.971 112.8 365.877 114.813 366.224 117.08H359.384C359.117 115.853 358.531 114.8 357.624 113.92C356.744 113.04 355.611 112.36 354.224 111.88C352.864 111.4 351.291 111.16 349.504 111.16C347.397 111.16 345.571 111.547 344.024 112.32C342.504 113.067 341.317 114.173 340.464 115.64C339.637 117.107 339.224 118.893 339.224 121C339.224 123.107 339.664 124.907 340.544 126.4C341.424 127.893 342.677 129.04 344.304 129.84C345.931 130.613 347.851 131 350.064 131C352.224 131 354.117 130.667 355.744 130C357.371 129.307 358.651 128.347 359.584 127.12C360.544 125.867 361.091 124.387 361.224 122.68L364.144 123ZM350.984 125.76V120.84H366.544V136H361.664L360.744 123.84L362.144 125.76H350.984ZM372.787 106H379.587V136H372.787V106ZM396.077 109.04H402.837V136H396.077V109.04ZM384.117 106H414.757V112H384.117V106ZM419.229 129.68V124.16H440.029V129.68H419.229ZM434.149 106L448.189 136H440.949L428.669 108.76H430.909L418.629 136H411.389L425.429 106H434.149ZM459.018 106V133L455.938 130H478.458V136H452.218V106H459.018ZM534.845 106V136H528.365V108.28L530.085 108.4L517.285 136H510.285L497.485 108.48L499.165 108.32V136H492.725V106H503.165L515.245 132.72H512.325L524.405 106H534.845ZM546.687 129.68V124.16H567.487V129.68H546.687ZM561.607 106L575.647 136H568.407L556.127 108.76H558.367L546.087 136H538.847L552.887 106H561.607ZM584.396 119.32H595.956C597.476 119.32 598.676 118.973 599.556 118.28C600.463 117.56 600.916 116.573 600.916 115.32C600.916 114.067 600.463 113.093 599.556 112.4C598.676 111.707 597.476 111.36 595.956 111.36H583.396L586.476 107.88V136H579.676V106H596.756C598.943 106 600.863 106.4 602.516 107.2C604.169 107.973 605.463 109.053 606.396 110.44C607.329 111.827 607.796 113.453 607.796 115.32C607.796 117.16 607.329 118.773 606.396 120.16C605.463 121.547 604.169 122.64 602.516 123.44C600.863 124.213 598.943 124.6 596.756 124.6H584.396V119.32ZM589.596 121.96H597.356L608.676 136H600.716L589.596 121.96ZM613.679 136V106H620.439V130.48L618.519 129.12L637.079 106H644.319L619.799 136H613.679ZM627.999 121.32L632.879 116.96L644.759 136H636.999L627.999 121.32ZM673.303 118.4V123.6H651.823V118.4H673.303ZM656.383 121L654.383 133.72L651.423 130.36H674.543V136H647.543L649.863 121L647.543 106H674.343V111.64H651.423L654.383 108.28L656.383 121ZM689.644 109.04H696.404V136H689.644V109.04ZM677.684 106H708.324V112H677.684V106ZM712.915 106H719.715V136H712.915V106ZM754.445 131.52L752.085 131.88V106H758.685V136H750.085L730.885 110.12L733.205 109.76V136H726.645V106H735.445L754.445 131.52ZM795.969 123C795.942 124.813 795.582 126.547 794.889 128.2C794.222 129.827 793.262 131.28 792.009 132.56C790.756 133.813 789.209 134.8 787.369 135.52C785.529 136.24 783.396 136.6 780.969 136.6C778.622 136.6 776.422 136.253 774.369 135.56C772.342 134.84 770.556 133.813 769.009 132.48C767.489 131.147 766.302 129.52 765.449 127.6C764.596 125.653 764.169 123.453 764.169 121C764.169 118.547 764.596 116.36 765.449 114.44C766.329 112.493 767.542 110.853 769.089 109.52C770.636 108.187 772.449 107.173 774.529 106.48C776.609 105.76 778.876 105.4 781.329 105.4C784.529 105.4 787.302 105.907 789.649 106.92C791.996 107.907 793.889 109.28 795.329 111.04C796.796 112.8 797.702 114.813 798.049 117.08H791.209C790.942 115.853 790.356 114.8 789.449 113.92C788.569 113.04 787.436 112.36 786.049 111.88C784.689 111.4 783.116 111.16 781.329 111.16C779.222 111.16 777.396 111.547 775.849 112.32C774.329 113.067 773.142 114.173 772.289 115.64C771.462 117.107 771.049 118.893 771.049 121C771.049 123.107 771.489 124.907 772.369 126.4C773.249 127.893 774.502 129.04 776.129 129.84C777.756 130.613 779.676 131 781.889 131C784.049 131 785.942 130.667 787.569 130C789.196 129.307 790.476 128.347 791.409 127.12C792.369 125.867 792.916 124.387 793.049 122.68L795.969 123ZM782.809 125.76V120.84H798.369V136H793.489L792.569 123.84L793.969 125.76H782.809Z" fill="#0E5F66"/>
<path fill-rule="evenodd" clip-rule="evenodd" d="M470.621 405.291C477.3 403.501 484.361 403.733 490.909 405.956C497.457 408.179 503.198 412.294 507.407 417.781C511.616 423.267 514.104 429.879 514.555 436.78C515.006 443.68 513.4 450.559 509.941 456.547C506.482 462.535 501.325 467.363 495.122 470.419C488.92 473.476 481.95 474.624 475.094 473.719C468.238 472.814 461.805 469.897 456.608 465.335C451.41 460.773 447.683 454.773 445.896 448.093C444.708 443.659 444.405 439.034 445.005 434.483C445.605 429.932 447.095 425.544 449.391 421.569C451.687 417.595 454.744 414.111 458.386 411.318C462.029 408.525 466.186 406.477 470.621 405.291ZM465.449 569.547L453.351 515.028C450.025 498.968 466.977 483.44 483.037 480.114L497.405 477.14C511.777 474.182 530.872 479.731 551.76 480.655L540.794 463.374C540.139 463.439 539.48 463.441 538.824 463.379C536.156 463.051 533.636 461.974 531.555 460.272C529.837 458.896 528.334 457.271 527.096 455.452C526.452 454.526 525.881 453.553 525.389 452.539C524.917 451.552 524.515 450.534 524.184 449.492C523.365 447.114 523.192 444.56 523.685 442.094C524.135 440.006 525.316 438.147 527.016 436.854C526.986 436.744 527.083 436.6 527.12 436.489C527.199 436.31 527.294 436.137 527.404 435.975C527.472 435.862 527.551 435.757 527.639 435.659C528.686 429.127 534.448 424.095 540.828 422.689C544.157 418.541 547.184 414.16 549.886 409.58C552.878 404.362 555.206 398.791 556.816 392.996L556.795 392.917C557.308 390.991 557.995 389.115 558.848 387.312C559.12 386.639 559.579 386.057 560.171 385.636C560.762 385.215 561.462 384.971 562.187 384.935C563.344 384.793 564.518 384.891 565.635 385.224C567.004 385.627 568.32 386.191 569.556 386.903C573.219 389.113 576.588 391.777 579.583 394.832C583.393 398.585 586.905 402.63 590.087 406.929C593.355 411.265 596.242 415.876 598.716 420.709C600.641 424.309 601.973 428.197 602.66 432.222C602.855 433.534 602.872 434.867 602.711 436.185C602.573 437.321 602.222 438.421 601.676 439.428C601.644 439.471 601.617 439.518 601.595 439.567L601.468 439.719C601.108 440.159 600.691 440.548 600.228 440.877C599.796 441.172 599.326 441.406 598.83 441.572L598.311 441.711C598.173 441.739 598.036 441.775 597.902 441.82C597.745 441.896 597.574 441.942 597.399 441.955C597.227 441.988 597.051 441.99 596.878 441.96L596.173 442.031C594.525 442.169 592.843 442.182 590.969 442.229L590.859 442.259C582.835 442.068 574.86 443.556 567.446 446.628L587.702 478.708C610.183 517.774 570.292 515.169 544.235 513.945L535.623 514.567L543.078 548.679L465.449 569.547ZM593.784 388.718C593.379 389.144 592.822 389.391 592.236 389.407C591.649 389.422 591.08 389.203 590.654 388.799C590.229 388.394 589.981 387.837 589.966 387.25C589.951 386.664 590.17 386.095 590.574 385.669L601.633 373.994C602.04 373.57 602.599 373.325 603.187 373.313C603.774 373.301 604.343 373.523 604.767 373.93C605.191 374.337 605.436 374.896 605.448 375.483C605.46 376.071 605.238 376.639 604.831 377.064L593.784 388.718ZM582.382 379.557C582.22 379.8 582.012 380.008 581.77 380.17C581.527 380.332 581.255 380.445 580.969 380.502C580.684 380.559 580.389 380.559 580.103 380.503C579.817 380.446 579.545 380.334 579.303 380.172C579.06 380.01 578.852 379.802 578.69 379.56C578.528 379.317 578.415 379.045 578.358 378.759C578.301 378.474 578.301 378.179 578.357 377.893C578.414 377.607 578.527 377.335 578.688 377.093L588.317 362.718C588.644 362.227 589.152 361.886 589.73 361.769C590.308 361.652 590.909 361.769 591.401 362.094C591.643 362.256 591.85 362.464 592.011 362.706C592.172 362.948 592.284 363.22 592.34 363.505C592.397 363.79 592.396 364.084 592.338 364.369C592.281 364.654 592.168 364.925 592.006 365.167L582.378 379.542L582.382 379.557ZM615.887 426.184C615.342 426.337 614.759 426.275 614.258 426.012C613.757 425.748 613.376 425.302 613.193 424.766C613.011 424.23 613.041 423.645 613.277 423.13C613.513 422.615 613.937 422.211 614.462 421.999L629.171 416.963C629.447 416.869 629.738 416.831 630.029 416.849C630.32 416.868 630.604 416.944 630.865 417.073C631.126 417.202 631.36 417.381 631.552 417.599C631.744 417.818 631.891 418.073 631.985 418.349C632.079 418.625 632.118 418.916 632.099 419.207C632.08 419.498 632.004 419.782 631.875 420.043C631.747 420.304 631.568 420.538 631.349 420.73C631.13 420.922 630.875 421.069 630.6 421.163L615.887 426.184ZM611.122 411.858C610.594 412.062 610.008 412.057 609.484 411.842C608.96 411.628 608.538 411.221 608.305 410.705C608.072 410.19 608.045 409.604 608.231 409.069C608.416 408.535 608.799 408.091 609.301 407.83L622.497 401.868C622.764 401.729 623.057 401.646 623.357 401.624C623.657 401.602 623.959 401.641 624.243 401.74C624.527 401.838 624.789 401.994 625.011 402.197C625.233 402.399 625.412 402.645 625.536 402.92C625.66 403.194 625.726 403.491 625.732 403.791C625.737 404.092 625.681 404.391 625.567 404.67C625.453 404.948 625.284 405.201 625.069 405.411C624.854 405.622 624.599 405.787 624.318 405.896L611.122 411.858ZM604.245 399.462C603.765 399.8 603.172 399.937 602.593 399.844C602.014 399.75 601.494 399.434 601.145 398.962C600.974 398.726 600.851 398.458 600.783 398.174C600.715 397.89 600.704 397.596 600.751 397.308C600.797 397.02 600.9 396.744 601.054 396.496C601.208 396.248 601.409 396.032 601.646 395.862L614.264 386.735C614.499 386.562 614.765 386.436 615.048 386.366C615.331 386.295 615.625 386.281 615.914 386.324C616.202 386.367 616.479 386.467 616.729 386.617C616.98 386.768 617.197 386.966 617.371 387.2C617.544 387.435 617.67 387.701 617.741 387.984C617.811 388.267 617.825 388.562 617.782 388.85C617.739 389.139 617.639 389.416 617.489 389.666C617.339 389.916 617.141 390.134 616.906 390.307L604.292 399.45L604.245 399.462ZM581.827 427.29C584.208 429.771 586.805 432.036 589.588 434.056C591.907 435.764 594.449 437.146 597.142 438.166L597.677 438.022L598.139 437.797C598.296 437.683 598.442 437.553 598.574 437.411C598.892 436.785 599.087 436.103 599.149 435.404C599.237 434.462 599.209 433.513 599.066 432.578C598.411 428.885 597.166 425.321 595.378 422.024C593.022 417.475 590.281 413.136 587.185 409.055C584.142 404.943 580.789 401.071 577.156 397.47C574.381 394.648 571.264 392.183 567.877 390.133C566.957 389.599 565.982 389.165 564.969 388.84C563.144 388.318 562.596 388.094 561.969 389.526L561.99 389.604C561.792 392.851 562.357 396.098 563.638 399.087C565.331 403.554 567.462 407.843 570 411.89C571.316 411.026 572.819 410.486 574.384 410.315C575.95 410.145 577.533 410.349 579.005 410.91C580.433 411.532 581.674 412.519 582.602 413.771C583.538 415.034 584.177 416.493 584.47 418.039C584.808 419.683 584.752 421.384 584.307 423.002C583.863 424.621 583.041 426.111 581.911 427.352L581.827 427.29Z" fill="white"/>
</g>
<defs>
<radialGradient id="paint0_radial_241_215" cx="0" cy="0" r="1" gradientUnits="userSpaceOnUse" gradientTransform="translate(540 540) rotate(90) scale(540)">
<stop offset="0.745" stop-color="#EBF7F2" stop-opacity="0"/>
<stop offset="1" stop-color="#EBF7F2"/>
</radialGradient>
<clipPath id="clip0_241_215">
<rect width="1080" height="1080" fill="white"/>
</clipPath>
</defs>
</svg>
