<svg width="1080" height="1080" viewBox="0 0 1080 1080" fill="none" xmlns="http://www.w3.org/2000/svg">
<g clip-path="url(#clip0_241_319)">
<rect width="1080" height="1080" fill="white"/>
<line y1="26.5" x2="1080" y2="26.5" stroke="#C4C4C4"/>
<line y1="53.5" x2="1080" y2="53.5" stroke="#C4C4C4"/>
<line y1="80.5" x2="1080" y2="80.5" stroke="#C4C4C4"/>
<line y1="107.5" x2="1080" y2="107.5" stroke="#C4C4C4"/>
<line y1="134.5" x2="1080" y2="134.5" stroke="#C4C4C4"/>
<line y1="161.5" x2="1080" y2="161.5" stroke="#C4C4C4"/>
<line y1="188.5" x2="1080" y2="188.5" stroke="#C4C4C4"/>
<line y1="215.5" x2="1080" y2="215.5" stroke="#C4C4C4"/>
<line y1="242.5" x2="1080" y2="242.5" stroke="#C4C4C4"/>
<line y1="269.5" x2="1080" y2="269.5" stroke="#C4C4C4"/>
<line y1="296.5" x2="1080" y2="296.5" stroke="#C4C4C4"/>
<line y1="323.5" x2="1080" y2="323.5" stroke="#C4C4C4"/>
<line y1="350.5" x2="1080" y2="350.5" stroke="#C4C4C4"/>
<line y1="377.5" x2="1080" y2="377.5" stroke="#C4C4C4"/>
<line y1="404.5" x2="1080" y2="404.5" stroke="#C4C4C4"/>
<line y1="431.5" x2="1080" y2="431.5" stroke="#C4C4C4"/>
<line y1="458.5" x2="1080" y2="458.5" stroke="#C4C4C4"/>
<line y1="485.5" x2="1080" y2="485.5" stroke="#C4C4C4"/>
<line y1="512.5" x2="1080" y2="512.5" stroke="#C4C4C4"/>
<line y1="539.5" x2="1080" y2="539.5" stroke="#C4C4C4"/>
<line y1="566.5" x2="1080" y2="566.5" stroke="#C4C4C4"/>
<line y1="593.5" x2="1080" y2="593.5" stroke="#C4C4C4"/>
<line y1="620.5" x2="1080" y2="620.5" stroke="#C4C4C4"/>
<line y1="647.5" x2="1080" y2="647.5" stroke="#C4C4C4"/>
<line y1="674.5" x2="1080" y2="674.5" stroke="#C4C4C4"/>
<line y1="701.5" x2="1080" y2="701.5" stroke="#C4C4C4"/>
<line y1="728.5" x2="1080" y2="728.5" stroke="#C4C4C4"/>
<line y1="755.5" x2="1080" y2="755.5" stroke="#C4C4C4"/>
<line y1="782.5" x2="1080" y2="782.5" stroke="#C4C4C4"/>
<line y1="809.5" x2="1080" y2="809.5" stroke="#C4C4C4"/>
<line y1="836.5" x2="1080" y2="836.5" stroke="#C4C4C4"/>
<line y1="863.5" x2="1080" y2="863.5" stroke="#C4C4C4"/>
<line y1="890.5" x2="1080" y2="890.5" stroke="#C4C4C4"/>
<line y1="917.5" x2="1080" y2="917.5" stroke="#C4C4C4"/>
<line y1="944.5" x2="1080" y2="944.5" stroke="#C4C4C4"/>
<line y1="971.5" x2="1080" y2="971.5" stroke="#C4C4C4"/>
<line y1="998.5" x2="1080" y2="998.5" stroke="#C4C4C4"/>
<line y1="1025.5" x2="1080" y2="1025.5" stroke="#C4C4C4"/>
<line y1="1052.5" x2="1080" y2="1052.5" stroke="#C4C4C4"/>
<line x1="26.5" y1="1080" x2="26.5" stroke="#C4C4C4"/>
<line x1="53.5" y1="1080" x2="53.5" stroke="#C4C4C4"/>
<line x1="80.5" y1="1080" x2="80.5" stroke="#C4C4C4"/>
<line x1="107.5" y1="1080" x2="107.5" stroke="#C4C4C4"/>
<line x1="134.5" y1="1080" x2="134.5" stroke="#C4C4C4"/>
<line x1="161.5" y1="1080" x2="161.5" stroke="#C4C4C4"/>
<line x1="188.5" y1="1080" x2="188.5" stroke="#C4C4C4"/>
<line x1="215.5" y1="1080" x2="215.5" stroke="#C4C4C4"/>
<line x1="242.5" y1="1080" x2="242.5" stroke="#C4C4C4"/>
<line x1="269.5" y1="1080" x2="269.5" stroke="#C4C4C4"/>
<line x1="296.5" y1="1080" x2="296.5" stroke="#C4C4C4"/>
<line x1="323.5" y1="1080" x2="323.5" stroke="#C4C4C4"/>
<line x1="350.5" y1="1080" x2="350.5" stroke="#C4C4C4"/>
<line x1="377.5" y1="1080" x2="377.5" stroke="#C4C4C4"/>
<line x1="404.5" y1="1080" x2="404.5" stroke="#C4C4C4"/>
<line x1="431.5" y1="1080" x2="431.5" stroke="#C4C4C4"/>
<line x1="458.5" y1="1080" x2="458.5" stroke="#C4C4C4"/>
<line x1="485.5" y1="1080" x2="485.5" stroke="#C4C4C4"/>
<line x1="512.5" y1="1080" x2="512.5" stroke="#C4C4C4"/>
<line x1="539.5" y1="1080" x2="539.5" stroke="#C4C4C4"/>
<line x1="566.5" y1="1080" x2="566.5" stroke="#C4C4C4"/>
<line x1="593.5" y1="1080" x2="593.5" stroke="#C4C4C4"/>
<line x1="620.5" y1="1080" x2="620.5" stroke="#C4C4C4"/>
<line x1="647.5" y1="1080" x2="647.5" stroke="#C4C4C4"/>
<line x1="674.5" y1="1080" x2="674.5" stroke="#C4C4C4"/>
<line x1="701.5" y1="1080" x2="701.5" stroke="#C4C4C4"/>
<line x1="728.5" y1="1080" x2="728.5" stroke="#C4C4C4"/>
<line x1="755.5" y1="1080" x2="755.5" stroke="#C4C4C4"/>
<line x1="782.5" y1="1080" x2="782.5" stroke="#C4C4C4"/>
<line x1="809.5" y1="1080" x2="809.5" stroke="#C4C4C4"/>
<line x1="836.5" y1="1080" x2="836.5" stroke="#C4C4C4"/>
<line x1="863.5" y1="1080" x2="863.5" stroke="#C4C4C4"/>
<line x1="890.5" y1="1080" x2="890.5" stroke="#C4C4C4"/>
<line x1="917.5" y1="1080" x2="917.5" stroke="#C4C4C4"/>
<line x1="944.5" y1="1080" x2="944.5" stroke="#C4C4C4"/>
<line x1="971.5" y1="1080" x2="971.5" stroke="#C4C4C4"/>
<line x1="998.5" y1="1080" x2="998.5" stroke="#C4C4C4"/>
<line x1="1025.5" y1="1080" x2="1025.5" stroke="#C4C4C4"/>
<line x1="1052.5" y1="1080" x2="1052.5" stroke="#C4C4C4"/>
<rect width="1080" height="1080" fill="url(#paint0_radial_241_319)"/>
<path d="M300.634 176V206H294.154V178.28L295.874 178.4L283.074 206H276.074L263.274 178.48L264.954 178.32V206H258.514V176H268.954L281.034 202.72H278.114L290.194 176H300.634ZM312.476 199.68V194.16H333.276V199.68H312.476ZM327.396 176L341.436 206H334.196L321.916 178.76H324.156L311.876 206H304.636L318.676 176H327.396ZM373.265 201.52L370.905 201.88V176H377.505V206H368.905L349.705 180.12L352.025 179.76V206H345.465V176H354.265L373.265 201.52ZM389.349 199.68V194.16H410.149V199.68H389.349ZM404.269 176L418.309 206H411.069L398.789 178.76H401.029L388.749 206H381.509L395.549 176H404.269ZM450.98 193C450.953 194.813 450.593 196.547 449.9 198.2C449.233 199.827 448.273 201.28 447.02 202.56C445.767 203.813 444.22 204.8 442.38 205.52C440.54 206.24 438.407 206.6 435.98 206.6C433.633 206.6 431.433 206.253 429.38 205.56C427.353 204.84 425.567 203.813 424.02 202.48C422.5 201.147 421.313 199.52 420.46 197.6C419.607 195.653 419.18 193.453 419.18 191C419.18 188.547 419.607 186.36 420.46 184.44C421.34 182.493 422.553 180.853 424.1 179.52C425.647 178.187 427.46 177.173 429.54 176.48C431.62 175.76 433.887 175.4 436.34 175.4C439.54 175.4 442.313 175.907 444.66 176.92C447.007 177.907 448.9 179.28 450.34 181.04C451.807 182.8 452.713 184.813 453.06 187.08H446.22C445.953 185.853 445.367 184.8 444.46 183.92C443.58 183.04 442.447 182.36 441.06 181.88C439.7 181.4 438.127 181.16 436.34 181.16C434.233 181.16 432.407 181.547 430.86 182.32C429.34 183.067 428.153 184.173 427.3 185.64C426.473 187.107 426.06 188.893 426.06 191C426.06 193.107 426.5 194.907 427.38 196.4C428.26 197.893 429.513 199.04 431.14 199.84C432.767 200.613 434.687 201 436.9 201C439.06 201 440.953 200.667 442.58 200C444.207 199.307 445.487 198.347 446.42 197.12C447.38 195.867 447.927 194.387 448.06 192.68L450.98 193ZM437.82 195.76V190.84H453.38V206H448.5L447.58 193.84L448.98 195.76H437.82ZM484.423 188.4V193.6H462.943V188.4H484.423ZM467.503 191L465.503 203.72L462.543 200.36H485.663V206H458.663L460.983 191L458.663 176H485.463V181.64H462.543L465.503 178.28L467.503 191ZM505.874 176C509.367 176 512.421 176.627 515.034 177.88C517.674 179.133 519.727 180.88 521.194 183.12C522.661 185.36 523.394 187.987 523.394 191C523.394 193.987 522.661 196.613 521.194 198.88C519.727 201.12 517.674 202.867 515.034 204.12C512.421 205.373 509.367 206 505.874 206H491.634V176H505.874ZM498.394 203.32L494.954 200H506.394C508.421 200 510.194 199.627 511.714 198.88C513.261 198.133 514.447 197.08 515.274 195.72C516.101 194.36 516.514 192.787 516.514 191C516.514 189.187 516.101 187.613 515.274 186.28C514.447 184.92 513.261 183.867 511.714 183.12C510.194 182.373 508.421 182 506.394 182H494.954L498.394 178.68V203.32ZM538.314 196.2H545.194C545.354 197.213 545.794 198.107 546.514 198.88C547.26 199.627 548.247 200.213 549.474 200.64C550.727 201.04 552.167 201.24 553.794 201.24C556.167 201.24 558.034 200.907 559.394 200.24C560.78 199.547 561.474 198.587 561.474 197.36C561.474 196.4 561.074 195.667 560.274 195.16C559.5 194.627 558.047 194.24 555.914 194L549.874 193.32C545.98 192.893 543.154 191.987 541.394 190.6C539.66 189.187 538.794 187.227 538.794 184.72C538.794 182.747 539.367 181.067 540.514 179.68C541.687 178.293 543.327 177.24 545.434 176.52C547.54 175.773 550.02 175.4 552.874 175.4C555.647 175.4 558.114 175.813 560.274 176.64C562.434 177.44 564.154 178.573 565.434 180.04C566.714 181.48 567.407 183.173 567.514 185.12H560.634C560.5 184.24 560.1 183.48 559.434 182.84C558.794 182.173 557.9 181.667 556.754 181.32C555.607 180.947 554.26 180.76 552.714 180.76C550.554 180.76 548.834 181.08 547.554 181.72C546.274 182.36 545.634 183.267 545.634 184.44C545.634 185.347 546.007 186.053 546.754 186.56C547.527 187.04 548.874 187.4 550.794 187.64L557.074 188.4C559.847 188.693 562.047 189.173 563.674 189.84C565.327 190.48 566.5 191.347 567.194 192.44C567.914 193.533 568.274 194.92 568.274 196.6C568.274 198.6 567.66 200.36 566.434 201.88C565.234 203.373 563.54 204.533 561.354 205.36C559.167 206.187 556.607 206.6 553.674 206.6C550.687 206.6 548.06 206.173 545.794 205.32C543.527 204.44 541.74 203.227 540.434 201.68C539.127 200.107 538.42 198.28 538.314 196.2ZM598.404 188.4V193.6H576.924V188.4H598.404ZM581.484 191L579.484 203.72L576.524 200.36H599.644V206H572.644L574.964 191L572.644 176H599.444V181.64H576.524L579.484 178.28L581.484 191ZM610.335 189.32H621.895C623.415 189.32 624.615 188.973 625.495 188.28C626.402 187.56 626.855 186.573 626.855 185.32C626.855 184.067 626.402 183.093 625.495 182.4C624.615 181.707 623.415 181.36 621.895 181.36H609.335L612.415 177.88V206H605.615V176H622.695C624.882 176 626.802 176.4 628.455 177.2C630.108 177.973 631.402 179.053 632.335 180.44C633.268 181.827 633.735 183.453 633.735 185.32C633.735 187.16 633.268 188.773 632.335 190.16C631.402 191.547 630.108 192.64 628.455 193.44C626.802 194.213 624.882 194.6 622.695 194.6H610.335V189.32ZM615.535 191.96H623.295L634.615 206H626.655L615.535 191.96ZM654.854 203H651.854L664.094 176H671.294L657.054 206H649.414L635.214 176H642.494L654.854 203ZM675.34 176H682.14V206H675.34V176ZM721.55 193.8C721.257 196.333 720.363 198.573 718.87 200.52C717.403 202.44 715.457 203.933 713.03 205C710.63 206.067 707.883 206.6 704.79 206.6C701.377 206.6 698.377 205.947 695.79 204.64C693.23 203.333 691.23 201.52 689.79 199.2C688.35 196.853 687.63 194.12 687.63 191C687.63 187.88 688.35 185.16 689.79 182.84C691.23 180.493 693.23 178.667 695.79 177.36C698.377 176.053 701.377 175.4 704.79 175.4C707.883 175.4 710.63 175.933 713.03 177C715.457 178.067 717.403 179.56 718.87 181.48C720.363 183.4 721.257 185.64 721.55 188.2H714.71C714.443 186.787 713.87 185.573 712.99 184.56C712.11 183.52 710.977 182.72 709.59 182.16C708.203 181.6 706.59 181.32 704.75 181.32C702.643 181.32 700.817 181.72 699.27 182.52C697.75 183.293 696.577 184.413 695.75 185.88C694.923 187.32 694.51 189.027 694.51 191C694.51 192.973 694.923 194.693 695.75 196.16C696.577 197.6 697.75 198.72 699.27 199.52C700.817 200.293 702.643 200.68 704.75 200.68C706.59 200.68 708.203 200.413 709.59 199.88C710.977 199.32 712.11 198.533 712.99 197.52C713.87 196.48 714.443 195.24 714.71 193.8H721.55ZM751.506 188.4V193.6H730.026V188.4H751.506ZM734.586 191L732.586 203.72L729.626 200.36H752.746V206H725.746L728.066 191L725.746 176H752.546V181.64H729.626L732.586 178.28L734.586 191ZM757.117 196.2H763.997C764.157 197.213 764.597 198.107 765.317 198.88C766.063 199.627 767.05 200.213 768.277 200.64C769.53 201.04 770.97 201.24 772.597 201.24C774.97 201.24 776.837 200.907 778.197 200.24C779.583 199.547 780.277 198.587 780.277 197.36C780.277 196.4 779.877 195.667 779.077 195.16C778.303 194.627 776.85 194.24 774.717 194L768.677 193.32C764.783 192.893 761.957 191.987 760.197 190.6C758.463 189.187 757.597 187.227 757.597 184.72C757.597 182.747 758.17 181.067 759.317 179.68C760.49 178.293 762.13 177.24 764.237 176.52C766.343 175.773 768.823 175.4 771.677 175.4C774.45 175.4 776.917 175.813 779.077 176.64C781.237 177.44 782.957 178.573 784.237 180.04C785.517 181.48 786.21 183.173 786.317 185.12H779.437C779.303 184.24 778.903 183.48 778.237 182.84C777.597 182.173 776.703 181.667 775.557 181.32C774.41 180.947 773.063 180.76 771.517 180.76C769.357 180.76 767.637 181.08 766.357 181.72C765.077 182.36 764.437 183.267 764.437 184.44C764.437 185.347 764.81 186.053 765.557 186.56C766.33 187.04 767.677 187.4 769.597 187.64L775.877 188.4C778.65 188.693 780.85 189.173 782.477 189.84C784.13 190.48 785.303 191.347 785.997 192.44C786.717 193.533 787.077 194.92 787.077 196.6C787.077 198.6 786.463 200.36 785.237 201.88C784.037 203.373 782.343 204.533 780.157 205.36C777.97 206.187 775.41 206.6 772.477 206.6C769.49 206.6 766.863 206.173 764.597 205.32C762.33 204.44 760.543 203.227 759.237 201.68C757.93 200.107 757.223 198.28 757.117 196.2Z" fill="#0E5F66"/>
<path d="M475.16 314.554L475.631 317.919L470.669 318.937L469.937 326.055H476.012L484.021 325.311L488.162 320.394L483.728 318.67L481.298 315.915L477.653 310.127L476.012 301.787L469.18 303.18L467.278 306.113V309.363L470.542 311.672L475.16 314.554Z" fill="url(#paint1_linear_241_319)"/>
<path d="M469.429 317.302L469.753 312.824L465.828 311.125L460.224 312.385L456.083 319V323.332H460.924L469.429 317.302Z" fill="url(#paint2_linear_241_319)"/>
<path d="M353.572 339.446H347.662V342.531H349.081C349.081 342.531 349.182 343.167 349.271 344.019L352.948 343.689L355.13 342.327L355.792 339.452L358.699 339.229L359.869 336.799L357.147 336.214L354.844 336.278L353.572 339.446Z" fill="url(#paint3_linear_241_319)"/>
<path d="M339.278 344.846L343.636 344.484L343.992 341.475L341.397 339.446L339.526 341.876L339.278 344.846Z" fill="url(#paint4_linear_241_319)"/>
<path d="M793.705 488.591L781.021 488.972L780.518 482.071L782.573 482.961L787.541 482.382L787.032 476.059L773.247 476.225L769.513 471.25L769.685 468.591L751.982 452.65L747.548 456.098L772.955 487.077L776.53 488.273V489.946H771.746L772.955 493.807L804.055 495.168L793.705 488.591Z" fill="url(#paint5_linear_241_319)"/>
<path d="M815.841 454.037L813.691 453.159L812.686 447.834H809.556L807.565 453.184L805.193 455.309L787.19 465.112V474.768L793.176 482.707H808.322L810.288 477.77L813.691 474.666V472.395L815.841 471.034V454.037Z" fill="url(#paint6_linear_241_319)"/>
<path d="M827.05 471.034L817.941 474.545L818.132 476.568H815.842V489.157H820.441L819.805 481.129L823.386 482.458V488.082L827.171 487.827L827.05 471.034Z" fill="url(#paint7_linear_241_319)"/>
<path d="M903.709 547.254L901.209 537.089L891.947 529.144L891.209 513.997L885.14 503.527L879.638 503.234L877.361 522.248L866.916 521.491L863.881 519.691L863.595 512.191L869.091 513.336L873.811 508.743L863.786 502.7H852.081L843.633 514.723H840.243V510.931L830.059 511.65L814.073 529.843L805.574 530.034L796.115 536.484L795.511 564.773L789.754 570.275V575.243L817.343 565.784L839.607 564.894L847.87 583.087L873.22 583.945L897.647 560.975L903.709 547.254Z" fill="url(#paint8_linear_241_319)"/>
<path d="M851.223 597.101L860.179 598.029L867.393 594.066L867.584 588.596L859.639 587.743L851.223 597.101Z" fill="url(#paint9_linear_241_319)"/>
<path d="M937.437 572.266L933.709 572.998L933.601 564.582L926.737 565.021L925.821 578.188L919.816 582.298L908.646 583.818L890.739 596.566L887.736 599.066V603.303L897.03 601.909L919.791 587.991L926.171 583.755L933.035 580.714L940 576.795L937.437 572.266Z" fill="url(#paint10_linear_241_319)"/>
<path d="M867.043 478.273L861.254 478.464L861.731 472.421L856.197 469.164L848.404 477.013L853.659 483.464L865.02 485.111L871.343 488.432L871.534 491.53H867.361L867.583 497.916L881.305 497.038L886.298 491.689L891.718 491.186V500.995H900.986V497.038H896.266L895.484 485.111L873.219 475.01L867.043 478.273Z" fill="url(#paint11_linear_241_319)"/>
<path d="M701.836 449.711L704.018 455.563L711.842 452.65L712.625 444.558L706.391 443.356L701.836 449.711Z" fill="url(#paint12_linear_241_319)"/>
<path d="M609.897 517.884L599.235 516.497V524.78L603.065 529.207L600.151 533.698L595.819 538.673V547.814L601.735 553.507L607.053 544.932L617.524 529.589L622.524 505.48H616.163L609.897 517.884Z" fill="url(#paint13_linear_241_319)"/>
<path d="M829.321 492.446H825.784V494.316L828.5 495.168L829.321 492.446Z" fill="url(#paint14_linear_241_319)"/>
<path d="M813.736 495.168H809.557V497.446H813.736V495.168Z" fill="url(#paint15_linear_241_319)"/>
<path d="M819.652 497.446H822.216V495.448L824.118 495.168V493.209H819.989L818.291 495.168L815.842 497.446V499.437L819.652 499.087V497.446Z" fill="url(#paint16_linear_241_319)"/>
<path d="M830.25 499.29H834.391V497.134L837.247 497.445L836.865 493.807L832.177 494.538L831.732 496.886L826.49 497.445H826.229V501.052H830.25V499.29Z" fill="url(#paint17_linear_241_319)"/>
<path d="M755.136 448.095L779.652 471.632L780.95 467.452L761.02 439.107L763.113 430.818L773.616 442.745L779.468 443.343L787.184 438.216L785.918 430.494L773.132 420.265L772.636 410.965L776.262 406.073L782.661 408.115L782.184 412.485L785.855 418.159L789.118 415.818L787.311 409.114L805.377 402.638L813.291 396.029L812.063 384.069L796.37 367.556L796.077 354.108H803.043L824.747 370.622L830.886 369.012L826.776 363.694L815.173 356.627L815.899 346.106L829.664 346.138L830.778 333.116L825.523 326.252L828.653 322.868L835.326 329.605L837.514 326.755L828.818 316.952L807.546 314.389L804.703 308.695L810.873 299.898L815.752 303.562L830.485 304.834L849.028 292.449L852.126 296.304L847.985 302.786V309.192L865.039 323.129L870.446 320.311L868.43 311.011L856.28 299.669L872.291 298.594V293.975L879.982 292.411L874.091 288.327L874.314 285.191L890.624 287.805L893.728 285.191L871.737 275.922L791.764 271.813L784.321 268.015L772.394 266.196L763.514 265.91L755.391 274.109L752 273.849L741.211 265.846H709.45L694.743 257.042L665.258 258.893L642.912 268.97L643.045 280.56L636.124 282.64L634.572 271.005L631.97 266.991L624.279 265.07L622.479 272.036L624.731 277.748L597.2 275.929L584.102 281.985L582.111 276.247L578.79 277.099L576.386 283.473L569.522 288.855L552.754 288.397L551.965 284.682L569.56 283.937L573.135 280.852L551.971 271.011L526.183 271.788L511.749 279.173L506.304 288.867L496.686 292.595L492.672 296.997L493.595 302.086L498.556 302.767L501.559 310.216L509.975 306.781L511.463 316.717H508.804L501.883 315.686L494.161 316.984L486.693 327.537L475.936 329.261L474.422 338.409L478.983 339.471L477.679 345.374L466.966 343.269L457.227 345.374L455.192 350.813L456.846 362.219L462.628 364.903L472.183 364.871L478.703 364.254L480.7 359.07L490.815 345.953L497.494 347.308L504.046 341.373L505.274 346.01L521.419 356.926L519.421 359.579L512.144 359.153L514.898 363.135L519.421 364.121L524.669 361.939L524.58 355.597L526.953 354.42L525.019 352.416L514.23 346.417L511.451 338.396H520.369L523.219 341.214L530.973 347.893L531.247 355.959L539.281 364.471L542.258 352.81L547.799 349.757L548.829 359.312L554.249 365.272L570.559 365.024L575.406 368.612V377.174L569.452 382.581H552.907L542.849 375.062L532.284 376.124V382.575H528.893L525.293 379.979L506.972 375.31V363.459L483.69 365.266L476.47 369.127H467.297L462.749 368.675L451.553 374.903V386.589L428.646 403.153L430.574 410.176H435.192L434.022 416.887L430.765 418.121L430.574 435.678L450.319 458.203H458.926L459.524 456.816H474.956L479.46 452.707H488.219L493.06 457.542L506.133 458.871L504.421 476.307L518.938 501.962L511.279 516.58L511.819 523.444L517.894 529.455V546.033L525.77 556.662V570.453H549.179L566.768 552.419L572.277 542.585L579.331 541.033V532.814L583.968 527.305L593.752 513.826L591.716 493.387L587.416 485.798L606.723 467.325L627.95 436.919L623.891 434.991L601.774 439.641L596.048 436.823L572.836 393.039L574.446 391.137L597.511 419.094L598.078 427.739L603.332 433.089L614.28 432.396L636.83 416.009L643.987 411.385L643.866 405.672L636.309 404.743C636.309 404.743 609.757 392.225 609.757 391.671C609.757 391.099 609.916 380.946 609.916 380.946H615.8L616.652 388.351L628.93 395.437L643.007 396.111L673.42 401.098L680.589 405.609V412.568L679.667 422.071L695.334 447.733L700.296 448.903L705.36 441.594L708.12 420.812L713.337 409.623L721.708 406.48L736.479 407.905L755.117 424.438V448.102L755.136 448.095ZM540.954 284.688L530.776 290.967V295.076L536.526 297.767L536.972 303.352L528.74 315.527L514.504 315.387L513.62 312.474L522.513 307.932L522.608 291.087L537.671 280.528H540.967V284.688H540.954ZM572.563 356.474V356.443L559.16 355.864L555.165 356.443V347.314L558.18 343.917L561.399 342.9L568.555 342.092L570.069 339.655L573.002 341.099L573.39 349.452L581.208 352.664L581.869 356.481L572.563 356.474ZM624.038 362.995H624.006L621.633 365.221L616.207 364.814L615.177 363.186L606.665 362.53L607.263 359.814L611.824 355.934V352.658L603.154 346.392L602.772 338.37L604.541 334.446L611.532 333.797L617.454 336.284L617.74 340.425L609.267 339.954L608.86 343.777L619.42 350.8V355.985L624.038 359.305V362.995Z" fill="url(#paint18_linear_241_319)"/>
<path d="M395.874 477.611L377.623 477.452L363.158 471.95L362.465 461.638L357.63 453.184L344.628 453.032L337.032 441.13L330.321 437.905L329.978 441.454L317.764 442.211L313.273 435.983L300.494 433.388L289.985 445.506L273.509 442.72L272.307 424.088L260.221 422.014L265.068 412.918L263.669 407.663L247.886 418.267L237.918 417.065L234.311 409.247L236.532 401.181L242.034 391.086L254.655 384.661H279.114L279.05 392.11L287.848 396.162L287.122 383.427L293.452 377.085L306.231 368.688L307.046 362.798L319.838 349.541L333.407 342.06L332.192 341.1L341.333 332.442L344.723 333.313L346.275 335.26L349.749 331.373L350.544 330.972L346.784 330.464L342.923 329.172V325.4L344.946 323.727H349.5L351.593 324.63L353.362 328.218L355.544 327.9V327.684L356.205 327.868L362.535 326.857L363.412 323.759L366.956 324.662V328.002L363.641 330.343L364.144 334.058L375.664 337.588C375.664 337.588 375.696 337.652 375.696 337.715L378.323 337.493L378.514 332.537L369.405 328.396L368.864 325.96L376.428 323.364L376.739 316.17L368.858 311.342L368.349 299.166L357.439 304.484H353.489L354.526 295.197L339.844 291.686L333.712 296.285V310.413L322.726 313.848L318.299 323.053L313.553 323.797V312.061L303.235 310.604L298.083 307.271L295.99 299.694L314.457 288.874L323.477 286.119L324.361 292.182L329.424 291.927L329.832 288.874L335.086 288.13L335.143 287.099L332.929 286.119L332.389 282.913L338.845 282.354L342.739 278.276L343.018 277.99V278.022L344.189 276.788L357.859 275.076L363.832 280.184L348.018 288.588L368.107 293.314L370.677 286.571H379.5L382.56 280.738L376.402 279.179V271.794L356.943 263.175L343.559 264.727L335.932 268.683L336.505 278.34L328.617 277.106L327.414 271.794L334.921 264.898L321.218 264.218L317.224 265.376L315.481 270.038L320.678 270.929L319.628 276.101L310.869 276.629L309.507 280.025L296.696 280.388C296.696 280.388 296.41 273.162 295.901 273.162C295.36 273.162 305.869 273.009 305.869 273.009L313.458 265.585L309.317 263.493L303.814 268.868L294.667 268.365L289.196 260.776H277.485L265.252 269.917H276.448L277.485 273.187L274.546 275.942L286.951 276.31L288.846 280.77L274.896 280.21L274.203 276.781L265.443 274.866L260.793 272.322L240.126 272.513L233.771 278.696L229.439 278.327L224.623 275.541L210.355 271.266H184.191L169.064 281.565L158.906 283.136L154.262 286.756L161.475 287.818V290.712H146.037L140 295.012L147.71 301.565L168.874 301.749L171.819 298.6H189.503L195.89 304.281L195.508 313.091L200.896 318.072L196.405 321.284L197.416 332.874L181.443 352.321V370.558L190.012 374.706V391.073L198.345 405.151L204.98 406.162L205.839 401.34L197.995 389.159L196.443 377.295H201.093L203.084 389.508L214.534 406.194L211.468 411.575L218.803 422.714L236.907 427.192V424.279L244.114 425.271L243.453 430.462L249.114 431.442L257.912 433.91L270.316 448.019L286.13 449.196L287.682 462.134L276.836 469.692L276.296 481.174L274.782 488.266L290.437 507.878L291.639 514.551C291.639 514.551 297.338 516.103 297.968 516.103C298.662 516.103 310.748 525.251 310.748 525.251V560.651L315.048 561.917L312.046 578.239L319.291 587.858L317.987 604.047L327.516 620.879L339.787 631.578L352.07 631.801L353.298 627.876L344.284 620.255L344.819 616.451L346.473 611.776L346.816 607.094L340.646 606.91L337.484 603.048L342.637 598.118L343.33 594.448L337.637 592.839L337.948 589.384L346.053 588.188L358.355 582.304L362.503 574.709L375.403 558.132L372.471 545.257L376.428 538.361L388.285 538.711L396.255 532.445L398.851 507.484L407.718 496.192L409.296 488.979L401.192 486.383L395.874 477.611ZM299.323 353.339H292.739L293.795 348.86L296.893 348.529L297.587 347.009L302.3 346.36V350.381H302.326L299.323 353.339ZM303.871 342.251L300.767 344.261L296.88 344.935C296.88 344.935 296.88 338.784 296.88 338.135H303.871V342.251ZM309.756 337.493L312.949 339.439L310.392 341.545L307.955 339.439L309.756 337.493ZM305.583 342.645H306.092L313.999 344.935V348.994H307.357L305.589 346.392L305.583 342.645ZM300.424 331.526L304.698 335.419L300.424 336.462V331.526ZM282.332 332.175L288.274 329.719H296.442V332.175H298.21V336.462H285.78L281.187 335.196L282.332 332.175ZM281.187 343.307L285.901 338.148H292.733L283.974 350.393L280.335 348.447L281.187 343.307ZM274.864 314.147L279.737 315.273L278.051 321.889L272.765 323.587L269.445 316.704L274.864 314.147ZM250.342 282.907V282.519H254.871L255.278 280.954H262.689V284.198L260.501 287.01H250.342V282.907ZM257.53 292.977C257.53 292.977 262.085 292.175 262.434 292.175C262.784 292.175 262.434 296.711 262.434 296.711L252.237 297.36L250.316 295.051L257.53 292.977Z" fill="url(#paint19_linear_241_319)"/>
<path d="M460.033 802.434L446.35 797.39C447.431 787.415 447.081 777.237 445.198 767.123L458.417 761.035C466.667 757.238 470.287 747.422 466.489 739.166L458.78 722.416C454.975 714.166 445.167 710.54 436.929 714.338L423.697 720.438C417.228 712.429 409.728 705.553 401.452 699.891L406.497 686.221C409.639 677.703 405.269 668.2 396.751 665.057L379.442 658.664C371.192 655.624 361.332 660.166 358.279 668.41L353.234 682.086C343.266 681.018 333.088 681.367 322.974 683.238L316.886 670.032C313.076 661.775 303.273 658.149 295.023 661.947L278.273 669.663C270.017 673.467 266.403 683.282 270.195 691.52L276.289 704.739C268.293 711.214 261.404 718.721 255.736 726.996L242.078 721.958C233.834 718.892 223.955 723.421 220.902 731.685L214.515 749C212.995 753.128 213.173 757.613 215.005 761.602C216.862 765.59 220.145 768.631 224.267 770.151L237.95 775.215C236.868 785.183 237.218 795.361 239.101 805.475L225.882 811.563C217.632 815.367 214.012 825.169 217.804 833.42L225.533 850.182C229.33 858.426 239.133 862.045 247.383 858.254L260.602 852.16C267.071 860.162 274.578 867.045 282.86 872.7L277.815 886.371C276.276 890.499 276.454 894.977 278.299 898.966C280.137 902.967 283.432 906.014 287.548 907.541L304.863 913.927C308.985 915.448 313.457 915.276 317.459 913.45C321.46 911.599 324.5 908.304 326.014 904.182L331.078 890.505C341.046 891.587 351.218 891.237 361.345 889.348L367.42 902.566C371.224 910.817 381.039 914.43 389.283 910.639L406.032 902.929C414.295 899.125 417.902 889.322 414.105 881.065L408.017 867.853C416.013 861.371 422.902 853.877 428.557 845.602L442.234 850.646C446.375 852.173 450.847 852.001 454.848 850.15C458.837 848.324 461.871 845.023 463.391 840.907L469.784 823.598C472.927 815.074 468.55 805.589 460.033 802.434ZM369.411 845.474C360.779 849.45 351.618 851.467 342.178 851.467C316.816 851.467 293.572 836.581 282.968 813.56C267.943 780.921 282.256 742.143 314.882 727.124C323.514 723.148 332.681 721.138 342.108 721.138C367.471 721.138 390.721 736.01 401.331 759.038C416.35 791.671 402.031 830.443 369.411 845.474Z" fill="#0E5F66"/>
<path d="M702.866 830.112L692.866 826.423C693.649 819.12 693.388 811.69 692.007 804.285L701.683 799.839C707.713 797.059 710.359 789.884 707.586 783.847L701.937 771.595C699.157 765.558 691.995 762.912 685.964 765.686L676.282 770.151C671.556 764.286 666.066 759.267 660.017 755.12L663.706 745.133C665.996 738.899 662.816 731.939 656.582 729.643L643.923 724.967C637.886 722.741 630.679 726.074 628.44 732.098L624.75 742.105C617.46 741.322 610.018 741.577 602.619 742.944L598.16 733.275C595.374 727.238 588.205 724.592 582.168 727.372L569.916 733.014C563.88 735.794 561.24 742.963 564 749L568.46 758.676C562.607 763.421 557.576 768.898 553.428 774.96L543.441 771.271C537.411 769.025 530.184 772.346 527.958 778.395L523.282 791.041C522.169 794.076 522.296 797.339 523.645 800.259C525.006 803.191 527.404 805.418 530.42 806.512L540.426 810.214C539.637 817.504 539.891 824.94 541.265 832.345L531.59 836.791C525.56 839.578 522.913 846.74 525.693 852.771L531.342 865.042C534.128 871.072 541.285 873.718 547.328 870.945L557.003 866.492C561.729 872.344 567.219 877.376 573.288 881.517L569.586 891.511C568.466 894.538 568.6 897.808 569.948 900.728C571.29 903.648 573.695 905.887 576.704 907L589.363 911.669C592.384 912.783 595.654 912.649 598.586 911.307C601.513 909.958 603.739 907.547 604.839 904.538L608.529 894.526C615.819 895.321 623.262 895.06 630.672 893.686L635.113 903.362C637.899 909.392 645.061 912.038 651.098 909.265L663.356 903.622C669.393 900.836 672.039 893.673 669.266 887.63L664.807 877.961C670.659 873.216 675.691 867.739 679.832 861.676L689.844 865.372C692.866 866.486 696.136 866.352 699.062 865.01C701.975 863.667 704.208 861.257 705.309 858.248L709.99 845.595C712.3 839.355 709.1 832.415 702.866 830.112ZM636.595 861.594C630.272 864.507 623.573 865.97 616.665 865.97C598.116 865.97 581.118 855.086 573.358 838.242C562.366 814.374 572.836 786.01 596.697 775.024C603.014 772.11 609.712 770.647 616.608 770.647C635.163 770.647 652.161 781.531 659.928 798.363C670.92 822.237 660.449 850.595 636.595 861.594Z" fill="#38AD7E"/>
<path d="M888.684 842.001L881.324 839.285C881.903 833.897 881.712 828.426 880.695 822.981L887.813 819.692C892.253 817.657 894.199 812.371 892.151 807.911L888.01 798.898C885.968 794.457 880.675 792.498 876.235 794.54L869.104 797.829C865.625 793.516 861.573 789.807 857.126 786.767L859.849 779.4C861.541 774.814 859.187 769.693 854.594 767.995L845.275 764.553C840.835 762.912 835.53 765.361 833.882 769.808L831.16 777.168C825.791 776.589 820.301 776.786 814.862 777.785L811.58 770.679C809.532 766.233 804.252 764.28 799.799 766.328L790.785 770.482C786.345 772.53 784.392 777.804 786.434 782.257L789.723 789.387C785.41 792.88 781.701 796.919 778.642 801.378L771.301 798.656C766.854 797.008 761.543 799.451 759.882 803.904L756.441 813.223C755.62 815.456 755.728 817.86 756.714 820.01C757.707 822.167 759.488 823.808 761.695 824.622L769.074 827.345C768.489 832.72 768.68 838.204 769.698 843.642L762.567 846.925C758.127 848.973 756.18 854.253 758.228 858.699L762.376 867.726C764.424 872.16 769.704 874.119 774.144 872.071L781.275 868.795C784.755 873.101 788.794 876.81 793.266 879.85L790.543 887.217C789.71 889.45 789.812 891.854 790.804 894.004C791.79 896.161 793.565 897.802 795.785 898.622L805.111 902.064C807.343 902.884 809.742 902.789 811.892 901.803C814.048 900.811 815.683 899.029 816.503 896.822L819.232 889.449C824.608 890.035 830.078 889.85 835.53 888.832L838.812 895.951C840.854 900.391 846.14 902.35 850.593 900.302L859.607 896.148C864.06 894.106 866 888.826 863.952 884.373L860.676 877.255C864.995 873.763 868.697 869.723 871.751 865.264L879.117 867.993C881.343 868.82 883.754 868.718 885.898 867.726C888.048 866.74 889.689 864.965 890.51 862.745L893.951 853.42C895.637 848.814 893.283 843.693 888.684 842.001ZM839.881 865.175C835.231 867.312 830.288 868.407 825.199 868.407C811.542 868.407 799.029 860.385 793.311 847.981C785.219 830.405 792.922 809.514 810.492 801.429C815.149 799.292 820.085 798.198 825.167 798.198C838.819 798.198 851.344 806.213 857.075 818.611C865.16 836.193 857.451 857.077 839.881 865.175Z" fill="url(#paint20_linear_241_319)"/>
</g>
<defs>
<radialGradient id="paint0_radial_241_319" cx="0" cy="0" r="1" gradientUnits="userSpaceOnUse" gradientTransform="translate(540 540) rotate(90) scale(540)">
<stop offset="0.745" stop-color="white" stop-opacity="0"/>
<stop offset="1" stop-color="white"/>
</radialGradient>
<linearGradient id="paint1_linear_241_319" x1="488.162" y1="313.921" x2="467.278" y2="313.921" gradientUnits="userSpaceOnUse">
<stop stop-color="#38AD7E"/>
<stop offset="1" stop-color="#0E5F66"/>
</linearGradient>
<linearGradient id="paint2_linear_241_319" x1="469.753" y1="317.229" x2="456.083" y2="317.229" gradientUnits="userSpaceOnUse">
<stop stop-color="#38AD7E"/>
<stop offset="1" stop-color="#0E5F66"/>
</linearGradient>
<linearGradient id="paint3_linear_241_319" x1="359.869" y1="340.117" x2="347.662" y2="340.117" gradientUnits="userSpaceOnUse">
<stop stop-color="#38AD7E"/>
<stop offset="1" stop-color="#0E5F66"/>
</linearGradient>
<linearGradient id="paint4_linear_241_319" x1="343.992" y1="342.146" x2="339.278" y2="342.146" gradientUnits="userSpaceOnUse">
<stop stop-color="#38AD7E"/>
<stop offset="1" stop-color="#0E5F66"/>
</linearGradient>
<linearGradient id="paint5_linear_241_319" x1="804.055" y1="473.909" x2="747.548" y2="473.909" gradientUnits="userSpaceOnUse">
<stop stop-color="#38AD7E"/>
<stop offset="1" stop-color="#0E5F66"/>
</linearGradient>
<linearGradient id="paint6_linear_241_319" x1="815.841" y1="465.271" x2="787.19" y2="465.271" gradientUnits="userSpaceOnUse">
<stop stop-color="#38AD7E"/>
<stop offset="1" stop-color="#0E5F66"/>
</linearGradient>
<linearGradient id="paint7_linear_241_319" x1="827.171" y1="480.095" x2="815.842" y2="480.095" gradientUnits="userSpaceOnUse">
<stop stop-color="#38AD7E"/>
<stop offset="1" stop-color="#0E5F66"/>
</linearGradient>
<linearGradient id="paint8_linear_241_319" x1="903.709" y1="543.323" x2="789.754" y2="543.323" gradientUnits="userSpaceOnUse">
<stop stop-color="#38AD7E"/>
<stop offset="1" stop-color="#0E5F66"/>
</linearGradient>
<linearGradient id="paint9_linear_241_319" x1="867.584" y1="592.886" x2="851.223" y2="592.886" gradientUnits="userSpaceOnUse">
<stop stop-color="#38AD7E"/>
<stop offset="1" stop-color="#0E5F66"/>
</linearGradient>
<linearGradient id="paint10_linear_241_319" x1="940" y1="583.942" x2="887.736" y2="583.942" gradientUnits="userSpaceOnUse">
<stop stop-color="#38AD7E"/>
<stop offset="1" stop-color="#0E5F66"/>
</linearGradient>
<linearGradient id="paint11_linear_241_319" x1="900.986" y1="485.079" x2="848.404" y2="485.079" gradientUnits="userSpaceOnUse">
<stop stop-color="#38AD7E"/>
<stop offset="1" stop-color="#0E5F66"/>
</linearGradient>
<linearGradient id="paint12_linear_241_319" x1="712.625" y1="449.46" x2="701.836" y2="449.46" gradientUnits="userSpaceOnUse">
<stop stop-color="#38AD7E"/>
<stop offset="1" stop-color="#0E5F66"/>
</linearGradient>
<linearGradient id="paint13_linear_241_319" x1="622.524" y1="529.493" x2="595.819" y2="529.493" gradientUnits="userSpaceOnUse">
<stop stop-color="#38AD7E"/>
<stop offset="1" stop-color="#0E5F66"/>
</linearGradient>
<linearGradient id="paint14_linear_241_319" x1="829.321" y1="493.807" x2="825.784" y2="493.807" gradientUnits="userSpaceOnUse">
<stop stop-color="#38AD7E"/>
<stop offset="1" stop-color="#0E5F66"/>
</linearGradient>
<linearGradient id="paint15_linear_241_319" x1="813.736" y1="496.307" x2="809.557" y2="496.307" gradientUnits="userSpaceOnUse">
<stop stop-color="#38AD7E"/>
<stop offset="1" stop-color="#0E5F66"/>
</linearGradient>
<linearGradient id="paint16_linear_241_319" x1="824.118" y1="496.323" x2="815.842" y2="496.323" gradientUnits="userSpaceOnUse">
<stop stop-color="#38AD7E"/>
<stop offset="1" stop-color="#0E5F66"/>
</linearGradient>
<linearGradient id="paint17_linear_241_319" x1="837.247" y1="497.43" x2="826.229" y2="497.43" gradientUnits="userSpaceOnUse">
<stop stop-color="#38AD7E"/>
<stop offset="1" stop-color="#0E5F66"/>
</linearGradient>
<linearGradient id="paint18_linear_241_319" x1="893.728" y1="413.748" x2="428.646" y2="413.748" gradientUnits="userSpaceOnUse">
<stop stop-color="#38AD7E"/>
<stop offset="1" stop-color="#0E5F66"/>
</linearGradient>
<linearGradient id="paint19_linear_241_319" x1="409.296" y1="446.289" x2="140" y2="446.289" gradientUnits="userSpaceOnUse">
<stop stop-color="#38AD7E"/>
<stop offset="1" stop-color="#0E5F66"/>
</linearGradient>
<linearGradient id="paint20_linear_241_319" x1="825.195" y1="902.617" x2="825.195" y2="764.041" gradientUnits="userSpaceOnUse">
<stop stop-color="#38AD7E"/>
<stop offset="1" stop-color="#0E5F66"/>
</linearGradient>
<clipPath id="clip0_241_319">
<rect width="1080" height="1080" fill="white"/>
</clipPath>
</defs>
</svg>
