<svg width="1080" height="1080" viewBox="0 0 1080 1080" fill="none" xmlns="http://www.w3.org/2000/svg">
<g clip-path="url(#clip0_241_427)">
<rect width="1080" height="1080" fill="#EBF7F2"/>
<line y1="26.5" x2="1080" y2="26.5" stroke="#C4C4C4"/>
<line y1="53.5" x2="1080" y2="53.5" stroke="#C4C4C4"/>
<line y1="80.5" x2="1080" y2="80.5" stroke="#C4C4C4"/>
<line y1="107.5" x2="1080" y2="107.5" stroke="#C4C4C4"/>
<line y1="134.5" x2="1080" y2="134.5" stroke="#C4C4C4"/>
<line y1="161.5" x2="1080" y2="161.5" stroke="#C4C4C4"/>
<line y1="188.5" x2="1080" y2="188.5" stroke="#C4C4C4"/>
<line y1="215.5" x2="1080" y2="215.5" stroke="#C4C4C4"/>
<line y1="242.5" x2="1080" y2="242.5" stroke="#C4C4C4"/>
<line y1="269.5" x2="1080" y2="269.5" stroke="#C4C4C4"/>
<line y1="296.5" x2="1080" y2="296.5" stroke="#C4C4C4"/>
<line y1="323.5" x2="1080" y2="323.5" stroke="#C4C4C4"/>
<line y1="350.5" x2="1080" y2="350.5" stroke="#C4C4C4"/>
<line y1="377.5" x2="1080" y2="377.5" stroke="#C4C4C4"/>
<line y1="404.5" x2="1080" y2="404.5" stroke="#C4C4C4"/>
<line y1="431.5" x2="1080" y2="431.5" stroke="#C4C4C4"/>
<line y1="458.5" x2="1080" y2="458.5" stroke="#C4C4C4"/>
<line y1="485.5" x2="1080" y2="485.5" stroke="#C4C4C4"/>
<line y1="512.5" x2="1080" y2="512.5" stroke="#C4C4C4"/>
<line y1="539.5" x2="1080" y2="539.5" stroke="#C4C4C4"/>
<line y1="566.5" x2="1080" y2="566.5" stroke="#C4C4C4"/>
<line y1="593.5" x2="1080" y2="593.5" stroke="#C4C4C4"/>
<line y1="620.5" x2="1080" y2="620.5" stroke="#C4C4C4"/>
<line y1="647.5" x2="1080" y2="647.5" stroke="#C4C4C4"/>
<line y1="674.5" x2="1080" y2="674.5" stroke="#C4C4C4"/>
<line y1="701.5" x2="1080" y2="701.5" stroke="#C4C4C4"/>
<line y1="728.5" x2="1080" y2="728.5" stroke="#C4C4C4"/>
<line y1="755.5" x2="1080" y2="755.5" stroke="#C4C4C4"/>
<line y1="782.5" x2="1080" y2="782.5" stroke="#C4C4C4"/>
<line y1="809.5" x2="1080" y2="809.5" stroke="#C4C4C4"/>
<line y1="836.5" x2="1080" y2="836.5" stroke="#C4C4C4"/>
<line y1="863.5" x2="1080" y2="863.5" stroke="#C4C4C4"/>
<line y1="890.5" x2="1080" y2="890.5" stroke="#C4C4C4"/>
<line y1="917.5" x2="1080" y2="917.5" stroke="#C4C4C4"/>
<line y1="944.5" x2="1080" y2="944.5" stroke="#C4C4C4"/>
<line y1="971.5" x2="1080" y2="971.5" stroke="#C4C4C4"/>
<line y1="998.5" x2="1080" y2="998.5" stroke="#C4C4C4"/>
<line y1="1025.5" x2="1080" y2="1025.5" stroke="#C4C4C4"/>
<line y1="1052.5" x2="1080" y2="1052.5" stroke="#C4C4C4"/>
<line x1="26.5" y1="1080" x2="26.5" stroke="#C4C4C4"/>
<line x1="53.5" y1="1080" x2="53.5" stroke="#C4C4C4"/>
<line x1="80.5" y1="1080" x2="80.5" stroke="#C4C4C4"/>
<line x1="107.5" y1="1080" x2="107.5" stroke="#C4C4C4"/>
<line x1="134.5" y1="1080" x2="134.5" stroke="#C4C4C4"/>
<line x1="161.5" y1="1080" x2="161.5" stroke="#C4C4C4"/>
<line x1="188.5" y1="1080" x2="188.5" stroke="#C4C4C4"/>
<line x1="215.5" y1="1080" x2="215.5" stroke="#C4C4C4"/>
<line x1="242.5" y1="1080" x2="242.5" stroke="#C4C4C4"/>
<line x1="269.5" y1="1080" x2="269.5" stroke="#C4C4C4"/>
<line x1="296.5" y1="1080" x2="296.5" stroke="#C4C4C4"/>
<line x1="323.5" y1="1080" x2="323.5" stroke="#C4C4C4"/>
<line x1="350.5" y1="1080" x2="350.5" stroke="#C4C4C4"/>
<line x1="377.5" y1="1080" x2="377.5" stroke="#C4C4C4"/>
<line x1="404.5" y1="1080" x2="404.5" stroke="#C4C4C4"/>
<line x1="431.5" y1="1080" x2="431.5" stroke="#C4C4C4"/>
<line x1="458.5" y1="1080" x2="458.5" stroke="#C4C4C4"/>
<line x1="485.5" y1="1080" x2="485.5" stroke="#C4C4C4"/>
<line x1="512.5" y1="1080" x2="512.5" stroke="#C4C4C4"/>
<line x1="539.5" y1="1080" x2="539.5" stroke="#C4C4C4"/>
<line x1="566.5" y1="1080" x2="566.5" stroke="#C4C4C4"/>
<line x1="593.5" y1="1080" x2="593.5" stroke="#C4C4C4"/>
<line x1="620.5" y1="1080" x2="620.5" stroke="#C4C4C4"/>
<line x1="647.5" y1="1080" x2="647.5" stroke="#C4C4C4"/>
<line x1="674.5" y1="1080" x2="674.5" stroke="#C4C4C4"/>
<line x1="701.5" y1="1080" x2="701.5" stroke="#C4C4C4"/>
<line x1="728.5" y1="1080" x2="728.5" stroke="#C4C4C4"/>
<line x1="755.5" y1="1080" x2="755.5" stroke="#C4C4C4"/>
<line x1="782.5" y1="1080" x2="782.5" stroke="#C4C4C4"/>
<line x1="809.5" y1="1080" x2="809.5" stroke="#C4C4C4"/>
<line x1="836.5" y1="1080" x2="836.5" stroke="#C4C4C4"/>
<line x1="863.5" y1="1080" x2="863.5" stroke="#C4C4C4"/>
<line x1="890.5" y1="1080" x2="890.5" stroke="#C4C4C4"/>
<line x1="917.5" y1="1080" x2="917.5" stroke="#C4C4C4"/>
<line x1="944.5" y1="1080" x2="944.5" stroke="#C4C4C4"/>
<line x1="971.5" y1="1080" x2="971.5" stroke="#C4C4C4"/>
<line x1="998.5" y1="1080" x2="998.5" stroke="#C4C4C4"/>
<line x1="1025.5" y1="1080" x2="1025.5" stroke="#C4C4C4"/>
<line x1="1052.5" y1="1080" x2="1052.5" stroke="#C4C4C4"/>
<rect width="1080" height="1080" fill="url(#paint0_radial_241_427)"/>
<path d="M318.634 176V206H312.154V178.28L313.874 178.4L301.074 206H294.074L281.274 178.48L282.954 178.32V206H276.514V176H286.954L299.034 202.72H296.114L308.194 176H318.634ZM330.476 199.68V194.16H351.276V199.68H330.476ZM345.396 176L359.436 206H352.196L339.916 178.76H342.156L329.876 206H322.636L336.676 176H345.396ZM391.265 201.52L388.905 201.88V176H395.505V206H386.905L367.705 180.12L370.025 179.76V206H363.465V176H372.265L391.265 201.52ZM407.349 199.68V194.16H428.149V199.68H407.349ZM422.269 176L436.309 206H429.069L416.789 178.76H419.029L406.749 206H399.509L413.549 176H422.269ZM468.98 193C468.953 194.813 468.593 196.547 467.9 198.2C467.233 199.827 466.273 201.28 465.02 202.56C463.767 203.813 462.22 204.8 460.38 205.52C458.54 206.24 456.407 206.6 453.98 206.6C451.633 206.6 449.433 206.253 447.38 205.56C445.353 204.84 443.567 203.813 442.02 202.48C440.5 201.147 439.313 199.52 438.46 197.6C437.607 195.653 437.18 193.453 437.18 191C437.18 188.547 437.607 186.36 438.46 184.44C439.34 182.493 440.553 180.853 442.1 179.52C443.647 178.187 445.46 177.173 447.54 176.48C449.62 175.76 451.887 175.4 454.34 175.4C457.54 175.4 460.313 175.907 462.66 176.92C465.007 177.907 466.9 179.28 468.34 181.04C469.807 182.8 470.713 184.813 471.06 187.08H464.22C463.953 185.853 463.367 184.8 462.46 183.92C461.58 183.04 460.447 182.36 459.06 181.88C457.7 181.4 456.127 181.16 454.34 181.16C452.233 181.16 450.407 181.547 448.86 182.32C447.34 183.067 446.153 184.173 445.3 185.64C444.473 187.107 444.06 188.893 444.06 191C444.06 193.107 444.5 194.907 445.38 196.4C446.26 197.893 447.513 199.04 449.14 199.84C450.767 200.613 452.687 201 454.9 201C457.06 201 458.953 200.667 460.58 200C462.207 199.307 463.487 198.347 464.42 197.12C465.38 195.867 465.927 194.387 466.06 192.68L468.98 193ZM455.82 195.76V190.84H471.38V206H466.5L465.58 193.84L466.98 195.76H455.82ZM502.423 188.4V193.6H480.943V188.4H502.423ZM485.503 191L483.503 203.72L480.543 200.36H503.663V206H476.663L478.983 191L476.663 176H503.463V181.64H480.543L483.503 178.28L485.503 191ZM523.874 176C527.367 176 530.421 176.627 533.034 177.88C535.674 179.133 537.727 180.88 539.194 183.12C540.661 185.36 541.394 187.987 541.394 191C541.394 193.987 540.661 196.613 539.194 198.88C537.727 201.12 535.674 202.867 533.034 204.12C530.421 205.373 527.367 206 523.874 206H509.634V176H523.874ZM516.394 203.32L512.954 200H524.394C526.421 200 528.194 199.627 529.714 198.88C531.261 198.133 532.447 197.08 533.274 195.72C534.101 194.36 534.514 192.787 534.514 191C534.514 189.187 534.101 187.613 533.274 186.28C532.447 184.92 531.261 183.867 529.714 183.12C528.194 182.373 526.421 182 524.394 182H512.954L516.394 178.68V203.32ZM556.314 196.2H563.194C563.354 197.213 563.794 198.107 564.514 198.88C565.26 199.627 566.247 200.213 567.474 200.64C568.727 201.04 570.167 201.24 571.794 201.24C574.167 201.24 576.034 200.907 577.394 200.24C578.78 199.547 579.474 198.587 579.474 197.36C579.474 196.4 579.074 195.667 578.274 195.16C577.5 194.627 576.047 194.24 573.914 194L567.874 193.32C563.98 192.893 561.154 191.987 559.394 190.6C557.66 189.187 556.794 187.227 556.794 184.72C556.794 182.747 557.367 181.067 558.514 179.68C559.687 178.293 561.327 177.24 563.434 176.52C565.54 175.773 568.02 175.4 570.874 175.4C573.647 175.4 576.114 175.813 578.274 176.64C580.434 177.44 582.154 178.573 583.434 180.04C584.714 181.48 585.407 183.173 585.514 185.12H578.634C578.5 184.24 578.1 183.48 577.434 182.84C576.794 182.173 575.9 181.667 574.754 181.32C573.607 180.947 572.26 180.76 570.714 180.76C568.554 180.76 566.834 181.08 565.554 181.72C564.274 182.36 563.634 183.267 563.634 184.44C563.634 185.347 564.007 186.053 564.754 186.56C565.527 187.04 566.874 187.4 568.794 187.64L575.074 188.4C577.847 188.693 580.047 189.173 581.674 189.84C583.327 190.48 584.5 191.347 585.194 192.44C585.914 193.533 586.274 194.92 586.274 196.6C586.274 198.6 585.66 200.36 584.434 201.88C583.234 203.373 581.54 204.533 579.354 205.36C577.167 206.187 574.607 206.6 571.674 206.6C568.687 206.6 566.06 206.173 563.794 205.32C561.527 204.44 559.74 203.227 558.434 201.68C557.127 200.107 556.42 198.28 556.314 196.2ZM616.404 188.4V193.6H594.924V188.4H616.404ZM599.484 191L597.484 203.72L594.524 200.36H617.644V206H590.644L592.964 191L590.644 176H617.444V181.64H594.524L597.484 178.28L599.484 191ZM628.335 189.32H639.895C641.415 189.32 642.615 188.973 643.495 188.28C644.402 187.56 644.855 186.573 644.855 185.32C644.855 184.067 644.402 183.093 643.495 182.4C642.615 181.707 641.415 181.36 639.895 181.36H627.335L630.415 177.88V206H623.615V176H640.695C642.882 176 644.802 176.4 646.455 177.2C648.108 177.973 649.402 179.053 650.335 180.44C651.268 181.827 651.735 183.453 651.735 185.32C651.735 187.16 651.268 188.773 650.335 190.16C649.402 191.547 648.108 192.64 646.455 193.44C644.802 194.213 642.882 194.6 640.695 194.6H628.335V189.32ZM633.535 191.96H641.295L652.615 206H644.655L633.535 191.96ZM672.854 203H669.854L682.094 176H689.294L675.054 206H667.414L653.214 176H660.494L672.854 203ZM693.34 176H700.14V206H693.34V176ZM739.55 193.8C739.257 196.333 738.363 198.573 736.87 200.52C735.403 202.44 733.457 203.933 731.03 205C728.63 206.067 725.883 206.6 722.79 206.6C719.377 206.6 716.377 205.947 713.79 204.64C711.23 203.333 709.23 201.52 707.79 199.2C706.35 196.853 705.63 194.12 705.63 191C705.63 187.88 706.35 185.16 707.79 182.84C709.23 180.493 711.23 178.667 713.79 177.36C716.377 176.053 719.377 175.4 722.79 175.4C725.883 175.4 728.63 175.933 731.03 177C733.457 178.067 735.403 179.56 736.87 181.48C738.363 183.4 739.257 185.64 739.55 188.2H732.71C732.443 186.787 731.87 185.573 730.99 184.56C730.11 183.52 728.977 182.72 727.59 182.16C726.203 181.6 724.59 181.32 722.75 181.32C720.643 181.32 718.817 181.72 717.27 182.52C715.75 183.293 714.577 184.413 713.75 185.88C712.923 187.32 712.51 189.027 712.51 191C712.51 192.973 712.923 194.693 713.75 196.16C714.577 197.6 715.75 198.72 717.27 199.52C718.817 200.293 720.643 200.68 722.75 200.68C724.59 200.68 726.203 200.413 727.59 199.88C728.977 199.32 730.11 198.533 730.99 197.52C731.87 196.48 732.443 195.24 732.71 193.8H739.55ZM769.506 188.4V193.6H748.026V188.4H769.506ZM752.586 191L750.586 203.72L747.626 200.36H770.746V206H743.746L746.066 191L743.746 176H770.546V181.64H747.626L750.586 178.28L752.586 191ZM775.117 196.2H781.997C782.157 197.213 782.597 198.107 783.317 198.88C784.063 199.627 785.05 200.213 786.277 200.64C787.53 201.04 788.97 201.24 790.597 201.24C792.97 201.24 794.837 200.907 796.197 200.24C797.583 199.547 798.277 198.587 798.277 197.36C798.277 196.4 797.877 195.667 797.077 195.16C796.303 194.627 794.85 194.24 792.717 194L786.677 193.32C782.783 192.893 779.957 191.987 778.197 190.6C776.463 189.187 775.597 187.227 775.597 184.72C775.597 182.747 776.17 181.067 777.317 179.68C778.49 178.293 780.13 177.24 782.237 176.52C784.343 175.773 786.823 175.4 789.677 175.4C792.45 175.4 794.917 175.813 797.077 176.64C799.237 177.44 800.957 178.573 802.237 180.04C803.517 181.48 804.21 183.173 804.317 185.12H797.437C797.303 184.24 796.903 183.48 796.237 182.84C795.597 182.173 794.703 181.667 793.557 181.32C792.41 180.947 791.063 180.76 789.517 180.76C787.357 180.76 785.637 181.08 784.357 181.72C783.077 182.36 782.437 183.267 782.437 184.44C782.437 185.347 782.81 186.053 783.557 186.56C784.33 187.04 785.677 187.4 787.597 187.64L793.877 188.4C796.65 188.693 798.85 189.173 800.477 189.84C802.13 190.48 803.303 191.347 803.997 192.44C804.717 193.533 805.077 194.92 805.077 196.6C805.077 198.6 804.463 200.36 803.237 201.88C802.037 203.373 800.343 204.533 798.157 205.36C795.97 206.187 793.41 206.6 790.477 206.6C787.49 206.6 784.863 206.173 782.597 205.32C780.33 204.44 778.543 203.227 777.237 201.68C775.93 200.107 775.223 198.28 775.117 196.2Z" fill="#0E5F66"/>
<path d="M839.705 403.444H808.156V692.996C808.156 721.602 784.879 744.87 756.282 744.87H323.718C295.112 744.87 271.844 721.602 271.844 692.996V403.444H240.295C224.667 403.444 212 416.111 212 431.739V790.142C212 805.771 224.667 818.437 240.295 818.437H839.705C855.333 818.437 868 805.771 868 790.142V431.739C868 416.111 855.333 403.444 839.705 403.444ZM539.995 793.443C533.487 793.443 528.206 788.162 528.206 781.654C528.206 775.146 533.487 769.864 539.995 769.864C546.513 769.864 551.785 775.146 551.785 781.654C551.785 788.162 546.513 793.443 539.995 793.443Z" fill="#0E5F66"/>
<path d="M625.984 908.944L624.163 913.008H455.837L454.007 908.944C447.16 893.627 450.461 875.678 462.326 863.813L484.122 842.017H595.878L617.674 863.813C629.53 875.678 632.841 893.627 625.984 908.944Z" fill="#38AD7E"/>
<path d="M295.424 285.295V353.957H784.633V285.295C784.633 269.733 771.9 257 756.338 257H323.719C308.157 257 295.424 269.733 295.424 285.295ZM697.372 305.48C697.372 298.995 702.677 293.69 709.161 293.69H735.57C742.054 293.69 747.36 298.995 747.36 305.48C747.36 311.964 742.054 317.269 735.57 317.269H709.161C702.677 317.269 697.372 311.964 697.372 305.48ZM618.617 305.48C618.617 298.995 623.923 293.69 630.407 293.69H656.816C663.3 293.69 668.605 298.995 668.605 305.48C668.605 311.964 663.3 317.269 656.816 317.269H630.407C623.923 317.269 618.617 311.964 618.617 305.48ZM539.863 305.48C539.863 298.995 545.168 293.69 551.653 293.69H578.061C584.546 293.69 589.851 298.995 589.851 305.48C589.851 311.964 584.546 317.269 578.061 317.269H551.653C545.168 317.269 539.863 311.964 539.863 305.48Z" fill="#0E5F66"/>
<path d="M643.112 452.489C629.77 452.489 618.954 463.305 618.954 476.647C618.954 489.989 629.77 500.805 643.112 500.805C656.454 500.805 667.271 489.989 667.271 476.647C667.271 463.305 656.455 452.489 643.112 452.489Z" fill="#38AD7E"/>
<path d="M643.114 610.941C636.613 610.941 631.324 615.983 631.324 622.181C631.324 628.378 636.613 633.421 643.114 633.421C649.615 633.421 654.903 628.378 654.903 622.181C654.903 615.983 649.614 610.941 643.114 610.941Z" fill="#38AD7E"/>
<path d="M295.424 377.537V692.996C295.424 708.559 308.157 721.291 323.719 721.291H756.338C771.9 721.291 784.633 708.559 784.633 692.996V377.537H295.424ZM578.295 559.516C578.295 564.626 574.471 568.929 569.396 569.526L553.21 571.435C551.218 580.632 547.589 589.226 542.638 596.893L552.751 609.711C555.917 613.722 555.579 619.469 551.966 623.083L545.653 629.395C542.04 633.009 536.293 633.347 532.281 630.181L519.464 620.067C511.797 625.018 503.203 628.648 494.005 630.639L492.097 646.825C491.498 651.901 487.196 655.725 482.086 655.725H473.159C468.049 655.725 463.747 651.9 463.148 646.825L461.24 630.639C452.042 628.648 443.447 625.018 435.78 620.067L422.963 630.181C418.951 633.347 413.205 633.009 409.591 629.395L403.279 623.083C399.665 619.469 399.328 613.722 402.493 609.711L412.607 596.893C407.656 589.226 404.026 580.632 402.035 571.435L385.849 569.526C380.773 568.928 376.949 564.626 376.949 559.516V550.588C376.949 545.478 380.774 541.176 385.849 540.577L402.035 538.669C404.027 529.471 407.656 520.877 412.607 513.21L402.493 500.392C399.328 496.38 399.664 490.634 403.279 487.02L409.591 480.709C413.205 477.094 418.951 476.758 422.963 479.923L435.78 490.036C443.447 485.085 452.041 481.456 461.24 479.465L463.148 463.278C463.746 458.203 468.048 454.378 473.159 454.378H482.086C487.197 454.378 491.499 458.204 492.097 463.278L494.005 479.465C503.202 481.456 511.797 485.085 519.464 490.036L532.281 479.923C536.293 476.758 542.039 477.094 545.653 480.709L551.966 487.02C555.579 490.634 555.917 496.38 552.751 500.392L542.638 513.21C547.59 520.877 551.219 529.471 553.21 538.669L569.396 540.577C574.471 541.176 578.295 545.478 578.295 550.588V559.516ZM703.111 624.841C703.111 627.887 700.831 630.45 697.807 630.807L688.16 631.944C686.972 637.427 684.81 642.547 681.86 647.117L687.886 654.756C689.773 657.147 689.572 660.571 687.419 662.724L683.656 666.487C681.503 668.64 678.078 668.842 675.687 666.955L668.049 660.928C663.48 663.878 658.358 666.042 652.876 667.228L651.739 676.875C651.382 679.899 648.819 682.179 645.772 682.179H640.452C637.406 682.179 634.843 679.899 634.485 676.875L633.348 667.228C627.866 666.042 622.744 663.878 618.175 660.928L610.536 666.955C608.146 668.842 604.721 668.64 602.568 666.487L598.805 662.724C596.652 660.571 596.45 657.147 598.338 654.756L604.364 647.117C601.413 642.547 599.251 637.426 598.064 631.944L588.417 630.807C585.393 630.45 583.113 627.886 583.113 624.841V619.52C583.113 616.474 585.393 613.911 588.417 613.554L598.064 612.417C599.251 606.934 601.414 601.813 604.364 597.244L598.338 589.605C596.451 587.214 596.652 583.789 598.805 581.636L602.568 577.874C604.722 575.721 608.146 575.519 610.536 577.406L618.175 583.433C622.744 580.483 627.866 578.32 633.348 577.132L634.485 567.485C634.842 564.461 637.405 562.182 640.452 562.182H645.772C648.818 562.182 651.382 564.461 651.739 567.485L652.876 577.132C658.358 578.32 663.48 580.483 668.049 583.433L675.687 577.406C678.078 575.519 681.503 575.721 683.656 577.874L687.419 581.636C689.572 583.789 689.774 587.214 687.886 589.605L681.86 597.244C684.811 601.813 686.973 606.934 688.16 612.417L697.807 613.554C700.831 613.911 703.111 616.474 703.111 619.52V624.841ZM703.111 479.308C703.111 482.353 700.831 484.917 697.807 485.273L688.16 486.411C686.972 491.894 684.81 497.015 681.86 501.584L687.886 509.223C689.773 511.614 689.572 515.039 687.419 517.192L683.656 520.953C681.503 523.107 678.078 523.309 675.687 521.422L668.049 515.394C663.48 518.345 658.358 520.508 652.876 521.696L651.739 531.341C651.382 534.366 648.819 536.645 645.772 536.645H640.452C637.406 536.645 634.843 534.366 634.485 531.341L633.348 521.696C627.866 520.508 622.744 518.345 618.175 515.394L610.536 521.422C608.146 523.309 604.721 523.107 602.568 520.953L598.805 517.192C596.652 515.039 596.45 511.614 598.338 509.223L604.364 501.584C601.413 497.015 599.251 491.894 598.064 486.411L588.417 485.273C585.393 484.917 583.113 482.353 583.113 479.308V473.987C583.113 470.942 585.393 468.378 588.417 468.021L598.064 466.884C599.251 461.403 601.414 456.28 604.364 451.711L598.338 444.072C596.451 441.681 596.652 438.257 598.805 436.102L602.568 432.341C604.722 430.188 608.146 429.986 610.536 431.873L618.175 437.9C622.744 434.95 627.866 432.786 633.348 431.6L634.485 421.953C634.842 418.928 637.405 416.649 640.452 416.649H645.772C648.818 416.649 651.382 418.928 651.739 421.953L652.876 431.6C658.358 432.786 663.48 434.95 668.049 437.9L675.687 431.873C678.078 429.986 681.503 430.188 683.656 432.341L687.419 436.102C689.572 438.257 689.774 441.681 687.886 444.072L681.86 451.711C684.811 456.28 686.973 461.401 688.16 466.884L697.807 468.021C700.831 468.378 703.111 470.942 703.111 473.987V479.308Z" fill="#38AD7E"/>
<path d="M477.621 501.291C447.977 501.291 423.86 525.407 423.86 555.051C423.86 584.695 447.977 608.811 477.621 608.811C507.264 608.811 531.381 584.695 531.381 555.051C531.381 525.407 507.264 501.291 477.621 501.291ZM477.621 585.232C460.979 585.232 447.439 571.693 447.439 555.051C447.439 538.409 460.979 524.87 477.621 524.87C494.263 524.87 507.802 538.409 507.802 555.051C507.802 571.693 494.263 585.232 477.621 585.232Z" fill="#38AD7E"/>
</g>
<defs>
<radialGradient id="paint0_radial_241_427" cx="0" cy="0" r="1" gradientUnits="userSpaceOnUse" gradientTransform="translate(540 540) rotate(90) scale(540)">
<stop offset="0.745" stop-color="#EBF7F2" stop-opacity="0"/>
<stop offset="1" stop-color="#EBF7F2"/>
</radialGradient>
<clipPath id="clip0_241_427">
<rect width="1080" height="1080" fill="white"/>
</clipPath>
</defs>
</svg>
