<svg width="1080" height="1080" viewBox="0 0 1080 1080" fill="none" xmlns="http://www.w3.org/2000/svg">
<g clip-path="url(#clip0_241_319)">
<rect width="1080" height="1080" fill="white"/>
<line y1="26.5" x2="1080" y2="26.5" stroke="#C4C4C4"/>
<line y1="53.5" x2="1080" y2="53.5" stroke="#C4C4C4"/>
<line y1="80.5" x2="1080" y2="80.5" stroke="#C4C4C4"/>
<line y1="107.5" x2="1080" y2="107.5" stroke="#C4C4C4"/>
<line y1="134.5" x2="1080" y2="134.5" stroke="#C4C4C4"/>
<line y1="161.5" x2="1080" y2="161.5" stroke="#C4C4C4"/>
<line y1="188.5" x2="1080" y2="188.5" stroke="#C4C4C4"/>
<line y1="215.5" x2="1080" y2="215.5" stroke="#C4C4C4"/>
<line y1="242.5" x2="1080" y2="242.5" stroke="#C4C4C4"/>
<line y1="269.5" x2="1080" y2="269.5" stroke="#C4C4C4"/>
<line y1="296.5" x2="1080" y2="296.5" stroke="#C4C4C4"/>
<line y1="323.5" x2="1080" y2="323.5" stroke="#C4C4C4"/>
<line y1="350.5" x2="1080" y2="350.5" stroke="#C4C4C4"/>
<line y1="377.5" x2="1080" y2="377.5" stroke="#C4C4C4"/>
<line y1="404.5" x2="1080" y2="404.5" stroke="#C4C4C4"/>
<line y1="431.5" x2="1080" y2="431.5" stroke="#C4C4C4"/>
<line y1="458.5" x2="1080" y2="458.5" stroke="#C4C4C4"/>
<line y1="485.5" x2="1080" y2="485.5" stroke="#C4C4C4"/>
<line y1="512.5" x2="1080" y2="512.5" stroke="#C4C4C4"/>
<line y1="539.5" x2="1080" y2="539.5" stroke="#C4C4C4"/>
<line y1="566.5" x2="1080" y2="566.5" stroke="#C4C4C4"/>
<line y1="593.5" x2="1080" y2="593.5" stroke="#C4C4C4"/>
<line y1="620.5" x2="1080" y2="620.5" stroke="#C4C4C4"/>
<line y1="647.5" x2="1080" y2="647.5" stroke="#C4C4C4"/>
<line y1="674.5" x2="1080" y2="674.5" stroke="#C4C4C4"/>
<line y1="701.5" x2="1080" y2="701.5" stroke="#C4C4C4"/>
<line y1="728.5" x2="1080" y2="728.5" stroke="#C4C4C4"/>
<line y1="755.5" x2="1080" y2="755.5" stroke="#C4C4C4"/>
<line y1="782.5" x2="1080" y2="782.5" stroke="#C4C4C4"/>
<line y1="809.5" x2="1080" y2="809.5" stroke="#C4C4C4"/>
<line y1="836.5" x2="1080" y2="836.5" stroke="#C4C4C4"/>
<line y1="863.5" x2="1080" y2="863.5" stroke="#C4C4C4"/>
<line y1="890.5" x2="1080" y2="890.5" stroke="#C4C4C4"/>
<line y1="917.5" x2="1080" y2="917.5" stroke="#C4C4C4"/>
<line y1="944.5" x2="1080" y2="944.5" stroke="#C4C4C4"/>
<line y1="971.5" x2="1080" y2="971.5" stroke="#C4C4C4"/>
<line y1="998.5" x2="1080" y2="998.5" stroke="#C4C4C4"/>
<line y1="1025.5" x2="1080" y2="1025.5" stroke="#C4C4C4"/>
<line y1="1052.5" x2="1080" y2="1052.5" stroke="#C4C4C4"/>
<line x1="26.5" y1="1080" x2="26.5" stroke="#C4C4C4"/>
<line x1="53.5" y1="1080" x2="53.5" stroke="#C4C4C4"/>
<line x1="80.5" y1="1080" x2="80.5" stroke="#C4C4C4"/>
<line x1="107.5" y1="1080" x2="107.5" stroke="#C4C4C4"/>
<line x1="134.5" y1="1080" x2="134.5" stroke="#C4C4C4"/>
<line x1="161.5" y1="1080" x2="161.5" stroke="#C4C4C4"/>
<line x1="188.5" y1="1080" x2="188.5" stroke="#C4C4C4"/>
<line x1="215.5" y1="1080" x2="215.5" stroke="#C4C4C4"/>
<line x1="242.5" y1="1080" x2="242.5" stroke="#C4C4C4"/>
<line x1="269.5" y1="1080" x2="269.5" stroke="#C4C4C4"/>
<line x1="296.5" y1="1080" x2="296.5" stroke="#C4C4C4"/>
<line x1="323.5" y1="1080" x2="323.5" stroke="#C4C4C4"/>
<line x1="350.5" y1="1080" x2="350.5" stroke="#C4C4C4"/>
<line x1="377.5" y1="1080" x2="377.5" stroke="#C4C4C4"/>
<line x1="404.5" y1="1080" x2="404.5" stroke="#C4C4C4"/>
<line x1="431.5" y1="1080" x2="431.5" stroke="#C4C4C4"/>
<line x1="458.5" y1="1080" x2="458.5" stroke="#C4C4C4"/>
<line x1="485.5" y1="1080" x2="485.5" stroke="#C4C4C4"/>
<line x1="512.5" y1="1080" x2="512.5" stroke="#C4C4C4"/>
<line x1="539.5" y1="1080" x2="539.5" stroke="#C4C4C4"/>
<line x1="566.5" y1="1080" x2="566.5" stroke="#C4C4C4"/>
<line x1="593.5" y1="1080" x2="593.5" stroke="#C4C4C4"/>
<line x1="620.5" y1="1080" x2="620.5" stroke="#C4C4C4"/>
<line x1="647.5" y1="1080" x2="647.5" stroke="#C4C4C4"/>
<line x1="674.5" y1="1080" x2="674.5" stroke="#C4C4C4"/>
<line x1="701.5" y1="1080" x2="701.5" stroke="#C4C4C4"/>
<line x1="728.5" y1="1080" x2="728.5" stroke="#C4C4C4"/>
<line x1="755.5" y1="1080" x2="755.5" stroke="#C4C4C4"/>
<line x1="782.5" y1="1080" x2="782.5" stroke="#C4C4C4"/>
<line x1="809.5" y1="1080" x2="809.5" stroke="#C4C4C4"/>
<line x1="836.5" y1="1080" x2="836.5" stroke="#C4C4C4"/>
<line x1="863.5" y1="1080" x2="863.5" stroke="#C4C4C4"/>
<line x1="890.5" y1="1080" x2="890.5" stroke="#C4C4C4"/>
<line x1="917.5" y1="1080" x2="917.5" stroke="#C4C4C4"/>
<line x1="944.5" y1="1080" x2="944.5" stroke="#C4C4C4"/>
<line x1="971.5" y1="1080" x2="971.5" stroke="#C4C4C4"/>
<line x1="998.5" y1="1080" x2="998.5" stroke="#C4C4C4"/>
<line x1="1025.5" y1="1080" x2="1025.5" stroke="#C4C4C4"/>
<line x1="1052.5" y1="1080" x2="1052.5" stroke="#C4C4C4"/>
<rect width="1080" height="1080" fill="url(#paint0_radial_241_319)"/>
<path d="M318.634 140V170H312.154V142.28L313.874 142.4L301.074 170H294.074L281.274 142.48L282.954 142.32V170H276.514V140H286.954L299.034 166.72H296.114L308.194 140H318.634ZM330.476 163.68V158.16H351.276V163.68H330.476ZM345.396 140L359.436 170H352.196L339.916 142.76H342.156L329.876 170H322.636L336.676 140H345.396ZM391.265 165.52L388.905 165.88V140H395.505V170H386.905L367.705 144.12L370.025 143.76V170H363.465V140H372.265L391.265 165.52ZM407.349 163.68V158.16H428.149V163.68H407.349ZM422.269 140L436.309 170H429.069L416.789 142.76H419.029L406.749 170H399.509L413.549 140H422.269ZM468.98 157C468.953 158.813 468.593 160.547 467.9 162.2C467.233 163.827 466.273 165.28 465.02 166.56C463.767 167.813 462.22 168.8 460.38 169.52C458.54 170.24 456.407 170.6 453.98 170.6C451.633 170.6 449.433 170.253 447.38 169.56C445.353 168.84 443.567 167.813 442.02 166.48C440.5 165.147 439.313 163.52 438.46 161.6C437.607 159.653 437.18 157.453 437.18 155C437.18 152.547 437.607 150.36 438.46 148.44C439.34 146.493 440.553 144.853 442.1 143.52C443.647 142.187 445.46 141.173 447.54 140.48C449.62 139.76 451.887 139.4 454.34 139.4C457.54 139.4 460.313 139.907 462.66 140.92C465.007 141.907 466.9 143.28 468.34 145.04C469.807 146.8 470.713 148.813 471.06 151.08H464.22C463.953 149.853 463.367 148.8 462.46 147.92C461.58 147.04 460.447 146.36 459.06 145.88C457.7 145.4 456.127 145.16 454.34 145.16C452.233 145.16 450.407 145.547 448.86 146.32C447.34 147.067 446.153 148.173 445.3 149.64C444.473 151.107 444.06 152.893 444.06 155C444.06 157.107 444.5 158.907 445.38 160.4C446.26 161.893 447.513 163.04 449.14 163.84C450.767 164.613 452.687 165 454.9 165C457.06 165 458.953 164.667 460.58 164C462.207 163.307 463.487 162.347 464.42 161.12C465.38 159.867 465.927 158.387 466.06 156.68L468.98 157ZM455.82 159.76V154.84H471.38V170H466.5L465.58 157.84L466.98 159.76H455.82ZM502.423 152.4V157.6H480.943V152.4H502.423ZM485.503 155L483.503 167.72L480.543 164.36H503.663V170H476.663L478.983 155L476.663 140H503.463V145.64H480.543L483.503 142.28L485.503 155ZM523.874 140C527.367 140 530.421 140.627 533.034 141.88C535.674 143.133 537.727 144.88 539.194 147.12C540.661 149.36 541.394 151.987 541.394 155C541.394 157.987 540.661 160.613 539.194 162.88C537.727 165.12 535.674 166.867 533.034 168.12C530.421 169.373 527.367 170 523.874 170H509.634V140H523.874ZM516.394 167.32L512.954 164H524.394C526.421 164 528.194 163.627 529.714 162.88C531.261 162.133 532.447 161.08 533.274 159.72C534.101 158.36 534.514 156.787 534.514 155C534.514 153.187 534.101 151.613 533.274 150.28C532.447 148.92 531.261 147.867 529.714 147.12C528.194 146.373 526.421 146 524.394 146H512.954L516.394 142.68V167.32ZM556.314 160.2H563.194C563.354 161.213 563.794 162.107 564.514 162.88C565.26 163.627 566.247 164.213 567.474 164.64C568.727 165.04 570.167 165.24 571.794 165.24C574.167 165.24 576.034 164.907 577.394 164.24C578.78 163.547 579.474 162.587 579.474 161.36C579.474 160.4 579.074 159.667 578.274 159.16C577.5 158.627 576.047 158.24 573.914 158L567.874 157.32C563.98 156.893 561.154 155.987 559.394 154.6C557.66 153.187 556.794 151.227 556.794 148.72C556.794 146.747 557.367 145.067 558.514 143.68C559.687 142.293 561.327 141.24 563.434 140.52C565.54 139.773 568.02 139.4 570.874 139.4C573.647 139.4 576.114 139.813 578.274 140.64C580.434 141.44 582.154 142.573 583.434 144.04C584.714 145.48 585.407 147.173 585.514 149.12H578.634C578.5 148.24 578.1 147.48 577.434 146.84C576.794 146.173 575.9 145.667 574.754 145.32C573.607 144.947 572.26 144.76 570.714 144.76C568.554 144.76 566.834 145.08 565.554 145.72C564.274 146.36 563.634 147.267 563.634 148.44C563.634 149.347 564.007 150.053 564.754 150.56C565.527 151.04 566.874 151.4 568.794 151.64L575.074 152.4C577.847 152.693 580.047 153.173 581.674 153.84C583.327 154.48 584.5 155.347 585.194 156.44C585.914 157.533 586.274 158.92 586.274 160.6C586.274 162.6 585.66 164.36 584.434 165.88C583.234 167.373 581.54 168.533 579.354 169.36C577.167 170.187 574.607 170.6 571.674 170.6C568.687 170.6 566.06 170.173 563.794 169.32C561.527 168.44 559.74 167.227 558.434 165.68C557.127 164.107 556.42 162.28 556.314 160.2ZM616.404 152.4V157.6H594.924V152.4H616.404ZM599.484 155L597.484 167.72L594.524 164.36H617.644V170H590.644L592.964 155L590.644 140H617.444V145.64H594.524L597.484 142.28L599.484 155ZM628.335 153.32H639.895C641.415 153.32 642.615 152.973 643.495 152.28C644.402 151.56 644.855 150.573 644.855 149.32C644.855 148.067 644.402 147.093 643.495 146.4C642.615 145.707 641.415 145.36 639.895 145.36H627.335L630.415 141.88V170H623.615V140H640.695C642.882 140 644.802 140.4 646.455 141.2C648.108 141.973 649.402 143.053 650.335 144.44C651.268 145.827 651.735 147.453 651.735 149.32C651.735 151.16 651.268 152.773 650.335 154.16C649.402 155.547 648.108 156.64 646.455 157.44C644.802 158.213 642.882 158.6 640.695 158.6H628.335V153.32ZM633.535 155.96H641.295L652.615 170H644.655L633.535 155.96ZM672.854 167H669.854L682.094 140H689.294L675.054 170H667.414L653.214 140H660.494L672.854 167ZM693.34 140H700.14V170H693.34V140ZM739.55 157.8C739.257 160.333 738.363 162.573 736.87 164.52C735.403 166.44 733.457 167.933 731.03 169C728.63 170.067 725.883 170.6 722.79 170.6C719.377 170.6 716.377 169.947 713.79 168.64C711.23 167.333 709.23 165.52 707.79 163.2C706.35 160.853 705.63 158.12 705.63 155C705.63 151.88 706.35 149.16 707.79 146.84C709.23 144.493 711.23 142.667 713.79 141.36C716.377 140.053 719.377 139.4 722.79 139.4C725.883 139.4 728.63 139.933 731.03 141C733.457 142.067 735.403 143.56 736.87 145.48C738.363 147.4 739.257 149.64 739.55 152.2H732.71C732.443 150.787 731.87 149.573 730.99 148.56C730.11 147.52 728.977 146.72 727.59 146.16C726.203 145.6 724.59 145.32 722.75 145.32C720.643 145.32 718.817 145.72 717.27 146.52C715.75 147.293 714.577 148.413 713.75 149.88C712.923 151.32 712.51 153.027 712.51 155C712.51 156.973 712.923 158.693 713.75 160.16C714.577 161.6 715.75 162.72 717.27 163.52C718.817 164.293 720.643 164.68 722.75 164.68C724.59 164.68 726.203 164.413 727.59 163.88C728.977 163.32 730.11 162.533 730.99 161.52C731.87 160.48 732.443 159.24 732.71 157.8H739.55ZM769.506 152.4V157.6H748.026V152.4H769.506ZM752.586 155L750.586 167.72L747.626 164.36H770.746V170H743.746L746.066 155L743.746 140H770.546V145.64H747.626L750.586 142.28L752.586 155ZM775.117 160.2H781.997C782.157 161.213 782.597 162.107 783.317 162.88C784.063 163.627 785.05 164.213 786.277 164.64C787.53 165.04 788.97 165.24 790.597 165.24C792.97 165.24 794.837 164.907 796.197 164.24C797.583 163.547 798.277 162.587 798.277 161.36C798.277 160.4 797.877 159.667 797.077 159.16C796.303 158.627 794.85 158.24 792.717 158L786.677 157.32C782.783 156.893 779.957 155.987 778.197 154.6C776.463 153.187 775.597 151.227 775.597 148.72C775.597 146.747 776.17 145.067 777.317 143.68C778.49 142.293 780.13 141.24 782.237 140.52C784.343 139.773 786.823 139.4 789.677 139.4C792.45 139.4 794.917 139.813 797.077 140.64C799.237 141.44 800.957 142.573 802.237 144.04C803.517 145.48 804.21 147.173 804.317 149.12H797.437C797.303 148.24 796.903 147.48 796.237 146.84C795.597 146.173 794.703 145.667 793.557 145.32C792.41 144.947 791.063 144.76 789.517 144.76C787.357 144.76 785.637 145.08 784.357 145.72C783.077 146.36 782.437 147.267 782.437 148.44C782.437 149.347 782.81 150.053 783.557 150.56C784.33 151.04 785.677 151.4 787.597 151.64L793.877 152.4C796.65 152.693 798.85 153.173 800.477 153.84C802.13 154.48 803.303 155.347 803.997 156.44C804.717 157.533 805.077 158.92 805.077 160.6C805.077 162.6 804.463 164.36 803.237 165.88C802.037 167.373 800.343 168.533 798.157 169.36C795.97 170.187 793.41 170.6 790.477 170.6C787.49 170.6 784.863 170.173 782.597 169.32C780.33 168.44 778.543 167.227 777.237 165.68C775.93 164.107 775.223 162.28 775.117 160.2Z" fill="#0E5F66"/>
<path d="M577.326 551.854L530.608 546.794C524.217 546.103 518.811 541.9 516.357 535.959C516.327 535.889 516.298 535.817 516.269 535.747C513.806 529.808 514.654 523.016 518.685 518.007L548.143 481.396C553.697 474.494 553.158 464.515 546.893 458.25L491.75 403.107C485.485 396.842 475.508 396.303 468.604 401.857L431.977 431.327C426.981 435.347 420.208 436.201 414.278 433.76C414.213 433.734 414.148 433.708 414.083 433.681C408.121 431.234 403.903 425.82 403.209 419.413L398.148 372.674C397.195 363.865 389.758 357.19 380.898 357.19H302.915C294.055 357.19 286.619 363.865 285.665 372.674L280.604 419.413C279.911 425.818 275.69 431.234 269.729 433.681C269.664 433.708 269.599 433.734 269.536 433.76C263.606 436.202 256.833 435.347 251.837 431.327L215.206 401.857C208.303 396.303 198.325 396.842 192.061 403.107L136.919 458.25C130.654 464.515 130.115 474.494 135.669 481.396L165.127 518.007C169.157 523.018 170.005 529.808 167.542 535.747C167.512 535.817 167.484 535.889 167.454 535.959C164.998 541.9 159.595 546.103 153.203 546.794L106.484 551.854C97.6745 552.807 91 560.243 91 569.103V647.087C91 655.947 97.6745 663.383 106.484 664.336L153.201 669.394C159.593 670.086 164.998 674.288 167.453 680.229C167.482 680.299 167.511 680.371 167.54 680.442C170.003 686.38 169.155 693.172 165.125 698.183L135.667 734.794C130.113 741.697 130.652 751.675 136.917 757.94L192.06 813.083C198.325 819.348 208.303 819.887 215.206 814.333L251.833 784.863C256.829 780.841 263.602 779.988 269.532 782.43C269.597 782.456 269.662 782.482 269.727 782.509C275.689 784.956 279.907 790.37 280.601 796.778L285.662 843.516C286.615 852.326 294.051 859 302.911 859H380.895C389.755 859 397.191 852.326 398.145 843.516L403.206 796.778C403.899 790.372 408.118 784.956 414.079 782.509C414.144 782.482 414.209 782.456 414.272 782.43C420.203 779.988 426.975 780.841 431.973 784.863L468.6 814.333C475.503 819.887 485.481 819.348 491.747 813.083L546.889 757.94C553.155 751.675 553.692 741.697 548.139 734.794L518.682 698.183C514.651 693.174 513.803 686.382 516.266 680.442C516.294 680.371 516.324 680.301 516.354 680.229C518.81 674.288 524.213 670.086 530.605 669.394L577.323 664.336C586.13 663.381 592.806 655.945 592.806 647.087V569.103C592.81 560.243 586.135 552.807 577.326 551.854ZM341.905 686.319C298.703 686.319 263.681 651.296 263.681 608.095C263.681 564.894 298.703 529.871 341.905 529.871C385.106 529.871 420.129 564.894 420.129 608.095C420.129 651.296 385.106 686.319 341.905 686.319Z" fill="#0E5F66"/>
<path d="M981.869 473.662L949.797 448.335C944.689 444.301 941.852 438.116 941.848 431.605C941.848 431.536 941.848 431.468 941.848 431.398C941.838 424.872 944.677 418.672 949.797 414.629L981.869 389.3C989.214 383.5 991.812 373.527 988.231 364.881L974.143 330.87C970.562 322.222 961.672 317.008 952.378 318.1L911.79 322.868C905.309 323.63 898.917 321.253 894.313 316.631C894.265 316.582 894.216 316.533 894.167 316.485C889.564 311.879 887.198 305.499 887.958 299.034L892.726 258.448C893.818 249.154 888.602 240.264 879.956 236.683L845.945 222.597C837.299 219.016 827.326 221.614 821.526 228.957L796.197 261.027C792.161 266.137 785.976 268.972 779.467 268.976C779.397 268.976 779.328 268.976 779.26 268.976C772.736 268.986 766.536 266.148 762.491 261.027L737.163 228.955C731.362 221.61 721.388 219.012 712.742 222.593L678.73 236.681C670.084 240.263 664.869 249.153 665.961 258.448L670.729 299.035C671.491 305.515 669.114 311.907 664.491 316.513C664.442 316.562 664.393 316.612 664.344 316.661C659.738 321.264 653.36 323.63 646.892 322.87L606.307 318.102C597.011 317.01 588.123 322.226 584.542 330.872L570.454 364.883C566.873 373.529 569.471 383.504 576.816 389.304L608.886 414.631C613.996 418.667 616.831 424.849 616.835 431.361C616.835 431.431 616.835 431.499 616.835 431.568C616.847 438.093 614.006 444.294 608.886 448.336L576.814 473.665C569.469 479.465 566.871 489.438 570.454 498.084L584.54 532.095C588.121 540.741 597.011 545.957 606.305 544.865L646.894 540.097C653.374 539.335 659.766 541.712 664.372 546.334C664.421 546.384 664.469 546.433 664.518 546.48C669.121 551.087 671.487 557.464 670.727 563.932L665.959 604.519C664.867 613.815 670.083 622.703 678.729 626.284L712.74 640.372C721.386 643.953 731.359 641.355 737.161 634.01L762.488 601.94C766.524 596.83 772.707 593.995 779.218 593.991C779.286 593.991 779.355 593.991 779.425 593.991C785.948 593.979 792.151 596.819 796.194 601.94L821.522 634.012C827.322 641.357 837.295 643.955 845.943 640.374L879.954 626.286C888.6 622.705 893.816 613.815 892.724 604.521L887.956 563.933C887.194 557.454 889.571 551.06 894.193 546.456C894.242 546.406 894.292 546.357 894.341 546.31C898.947 541.709 905.325 539.341 911.792 540.101L952.38 544.869C961.675 545.961 970.563 540.745 974.145 532.099L988.233 498.088C991.81 489.437 989.214 479.462 981.869 473.662ZM800.136 492.075C767.512 505.589 730.109 490.097 716.595 457.47C703.081 424.844 718.575 387.443 751.2 373.929C783.824 360.415 821.227 375.908 834.741 408.534C848.253 441.158 832.761 478.563 800.136 492.075Z" fill="#38AD7E"/>
</g>
<defs>
<radialGradient id="paint0_radial_241_319" cx="0" cy="0" r="1" gradientUnits="userSpaceOnUse" gradientTransform="translate(540 540) rotate(90) scale(540)">
<stop offset="0.745" stop-color="white" stop-opacity="0"/>
<stop offset="1" stop-color="white"/>
</radialGradient>
<clipPath id="clip0_241_319">
<rect width="1080" height="1080" fill="white"/>
</clipPath>
</defs>
</svg>
