<svg width="973" height="800" viewBox="0 0 973 800" fill="none" xmlns="http://www.w3.org/2000/svg">
<path d="M407.544 69.9324L408.116 74.0242L402.083 75.2618L401.193 83.9173H408.58L418.319 83.0123L423.354 77.0332L417.963 74.937L415.008 71.5877L410.576 64.5488L408.58 54.4082L400.273 56.1022L397.96 59.668V63.6206L401.928 66.4284L407.544 69.9324Z" fill="#F7F7F7"/>
<path d="M400.575 73.2734L400.969 67.8279L396.197 65.7627L389.382 67.2942L384.347 75.3387V80.6062H390.233L400.575 73.2734Z" fill="#F7F7F7"/>
<path d="M259.696 100.2H252.51V103.951H254.235C254.235 103.951 254.358 104.725 254.467 105.761L258.938 105.359L261.591 103.704L262.395 100.208L265.93 99.9369L267.353 96.9821L264.043 96.2705L261.243 96.3479L259.696 100.2Z" fill="#F7F7F7"/>
<path d="M242.316 106.766L247.615 106.325L248.048 102.667L244.892 100.199L242.618 103.154L242.316 106.766Z" fill="#F7F7F7"/>
<path d="M794.882 281.555L779.458 282.019L778.847 273.627L781.346 274.709L787.387 274.006L786.768 266.317L770.006 266.518L765.466 260.469L765.675 257.236L744.148 237.852L738.757 242.044L769.651 279.714L773.998 281.168V283.203H768.181L769.651 287.898L807.467 289.553L794.882 281.555Z" fill="#F7F7F7"/>
<path d="M821.8 239.538L819.185 238.471L817.963 231.997H814.157L811.736 238.502L808.851 241.085L786.961 253.005V264.747L794.24 274.4H812.657L815.047 268.398L819.185 264.623V261.862L821.8 260.206V239.538Z" fill="#F7F7F7"/>
<path d="M835.43 260.207L824.353 264.476L824.585 266.936H821.801V282.244H827.393L826.62 272.482L830.974 274.099V280.936L835.577 280.627L835.43 260.207Z" fill="#F7F7F7"/>
<path d="M928.644 352.887L925.605 340.527L914.342 330.865L913.445 312.448L906.066 299.716L899.375 299.361L896.606 322.481L883.905 321.56L880.215 319.371L879.867 310.252L886.55 311.644L892.29 306.059L880.099 298.711H865.867L855.595 313.33H851.472V308.72L839.088 309.594L819.65 331.716L809.316 331.948L797.814 339.792L797.079 374.189L790.079 380.88V386.921L823.626 375.419L850.699 374.336L860.746 396.458L891.57 397.503L921.273 369.572L928.644 352.887Z" fill="#F7F7F7"/>
<path d="M864.822 413.499L875.713 414.628L884.485 409.809L884.717 403.157L875.056 402.121L864.822 413.499Z" fill="#F7F7F7"/>
<path d="M969.655 383.301L965.123 384.191L964.991 373.958L956.645 374.491L955.531 390.503L948.229 395.5L934.647 397.348L912.873 412.849L909.222 415.889V421.041L920.523 419.347L948.198 402.422L955.957 397.271L964.303 393.574L972.773 388.809L969.655 383.301Z" fill="#F7F7F7"/>
<path d="M884.059 269.009L877.02 269.241L877.6 261.892L870.871 257.932L861.396 267.477L867.785 275.32L881.599 277.324L889.288 281.362L889.52 285.128H884.446L884.717 292.894L901.401 291.827L907.473 285.322L914.063 284.711V296.638H925.333V291.827H919.594L918.642 277.324L891.57 265.041L884.059 269.009Z" fill="#F7F7F7"/>
<path d="M683.173 234.279L685.826 241.395L695.34 237.852L696.291 228.013L688.711 226.551L683.173 234.279Z" fill="#F7F7F7"/>
<path d="M571.378 317.175L558.414 315.488V325.559L563.071 330.943L559.528 336.404L554.261 342.453V353.568L561.454 360.491L567.921 350.064L580.653 331.407L586.732 302.091H578.997L571.378 317.175Z" fill="#F7F7F7"/>
<path d="M838.19 286.242H833.89V288.516L837.193 289.553L838.19 286.242Z" fill="#F7F7F7"/>
<path d="M819.239 289.553H814.157V292.322H819.239V289.553Z" fill="#F7F7F7"/>
<path d="M826.434 292.322H829.551V289.893L831.864 289.553V287.17H826.844L824.779 289.553L821.801 292.322V294.743L826.434 294.318V292.322Z" fill="#F7F7F7"/>
<path d="M839.319 294.566H844.355V291.943L847.828 292.322L847.364 287.898L841.663 288.787L841.121 291.642L834.748 292.322H834.431V296.708H839.319V294.566Z" fill="#F7F7F7"/>
<path d="M747.985 232.314L777.795 260.933L779.373 255.851L755.139 221.384L757.684 211.305L770.455 225.809L777.571 226.536L786.954 220.301L785.414 210.911L769.867 198.473L769.264 187.164L773.673 181.216L781.454 183.699L780.874 189.013L785.337 195.913L789.305 193.066L787.108 184.914L809.076 177.039L818.698 169.003L817.205 154.461L798.123 134.381L797.767 118.029H806.237L832.629 138.109L840.093 136.152L835.096 129.685L820.988 121.092L821.87 108.298L838.608 108.337L839.962 92.5032L833.573 84.1571L837.378 80.0421L845.492 88.2335L848.153 84.7682L837.579 72.8485L811.714 69.7313L808.256 62.8084L815.759 52.1109L821.692 56.5663L839.606 58.1133L862.154 43.0532L865.921 47.7406L860.885 55.6226V63.4117L881.623 80.3592L888.197 76.9326L885.745 65.624L870.971 51.8324L890.441 50.5252V44.9096L899.792 43.0067L892.63 38.0409L892.9 34.2275L912.733 37.4066L916.508 34.2275L889.768 22.9576L792.523 17.9607L783.473 13.3429L768.97 11.1307L758.172 10.7826L748.294 20.7531L744.171 20.4359L731.053 10.7053H692.432L674.548 0L638.696 2.25089L611.523 14.5032L611.686 28.5964L603.27 31.1257L601.383 16.9784L598.219 12.0976L588.867 9.7616L586.678 18.2315L589.417 25.1775L555.939 22.9653L540.013 30.329L537.592 23.352L533.554 24.3885L530.63 32.139L522.284 38.6829L501.895 38.1259L500.936 33.6087L522.331 32.7037L526.678 28.9522L500.943 16.9861L469.586 17.9298L452.035 26.9102L445.414 38.6983L433.718 43.2311L428.837 48.5837L429.959 54.7717L435.992 55.5994L439.643 64.6571L449.877 60.4802L451.687 72.5623H448.453L440.038 71.3092L430.647 72.8871L421.566 85.7196L408.487 87.8158L406.646 98.9387L412.192 100.23L410.606 107.409L397.58 104.848L385.738 107.409L383.263 114.022L385.274 127.891L392.305 131.155L403.923 131.116L411.851 130.366L414.28 124.062L426.579 108.112L434.701 109.76L442.668 102.543L444.161 108.182L463.792 121.455L461.363 124.681L452.514 124.163L455.864 129.005L461.363 130.204L467.745 127.551L467.636 119.839L470.521 118.408L468.17 115.971L455.051 108.677L451.671 98.9233H462.516L465.981 102.35L475.41 110.472L475.743 120.28L485.512 130.629L489.132 116.451L495.869 112.738L497.122 124.356L503.712 131.604L523.545 131.302L529.439 135.665V146.076L522.199 152.651H502.08L489.851 143.508L477.003 144.8V152.643H472.881L468.503 149.487L446.226 143.81V129.399L417.916 131.596L409.136 136.291H397.982L392.452 135.742L378.838 143.315V157.524L350.984 177.666L353.328 186.205H358.944L357.52 194.366L353.56 195.866L353.328 217.215L377.338 244.605H387.803L388.53 242.919H407.295L412.772 237.922H423.423L429.309 243.8L445.205 245.417L443.124 266.619L460.775 297.814L451.462 315.589L452.12 323.935L459.507 331.245V351.402L469.083 364.327V381.097H497.548L518.935 359.168L525.634 347.21L534.212 345.323V335.329L539.851 328.63L551.747 312.24L549.272 287.387L544.043 278.159L567.519 255.697L593.33 218.723L588.396 216.38L561.501 222.034L554.539 218.607L526.314 165.367L528.271 163.054L556.318 197.05L557.007 207.562L563.396 214.067L576.708 213.224L604.129 193.298L612.83 187.675L612.684 180.729L603.494 179.6C603.494 179.6 571.208 164.377 571.208 163.704C571.208 163.008 571.402 150.663 571.402 150.663H578.557L579.593 159.666L594.522 168.283L611.639 169.103L648.62 175.167L657.338 180.652V189.114L656.216 200.67L675.268 231.873L681.301 233.296L687.458 224.409L690.815 199.138L697.158 185.532L707.337 181.711L725.298 183.444L747.961 203.547V232.322L747.985 232.314ZM487.546 33.6164L475.17 41.2509V46.2477L482.163 49.5196L482.704 56.311L472.695 71.1158L455.384 70.9457L454.309 67.403L465.122 61.8802L465.238 41.3979L483.555 28.5577H487.562V33.6164H487.546ZM525.982 120.906V120.868L509.684 120.164L504.826 120.868V109.768L508.493 105.637L512.407 104.4L521.109 103.417L522.949 100.455L526.515 102.211L526.987 112.367L536.494 116.273L537.298 120.914L525.982 120.906ZM588.573 128.835H588.535L585.65 131.542L579.052 131.047L577.799 129.067L567.449 128.27L568.176 124.967L573.722 120.249V116.265L563.179 108.646L562.715 98.8923L564.866 94.1198L573.366 93.3308L580.568 96.3552L580.916 101.391L570.613 100.818L570.118 105.467L582.958 114.007V120.311L588.573 124.348V128.835Z" fill="#F7F7F7"/>
<path d="M311.134 268.204L288.942 268.011L271.352 261.32L270.509 248.782L264.631 238.502L248.82 238.316L239.585 223.844L231.424 219.922L231.007 224.238L216.155 225.159L210.694 217.586L195.155 214.43L182.376 229.166L162.343 225.778L160.881 203.122L146.184 200.6L152.078 189.539L150.377 183.15L131.186 196.044L119.065 194.582L114.68 185.076L117.379 175.268L124.07 162.993L139.416 155.18H169.157L169.08 164.238L179.777 169.165L178.896 153.68L186.592 145.968L202.132 135.758L203.122 128.595L218.677 112.475L235.176 103.379L233.698 102.211L244.814 91.6833L248.936 92.743L250.824 95.11L255.047 90.3839L256.014 89.8966L251.443 89.2777L246.747 87.7075V83.1207L249.207 81.0863H254.745L257.29 82.1847L259.441 86.5473L262.094 86.1605V85.8975L262.898 86.1219L270.594 84.892L271.662 81.125L275.97 82.2234V86.2843L271.94 89.1308L272.551 93.648L286.56 97.941C286.56 97.941 286.598 98.0183 286.598 98.0957L289.793 97.825L290.025 91.7994L278.948 86.7639L278.291 83.8014L287.488 80.6455L287.867 71.8971L278.283 66.0263L277.664 51.2214L264.399 57.6879H259.595L260.856 46.3948L243.004 42.125L235.547 47.7174V64.8969L222.189 69.0739L216.805 80.2664L211.035 81.1714V66.9003L198.489 65.129L192.223 61.0758L189.678 51.8634L212.133 38.7061L223.101 35.3569L224.177 42.7283L230.334 42.419L230.829 38.7061L237.218 37.8011L237.287 36.5481L234.596 35.3569L233.938 31.4584L241.789 30.7777L246.523 25.8196L246.863 25.4715V25.5102L248.287 24.0096L264.909 21.9289L272.172 28.1401L252.943 38.3581L277.37 44.1052L280.495 35.9061H291.224L294.944 28.813L287.457 26.918V17.9376L263.795 7.45663L247.521 9.34398L238.247 14.1552L238.943 25.8969L229.351 24.3963L227.889 17.9376L237.017 9.55282L220.355 8.72517L215.498 10.1329L213.378 15.8027L219.698 16.8856L218.422 23.1742L207.771 23.8162L206.115 27.9467L190.537 28.3876C190.537 28.3876 190.189 19.6006 189.57 19.6006C188.913 19.6006 201.691 19.415 201.691 19.415L210.919 10.3882L205.883 7.84338L199.192 14.3795L188.069 13.7684L181.417 4.54053H167.177L152.303 15.6558H165.916L167.177 19.6316L163.604 22.9808L178.687 23.4295L180.992 28.8517L164.029 28.171L163.186 24.0019L152.535 21.6736L146.88 18.5796L121.749 18.8117L114.022 26.3301L108.754 25.8815L102.899 22.4935L85.5494 17.2956H53.7352L35.3413 29.8186L22.9885 31.7291L17.3419 36.1304L26.1134 37.4221V40.9416H7.34054L0 46.1704L9.37485 54.1375L35.1093 54.3618L38.6906 50.533H60.194L67.9599 57.4404L67.4958 68.1534L74.0474 74.2099L68.5865 78.1161L69.8164 92.2093L50.3937 115.855V138.032L60.8128 143.075V162.977L70.9457 180.095L79.0133 181.325L80.0575 175.461L70.5202 160.649L68.6329 146.223H74.2872L76.7083 161.074L90.6313 181.363L86.903 187.907L95.8215 201.451L117.835 206.897V203.354L126.599 204.561L125.795 210.872L132.679 212.064L143.376 215.065L158.46 232.221L177.689 233.652L179.576 249.385L166.388 258.574L165.731 272.536L163.89 281.161L182.926 305.008L184.388 313.122C184.388 313.122 191.318 315.009 192.084 315.009C192.927 315.009 207.624 326.132 207.624 326.132V369.177L212.852 370.717L209.202 390.565L218.012 402.26L216.426 421.946L228.013 442.413L242.934 455.423L257.87 455.694L259.363 450.921L248.403 441.655L249.052 437.029L251.064 431.344L251.481 425.651L243.978 425.427L240.134 420.731L246.399 414.737L247.242 410.274L240.32 408.317L240.699 404.117L250.553 402.662L265.513 395.507L270.556 386.272L286.242 366.114L282.677 350.459L287.488 342.074L301.906 342.499L311.598 334.88L314.754 304.528L325.536 290.798L327.455 282.027L317.6 278.871L311.134 268.204ZM193.731 117.093H185.726L187.01 111.647L190.777 111.245L191.62 109.397L197.351 108.608V113.496H197.382L193.731 117.093ZM199.262 103.611L195.487 106.055L190.761 106.875C190.761 106.875 190.761 99.3952 190.761 98.6062H199.262V103.611ZM206.417 97.825L210.3 100.192L207.19 102.752L204.228 100.192L206.417 97.825ZM201.343 104.09H201.962L211.576 106.875V111.81H203.501L201.35 108.646L201.343 104.09ZM195.07 90.5695L200.268 95.3033L195.07 96.5719V90.5695ZM173.071 91.3585L180.296 88.3727H190.228V91.3585H192.378V96.5719H177.264L171.679 95.0326L173.071 91.3585ZM171.679 104.895L177.411 98.6217H185.718L175.067 113.512L170.642 111.145L171.679 104.895ZM163.99 69.4374L169.915 70.8065L167.866 78.8509L161.438 80.9162L157.4 72.5469L163.99 69.4374ZM134.172 31.4507V30.9789H139.679L140.174 29.076H149.185V33.0209L146.525 36.4398H134.172V31.4507ZM142.912 43.6952C142.912 43.6952 148.451 42.7206 148.876 42.7206C149.301 42.7206 148.876 48.2357 148.876 48.2357L136.477 49.0247L134.141 46.2168L142.912 43.6952Z" fill="#F7F7F7"/>
<path d="M389.149 663.179L372.511 657.045C373.826 644.916 373.401 632.54 371.111 620.242L387.185 612.839C397.217 608.221 401.618 596.286 397 586.246L387.626 565.88C383 555.847 371.073 551.438 361.056 556.056L344.967 563.474C337.1 553.736 327.981 545.374 317.918 538.49L324.051 521.867C327.873 511.51 322.559 499.954 312.201 496.133L291.154 488.359C281.122 484.662 269.133 490.185 265.42 500.209L259.286 516.84C247.165 515.54 234.789 515.966 222.491 518.24L215.088 502.182C210.455 492.142 198.535 487.733 188.503 492.351L168.136 501.733C158.096 506.359 153.703 518.294 158.313 528.311L165.723 544.384C156 552.258 147.623 561.386 140.731 571.449L124.124 565.323C114.1 561.595 102.087 567.102 98.3743 577.15L90.6083 598.204C88.7596 603.224 88.9762 608.678 91.2039 613.528C93.4625 618.377 97.4538 622.075 102.466 623.923L119.104 630.081C117.789 642.201 118.215 654.577 120.504 666.876L104.431 674.278C94.3985 678.904 89.9972 690.824 94.6073 700.856L104.005 721.238C108.623 731.262 120.543 735.664 130.575 731.054L146.649 723.643C154.515 733.374 163.642 741.743 173.713 748.62L167.58 765.242C165.708 770.262 165.924 775.708 168.167 780.558C170.403 785.423 174.41 789.128 179.414 790.985L200.469 798.75C205.481 800.599 210.919 800.39 215.784 798.17C220.65 795.919 224.347 791.913 226.188 786.9L232.345 770.27C244.466 771.585 256.834 771.16 269.148 768.862L276.535 784.936C281.161 794.968 293.096 799.362 303.12 794.751L323.487 785.377C333.535 780.751 337.92 768.831 333.303 758.791L325.9 742.726C335.623 734.844 344 725.732 350.876 715.669L367.507 721.802C372.542 723.659 377.98 723.45 382.845 721.199C387.695 718.979 391.385 714.965 393.234 709.96L401.007 688.913C404.828 678.548 399.507 667.015 389.149 663.179ZM278.956 715.514C268.46 720.348 257.321 722.8 245.843 722.8C215.003 722.8 186.739 704.7 173.845 676.707C155.575 637.019 172.979 589.866 212.652 571.604C223.148 566.769 234.294 564.325 245.757 564.325C276.597 564.325 304.869 582.41 317.771 610.41C336.033 650.091 318.621 697.236 278.956 715.514Z" fill="white"/>
<path d="M684.425 696.833L672.266 692.347C673.217 683.467 672.9 674.432 671.222 665.429L682.987 660.022C690.319 656.642 693.537 647.917 690.165 640.576L683.296 625.679C679.916 618.338 671.206 615.12 663.873 618.493L652.101 623.923C646.353 616.791 639.678 610.688 632.322 605.645L636.808 593.501C639.593 585.92 635.726 577.458 628.145 574.666L612.753 568.981C605.412 566.273 596.648 570.327 593.925 577.652L589.439 589.819C580.575 588.867 571.525 589.177 562.529 590.84L557.107 579.083C553.719 571.742 545.001 568.524 537.661 571.905L522.763 578.766C515.423 582.146 512.213 590.863 515.57 598.204L520.992 609.969C513.876 615.739 507.757 622.399 502.714 629.77L490.57 625.284C483.237 622.554 474.45 626.591 471.743 633.947L466.058 649.324C464.704 653.014 464.859 656.982 466.499 660.533C468.154 664.098 471.07 666.806 474.736 668.136L486.904 672.638C485.945 681.502 486.254 690.544 487.925 699.548L476.16 704.955C468.827 708.343 465.609 717.052 468.989 724.385L475.858 739.306C479.246 746.639 487.948 749.857 495.296 746.484L507.061 741.07C512.808 748.186 519.484 754.304 526.863 759.34L522.361 771.491C521 775.173 521.162 779.149 522.802 782.7C524.434 786.25 527.358 788.973 531.016 790.326L546.409 796.004C550.083 797.357 554.059 797.195 557.625 795.563C561.183 793.923 563.89 790.992 565.228 787.333L569.715 775.158C578.579 776.125 587.629 775.808 596.64 774.137L602.04 785.902C605.427 793.235 614.137 796.452 621.478 793.08L636.383 786.219C643.724 782.831 646.941 774.121 643.569 766.773L638.147 755.016C645.263 749.246 651.381 742.586 656.417 735.214L668.592 739.708C672.266 741.062 676.242 740.899 679.8 739.267C683.342 737.635 686.057 734.704 687.395 731.045L693.088 715.66C695.896 708.072 692.006 699.633 684.425 696.833ZM603.842 735.114C596.153 738.656 588.008 740.435 579.608 740.435C557.053 740.435 536.385 727.201 526.948 706.718C513.582 677.697 526.314 643.206 555.328 629.848C563.009 626.305 571.154 624.526 579.538 624.526C602.101 624.526 622.769 637.761 632.214 658.227C645.58 687.257 632.848 721.74 603.842 735.114Z" fill="white"/>
<path d="M910.374 711.29L901.425 707.987C902.129 701.436 901.897 694.783 900.659 688.162L909.315 684.163C914.714 681.688 917.081 675.26 914.59 669.838L909.555 658.877C907.072 653.478 900.636 651.096 895.237 653.579L886.566 657.578C882.335 652.334 877.408 647.824 872.001 644.127L875.312 635.17C877.369 629.593 874.507 623.366 868.922 621.301L857.591 617.116C852.192 615.12 845.741 618.098 843.737 623.505L840.427 632.455C833.898 631.751 827.223 631.99 820.609 633.205L816.618 624.565C814.127 619.158 807.707 616.783 802.293 619.274L791.332 624.325C785.933 626.816 783.559 633.228 786.042 638.643L790.041 647.314C784.796 651.56 780.287 656.472 776.566 661.894L767.64 658.584C762.233 656.58 755.774 659.55 753.756 664.965L749.571 676.297C748.573 679.012 748.705 681.936 749.904 684.55C751.11 687.172 753.276 689.168 755.96 690.158L764.933 693.468C764.221 700.005 764.453 706.672 765.691 713.286L757.02 717.277C751.621 719.768 749.254 726.188 751.744 731.594L756.788 742.57C759.278 747.962 765.699 750.344 771.098 747.853L779.768 743.87C784 749.107 788.911 753.616 794.349 757.313L791.038 766.271C790.025 768.986 790.149 771.909 791.356 774.524C792.555 777.146 794.713 779.142 797.412 780.139L808.752 784.324C811.467 785.322 814.383 785.206 816.997 784.007C819.619 782.8 821.607 780.634 822.605 777.95L825.923 768.986C832.46 769.697 839.112 769.473 845.741 768.235L849.732 776.891C852.215 782.29 858.643 784.672 864.057 782.182L875.018 777.131C880.432 774.648 882.791 768.228 880.301 762.813L876.317 754.158C881.569 749.911 886.071 744.999 889.784 739.577L898.741 742.895C901.448 743.901 904.38 743.777 906.987 742.57C909.601 741.371 911.597 739.213 912.594 736.514L916.779 725.174C918.829 719.574 915.967 713.348 910.374 711.29ZM851.031 739.469C845.377 742.068 839.367 743.398 833.179 743.398C816.572 743.398 801.357 733.644 794.403 718.561C784.564 697.189 793.931 671.787 815.295 661.956C820.958 659.357 826.96 658.027 833.14 658.027C849.74 658.027 864.97 667.773 871.939 682.848C881.77 704.228 872.395 729.622 851.031 739.469Z" fill="white"/>
</svg>
