<svg width="1080" height="1080" viewBox="0 0 1080 1080" fill="none" xmlns="http://www.w3.org/2000/svg">
<g clip-path="url(#clip0_235_2)">
<rect width="1080" height="1080" fill="white"/>
<line y1="26.5" x2="1080" y2="26.5" stroke="#C4C4C4"/>
<line y1="53.5" x2="1080" y2="53.5" stroke="#C4C4C4"/>
<line y1="80.5" x2="1080" y2="80.5" stroke="#C4C4C4"/>
<line y1="107.5" x2="1080" y2="107.5" stroke="#C4C4C4"/>
<line y1="134.5" x2="1080" y2="134.5" stroke="#C4C4C4"/>
<line y1="161.5" x2="1080" y2="161.5" stroke="#C4C4C4"/>
<line y1="188.5" x2="1080" y2="188.5" stroke="#C4C4C4"/>
<line y1="215.5" x2="1080" y2="215.5" stroke="#C4C4C4"/>
<line y1="242.5" x2="1080" y2="242.5" stroke="#C4C4C4"/>
<line y1="269.5" x2="1080" y2="269.5" stroke="#C4C4C4"/>
<line y1="296.5" x2="1080" y2="296.5" stroke="#C4C4C4"/>
<line y1="323.5" x2="1080" y2="323.5" stroke="#C4C4C4"/>
<line y1="350.5" x2="1080" y2="350.5" stroke="#C4C4C4"/>
<line y1="377.5" x2="1080" y2="377.5" stroke="#C4C4C4"/>
<line y1="404.5" x2="1080" y2="404.5" stroke="#C4C4C4"/>
<line y1="431.5" x2="1080" y2="431.5" stroke="#C4C4C4"/>
<line y1="458.5" x2="1080" y2="458.5" stroke="#C4C4C4"/>
<line y1="485.5" x2="1080" y2="485.5" stroke="#C4C4C4"/>
<line y1="512.5" x2="1080" y2="512.5" stroke="#C4C4C4"/>
<line y1="539.5" x2="1080" y2="539.5" stroke="#C4C4C4"/>
<line y1="566.5" x2="1080" y2="566.5" stroke="#C4C4C4"/>
<line y1="593.5" x2="1080" y2="593.5" stroke="#C4C4C4"/>
<line y1="620.5" x2="1080" y2="620.5" stroke="#C4C4C4"/>
<line y1="647.5" x2="1080" y2="647.5" stroke="#C4C4C4"/>
<line y1="674.5" x2="1080" y2="674.5" stroke="#C4C4C4"/>
<line y1="701.5" x2="1080" y2="701.5" stroke="#C4C4C4"/>
<line y1="728.5" x2="1080" y2="728.5" stroke="#C4C4C4"/>
<line y1="755.5" x2="1080" y2="755.5" stroke="#C4C4C4"/>
<line y1="782.5" x2="1080" y2="782.5" stroke="#C4C4C4"/>
<line y1="809.5" x2="1080" y2="809.5" stroke="#C4C4C4"/>
<line y1="836.5" x2="1080" y2="836.5" stroke="#C4C4C4"/>
<line y1="863.5" x2="1080" y2="863.5" stroke="#C4C4C4"/>
<line y1="890.5" x2="1080" y2="890.5" stroke="#C4C4C4"/>
<line y1="917.5" x2="1080" y2="917.5" stroke="#C4C4C4"/>
<line y1="944.5" x2="1080" y2="944.5" stroke="#C4C4C4"/>
<line y1="971.5" x2="1080" y2="971.5" stroke="#C4C4C4"/>
<line y1="998.5" x2="1080" y2="998.5" stroke="#C4C4C4"/>
<line y1="1025.5" x2="1080" y2="1025.5" stroke="#C4C4C4"/>
<line y1="1052.5" x2="1080" y2="1052.5" stroke="#C4C4C4"/>
<line x1="26.5" y1="1080" x2="26.5" stroke="#C4C4C4"/>
<line x1="53.5" y1="1080" x2="53.5" stroke="#C4C4C4"/>
<line x1="80.5" y1="1080" x2="80.5" stroke="#C4C4C4"/>
<line x1="107.5" y1="1080" x2="107.5" stroke="#C4C4C4"/>
<line x1="134.5" y1="1080" x2="134.5" stroke="#C4C4C4"/>
<line x1="161.5" y1="1080" x2="161.5" stroke="#C4C4C4"/>
<line x1="188.5" y1="1080" x2="188.5" stroke="#C4C4C4"/>
<line x1="215.5" y1="1080" x2="215.5" stroke="#C4C4C4"/>
<line x1="242.5" y1="1080" x2="242.5" stroke="#C4C4C4"/>
<line x1="269.5" y1="1080" x2="269.5" stroke="#C4C4C4"/>
<line x1="296.5" y1="1080" x2="296.5" stroke="#C4C4C4"/>
<line x1="323.5" y1="1080" x2="323.5" stroke="#C4C4C4"/>
<line x1="350.5" y1="1080" x2="350.5" stroke="#C4C4C4"/>
<line x1="377.5" y1="1080" x2="377.5" stroke="#C4C4C4"/>
<line x1="404.5" y1="1080" x2="404.5" stroke="#C4C4C4"/>
<line x1="431.5" y1="1080" x2="431.5" stroke="#C4C4C4"/>
<line x1="458.5" y1="1080" x2="458.5" stroke="#C4C4C4"/>
<line x1="485.5" y1="1080" x2="485.5" stroke="#C4C4C4"/>
<line x1="512.5" y1="1080" x2="512.5" stroke="#C4C4C4"/>
<line x1="539.5" y1="1080" x2="539.5" stroke="#C4C4C4"/>
<line x1="566.5" y1="1080" x2="566.5" stroke="#C4C4C4"/>
<line x1="593.5" y1="1080" x2="593.5" stroke="#C4C4C4"/>
<line x1="620.5" y1="1080" x2="620.5" stroke="#C4C4C4"/>
<line x1="647.5" y1="1080" x2="647.5" stroke="#C4C4C4"/>
<line x1="674.5" y1="1080" x2="674.5" stroke="#C4C4C4"/>
<line x1="701.5" y1="1080" x2="701.5" stroke="#C4C4C4"/>
<line x1="728.5" y1="1080" x2="728.5" stroke="#C4C4C4"/>
<line x1="755.5" y1="1080" x2="755.5" stroke="#C4C4C4"/>
<line x1="782.5" y1="1080" x2="782.5" stroke="#C4C4C4"/>
<line x1="809.5" y1="1080" x2="809.5" stroke="#C4C4C4"/>
<line x1="836.5" y1="1080" x2="836.5" stroke="#C4C4C4"/>
<line x1="863.5" y1="1080" x2="863.5" stroke="#C4C4C4"/>
<line x1="890.5" y1="1080" x2="890.5" stroke="#C4C4C4"/>
<line x1="917.5" y1="1080" x2="917.5" stroke="#C4C4C4"/>
<line x1="944.5" y1="1080" x2="944.5" stroke="#C4C4C4"/>
<line x1="971.5" y1="1080" x2="971.5" stroke="#C4C4C4"/>
<line x1="998.5" y1="1080" x2="998.5" stroke="#C4C4C4"/>
<line x1="1025.5" y1="1080" x2="1025.5" stroke="#C4C4C4"/>
<line x1="1052.5" y1="1080" x2="1052.5" stroke="#C4C4C4"/>
<rect width="1080" height="1080" fill="url(#paint0_radial_235_2)"/>
<path d="M229.351 140V170H222.871V142.28L224.591 142.4L211.791 170H204.791L191.991 142.48L193.671 142.32V170H187.231V140H197.671L209.751 166.72H206.831L218.911 140H229.351ZM252.313 170.6C248.82 170.6 245.753 169.947 243.113 168.64C240.5 167.333 238.46 165.52 236.993 163.2C235.526 160.853 234.793 158.12 234.793 155C234.793 151.88 235.526 149.16 236.993 146.84C238.46 144.493 240.5 142.667 243.113 141.36C245.753 140.053 248.82 139.4 252.313 139.4C255.806 139.4 258.86 140.053 261.473 141.36C264.113 142.667 266.166 144.493 267.633 146.84C269.1 149.16 269.833 151.88 269.833 155C269.833 158.12 269.1 160.853 267.633 163.2C266.166 165.52 264.113 167.333 261.473 168.64C258.86 169.947 255.806 170.6 252.313 170.6ZM252.313 164.56C254.5 164.56 256.38 164.173 257.953 163.4C259.553 162.627 260.78 161.52 261.633 160.08C262.513 158.64 262.953 156.947 262.953 155C262.953 153.053 262.513 151.36 261.633 149.92C260.78 148.48 259.553 147.373 257.953 146.6C256.38 145.827 254.5 145.44 252.313 145.44C250.153 145.44 248.273 145.827 246.673 146.6C245.073 147.373 243.833 148.48 242.953 149.92C242.1 151.36 241.673 153.053 241.673 155C241.673 156.947 242.1 158.64 242.953 160.08C243.833 161.52 245.073 162.627 246.673 163.4C248.273 164.173 250.153 164.56 252.313 164.56ZM294.243 155.2L294.883 153.84C297.203 153.893 299.123 154.267 300.643 154.96C302.163 155.627 303.283 156.547 304.003 157.72C304.723 158.867 305.083 160.187 305.083 161.68C305.083 163.28 304.696 164.707 303.923 165.96C303.176 167.213 302.069 168.2 300.603 168.92C299.136 169.64 297.296 170 295.083 170H274.043L276.363 154.6L274.043 140H294.323C297.096 140 299.243 140.653 300.763 141.96C302.309 143.24 303.083 145.013 303.083 147.28C303.083 148.507 302.789 149.693 302.203 150.84C301.643 151.987 300.709 152.96 299.403 153.76C298.123 154.533 296.403 155.013 294.243 155.2ZM280.763 168.28L278.163 165H293.683C295.123 165 296.229 164.667 297.003 164C297.803 163.307 298.203 162.347 298.203 161.12C298.203 159.867 297.749 158.88 296.843 158.16C295.936 157.413 294.603 157.04 292.843 157.04H280.203V152.16H292.043C293.243 152.16 294.229 151.827 295.003 151.16C295.803 150.467 296.203 149.507 296.203 148.28C296.203 147.347 295.869 146.573 295.203 145.96C294.536 145.32 293.576 145 292.323 145H278.163L280.763 141.72L282.883 154.6L280.763 168.28ZM310.412 140H317.212V170H310.412V140ZM330.942 140V167L327.862 164H350.382V170H324.142V140H330.942ZM379.781 152.4V157.6H358.301V152.4H379.781ZM362.861 155L360.861 167.72L357.901 164.36H381.021V170H354.021L356.341 155L354.021 140H380.821V145.64H357.901L360.861 142.28L362.861 155ZM401.462 163.68V158.16H422.262V163.68H401.462ZM416.382 140L430.422 170H423.182L410.902 142.76H413.142L400.862 170H393.622L407.662 140H416.382ZM450.811 140C453.184 140 455.238 140.413 456.971 141.24C458.704 142.067 460.024 143.227 460.931 144.72C461.864 146.213 462.331 147.947 462.331 149.92C462.331 151.893 461.864 153.627 460.931 155.12C460.024 156.587 458.704 157.747 456.971 158.6C455.238 159.427 453.184 159.84 450.811 159.84H437.571V154.24H450.451C452.024 154.24 453.251 153.853 454.131 153.08C455.038 152.307 455.491 151.253 455.491 149.92C455.491 148.56 455.038 147.507 454.131 146.76C453.251 145.987 452.024 145.6 450.451 145.6H438.171L441.251 142.36V170H434.451V140H450.811ZM483.447 140C485.82 140 487.874 140.413 489.607 141.24C491.34 142.067 492.66 143.227 493.567 144.72C494.5 146.213 494.967 147.947 494.967 149.92C494.967 151.893 494.5 153.627 493.567 155.12C492.66 156.587 491.34 157.747 489.607 158.6C487.874 159.427 485.82 159.84 483.447 159.84H470.207V154.24H483.087C484.66 154.24 485.887 153.853 486.767 153.08C487.674 152.307 488.127 151.253 488.127 149.92C488.127 148.56 487.674 147.507 486.767 146.76C485.887 145.987 484.66 145.6 483.087 145.6H470.807L473.887 142.36V170H467.087V140H483.447ZM523.708 140C527.202 140 530.255 140.627 532.868 141.88C535.508 143.133 537.562 144.88 539.028 147.12C540.495 149.36 541.228 151.987 541.228 155C541.228 157.987 540.495 160.613 539.028 162.88C537.562 165.12 535.508 166.867 532.868 168.12C530.255 169.373 527.202 170 523.708 170H509.468V140H523.708ZM516.228 167.32L512.788 164H524.228C526.255 164 528.028 163.627 529.548 162.88C531.095 162.133 532.282 161.08 533.108 159.72C533.935 158.36 534.348 156.787 534.348 155C534.348 153.187 533.935 151.613 533.108 150.28C532.282 148.92 531.095 147.867 529.548 147.12C528.028 146.373 526.255 146 524.228 146H512.788L516.228 142.68V167.32ZM571.201 152.4V157.6H549.721V152.4H571.201ZM554.281 155L552.281 167.72L549.321 164.36H572.441V170H545.441L547.761 155L545.441 140H572.241V145.64H549.321L552.281 142.28L554.281 155ZM594.429 167H591.429L603.669 140H610.869L596.629 170H588.989L574.789 140H582.069L594.429 167ZM639.715 152.4V157.6H618.235V152.4H639.715ZM622.795 155L620.795 167.72L617.835 164.36H640.955V170H613.955L616.275 155L613.955 140H640.755V145.64H617.835L620.795 142.28L622.795 155ZM653.726 140V167L650.646 164H673.166V170H646.926V140H653.726ZM692.243 170.6C688.749 170.6 685.683 169.947 683.043 168.64C680.429 167.333 678.389 165.52 676.923 163.2C675.456 160.853 674.723 158.12 674.723 155C674.723 151.88 675.456 149.16 676.923 146.84C678.389 144.493 680.429 142.667 683.043 141.36C685.683 140.053 688.749 139.4 692.243 139.4C695.736 139.4 698.789 140.053 701.403 141.36C704.043 142.667 706.096 144.493 707.563 146.84C709.029 149.16 709.763 151.88 709.763 155C709.763 158.12 709.029 160.853 707.563 163.2C706.096 165.52 704.043 167.333 701.403 168.64C698.789 169.947 695.736 170.6 692.243 170.6ZM692.243 164.56C694.429 164.56 696.309 164.173 697.883 163.4C699.483 162.627 700.709 161.52 701.563 160.08C702.443 158.64 702.883 156.947 702.883 155C702.883 153.053 702.443 151.36 701.563 149.92C700.709 148.48 699.483 147.373 697.883 146.6C696.309 145.827 694.429 145.44 692.243 145.44C690.083 145.44 688.203 145.827 686.603 146.6C685.003 147.373 683.763 148.48 682.883 149.92C682.029 151.36 681.603 153.053 681.603 155C681.603 156.947 682.029 158.64 682.883 160.08C683.763 161.52 685.003 162.627 686.603 163.4C688.203 164.173 690.083 164.56 692.243 164.56ZM731.605 140C733.978 140 736.031 140.413 737.765 141.24C739.498 142.067 740.818 143.227 741.725 144.72C742.658 146.213 743.125 147.947 743.125 149.92C743.125 151.893 742.658 153.627 741.725 155.12C740.818 156.587 739.498 157.747 737.765 158.6C736.031 159.427 733.978 159.84 731.605 159.84H718.365V154.24H731.245C732.818 154.24 734.045 153.853 734.925 153.08C735.831 152.307 736.285 151.253 736.285 149.92C736.285 148.56 735.831 147.507 734.925 146.76C734.045 145.987 732.818 145.6 731.245 145.6H718.965L722.045 142.36V170H715.245V140H731.605ZM790.001 140V170H783.521V142.28L785.241 142.4L772.441 170H765.441L752.641 142.48L754.321 142.32V170H747.881V140H758.321L770.401 166.72H767.481L779.561 140H790.001ZM821.723 152.4V157.6H800.243V152.4H821.723ZM804.803 155L802.803 167.72L799.843 164.36H822.963V170H795.963L798.283 155L795.963 140H822.763V145.64H799.843L802.803 142.28L804.803 155ZM856.734 165.52L854.374 165.88V140H860.974V170H852.374L833.174 144.12L835.494 143.76V170H828.934V140H837.734L856.734 165.52ZM877.458 143.04H884.218V170H877.458V143.04ZM865.498 140H896.138V146H865.498V140Z" fill="#0E5F66"/>
<path fill-rule="evenodd" clip-rule="evenodd" d="M508.674 458.631C506.93 458.693 505.622 459.052 504.719 459.659C504.205 460.001 503.831 460.438 503.582 460.967C503.317 461.543 503.193 462.26 503.208 463.069C503.27 465.452 504.532 468.566 506.946 472.148L506.977 472.195L514.81 484.653C517.955 489.652 521.241 494.744 525.337 498.481C529.277 502.079 534.042 504.508 540.364 504.524C547.201 504.539 552.2 502.016 556.264 498.217C560.484 494.261 563.817 488.842 567.103 483.438L575.932 468.909C577.583 465.156 578.175 462.649 577.801 461.169C577.583 460.297 576.617 459.861 574.967 459.783C574.624 459.768 574.25 459.768 573.892 459.768C573.503 459.783 573.082 459.799 572.662 459.846C572.428 459.861 572.195 459.846 571.977 459.799C571.198 459.846 570.388 459.783 569.563 459.674L572.584 446.298C550.16 449.833 533.388 433.185 509.686 442.965L511.399 458.725C510.403 458.787 509.499 458.756 508.674 458.631ZM566.012 564.167V571.688L550.549 580.456V571.688L560.5 567.904L550.549 564.167V555.399L566.012 564.167ZM539.228 582.932H532.64L540.769 551.257H547.356L539.228 582.932ZM528.233 564.167L518.282 567.904L528.233 571.688V580.456L512.77 571.688V564.167L528.233 555.399V564.167ZM577.941 455.812C578.268 442.155 580.775 428.358 571.058 417.161C564.128 409.173 546.095 401.651 534.4 401.012C529.464 400.748 531.348 404.765 526.474 406.447C516.414 409.92 507.615 417.301 504.734 427.548C504.267 429.23 503.94 430.927 503.769 432.625C503.442 439.757 503.629 448.26 504.143 455.018C503.442 455.283 502.803 455.61 502.243 455.984C501.028 456.794 500.14 457.852 499.549 459.114C498.988 460.313 498.739 461.683 498.786 463.194C498.879 466.402 500.358 470.295 503.224 474.577L511.057 487.036C513.798 491.396 516.663 495.834 520.151 499.587C519.98 500.085 520.167 499.54 520.058 499.867C519.092 502.795 517.473 507.685 516.024 510.426C506.51 516.655 484.723 518.259 476.268 522.977C453.189 535.84 461.52 562.36 461.24 584.271C461.692 589.161 464.464 591.964 469.914 592.384H475.816L469.353 543.33C468.855 539.515 471.565 536.385 474.897 536.385H505.217H541.003C539.773 528.443 519.232 520.781 518.5 514.801C518.703 514.661 518.89 514.474 519.045 514.256C520.79 511.827 522.596 506.766 523.842 503.075C528.249 506.641 533.544 508.977 540.349 508.993C546.453 509.008 551.327 507.311 555.423 504.555C555.828 505.131 556.233 505.738 556.669 506.377C558.615 509.242 560.889 512.559 563.007 514.926C562.555 521.731 544.74 521.809 542.716 536.385H606.159C609.491 536.385 612.216 539.515 611.702 543.33L605.24 592.384H611.142C616.592 591.964 619.364 589.161 619.831 584.271C618.29 563.575 626.045 534.812 604.804 522.977C596.457 518.321 575.122 516.701 565.421 510.675C563.786 508.65 562.026 506.065 560.469 503.792C559.97 503.044 559.488 502.343 559.036 501.705L559.27 501.502C563.926 497.142 567.43 491.458 570.871 485.79L579.794 471.089C579.841 471.011 579.888 470.918 579.934 470.84C582.021 466.09 582.706 462.602 582.083 460.142C581.507 457.852 580.121 456.482 577.941 455.812Z" fill="#F7F7F7"/>
<path d="M615.165 725.64H317.891V299.275H615.084V331.171H655.03V290.568C655.056 252.321 623.653 221 585.432 221H347.596C309.321 221 278 252.321 278 290.568V789.404C278 827.707 309.321 859 347.596 859H585.432C623.653 859 655.056 827.707 655.056 789.404V724.9H615.165V725.64ZM466.473 824.175C448.841 824.175 434.605 809.911 434.605 792.307C434.605 774.648 448.842 760.411 466.473 760.411C484.132 760.411 498.397 774.674 498.397 792.307C498.397 809.911 484.133 824.175 466.473 824.175Z" fill="#0E5F66"/>
<path d="M441.121 342.068H351.95V396.442H441.121V342.068Z" fill="#0E5F66"/>
<path d="M441.121 481.286H351.95V535.661H441.121V481.286Z" fill="#0E5F66"/>
<path d="M441.121 626.995H351.95V681.341H441.121V626.995Z" fill="#0E5F66"/>
<path d="M757.615 505.189C754.466 488.706 748.087 473.457 739.053 460.123L771.031 428.118L738.369 395.565L706.445 427.515C693.166 418.426 677.835 412.128 661.407 408.953V363.641H615.193V408.953C598.739 412.128 583.543 418.453 570.129 427.515L538.261 395.565L505.598 428.145L537.522 460.15C528.514 473.483 522.163 488.733 519.014 505.188H473.757V551.375H519.013C522.162 567.775 528.541 583.025 537.547 596.413L505.597 628.363L538.259 660.889L570.21 628.965C583.571 638.054 598.82 644.378 615.274 647.582V692.811H661.488V647.555C677.915 644.406 693.138 638.027 706.526 628.993L738.45 660.917L771.113 628.363L739.134 596.413C748.169 583.079 754.521 567.803 757.697 551.348H802.981V505.189H757.615ZM638.355 578.535C610.567 578.535 588.006 556.085 588.006 528.269C588.006 500.48 610.565 477.893 638.355 477.893C666.172 477.893 688.622 500.452 688.622 528.269C688.622 556.112 666.116 578.535 638.355 578.535Z" fill="#38AD7E"/>
</g>
<defs>
<radialGradient id="paint0_radial_235_2" cx="0" cy="0" r="1" gradientUnits="userSpaceOnUse" gradientTransform="translate(540 540) rotate(90) scale(540)">
<stop offset="0.745" stop-color="white" stop-opacity="0"/>
<stop offset="1" stop-color="white"/>
</radialGradient>
<clipPath id="clip0_235_2">
<rect width="1080" height="1080" fill="white"/>
</clipPath>
</defs>
</svg>
