<svg width="659" height="800" viewBox="0 0 659 800" fill="none" xmlns="http://www.w3.org/2000/svg">
<path d="M422.778 632.777H50.0199V98.1507H422.676V138.146H472.764V87.2328C472.798 39.2739 433.42 0 385.495 0H87.2678C39.274 0 0 39.2739 0 87.2328V712.732C0 760.761 39.274 800 87.2678 800H385.495C433.42 800 472.798 760.761 472.798 712.732V631.85H422.778V632.777ZM236.33 756.332C214.22 756.332 196.37 738.446 196.37 716.372C196.37 694.229 214.222 676.377 236.33 676.377C258.472 676.377 276.36 694.263 276.36 716.372C276.36 738.446 258.474 756.332 236.33 756.332Z" fill="white"/>
<path d="M204.541 151.809H92.7271V219.989H204.541V151.809Z" fill="white"/>
<path d="M204.541 326.377H92.7271V394.558H204.541V326.377Z" fill="white"/>
<path d="M204.541 509.084H92.7271V577.23H204.541V509.084Z" fill="white"/>
<path d="M601.398 356.349C597.45 335.682 589.451 316.56 578.122 299.841L618.221 259.709L577.265 218.89L537.235 258.953C520.584 247.556 501.36 239.659 480.761 235.677V178.86H422.812V235.677C402.18 239.659 383.126 247.59 366.305 258.953L326.346 218.89L285.389 259.743L325.419 299.874C314.124 316.593 306.16 335.715 302.212 356.348H245.463V414.263H302.21C306.159 434.827 314.158 453.949 325.451 470.737L285.388 510.8L326.344 551.584L366.407 511.554C383.161 522.951 402.282 530.882 422.914 534.899V591.613H480.863V534.865C501.461 530.917 520.549 522.918 537.337 511.589L577.367 551.619L618.323 510.8L578.224 470.737C589.553 454.018 597.518 434.862 601.5 414.23H658.283V356.349H601.398ZM451.856 448.32C417.011 448.32 388.722 420.169 388.722 385.29C388.722 350.445 417.01 322.122 451.856 322.122C486.736 322.122 514.887 350.41 514.887 385.29C514.887 420.203 486.666 448.32 451.856 448.32Z" fill="white"/>
</svg>
