<svg width="1080" height="1080" viewBox="0 0 1080 1080" fill="none" xmlns="http://www.w3.org/2000/svg">
<g clip-path="url(#clip0_235_2)">
<rect width="1080" height="1080" fill="white"/>
<line y1="26.5" x2="1080" y2="26.5" stroke="#C4C4C4"/>
<line y1="53.5" x2="1080" y2="53.5" stroke="#C4C4C4"/>
<line y1="80.5" x2="1080" y2="80.5" stroke="#C4C4C4"/>
<line y1="107.5" x2="1080" y2="107.5" stroke="#C4C4C4"/>
<line y1="134.5" x2="1080" y2="134.5" stroke="#C4C4C4"/>
<line y1="161.5" x2="1080" y2="161.5" stroke="#C4C4C4"/>
<line y1="188.5" x2="1080" y2="188.5" stroke="#C4C4C4"/>
<line y1="215.5" x2="1080" y2="215.5" stroke="#C4C4C4"/>
<line y1="242.5" x2="1080" y2="242.5" stroke="#C4C4C4"/>
<line y1="269.5" x2="1080" y2="269.5" stroke="#C4C4C4"/>
<line y1="296.5" x2="1080" y2="296.5" stroke="#C4C4C4"/>
<line y1="323.5" x2="1080" y2="323.5" stroke="#C4C4C4"/>
<line y1="350.5" x2="1080" y2="350.5" stroke="#C4C4C4"/>
<line y1="377.5" x2="1080" y2="377.5" stroke="#C4C4C4"/>
<line y1="404.5" x2="1080" y2="404.5" stroke="#C4C4C4"/>
<line y1="431.5" x2="1080" y2="431.5" stroke="#C4C4C4"/>
<line y1="458.5" x2="1080" y2="458.5" stroke="#C4C4C4"/>
<line y1="485.5" x2="1080" y2="485.5" stroke="#C4C4C4"/>
<line y1="512.5" x2="1080" y2="512.5" stroke="#C4C4C4"/>
<line y1="539.5" x2="1080" y2="539.5" stroke="#C4C4C4"/>
<line y1="566.5" x2="1080" y2="566.5" stroke="#C4C4C4"/>
<line y1="593.5" x2="1080" y2="593.5" stroke="#C4C4C4"/>
<line y1="620.5" x2="1080" y2="620.5" stroke="#C4C4C4"/>
<line y1="647.5" x2="1080" y2="647.5" stroke="#C4C4C4"/>
<line y1="674.5" x2="1080" y2="674.5" stroke="#C4C4C4"/>
<line y1="701.5" x2="1080" y2="701.5" stroke="#C4C4C4"/>
<line y1="728.5" x2="1080" y2="728.5" stroke="#C4C4C4"/>
<line y1="755.5" x2="1080" y2="755.5" stroke="#C4C4C4"/>
<line y1="782.5" x2="1080" y2="782.5" stroke="#C4C4C4"/>
<line y1="809.5" x2="1080" y2="809.5" stroke="#C4C4C4"/>
<line y1="836.5" x2="1080" y2="836.5" stroke="#C4C4C4"/>
<line y1="863.5" x2="1080" y2="863.5" stroke="#C4C4C4"/>
<line y1="890.5" x2="1080" y2="890.5" stroke="#C4C4C4"/>
<line y1="917.5" x2="1080" y2="917.5" stroke="#C4C4C4"/>
<line y1="944.5" x2="1080" y2="944.5" stroke="#C4C4C4"/>
<line y1="971.5" x2="1080" y2="971.5" stroke="#C4C4C4"/>
<line y1="998.5" x2="1080" y2="998.5" stroke="#C4C4C4"/>
<line y1="1025.5" x2="1080" y2="1025.5" stroke="#C4C4C4"/>
<line y1="1052.5" x2="1080" y2="1052.5" stroke="#C4C4C4"/>
<line x1="26.5" y1="1080" x2="26.5" stroke="#C4C4C4"/>
<line x1="53.5" y1="1080" x2="53.5" stroke="#C4C4C4"/>
<line x1="80.5" y1="1080" x2="80.5" stroke="#C4C4C4"/>
<line x1="107.5" y1="1080" x2="107.5" stroke="#C4C4C4"/>
<line x1="134.5" y1="1080" x2="134.5" stroke="#C4C4C4"/>
<line x1="161.5" y1="1080" x2="161.5" stroke="#C4C4C4"/>
<line x1="188.5" y1="1080" x2="188.5" stroke="#C4C4C4"/>
<line x1="215.5" y1="1080" x2="215.5" stroke="#C4C4C4"/>
<line x1="242.5" y1="1080" x2="242.5" stroke="#C4C4C4"/>
<line x1="269.5" y1="1080" x2="269.5" stroke="#C4C4C4"/>
<line x1="296.5" y1="1080" x2="296.5" stroke="#C4C4C4"/>
<line x1="323.5" y1="1080" x2="323.5" stroke="#C4C4C4"/>
<line x1="350.5" y1="1080" x2="350.5" stroke="#C4C4C4"/>
<line x1="377.5" y1="1080" x2="377.5" stroke="#C4C4C4"/>
<line x1="404.5" y1="1080" x2="404.5" stroke="#C4C4C4"/>
<line x1="431.5" y1="1080" x2="431.5" stroke="#C4C4C4"/>
<line x1="458.5" y1="1080" x2="458.5" stroke="#C4C4C4"/>
<line x1="485.5" y1="1080" x2="485.5" stroke="#C4C4C4"/>
<line x1="512.5" y1="1080" x2="512.5" stroke="#C4C4C4"/>
<line x1="539.5" y1="1080" x2="539.5" stroke="#C4C4C4"/>
<line x1="566.5" y1="1080" x2="566.5" stroke="#C4C4C4"/>
<line x1="593.5" y1="1080" x2="593.5" stroke="#C4C4C4"/>
<line x1="620.5" y1="1080" x2="620.5" stroke="#C4C4C4"/>
<line x1="647.5" y1="1080" x2="647.5" stroke="#C4C4C4"/>
<line x1="674.5" y1="1080" x2="674.5" stroke="#C4C4C4"/>
<line x1="701.5" y1="1080" x2="701.5" stroke="#C4C4C4"/>
<line x1="728.5" y1="1080" x2="728.5" stroke="#C4C4C4"/>
<line x1="755.5" y1="1080" x2="755.5" stroke="#C4C4C4"/>
<line x1="782.5" y1="1080" x2="782.5" stroke="#C4C4C4"/>
<line x1="809.5" y1="1080" x2="809.5" stroke="#C4C4C4"/>
<line x1="836.5" y1="1080" x2="836.5" stroke="#C4C4C4"/>
<line x1="863.5" y1="1080" x2="863.5" stroke="#C4C4C4"/>
<line x1="890.5" y1="1080" x2="890.5" stroke="#C4C4C4"/>
<line x1="917.5" y1="1080" x2="917.5" stroke="#C4C4C4"/>
<line x1="944.5" y1="1080" x2="944.5" stroke="#C4C4C4"/>
<line x1="971.5" y1="1080" x2="971.5" stroke="#C4C4C4"/>
<line x1="998.5" y1="1080" x2="998.5" stroke="#C4C4C4"/>
<line x1="1025.5" y1="1080" x2="1025.5" stroke="#C4C4C4"/>
<line x1="1052.5" y1="1080" x2="1052.5" stroke="#C4C4C4"/>
<rect width="1080" height="1080" fill="url(#paint0_radial_235_2)"/>
<path d="M229.351 186V216H222.871V188.28L224.591 188.4L211.791 216H204.791L191.991 188.48L193.671 188.32V216H187.231V186H197.671L209.751 212.72H206.831L218.911 186H229.351ZM252.313 216.6C248.82 216.6 245.753 215.947 243.113 214.64C240.5 213.333 238.46 211.52 236.993 209.2C235.526 206.853 234.793 204.12 234.793 201C234.793 197.88 235.526 195.16 236.993 192.84C238.46 190.493 240.5 188.667 243.113 187.36C245.753 186.053 248.82 185.4 252.313 185.4C255.806 185.4 258.86 186.053 261.473 187.36C264.113 188.667 266.166 190.493 267.633 192.84C269.1 195.16 269.833 197.88 269.833 201C269.833 204.12 269.1 206.853 267.633 209.2C266.166 211.52 264.113 213.333 261.473 214.64C258.86 215.947 255.806 216.6 252.313 216.6ZM252.313 210.56C254.5 210.56 256.38 210.173 257.953 209.4C259.553 208.627 260.78 207.52 261.633 206.08C262.513 204.64 262.953 202.947 262.953 201C262.953 199.053 262.513 197.36 261.633 195.92C260.78 194.48 259.553 193.373 257.953 192.6C256.38 191.827 254.5 191.44 252.313 191.44C250.153 191.44 248.273 191.827 246.673 192.6C245.073 193.373 243.833 194.48 242.953 195.92C242.1 197.36 241.673 199.053 241.673 201C241.673 202.947 242.1 204.64 242.953 206.08C243.833 207.52 245.073 208.627 246.673 209.4C248.273 210.173 250.153 210.56 252.313 210.56ZM294.243 201.2L294.883 199.84C297.203 199.893 299.123 200.267 300.643 200.96C302.163 201.627 303.283 202.547 304.003 203.72C304.723 204.867 305.083 206.187 305.083 207.68C305.083 209.28 304.696 210.707 303.923 211.96C303.176 213.213 302.069 214.2 300.603 214.92C299.136 215.64 297.296 216 295.083 216H274.043L276.363 200.6L274.043 186H294.323C297.096 186 299.243 186.653 300.763 187.96C302.309 189.24 303.083 191.013 303.083 193.28C303.083 194.507 302.789 195.693 302.203 196.84C301.643 197.987 300.709 198.96 299.403 199.76C298.123 200.533 296.403 201.013 294.243 201.2ZM280.763 214.28L278.163 211H293.683C295.123 211 296.229 210.667 297.003 210C297.803 209.307 298.203 208.347 298.203 207.12C298.203 205.867 297.749 204.88 296.843 204.16C295.936 203.413 294.603 203.04 292.843 203.04H280.203V198.16H292.043C293.243 198.16 294.229 197.827 295.003 197.16C295.803 196.467 296.203 195.507 296.203 194.28C296.203 193.347 295.869 192.573 295.203 191.96C294.536 191.32 293.576 191 292.323 191H278.163L280.763 187.72L282.883 200.6L280.763 214.28ZM310.412 186H317.212V216H310.412V186ZM330.942 186V213L327.862 210H350.382V216H324.142V186H330.942ZM379.781 198.4V203.6H358.301V198.4H379.781ZM362.861 201L360.861 213.72L357.901 210.36H381.021V216H354.021L356.341 201L354.021 186H380.821V191.64H357.901L360.861 188.28L362.861 201ZM401.462 209.68V204.16H422.262V209.68H401.462ZM416.382 186L430.422 216H423.182L410.902 188.76H413.142L400.862 216H393.622L407.662 186H416.382ZM450.811 186C453.184 186 455.238 186.413 456.971 187.24C458.704 188.067 460.024 189.227 460.931 190.72C461.864 192.213 462.331 193.947 462.331 195.92C462.331 197.893 461.864 199.627 460.931 201.12C460.024 202.587 458.704 203.747 456.971 204.6C455.238 205.427 453.184 205.84 450.811 205.84H437.571V200.24H450.451C452.024 200.24 453.251 199.853 454.131 199.08C455.038 198.307 455.491 197.253 455.491 195.92C455.491 194.56 455.038 193.507 454.131 192.76C453.251 191.987 452.024 191.6 450.451 191.6H438.171L441.251 188.36V216H434.451V186H450.811ZM483.447 186C485.82 186 487.874 186.413 489.607 187.24C491.34 188.067 492.66 189.227 493.567 190.72C494.5 192.213 494.967 193.947 494.967 195.92C494.967 197.893 494.5 199.627 493.567 201.12C492.66 202.587 491.34 203.747 489.607 204.6C487.874 205.427 485.82 205.84 483.447 205.84H470.207V200.24H483.087C484.66 200.24 485.887 199.853 486.767 199.08C487.674 198.307 488.127 197.253 488.127 195.92C488.127 194.56 487.674 193.507 486.767 192.76C485.887 191.987 484.66 191.6 483.087 191.6H470.807L473.887 188.36V216H467.087V186H483.447ZM523.708 186C527.202 186 530.255 186.627 532.868 187.88C535.508 189.133 537.562 190.88 539.028 193.12C540.495 195.36 541.228 197.987 541.228 201C541.228 203.987 540.495 206.613 539.028 208.88C537.562 211.12 535.508 212.867 532.868 214.12C530.255 215.373 527.202 216 523.708 216H509.468V186H523.708ZM516.228 213.32L512.788 210H524.228C526.255 210 528.028 209.627 529.548 208.88C531.095 208.133 532.282 207.08 533.108 205.72C533.935 204.36 534.348 202.787 534.348 201C534.348 199.187 533.935 197.613 533.108 196.28C532.282 194.92 531.095 193.867 529.548 193.12C528.028 192.373 526.255 192 524.228 192H512.788L516.228 188.68V213.32ZM571.201 198.4V203.6H549.721V198.4H571.201ZM554.281 201L552.281 213.72L549.321 210.36H572.441V216H545.441L547.761 201L545.441 186H572.241V191.64H549.321L552.281 188.28L554.281 201ZM594.429 213H591.429L603.669 186H610.869L596.629 216H588.989L574.789 186H582.069L594.429 213ZM639.715 198.4V203.6H618.235V198.4H639.715ZM622.795 201L620.795 213.72L617.835 210.36H640.955V216H613.955L616.275 201L613.955 186H640.755V191.64H617.835L620.795 188.28L622.795 201ZM653.726 186V213L650.646 210H673.166V216H646.926V186H653.726ZM692.243 216.6C688.749 216.6 685.683 215.947 683.043 214.64C680.429 213.333 678.389 211.52 676.923 209.2C675.456 206.853 674.723 204.12 674.723 201C674.723 197.88 675.456 195.16 676.923 192.84C678.389 190.493 680.429 188.667 683.043 187.36C685.683 186.053 688.749 185.4 692.243 185.4C695.736 185.4 698.789 186.053 701.403 187.36C704.043 188.667 706.096 190.493 707.563 192.84C709.029 195.16 709.763 197.88 709.763 201C709.763 204.12 709.029 206.853 707.563 209.2C706.096 211.52 704.043 213.333 701.403 214.64C698.789 215.947 695.736 216.6 692.243 216.6ZM692.243 210.56C694.429 210.56 696.309 210.173 697.883 209.4C699.483 208.627 700.709 207.52 701.563 206.08C702.443 204.64 702.883 202.947 702.883 201C702.883 199.053 702.443 197.36 701.563 195.92C700.709 194.48 699.483 193.373 697.883 192.6C696.309 191.827 694.429 191.44 692.243 191.44C690.083 191.44 688.203 191.827 686.603 192.6C685.003 193.373 683.763 194.48 682.883 195.92C682.029 197.36 681.603 199.053 681.603 201C681.603 202.947 682.029 204.64 682.883 206.08C683.763 207.52 685.003 208.627 686.603 209.4C688.203 210.173 690.083 210.56 692.243 210.56ZM731.605 186C733.978 186 736.031 186.413 737.765 187.24C739.498 188.067 740.818 189.227 741.725 190.72C742.658 192.213 743.125 193.947 743.125 195.92C743.125 197.893 742.658 199.627 741.725 201.12C740.818 202.587 739.498 203.747 737.765 204.6C736.031 205.427 733.978 205.84 731.605 205.84H718.365V200.24H731.245C732.818 200.24 734.045 199.853 734.925 199.08C735.831 198.307 736.285 197.253 736.285 195.92C736.285 194.56 735.831 193.507 734.925 192.76C734.045 191.987 732.818 191.6 731.245 191.6H718.965L722.045 188.36V216H715.245V186H731.605ZM790.001 186V216H783.521V188.28L785.241 188.4L772.441 216H765.441L752.641 188.48L754.321 188.32V216H747.881V186H758.321L770.401 212.72H767.481L779.561 186H790.001ZM821.723 198.4V203.6H800.243V198.4H821.723ZM804.803 201L802.803 213.72L799.843 210.36H822.963V216H795.963L798.283 201L795.963 186H822.763V191.64H799.843L802.803 188.28L804.803 201ZM856.734 211.52L854.374 211.88V186H860.974V216H852.374L833.174 190.12L835.494 189.76V216H828.934V186H837.734L856.734 211.52ZM877.458 189.04H884.218V216H877.458V189.04ZM865.498 186H896.138V192H865.498V186Z" fill="#0E5F66"/>
<path d="M615.165 771.64H317.891V345.275H615.084V377.171H655.03V336.568C655.056 298.321 623.653 267 585.432 267H347.596C309.321 267 278 298.321 278 336.568V835.404C278 873.707 309.321 905 347.596 905H585.432C623.653 905 655.056 873.707 655.056 835.404V770.9H615.165V771.64ZM466.473 870.175C448.841 870.175 434.605 855.911 434.605 838.307C434.605 820.648 448.842 806.411 466.473 806.411C484.132 806.411 498.397 820.674 498.397 838.307C498.397 855.911 484.133 870.175 466.473 870.175Z" fill="#0E5F66"/>
<path d="M441.121 388.068H351.95V442.442H441.121V388.068Z" fill="#0E5F66"/>
<path d="M441.121 527.286H351.95V581.661H441.121V527.286Z" fill="#0E5F66"/>
<path d="M441.121 672.995H351.95V727.341H441.121V672.995Z" fill="#0E5F66"/>
<path d="M757.615 551.189C754.466 534.706 748.087 519.457 739.053 506.123L771.031 474.118L738.369 441.565L706.445 473.515C693.166 464.426 677.835 458.128 661.407 454.953V409.641H615.193V454.953C598.739 458.128 583.543 464.453 570.129 473.515L538.261 441.565L505.598 474.145L537.522 506.15C528.514 519.483 522.163 534.733 519.014 551.188H473.757V597.375H519.013C522.162 613.775 528.541 629.025 537.547 642.413L505.597 674.363L538.259 706.889L570.21 674.965C583.571 684.054 598.82 690.378 615.274 693.582V738.811H661.488V693.555C677.915 690.406 693.138 684.027 706.526 674.993L738.45 706.917L771.113 674.363L739.134 642.413C748.169 629.079 754.521 613.803 757.697 597.348H802.981V551.189H757.615ZM638.355 624.535C610.567 624.535 588.006 602.085 588.006 574.269C588.006 546.48 610.565 523.893 638.355 523.893C666.172 523.893 688.622 546.452 688.622 574.269C688.622 602.112 666.116 624.535 638.355 624.535Z" fill="#38AD7E"/>
</g>
<defs>
<radialGradient id="paint0_radial_235_2" cx="0" cy="0" r="1" gradientUnits="userSpaceOnUse" gradientTransform="translate(540 540) rotate(90) scale(540)">
<stop offset="0.745" stop-color="white" stop-opacity="0"/>
<stop offset="1" stop-color="white"/>
</radialGradient>
<clipPath id="clip0_235_2">
<rect width="1080" height="1080" fill="white"/>
</clipPath>
</defs>
</svg>
