<svg width="1080" height="1080" viewBox="0 0 1080 1080" fill="none" xmlns="http://www.w3.org/2000/svg">
<g clip-path="url(#clip0_235_302)">
<rect width="1080" height="1080" fill="#EBF7F2"/>
<line y1="26.5" x2="1080" y2="26.5" stroke="#C4C4C4"/>
<line y1="53.5" x2="1080" y2="53.5" stroke="#C4C4C4"/>
<line y1="80.5" x2="1080" y2="80.5" stroke="#C4C4C4"/>
<line y1="107.5" x2="1080" y2="107.5" stroke="#C4C4C4"/>
<line y1="134.5" x2="1080" y2="134.5" stroke="#C4C4C4"/>
<line y1="161.5" x2="1080" y2="161.5" stroke="#C4C4C4"/>
<line y1="188.5" x2="1080" y2="188.5" stroke="#C4C4C4"/>
<line y1="215.5" x2="1080" y2="215.5" stroke="#C4C4C4"/>
<line y1="242.5" x2="1080" y2="242.5" stroke="#C4C4C4"/>
<line y1="269.5" x2="1080" y2="269.5" stroke="#C4C4C4"/>
<line y1="296.5" x2="1080" y2="296.5" stroke="#C4C4C4"/>
<line y1="323.5" x2="1080" y2="323.5" stroke="#C4C4C4"/>
<line y1="350.5" x2="1080" y2="350.5" stroke="#C4C4C4"/>
<line y1="377.5" x2="1080" y2="377.5" stroke="#C4C4C4"/>
<line y1="404.5" x2="1080" y2="404.5" stroke="#C4C4C4"/>
<line y1="431.5" x2="1080" y2="431.5" stroke="#C4C4C4"/>
<line y1="458.5" x2="1080" y2="458.5" stroke="#C4C4C4"/>
<line y1="485.5" x2="1080" y2="485.5" stroke="#C4C4C4"/>
<line y1="512.5" x2="1080" y2="512.5" stroke="#C4C4C4"/>
<line y1="539.5" x2="1080" y2="539.5" stroke="#C4C4C4"/>
<line y1="566.5" x2="1080" y2="566.5" stroke="#C4C4C4"/>
<line y1="593.5" x2="1080" y2="593.5" stroke="#C4C4C4"/>
<line y1="620.5" x2="1080" y2="620.5" stroke="#C4C4C4"/>
<line y1="647.5" x2="1080" y2="647.5" stroke="#C4C4C4"/>
<line y1="674.5" x2="1080" y2="674.5" stroke="#C4C4C4"/>
<line y1="701.5" x2="1080" y2="701.5" stroke="#C4C4C4"/>
<line y1="728.5" x2="1080" y2="728.5" stroke="#C4C4C4"/>
<line y1="755.5" x2="1080" y2="755.5" stroke="#C4C4C4"/>
<line y1="782.5" x2="1080" y2="782.5" stroke="#C4C4C4"/>
<line y1="809.5" x2="1080" y2="809.5" stroke="#C4C4C4"/>
<line y1="836.5" x2="1080" y2="836.5" stroke="#C4C4C4"/>
<line y1="863.5" x2="1080" y2="863.5" stroke="#C4C4C4"/>
<line y1="890.5" x2="1080" y2="890.5" stroke="#C4C4C4"/>
<line y1="917.5" x2="1080" y2="917.5" stroke="#C4C4C4"/>
<line y1="944.5" x2="1080" y2="944.5" stroke="#C4C4C4"/>
<line y1="971.5" x2="1080" y2="971.5" stroke="#C4C4C4"/>
<line y1="998.5" x2="1080" y2="998.5" stroke="#C4C4C4"/>
<line y1="1025.5" x2="1080" y2="1025.5" stroke="#C4C4C4"/>
<line y1="1052.5" x2="1080" y2="1052.5" stroke="#C4C4C4"/>
<line x1="26.5" y1="1080" x2="26.5" stroke="#C4C4C4"/>
<line x1="53.5" y1="1080" x2="53.5" stroke="#C4C4C4"/>
<line x1="80.5" y1="1080" x2="80.5" stroke="#C4C4C4"/>
<line x1="107.5" y1="1080" x2="107.5" stroke="#C4C4C4"/>
<line x1="134.5" y1="1080" x2="134.5" stroke="#C4C4C4"/>
<line x1="161.5" y1="1080" x2="161.5" stroke="#C4C4C4"/>
<line x1="188.5" y1="1080" x2="188.5" stroke="#C4C4C4"/>
<line x1="215.5" y1="1080" x2="215.5" stroke="#C4C4C4"/>
<line x1="242.5" y1="1080" x2="242.5" stroke="#C4C4C4"/>
<line x1="269.5" y1="1080" x2="269.5" stroke="#C4C4C4"/>
<line x1="296.5" y1="1080" x2="296.5" stroke="#C4C4C4"/>
<line x1="323.5" y1="1080" x2="323.5" stroke="#C4C4C4"/>
<line x1="350.5" y1="1080" x2="350.5" stroke="#C4C4C4"/>
<line x1="377.5" y1="1080" x2="377.5" stroke="#C4C4C4"/>
<line x1="404.5" y1="1080" x2="404.5" stroke="#C4C4C4"/>
<line x1="431.5" y1="1080" x2="431.5" stroke="#C4C4C4"/>
<line x1="458.5" y1="1080" x2="458.5" stroke="#C4C4C4"/>
<line x1="485.5" y1="1080" x2="485.5" stroke="#C4C4C4"/>
<line x1="512.5" y1="1080" x2="512.5" stroke="#C4C4C4"/>
<line x1="539.5" y1="1080" x2="539.5" stroke="#C4C4C4"/>
<line x1="566.5" y1="1080" x2="566.5" stroke="#C4C4C4"/>
<line x1="593.5" y1="1080" x2="593.5" stroke="#C4C4C4"/>
<line x1="620.5" y1="1080" x2="620.5" stroke="#C4C4C4"/>
<line x1="647.5" y1="1080" x2="647.5" stroke="#C4C4C4"/>
<line x1="674.5" y1="1080" x2="674.5" stroke="#C4C4C4"/>
<line x1="701.5" y1="1080" x2="701.5" stroke="#C4C4C4"/>
<line x1="728.5" y1="1080" x2="728.5" stroke="#C4C4C4"/>
<line x1="755.5" y1="1080" x2="755.5" stroke="#C4C4C4"/>
<line x1="782.5" y1="1080" x2="782.5" stroke="#C4C4C4"/>
<line x1="809.5" y1="1080" x2="809.5" stroke="#C4C4C4"/>
<line x1="836.5" y1="1080" x2="836.5" stroke="#C4C4C4"/>
<line x1="863.5" y1="1080" x2="863.5" stroke="#C4C4C4"/>
<line x1="890.5" y1="1080" x2="890.5" stroke="#C4C4C4"/>
<line x1="917.5" y1="1080" x2="917.5" stroke="#C4C4C4"/>
<line x1="944.5" y1="1080" x2="944.5" stroke="#C4C4C4"/>
<line x1="971.5" y1="1080" x2="971.5" stroke="#C4C4C4"/>
<line x1="998.5" y1="1080" x2="998.5" stroke="#C4C4C4"/>
<line x1="1025.5" y1="1080" x2="1025.5" stroke="#C4C4C4"/>
<line x1="1052.5" y1="1080" x2="1052.5" stroke="#C4C4C4"/>
<rect width="1080" height="1080" fill="url(#paint0_radial_235_302)"/>
<path d="M229.351 169V199H222.871V171.28L224.591 171.4L211.791 199H204.791L191.991 171.48L193.671 171.32V199H187.231V169H197.671L209.751 195.72H206.831L218.911 169H229.351ZM252.313 199.6C248.82 199.6 245.753 198.947 243.113 197.64C240.5 196.333 238.46 194.52 236.993 192.2C235.526 189.853 234.793 187.12 234.793 184C234.793 180.88 235.526 178.16 236.993 175.84C238.46 173.493 240.5 171.667 243.113 170.36C245.753 169.053 248.82 168.4 252.313 168.4C255.806 168.4 258.86 169.053 261.473 170.36C264.113 171.667 266.166 173.493 267.633 175.84C269.1 178.16 269.833 180.88 269.833 184C269.833 187.12 269.1 189.853 267.633 192.2C266.166 194.52 264.113 196.333 261.473 197.64C258.86 198.947 255.806 199.6 252.313 199.6ZM252.313 193.56C254.5 193.56 256.38 193.173 257.953 192.4C259.553 191.627 260.78 190.52 261.633 189.08C262.513 187.64 262.953 185.947 262.953 184C262.953 182.053 262.513 180.36 261.633 178.92C260.78 177.48 259.553 176.373 257.953 175.6C256.38 174.827 254.5 174.44 252.313 174.44C250.153 174.44 248.273 174.827 246.673 175.6C245.073 176.373 243.833 177.48 242.953 178.92C242.1 180.36 241.673 182.053 241.673 184C241.673 185.947 242.1 187.64 242.953 189.08C243.833 190.52 245.073 191.627 246.673 192.4C248.273 193.173 250.153 193.56 252.313 193.56ZM294.243 184.2L294.883 182.84C297.203 182.893 299.123 183.267 300.643 183.96C302.163 184.627 303.283 185.547 304.003 186.72C304.723 187.867 305.083 189.187 305.083 190.68C305.083 192.28 304.696 193.707 303.923 194.96C303.176 196.213 302.069 197.2 300.603 197.92C299.136 198.64 297.296 199 295.083 199H274.043L276.363 183.6L274.043 169H294.323C297.096 169 299.243 169.653 300.763 170.96C302.309 172.24 303.083 174.013 303.083 176.28C303.083 177.507 302.789 178.693 302.203 179.84C301.643 180.987 300.709 181.96 299.403 182.76C298.123 183.533 296.403 184.013 294.243 184.2ZM280.763 197.28L278.163 194H293.683C295.123 194 296.229 193.667 297.003 193C297.803 192.307 298.203 191.347 298.203 190.12C298.203 188.867 297.749 187.88 296.843 187.16C295.936 186.413 294.603 186.04 292.843 186.04H280.203V181.16H292.043C293.243 181.16 294.229 180.827 295.003 180.16C295.803 179.467 296.203 178.507 296.203 177.28C296.203 176.347 295.869 175.573 295.203 174.96C294.536 174.32 293.576 174 292.323 174H278.163L280.763 170.72L282.883 183.6L280.763 197.28ZM310.412 169H317.212V199H310.412V169ZM330.942 169V196L327.862 193H350.382V199H324.142V169H330.942ZM379.781 181.4V186.6H358.301V181.4H379.781ZM362.861 184L360.861 196.72L357.901 193.36H381.021V199H354.021L356.341 184L354.021 169H380.821V174.64H357.901L360.861 171.28L362.861 184ZM401.462 192.68V187.16H422.262V192.68H401.462ZM416.382 169L430.422 199H423.182L410.902 171.76H413.142L400.862 199H393.622L407.662 169H416.382ZM450.811 169C453.184 169 455.238 169.413 456.971 170.24C458.704 171.067 460.024 172.227 460.931 173.72C461.864 175.213 462.331 176.947 462.331 178.92C462.331 180.893 461.864 182.627 460.931 184.12C460.024 185.587 458.704 186.747 456.971 187.6C455.238 188.427 453.184 188.84 450.811 188.84H437.571V183.24H450.451C452.024 183.24 453.251 182.853 454.131 182.08C455.038 181.307 455.491 180.253 455.491 178.92C455.491 177.56 455.038 176.507 454.131 175.76C453.251 174.987 452.024 174.6 450.451 174.6H438.171L441.251 171.36V199H434.451V169H450.811ZM483.447 169C485.82 169 487.874 169.413 489.607 170.24C491.34 171.067 492.66 172.227 493.567 173.72C494.5 175.213 494.967 176.947 494.967 178.92C494.967 180.893 494.5 182.627 493.567 184.12C492.66 185.587 491.34 186.747 489.607 187.6C487.874 188.427 485.82 188.84 483.447 188.84H470.207V183.24H483.087C484.66 183.24 485.887 182.853 486.767 182.08C487.674 181.307 488.127 180.253 488.127 178.92C488.127 177.56 487.674 176.507 486.767 175.76C485.887 174.987 484.66 174.6 483.087 174.6H470.807L473.887 171.36V199H467.087V169H483.447ZM523.708 169C527.202 169 530.255 169.627 532.868 170.88C535.508 172.133 537.562 173.88 539.028 176.12C540.495 178.36 541.228 180.987 541.228 184C541.228 186.987 540.495 189.613 539.028 191.88C537.562 194.12 535.508 195.867 532.868 197.12C530.255 198.373 527.202 199 523.708 199H509.468V169H523.708ZM516.228 196.32L512.788 193H524.228C526.255 193 528.028 192.627 529.548 191.88C531.095 191.133 532.282 190.08 533.108 188.72C533.935 187.36 534.348 185.787 534.348 184C534.348 182.187 533.935 180.613 533.108 179.28C532.282 177.92 531.095 176.867 529.548 176.12C528.028 175.373 526.255 175 524.228 175H512.788L516.228 171.68V196.32ZM571.201 181.4V186.6H549.721V181.4H571.201ZM554.281 184L552.281 196.72L549.321 193.36H572.441V199H545.441L547.761 184L545.441 169H572.241V174.64H549.321L552.281 171.28L554.281 184ZM594.429 196H591.429L603.669 169H610.869L596.629 199H588.989L574.789 169H582.069L594.429 196ZM639.715 181.4V186.6H618.235V181.4H639.715ZM622.795 184L620.795 196.72L617.835 193.36H640.955V199H613.955L616.275 184L613.955 169H640.755V174.64H617.835L620.795 171.28L622.795 184ZM653.726 169V196L650.646 193H673.166V199H646.926V169H653.726ZM692.243 199.6C688.749 199.6 685.683 198.947 683.043 197.64C680.429 196.333 678.389 194.52 676.923 192.2C675.456 189.853 674.723 187.12 674.723 184C674.723 180.88 675.456 178.16 676.923 175.84C678.389 173.493 680.429 171.667 683.043 170.36C685.683 169.053 688.749 168.4 692.243 168.4C695.736 168.4 698.789 169.053 701.403 170.36C704.043 171.667 706.096 173.493 707.563 175.84C709.029 178.16 709.763 180.88 709.763 184C709.763 187.12 709.029 189.853 707.563 192.2C706.096 194.52 704.043 196.333 701.403 197.64C698.789 198.947 695.736 199.6 692.243 199.6ZM692.243 193.56C694.429 193.56 696.309 193.173 697.883 192.4C699.483 191.627 700.709 190.52 701.563 189.08C702.443 187.64 702.883 185.947 702.883 184C702.883 182.053 702.443 180.36 701.563 178.92C700.709 177.48 699.483 176.373 697.883 175.6C696.309 174.827 694.429 174.44 692.243 174.44C690.083 174.44 688.203 174.827 686.603 175.6C685.003 176.373 683.763 177.48 682.883 178.92C682.029 180.36 681.603 182.053 681.603 184C681.603 185.947 682.029 187.64 682.883 189.08C683.763 190.52 685.003 191.627 686.603 192.4C688.203 193.173 690.083 193.56 692.243 193.56ZM731.605 169C733.978 169 736.031 169.413 737.765 170.24C739.498 171.067 740.818 172.227 741.725 173.72C742.658 175.213 743.125 176.947 743.125 178.92C743.125 180.893 742.658 182.627 741.725 184.12C740.818 185.587 739.498 186.747 737.765 187.6C736.031 188.427 733.978 188.84 731.605 188.84H718.365V183.24H731.245C732.818 183.24 734.045 182.853 734.925 182.08C735.831 181.307 736.285 180.253 736.285 178.92C736.285 177.56 735.831 176.507 734.925 175.76C734.045 174.987 732.818 174.6 731.245 174.6H718.965L722.045 171.36V199H715.245V169H731.605ZM790.001 169V199H783.521V171.28L785.241 171.4L772.441 199H765.441L752.641 171.48L754.321 171.32V199H747.881V169H758.321L770.401 195.72H767.481L779.561 169H790.001ZM821.723 181.4V186.6H800.243V181.4H821.723ZM804.803 184L802.803 196.72L799.843 193.36H822.963V199H795.963L798.283 184L795.963 169H822.763V174.64H799.843L802.803 171.28L804.803 184ZM856.734 194.52L854.374 194.88V169H860.974V199H852.374L833.174 173.12L835.494 172.76V199H828.934V169H837.734L856.734 194.52ZM877.458 172.04H884.218V199H877.458V172.04ZM865.498 169H896.138V175H865.498V169Z" fill="#0E5F66"/>
<path d="M321.7 325.533C304.113 325.533 289.8 311.22 289.8 293.633C289.8 287.753 285.036 283 279.167 283C273.297 283 268.533 287.753 268.533 293.633C268.533 311.22 254.22 325.533 236.633 325.533C230.764 325.533 226 330.285 226 336.166C226 342.046 230.764 346.8 236.633 346.8C254.22 346.8 268.533 361.113 268.533 378.7C268.533 384.58 273.297 389.333 279.166 389.333C285.035 389.333 289.799 384.58 289.799 378.7C289.799 361.113 304.111 346.8 321.699 346.8C327.568 346.8 332.332 342.047 332.332 336.167C332.332 330.287 327.569 325.533 321.7 325.533ZM279.167 346.832C276.137 342.791 272.532 339.198 268.502 336.167C272.532 333.137 276.137 329.543 279.167 325.502C282.198 329.543 285.803 333.137 289.832 336.167C285.803 339.198 282.198 342.791 279.167 346.832Z" fill="#38AD7E"/>
<path d="M821.467 453.134H810.833V442.502C810.833 436.621 806.08 431.869 800.2 431.869C794.319 431.869 789.567 436.621 789.567 442.502V453.134H778.933C773.052 453.134 768.3 457.887 768.3 463.767C768.3 469.648 773.052 474.4 778.933 474.4H789.566V485.033C789.566 490.914 794.318 495.666 800.199 495.666C806.079 495.666 810.831 490.914 810.831 485.033V474.4H821.464C827.345 474.4 832.097 469.648 832.097 463.767C832.097 457.887 827.347 453.134 821.467 453.134Z" fill="#38AD7E"/>
<path d="M300.433 761.501C306.306 761.501 311.066 756.741 311.066 750.868C311.066 744.996 306.306 740.235 300.433 740.235C294.561 740.235 289.8 744.996 289.8 750.868C289.8 756.741 294.561 761.501 300.433 761.501Z" fill="#38AD7E"/>
<path d="M247.267 570.101C253.139 570.101 257.9 565.34 257.9 559.468C257.9 553.595 253.139 548.835 247.267 548.835C241.394 548.835 236.634 553.595 236.634 559.468C236.634 565.34 241.394 570.101 247.267 570.101Z" fill="#38AD7E"/>
<path d="M768.3 676.434C774.172 676.434 778.933 671.674 778.933 665.801C778.933 659.929 774.172 655.168 768.3 655.168C762.428 655.168 757.667 659.929 757.667 665.801C757.667 671.674 762.428 676.434 768.3 676.434Z" fill="#38AD7E"/>
<path d="M842.733 899.734C848.605 899.734 853.366 894.974 853.366 889.101C853.366 883.229 848.605 878.468 842.733 878.468C836.861 878.468 832.1 883.229 832.1 889.101C832.1 894.974 836.861 899.734 842.733 899.734Z" fill="#38AD7E"/>
<path d="M566.267 867.834C566.267 856.106 556.729 846.567 545 846.567C533.272 846.567 523.733 856.105 523.733 867.834C523.733 879.562 533.271 889.101 545 889.101C556.728 889.101 566.267 879.562 566.267 867.834Z" fill="#38AD7E"/>
<path d="M683.648 283.001H406.352C383.129 283.001 364.233 301.897 364.233 325.12V346.801H725.766V325.119C725.767 301.897 706.871 283.001 683.648 283.001ZM502.467 325.534H491.833C485.964 325.534 481.2 320.77 481.2 314.901C481.2 309.032 485.964 304.268 491.833 304.268H502.466C508.335 304.268 513.099 309.032 513.099 314.901C513.1 320.77 508.336 325.534 502.467 325.534ZM587.533 325.534H534.366C528.497 325.534 523.733 320.77 523.733 314.901C523.733 309.032 528.497 304.268 534.366 304.268H587.533C593.402 304.268 598.166 309.032 598.166 314.901C598.167 320.77 593.403 325.534 587.533 325.534Z" fill="#38AD7E"/>
<path d="M587.533 867.834C587.533 891.292 568.456 910.367 545 910.367C521.543 910.367 502.467 891.291 502.467 867.834C502.467 855.074 508.23 843.738 517.162 835.934H364.233V878.882C364.233 902.105 383.129 921 406.352 921H683.648C706.871 921 725.766 902.104 725.766 878.882V835.934H572.838C581.77 843.74 587.533 855.074 587.533 867.834Z" fill="#38AD7E"/>
<path d="M364.233 378.701C358.364 378.701 353.6 383.465 353.6 389.334V399.967C353.6 405.836 358.364 410.6 364.233 410.6V421.233C358.364 421.233 353.6 425.996 353.6 431.865V442.498C353.6 448.367 358.364 453.131 364.233 453.131V463.764C358.364 463.764 353.6 468.528 353.6 474.397V485.03C353.6 490.899 358.364 495.663 364.233 495.663V814.663H725.766V368.063H364.233V378.701ZM619.433 559.468V495.668C619.433 483.94 609.895 474.401 598.166 474.401C592.297 474.401 587.533 469.648 587.533 463.768C587.533 457.888 592.297 453.135 598.166 453.135C621.624 453.135 640.699 472.211 640.699 495.668V559.468C640.699 571.196 650.236 580.735 661.966 580.735C667.835 580.735 672.599 585.488 672.599 591.368C672.599 597.248 667.835 602.001 661.966 602.001C650.238 602.001 640.699 611.538 640.699 623.268V687.068C640.699 710.525 621.622 729.601 598.166 729.601C592.297 729.601 587.533 724.848 587.533 718.968C587.533 713.087 592.297 708.335 598.166 708.335C609.894 708.335 619.433 698.797 619.433 687.068V623.268C619.433 610.508 625.196 599.173 634.128 591.368C625.197 583.562 619.433 572.228 619.433 559.468ZM428.033 580.734C439.761 580.734 449.3 571.196 449.3 559.467V495.667C449.3 472.209 468.376 453.134 491.833 453.134C497.702 453.134 502.466 457.886 502.466 463.767C502.466 469.647 497.702 474.4 491.833 474.4C480.105 474.4 470.566 483.937 470.566 495.667V559.467C470.566 572.227 464.803 583.562 455.871 591.367C464.803 599.171 470.566 610.507 470.566 623.267V687.067C470.566 698.795 480.103 708.334 491.833 708.334C497.702 708.334 502.466 713.086 502.466 718.967C502.466 724.847 497.702 729.599 491.833 729.599C468.375 729.599 449.3 710.523 449.3 687.067V623.267C449.3 611.538 439.762 602 428.033 602C422.164 602 417.4 597.247 417.4 591.367C417.4 585.486 422.164 580.734 428.033 580.734Z" fill="#0E5F66"/>
</g>
<defs>
<radialGradient id="paint0_radial_235_302" cx="0" cy="0" r="1" gradientUnits="userSpaceOnUse" gradientTransform="translate(540 540) rotate(90) scale(540)">
<stop offset="0.745" stop-color="#EBF7F2" stop-opacity="0"/>
<stop offset="1" stop-color="#EBF7F2"/>
</radialGradient>
<clipPath id="clip0_235_302">
<rect width="1080" height="1080" fill="white"/>
</clipPath>
</defs>
</svg>
