<svg width="1080" height="1080" viewBox="0 0 1080 1080" fill="none" xmlns="http://www.w3.org/2000/svg">
<g clip-path="url(#clip0_241_513)">
<rect width="1080" height="1080" fill="white"/>
<line y1="26.5" x2="1080" y2="26.5" stroke="#C4C4C4"/>
<line y1="53.5" x2="1080" y2="53.5" stroke="#C4C4C4"/>
<line y1="80.5" x2="1080" y2="80.5" stroke="#C4C4C4"/>
<line y1="107.5" x2="1080" y2="107.5" stroke="#C4C4C4"/>
<line y1="134.5" x2="1080" y2="134.5" stroke="#C4C4C4"/>
<line y1="161.5" x2="1080" y2="161.5" stroke="#C4C4C4"/>
<line y1="188.5" x2="1080" y2="188.5" stroke="#C4C4C4"/>
<line y1="215.5" x2="1080" y2="215.5" stroke="#C4C4C4"/>
<line y1="242.5" x2="1080" y2="242.5" stroke="#C4C4C4"/>
<line y1="269.5" x2="1080" y2="269.5" stroke="#C4C4C4"/>
<line y1="296.5" x2="1080" y2="296.5" stroke="#C4C4C4"/>
<line y1="323.5" x2="1080" y2="323.5" stroke="#C4C4C4"/>
<line y1="350.5" x2="1080" y2="350.5" stroke="#C4C4C4"/>
<line y1="377.5" x2="1080" y2="377.5" stroke="#C4C4C4"/>
<line y1="404.5" x2="1080" y2="404.5" stroke="#C4C4C4"/>
<line y1="431.5" x2="1080" y2="431.5" stroke="#C4C4C4"/>
<line y1="458.5" x2="1080" y2="458.5" stroke="#C4C4C4"/>
<line y1="485.5" x2="1080" y2="485.5" stroke="#C4C4C4"/>
<line y1="512.5" x2="1080" y2="512.5" stroke="#C4C4C4"/>
<line y1="539.5" x2="1080" y2="539.5" stroke="#C4C4C4"/>
<line y1="566.5" x2="1080" y2="566.5" stroke="#C4C4C4"/>
<line y1="593.5" x2="1080" y2="593.5" stroke="#C4C4C4"/>
<line y1="620.5" x2="1080" y2="620.5" stroke="#C4C4C4"/>
<line y1="647.5" x2="1080" y2="647.5" stroke="#C4C4C4"/>
<line y1="674.5" x2="1080" y2="674.5" stroke="#C4C4C4"/>
<line y1="701.5" x2="1080" y2="701.5" stroke="#C4C4C4"/>
<line y1="728.5" x2="1080" y2="728.5" stroke="#C4C4C4"/>
<line y1="755.5" x2="1080" y2="755.5" stroke="#C4C4C4"/>
<line y1="782.5" x2="1080" y2="782.5" stroke="#C4C4C4"/>
<line y1="809.5" x2="1080" y2="809.5" stroke="#C4C4C4"/>
<line y1="836.5" x2="1080" y2="836.5" stroke="#C4C4C4"/>
<line y1="863.5" x2="1080" y2="863.5" stroke="#C4C4C4"/>
<line y1="890.5" x2="1080" y2="890.5" stroke="#C4C4C4"/>
<line y1="917.5" x2="1080" y2="917.5" stroke="#C4C4C4"/>
<line y1="944.5" x2="1080" y2="944.5" stroke="#C4C4C4"/>
<line y1="971.5" x2="1080" y2="971.5" stroke="#C4C4C4"/>
<line y1="998.5" x2="1080" y2="998.5" stroke="#C4C4C4"/>
<line y1="1025.5" x2="1080" y2="1025.5" stroke="#C4C4C4"/>
<line y1="1052.5" x2="1080" y2="1052.5" stroke="#C4C4C4"/>
<line x1="26.5" y1="1080" x2="26.5" stroke="#C4C4C4"/>
<line x1="53.5" y1="1080" x2="53.5" stroke="#C4C4C4"/>
<line x1="80.5" y1="1080" x2="80.5" stroke="#C4C4C4"/>
<line x1="107.5" y1="1080" x2="107.5" stroke="#C4C4C4"/>
<line x1="134.5" y1="1080" x2="134.5" stroke="#C4C4C4"/>
<line x1="161.5" y1="1080" x2="161.5" stroke="#C4C4C4"/>
<line x1="188.5" y1="1080" x2="188.5" stroke="#C4C4C4"/>
<line x1="215.5" y1="1080" x2="215.5" stroke="#C4C4C4"/>
<line x1="242.5" y1="1080" x2="242.5" stroke="#C4C4C4"/>
<line x1="269.5" y1="1080" x2="269.5" stroke="#C4C4C4"/>
<line x1="296.5" y1="1080" x2="296.5" stroke="#C4C4C4"/>
<line x1="323.5" y1="1080" x2="323.5" stroke="#C4C4C4"/>
<line x1="350.5" y1="1080" x2="350.5" stroke="#C4C4C4"/>
<line x1="377.5" y1="1080" x2="377.5" stroke="#C4C4C4"/>
<line x1="404.5" y1="1080" x2="404.5" stroke="#C4C4C4"/>
<line x1="431.5" y1="1080" x2="431.5" stroke="#C4C4C4"/>
<line x1="458.5" y1="1080" x2="458.5" stroke="#C4C4C4"/>
<line x1="485.5" y1="1080" x2="485.5" stroke="#C4C4C4"/>
<line x1="512.5" y1="1080" x2="512.5" stroke="#C4C4C4"/>
<line x1="539.5" y1="1080" x2="539.5" stroke="#C4C4C4"/>
<line x1="566.5" y1="1080" x2="566.5" stroke="#C4C4C4"/>
<line x1="593.5" y1="1080" x2="593.5" stroke="#C4C4C4"/>
<line x1="620.5" y1="1080" x2="620.5" stroke="#C4C4C4"/>
<line x1="647.5" y1="1080" x2="647.5" stroke="#C4C4C4"/>
<line x1="674.5" y1="1080" x2="674.5" stroke="#C4C4C4"/>
<line x1="701.5" y1="1080" x2="701.5" stroke="#C4C4C4"/>
<line x1="728.5" y1="1080" x2="728.5" stroke="#C4C4C4"/>
<line x1="755.5" y1="1080" x2="755.5" stroke="#C4C4C4"/>
<line x1="782.5" y1="1080" x2="782.5" stroke="#C4C4C4"/>
<line x1="809.5" y1="1080" x2="809.5" stroke="#C4C4C4"/>
<line x1="836.5" y1="1080" x2="836.5" stroke="#C4C4C4"/>
<line x1="863.5" y1="1080" x2="863.5" stroke="#C4C4C4"/>
<line x1="890.5" y1="1080" x2="890.5" stroke="#C4C4C4"/>
<line x1="917.5" y1="1080" x2="917.5" stroke="#C4C4C4"/>
<line x1="944.5" y1="1080" x2="944.5" stroke="#C4C4C4"/>
<line x1="971.5" y1="1080" x2="971.5" stroke="#C4C4C4"/>
<line x1="998.5" y1="1080" x2="998.5" stroke="#C4C4C4"/>
<line x1="1025.5" y1="1080" x2="1025.5" stroke="#C4C4C4"/>
<line x1="1052.5" y1="1080" x2="1052.5" stroke="#C4C4C4"/>
<rect width="1080" height="1080" fill="url(#paint0_radial_241_513)"/>
<path d="M268.55 190.6C265.057 190.6 261.99 189.947 259.35 188.64C256.737 187.333 254.697 185.52 253.23 183.2C251.764 180.853 251.03 178.12 251.03 175C251.03 171.88 251.764 169.16 253.23 166.84C254.697 164.493 256.737 162.667 259.35 161.36C261.99 160.053 265.057 159.4 268.55 159.4C272.044 159.4 275.097 160.053 277.71 161.36C280.35 162.667 282.404 164.493 283.87 166.84C285.337 169.16 286.07 171.88 286.07 175C286.07 178.12 285.337 180.853 283.87 183.2C282.404 185.52 280.35 187.333 277.71 188.64C275.097 189.947 272.044 190.6 268.55 190.6ZM268.55 184.56C270.737 184.56 272.617 184.173 274.19 183.4C275.79 182.627 277.017 181.52 277.87 180.08C278.75 178.64 279.19 176.947 279.19 175C279.19 173.053 278.75 171.36 277.87 169.92C277.017 168.48 275.79 167.373 274.19 166.6C272.617 165.827 270.737 165.44 268.55 165.44C266.39 165.44 264.51 165.827 262.91 166.6C261.31 167.373 260.07 168.48 259.19 169.92C258.337 171.36 257.91 173.053 257.91 175C257.91 176.947 258.337 178.64 259.19 180.08C260.07 181.52 261.31 182.627 262.91 183.4C264.51 184.173 266.39 184.56 268.55 184.56ZM297.953 176.84C297.953 178.44 298.259 179.813 298.873 180.96C299.486 182.107 300.379 183 301.553 183.64C302.753 184.253 304.193 184.56 305.873 184.56C307.579 184.56 309.019 184.253 310.193 183.64C311.366 183 312.259 182.107 312.873 180.96C313.486 179.813 313.793 178.44 313.793 176.84V160H320.593V177.16C320.593 179.853 319.979 182.213 318.753 184.24C317.526 186.24 315.806 187.8 313.593 188.92C311.379 190.04 308.806 190.6 305.873 190.6C302.939 190.6 300.366 190.04 298.153 188.92C295.966 187.8 294.246 186.24 292.993 184.24C291.766 182.213 291.153 179.853 291.153 177.16V160H297.953V176.84ZM336.717 163.04H343.477V190H336.717V163.04ZM324.757 160H355.397V166H324.757V160ZM357.529 180.2H364.409C364.569 181.213 365.009 182.107 365.729 182.88C366.476 183.627 367.463 184.213 368.689 184.64C369.943 185.04 371.383 185.24 373.009 185.24C375.383 185.24 377.249 184.907 378.609 184.24C379.996 183.547 380.689 182.587 380.689 181.36C380.689 180.4 380.289 179.667 379.489 179.16C378.716 178.627 377.263 178.24 375.129 178L369.089 177.32C365.196 176.893 362.369 175.987 360.609 174.6C358.876 173.187 358.009 171.227 358.009 168.72C358.009 166.747 358.583 165.067 359.729 163.68C360.903 162.293 362.543 161.24 364.649 160.52C366.756 159.773 369.236 159.4 372.089 159.4C374.863 159.4 377.329 159.813 379.489 160.64C381.649 161.44 383.369 162.573 384.649 164.04C385.929 165.48 386.623 167.173 386.729 169.12H379.849C379.716 168.24 379.316 167.48 378.649 166.84C378.009 166.173 377.116 165.667 375.969 165.32C374.823 164.947 373.476 164.76 371.929 164.76C369.769 164.76 368.049 165.08 366.769 165.72C365.489 166.36 364.849 167.267 364.849 168.44C364.849 169.347 365.223 170.053 365.969 170.56C366.743 171.04 368.089 171.4 370.009 171.64L376.289 172.4C379.063 172.693 381.263 173.173 382.889 173.84C384.543 174.48 385.716 175.347 386.409 176.44C387.129 177.533 387.489 178.92 387.489 180.6C387.489 182.6 386.876 184.36 385.649 185.88C384.449 187.373 382.756 188.533 380.569 189.36C378.383 190.187 375.823 190.6 372.889 190.6C369.903 190.6 367.276 190.173 365.009 189.32C362.743 188.44 360.956 187.227 359.649 185.68C358.343 184.107 357.636 182.28 357.529 180.2ZM408.899 190.6C405.406 190.6 402.339 189.947 399.699 188.64C397.086 187.333 395.046 185.52 393.579 183.2C392.112 180.853 391.379 178.12 391.379 175C391.379 171.88 392.112 169.16 393.579 166.84C395.046 164.493 397.086 162.667 399.699 161.36C402.339 160.053 405.406 159.4 408.899 159.4C412.392 159.4 415.446 160.053 418.059 161.36C420.699 162.667 422.752 164.493 424.219 166.84C425.686 169.16 426.419 171.88 426.419 175C426.419 178.12 425.686 180.853 424.219 183.2C422.752 185.52 420.699 187.333 418.059 188.64C415.446 189.947 412.392 190.6 408.899 190.6ZM408.899 184.56C411.086 184.56 412.966 184.173 414.539 183.4C416.139 182.627 417.366 181.52 418.219 180.08C419.099 178.64 419.539 176.947 419.539 175C419.539 173.053 419.099 171.36 418.219 169.92C417.366 168.48 416.139 167.373 414.539 166.6C412.966 165.827 411.086 165.44 408.899 165.44C406.739 165.44 404.859 165.827 403.259 166.6C401.659 167.373 400.419 168.48 399.539 169.92C398.686 171.36 398.259 173.053 398.259 175C398.259 176.947 398.686 178.64 399.539 180.08C400.419 181.52 401.659 182.627 403.259 183.4C404.859 184.173 406.739 184.56 408.899 184.56ZM438.301 176.84C438.301 178.44 438.608 179.813 439.221 180.96C439.834 182.107 440.728 183 441.901 183.64C443.101 184.253 444.541 184.56 446.221 184.56C447.928 184.56 449.368 184.253 450.541 183.64C451.714 183 452.608 182.107 453.221 180.96C453.834 179.813 454.141 178.44 454.141 176.84V160H460.941V177.16C460.941 179.853 460.328 182.213 459.101 184.24C457.874 186.24 456.154 187.8 453.941 188.92C451.728 190.04 449.154 190.6 446.221 190.6C443.288 190.6 440.714 190.04 438.501 188.92C436.314 187.8 434.594 186.24 433.341 184.24C432.114 182.213 431.501 179.853 431.501 177.16V160H438.301V176.84ZM472.226 173.32H483.786C485.306 173.32 486.506 172.973 487.386 172.28C488.292 171.56 488.746 170.573 488.746 169.32C488.746 168.067 488.292 167.093 487.386 166.4C486.506 165.707 485.306 165.36 483.786 165.36H471.226L474.306 161.88V190H467.506V160H484.586C486.772 160 488.692 160.4 490.346 161.2C491.999 161.973 493.292 163.053 494.226 164.44C495.159 165.827 495.626 167.453 495.626 169.32C495.626 171.16 495.159 172.773 494.226 174.16C493.292 175.547 491.999 176.64 490.346 177.44C488.692 178.213 486.772 178.6 484.586 178.6H472.226V173.32ZM477.426 175.96H485.186L496.506 190H488.546L477.426 175.96ZM533.715 177.8C533.422 180.333 532.529 182.573 531.035 184.52C529.569 186.44 527.622 187.933 525.195 189C522.795 190.067 520.049 190.6 516.955 190.6C513.542 190.6 510.542 189.947 507.955 188.64C505.395 187.333 503.395 185.52 501.955 183.2C500.515 180.853 499.795 178.12 499.795 175C499.795 171.88 500.515 169.16 501.955 166.84C503.395 164.493 505.395 162.667 507.955 161.36C510.542 160.053 513.542 159.4 516.955 159.4C520.049 159.4 522.795 159.933 525.195 161C527.622 162.067 529.569 163.56 531.035 165.48C532.529 167.4 533.422 169.64 533.715 172.2H526.875C526.609 170.787 526.035 169.573 525.155 168.56C524.275 167.52 523.142 166.72 521.755 166.16C520.369 165.6 518.755 165.32 516.915 165.32C514.809 165.32 512.982 165.72 511.435 166.52C509.915 167.293 508.742 168.413 507.915 169.88C507.089 171.32 506.675 173.027 506.675 175C506.675 176.973 507.089 178.693 507.915 180.16C508.742 181.6 509.915 182.72 511.435 183.52C512.982 184.293 514.809 184.68 516.915 184.68C518.755 184.68 520.369 184.413 521.755 183.88C523.142 183.32 524.275 182.533 525.155 181.52C526.035 180.48 526.609 179.24 526.875 177.8H533.715ZM563.671 172.4V177.6H542.191V172.4H563.671ZM546.751 175L544.751 187.72L541.791 184.36H564.911V190H537.911L540.231 175L537.911 160H564.711V165.64H541.791L544.751 162.28L546.751 175ZM580.317 180.2H587.197C587.357 181.213 587.797 182.107 588.517 182.88C589.263 183.627 590.25 184.213 591.477 184.64C592.73 185.04 594.17 185.24 595.797 185.24C598.17 185.24 600.037 184.907 601.397 184.24C602.783 183.547 603.477 182.587 603.477 181.36C603.477 180.4 603.077 179.667 602.277 179.16C601.503 178.627 600.05 178.24 597.917 178L591.877 177.32C587.983 176.893 585.157 175.987 583.397 174.6C581.663 173.187 580.797 171.227 580.797 168.72C580.797 166.747 581.37 165.067 582.517 163.68C583.69 162.293 585.33 161.24 587.437 160.52C589.543 159.773 592.023 159.4 594.877 159.4C597.65 159.4 600.117 159.813 602.277 160.64C604.437 161.44 606.157 162.573 607.437 164.04C608.717 165.48 609.41 167.173 609.517 169.12H602.637C602.503 168.24 602.103 167.48 601.437 166.84C600.797 166.173 599.903 165.667 598.757 165.32C597.61 164.947 596.263 164.76 594.717 164.76C592.557 164.76 590.837 165.08 589.557 165.72C588.277 166.36 587.637 167.267 587.637 168.44C587.637 169.347 588.01 170.053 588.757 170.56C589.53 171.04 590.877 171.4 592.797 171.64L599.077 172.4C601.85 172.693 604.05 173.173 605.677 173.84C607.33 174.48 608.503 175.347 609.197 176.44C609.917 177.533 610.277 178.92 610.277 180.6C610.277 182.6 609.663 184.36 608.437 185.88C607.237 187.373 605.543 188.533 603.357 189.36C601.17 190.187 598.61 190.6 595.677 190.6C592.69 190.6 590.063 190.173 587.797 189.32C585.53 188.44 583.743 187.227 582.437 185.68C581.13 184.107 580.423 182.28 580.317 180.2ZM640.407 172.4V177.6H618.927V172.4H640.407ZM623.487 175L621.487 187.72L618.527 184.36H641.647V190H614.647L616.967 175L614.647 160H641.447V165.64H618.527L621.487 162.28L623.487 175ZM652.338 173.32H663.898C665.418 173.32 666.618 172.973 667.498 172.28C668.405 171.56 668.858 170.573 668.858 169.32C668.858 168.067 668.405 167.093 667.498 166.4C666.618 165.707 665.418 165.36 663.898 165.36H651.338L654.418 161.88V190H647.618V160H664.698C666.885 160 668.805 160.4 670.458 161.2C672.112 161.973 673.405 163.053 674.338 164.44C675.272 165.827 675.738 167.453 675.738 169.32C675.738 171.16 675.272 172.773 674.338 174.16C673.405 175.547 672.112 176.64 670.458 177.44C668.805 178.213 666.885 178.6 664.698 178.6H652.338V173.32ZM657.538 175.96H665.298L676.618 190H668.658L657.538 175.96ZM696.857 187H693.857L706.097 160H713.297L699.057 190H691.417L677.217 160H684.497L696.857 187ZM717.343 160H724.143V190H717.343V160ZM763.553 177.8C763.26 180.333 762.366 182.573 760.873 184.52C759.406 186.44 757.46 187.933 755.033 189C752.633 190.067 749.886 190.6 746.793 190.6C743.38 190.6 740.38 189.947 737.793 188.64C735.233 187.333 733.233 185.52 731.793 183.2C730.353 180.853 729.633 178.12 729.633 175C729.633 171.88 730.353 169.16 731.793 166.84C733.233 164.493 735.233 162.667 737.793 161.36C740.38 160.053 743.38 159.4 746.793 159.4C749.886 159.4 752.633 159.933 755.033 161C757.46 162.067 759.406 163.56 760.873 165.48C762.366 167.4 763.26 169.64 763.553 172.2H756.713C756.446 170.787 755.873 169.573 754.993 168.56C754.113 167.52 752.98 166.72 751.593 166.16C750.206 165.6 748.593 165.32 746.753 165.32C744.646 165.32 742.82 165.72 741.273 166.52C739.753 167.293 738.58 168.413 737.753 169.88C736.926 171.32 736.513 173.027 736.513 175C736.513 176.973 736.926 178.693 737.753 180.16C738.58 181.6 739.753 182.72 741.273 183.52C742.82 184.293 744.646 184.68 746.753 184.68C748.593 184.68 750.206 184.413 751.593 183.88C752.98 183.32 754.113 182.533 754.993 181.52C755.873 180.48 756.446 179.24 756.713 177.8H763.553ZM793.509 172.4V177.6H772.029V172.4H793.509ZM776.589 175L774.589 187.72L771.629 184.36H794.749V190H767.749L770.069 175L767.749 160H794.549V165.64H771.629L774.589 162.28L776.589 175ZM799.12 180.2H806C806.16 181.213 806.6 182.107 807.32 182.88C808.066 183.627 809.053 184.213 810.28 184.64C811.533 185.04 812.973 185.24 814.6 185.24C816.973 185.24 818.84 184.907 820.2 184.24C821.586 183.547 822.28 182.587 822.28 181.36C822.28 180.4 821.88 179.667 821.08 179.16C820.306 178.627 818.853 178.24 816.72 178L810.68 177.32C806.786 176.893 803.96 175.987 802.2 174.6C800.466 173.187 799.6 171.227 799.6 168.72C799.6 166.747 800.173 165.067 801.32 163.68C802.493 162.293 804.133 161.24 806.24 160.52C808.346 159.773 810.826 159.4 813.68 159.4C816.453 159.4 818.92 159.813 821.08 160.64C823.24 161.44 824.96 162.573 826.24 164.04C827.52 165.48 828.213 167.173 828.32 169.12H821.44C821.306 168.24 820.906 167.48 820.24 166.84C819.6 166.173 818.706 165.667 817.56 165.32C816.413 164.947 815.066 164.76 813.52 164.76C811.36 164.76 809.64 165.08 808.36 165.72C807.08 166.36 806.44 167.267 806.44 168.44C806.44 169.347 806.813 170.053 807.56 170.56C808.333 171.04 809.68 171.4 811.6 171.64L817.88 172.4C820.653 172.693 822.853 173.173 824.48 173.84C826.133 174.48 827.307 175.347 828 176.44C828.72 177.533 829.08 178.92 829.08 180.6C829.08 182.6 828.466 184.36 827.24 185.88C826.04 187.373 824.347 188.533 822.16 189.36C819.973 190.187 817.413 190.6 814.48 190.6C811.493 190.6 808.866 190.173 806.6 189.32C804.333 188.44 802.546 187.227 801.24 185.68C799.933 184.107 799.226 182.28 799.12 180.2Z" fill="#0E5F66"/>
<path d="M716.395 600.42L710.101 602.467L676.58 605.425L666.949 620.593L660.047 618.393L632.821 594.201L628.878 581.612L623.493 568.112L606.581 552.945L586.636 549.077L586.181 558.178L605.747 577.289L615.303 588.513L604.534 594.201L595.812 591.622L582.692 586.086V575.545L566.008 568.416L560.32 593.367L542.953 597.234L544.697 611.189L567.449 615.511L571.392 593.291L590.049 596.097L598.694 601.178H612.648L621.977 619.986L647.307 645.619L645.411 655.63L625.01 653.051L589.821 670.798L564.491 701.133L561.23 714.632H552.054L535.142 707.048L518.685 714.632L522.78 731.999L529.909 723.733H542.574L541.664 738.901L552.129 741.934L562.823 753.992L579.507 748.911L598.998 751.945L621.749 758.012L632.973 759.377L652.084 781.067L689.018 802.757L665.129 848.26L639.95 859.939L630.395 886.027L593.916 910.371L590.049 924.401C623.19 916.305 653.893 900.342 679.557 877.865C705.222 855.388 725.093 827.057 737.489 795.273C749.884 763.488 754.439 729.185 750.767 695.267C747.095 661.349 735.305 628.815 716.395 600.42Z" fill="url(#paint1_linear_241_513)"/>
<path d="M564.491 829.527L549.323 800.86L563.201 771.663L549.02 767.416L533.094 751.414L497.753 743.83L486.074 718.576V733.137H480.917L450.581 691.881V657.905L428.285 621.654L392.868 627.949H368.903L356.845 620.365L372.013 608.231L356.845 611.719C338.066 643.968 328.117 680.597 328.001 717.915C327.885 755.233 337.605 791.922 356.183 824.288C374.761 856.653 401.54 883.551 433.823 902.272C466.106 920.992 502.753 930.875 540.071 930.923C548.974 930.831 557.864 930.198 566.69 929.027L564.491 903.318C564.491 903.318 574.274 865.399 574.274 863.882C574.274 862.365 564.491 829.527 564.491 829.527Z" fill="url(#paint2_linear_241_513)"/>
<path d="M406.671 574.483L444.59 569.174L461.957 559.694L481.523 565.306L512.769 563.562L523.538 546.726L539.085 549.304L577.004 545.74L587.47 534.213L602.637 524.429L623.417 527.539L631.001 526.401C588.369 506.192 540.208 500.806 494.165 511.097C448.122 521.389 406.837 546.768 376.866 583.204L406.671 574.483ZM549.02 527.311L570.406 515.405L584.36 523.443L564.187 538.611L544.924 540.583L536.279 534.971L549.02 527.311ZM484.784 528.98L494.567 533.075L506.929 528.98L513.755 540.81L484.784 548.394L470.906 540.355C470.906 540.355 484.481 531.634 484.784 528.98Z" fill="url(#paint3_linear_241_513)"/>
<path fill-rule="evenodd" clip-rule="evenodd" d="M649.322 389.641L656.063 389.485L661.674 389.33C655.089 369.184 657.31 350.674 673.053 334.932C675.703 343.582 681.704 350.713 691.913 355.974C696.784 359.598 701.499 363.962 706.058 368.989C706.876 365.638 703.798 361.624 700.057 357.455C703.525 359.169 706.681 361.546 708.98 366.144C711.63 371.483 711.591 376.003 710.695 381.77C710.266 384.459 709.643 386.953 708.708 389.291H718.021C727.84 368.209 721.606 336.958 701.499 323.748C695.303 319.696 690.9 319.851 683.652 319.851C675.352 319.851 671.105 320.085 664.013 324.8C653.569 331.736 647.14 343.699 644.412 360.338C643.906 368.638 643.516 382.978 649.322 389.641ZM328 464.341C328.818 441.584 356.095 440.688 377.41 427.4L391.672 464.341H328ZM420.469 451.833H423.274C425.807 451.833 427.872 449.767 427.872 447.235V439.792C427.872 437.259 425.807 435.194 423.274 435.194H406.635C404.103 435.194 402.037 437.259 402.037 439.792V447.235C402.037 449.767 404.103 451.833 406.635 451.833H409.48L407.025 464.341H422.846L420.469 451.833ZM391.36 411.346C391.906 407.021 379.125 392.798 376.787 384.926C371.799 376.977 370.006 368.755 375.462 360.338C377.644 356.987 376.709 347.986 376.709 343.387C376.709 297.757 456.708 297.718 456.708 343.387C456.708 349.155 455.383 356.675 458.501 361.234C463.722 368.833 461.033 377.912 456.591 384.965C453.786 393.265 440.42 406.67 441.316 411.385C442.134 434.765 391.204 433.986 391.36 411.346ZM522.952 402.383L542.981 461.185L553.073 426.27L548.125 420.893C545.865 417.62 545.397 414.814 546.644 412.359C549.333 407.099 554.827 408.034 559.971 408.034C565.387 408.034 572.089 407.021 573.765 413.801C574.31 416.1 573.609 418.438 572.05 420.893L567.102 426.27L577.194 461.185L595.314 402.383C618.889 423.621 666.389 411.19 672.118 464.302H439.796C445.836 408.384 499.182 423.815 522.952 402.383ZM506.625 324.527C506.742 327.84 508.456 332.165 511.846 337.192L511.924 337.27L523.108 355.039C527.589 362.17 532.226 369.378 538.071 374.678C543.565 379.744 550.346 383.173 559.191 383.173C568.816 383.212 575.791 379.627 581.519 374.288C587.481 368.716 592.235 361.001 596.911 353.324L609.498 332.633C612.069 326.788 612.849 323.242 611.992 321.527C611.524 320.553 609.77 320.202 606.965 320.319C605.016 320.865 602.756 320.865 600.068 320.124L605.172 300.602C565.738 304.654 543.565 267.752 515.47 295.809L519.133 318.955C514.574 319.89 506.313 316.929 506.625 324.527ZM612.771 313.656C615.421 314.474 617.33 315.955 618.499 318.332C620.408 322.111 619.629 327.762 616.083 335.828C616.005 335.984 615.927 336.101 615.888 336.256L603.146 357.221C598.197 365.326 593.209 373.47 586.507 379.744C579.571 386.29 570.92 390.654 559.152 390.577C548.164 390.538 539.864 386.368 533.083 380.133C526.537 374.171 521.588 366.495 516.873 359.013L505.69 341.244C501.559 335.049 499.416 329.398 499.26 324.722C499.182 322.462 499.572 320.475 500.429 318.643C501.325 316.773 502.65 315.175 504.482 313.928C505.378 313.383 506.391 312.837 507.443 312.448C506.742 302.862 506.508 290.977 506.975 281.04C507.209 278.624 507.677 276.208 508.339 273.753C511.184 263.544 518.393 255.361 527.238 249.672C530.356 247.723 533.785 246.009 537.409 244.723C558.841 237.008 587.286 241.255 602.523 257.738C608.757 264.44 612.654 273.364 613.472 285.171L612.771 313.656ZM674.962 427.946L679.989 410.45L677.534 407.761C676.404 406.163 676.209 404.722 676.794 403.514C678.119 400.864 680.885 401.37 683.457 401.37C686.146 401.37 689.497 400.825 690.354 404.254C690.627 405.384 690.276 406.553 689.536 407.8L687.042 410.528L692.069 428.024L683.496 434.804L674.962 427.946ZM720.008 421.867C716.189 414.229 711.357 407.722 705.707 401.643C716.306 405.735 727.178 409.787 735.166 414.853C740.271 418.048 742.921 420.464 744.947 424.322C749.35 432.583 749.818 439.948 750.441 448.91L752 464.341H690.042C688.367 457.21 687.432 451.248 683.925 443.338C694.641 432.778 706.058 424.205 720.008 421.867ZM643.983 408.54C649.906 405.93 656.024 403.708 661.363 401.643C658.323 404.955 655.518 408.345 652.985 411.969C650.14 410.8 647.14 409.631 643.983 408.54Z" fill="#0E5F66"/>
</g>
<defs>
<radialGradient id="paint0_radial_241_513" cx="0" cy="0" r="1" gradientUnits="userSpaceOnUse" gradientTransform="translate(540 540) rotate(90) scale(540)">
<stop offset="0.745" stop-color="white" stop-opacity="0"/>
<stop offset="1" stop-color="white"/>
</radialGradient>
<linearGradient id="paint1_linear_241_513" x1="635.342" y1="549.077" x2="635.342" y2="924.401" gradientUnits="userSpaceOnUse">
<stop stop-color="#0E5F66"/>
<stop offset="1" stop-color="#38AD7E"/>
</linearGradient>
<linearGradient id="paint2_linear_241_513" x1="451.137" y1="608.231" x2="451.137" y2="930.923" gradientUnits="userSpaceOnUse">
<stop stop-color="#0E5F66"/>
<stop offset="1" stop-color="#38AD7E"/>
</linearGradient>
<linearGradient id="paint3_linear_241_513" x1="503.934" y1="506" x2="503.934" y2="583.204" gradientUnits="userSpaceOnUse">
<stop stop-color="#0E5F66"/>
<stop offset="1" stop-color="#38AD7E"/>
</linearGradient>
<clipPath id="clip0_241_513">
<rect width="1080" height="1080" fill="white"/>
</clipPath>
</defs>
</svg>
