<svg width="1080" height="1080" viewBox="0 0 1080 1080" fill="none" xmlns="http://www.w3.org/2000/svg">
<g clip-path="url(#clip0_241_603)">
<rect width="1080" height="1080" fill="#EBF7F2"/>
<line y1="26.5" x2="1080" y2="26.5" stroke="#C4C4C4"/>
<line y1="53.5" x2="1080" y2="53.5" stroke="#C4C4C4"/>
<line y1="80.5" x2="1080" y2="80.5" stroke="#C4C4C4"/>
<line y1="107.5" x2="1080" y2="107.5" stroke="#C4C4C4"/>
<line y1="134.5" x2="1080" y2="134.5" stroke="#C4C4C4"/>
<line y1="161.5" x2="1080" y2="161.5" stroke="#C4C4C4"/>
<line y1="188.5" x2="1080" y2="188.5" stroke="#C4C4C4"/>
<line y1="215.5" x2="1080" y2="215.5" stroke="#C4C4C4"/>
<line y1="242.5" x2="1080" y2="242.5" stroke="#C4C4C4"/>
<line y1="269.5" x2="1080" y2="269.5" stroke="#C4C4C4"/>
<line y1="296.5" x2="1080" y2="296.5" stroke="#C4C4C4"/>
<line y1="323.5" x2="1080" y2="323.5" stroke="#C4C4C4"/>
<line y1="350.5" x2="1080" y2="350.5" stroke="#C4C4C4"/>
<line y1="377.5" x2="1080" y2="377.5" stroke="#C4C4C4"/>
<line y1="404.5" x2="1080" y2="404.5" stroke="#C4C4C4"/>
<line y1="431.5" x2="1080" y2="431.5" stroke="#C4C4C4"/>
<line y1="458.5" x2="1080" y2="458.5" stroke="#C4C4C4"/>
<line y1="485.5" x2="1080" y2="485.5" stroke="#C4C4C4"/>
<line y1="512.5" x2="1080" y2="512.5" stroke="#C4C4C4"/>
<line y1="539.5" x2="1080" y2="539.5" stroke="#C4C4C4"/>
<line y1="566.5" x2="1080" y2="566.5" stroke="#C4C4C4"/>
<line y1="593.5" x2="1080" y2="593.5" stroke="#C4C4C4"/>
<line y1="620.5" x2="1080" y2="620.5" stroke="#C4C4C4"/>
<line y1="647.5" x2="1080" y2="647.5" stroke="#C4C4C4"/>
<line y1="674.5" x2="1080" y2="674.5" stroke="#C4C4C4"/>
<line y1="701.5" x2="1080" y2="701.5" stroke="#C4C4C4"/>
<line y1="728.5" x2="1080" y2="728.5" stroke="#C4C4C4"/>
<line y1="755.5" x2="1080" y2="755.5" stroke="#C4C4C4"/>
<line y1="782.5" x2="1080" y2="782.5" stroke="#C4C4C4"/>
<line y1="809.5" x2="1080" y2="809.5" stroke="#C4C4C4"/>
<line y1="836.5" x2="1080" y2="836.5" stroke="#C4C4C4"/>
<line y1="863.5" x2="1080" y2="863.5" stroke="#C4C4C4"/>
<line y1="890.5" x2="1080" y2="890.5" stroke="#C4C4C4"/>
<line y1="917.5" x2="1080" y2="917.5" stroke="#C4C4C4"/>
<line y1="944.5" x2="1080" y2="944.5" stroke="#C4C4C4"/>
<line y1="971.5" x2="1080" y2="971.5" stroke="#C4C4C4"/>
<line y1="998.5" x2="1080" y2="998.5" stroke="#C4C4C4"/>
<line y1="1025.5" x2="1080" y2="1025.5" stroke="#C4C4C4"/>
<line y1="1052.5" x2="1080" y2="1052.5" stroke="#C4C4C4"/>
<line x1="26.5" y1="1080" x2="26.5" stroke="#C4C4C4"/>
<line x1="53.5" y1="1080" x2="53.5" stroke="#C4C4C4"/>
<line x1="80.5" y1="1080" x2="80.5" stroke="#C4C4C4"/>
<line x1="107.5" y1="1080" x2="107.5" stroke="#C4C4C4"/>
<line x1="134.5" y1="1080" x2="134.5" stroke="#C4C4C4"/>
<line x1="161.5" y1="1080" x2="161.5" stroke="#C4C4C4"/>
<line x1="188.5" y1="1080" x2="188.5" stroke="#C4C4C4"/>
<line x1="215.5" y1="1080" x2="215.5" stroke="#C4C4C4"/>
<line x1="242.5" y1="1080" x2="242.5" stroke="#C4C4C4"/>
<line x1="269.5" y1="1080" x2="269.5" stroke="#C4C4C4"/>
<line x1="296.5" y1="1080" x2="296.5" stroke="#C4C4C4"/>
<line x1="323.5" y1="1080" x2="323.5" stroke="#C4C4C4"/>
<line x1="350.5" y1="1080" x2="350.5" stroke="#C4C4C4"/>
<line x1="377.5" y1="1080" x2="377.5" stroke="#C4C4C4"/>
<line x1="404.5" y1="1080" x2="404.5" stroke="#C4C4C4"/>
<line x1="431.5" y1="1080" x2="431.5" stroke="#C4C4C4"/>
<line x1="458.5" y1="1080" x2="458.5" stroke="#C4C4C4"/>
<line x1="485.5" y1="1080" x2="485.5" stroke="#C4C4C4"/>
<line x1="512.5" y1="1080" x2="512.5" stroke="#C4C4C4"/>
<line x1="539.5" y1="1080" x2="539.5" stroke="#C4C4C4"/>
<line x1="566.5" y1="1080" x2="566.5" stroke="#C4C4C4"/>
<line x1="593.5" y1="1080" x2="593.5" stroke="#C4C4C4"/>
<line x1="620.5" y1="1080" x2="620.5" stroke="#C4C4C4"/>
<line x1="647.5" y1="1080" x2="647.5" stroke="#C4C4C4"/>
<line x1="674.5" y1="1080" x2="674.5" stroke="#C4C4C4"/>
<line x1="701.5" y1="1080" x2="701.5" stroke="#C4C4C4"/>
<line x1="728.5" y1="1080" x2="728.5" stroke="#C4C4C4"/>
<line x1="755.5" y1="1080" x2="755.5" stroke="#C4C4C4"/>
<line x1="782.5" y1="1080" x2="782.5" stroke="#C4C4C4"/>
<line x1="809.5" y1="1080" x2="809.5" stroke="#C4C4C4"/>
<line x1="836.5" y1="1080" x2="836.5" stroke="#C4C4C4"/>
<line x1="863.5" y1="1080" x2="863.5" stroke="#C4C4C4"/>
<line x1="890.5" y1="1080" x2="890.5" stroke="#C4C4C4"/>
<line x1="917.5" y1="1080" x2="917.5" stroke="#C4C4C4"/>
<line x1="944.5" y1="1080" x2="944.5" stroke="#C4C4C4"/>
<line x1="971.5" y1="1080" x2="971.5" stroke="#C4C4C4"/>
<line x1="998.5" y1="1080" x2="998.5" stroke="#C4C4C4"/>
<line x1="1025.5" y1="1080" x2="1025.5" stroke="#C4C4C4"/>
<line x1="1052.5" y1="1080" x2="1052.5" stroke="#C4C4C4"/>
<rect width="1080" height="1080" fill="url(#paint0_radial_241_603)"/>
<path d="M268.55 191.6C265.057 191.6 261.99 190.947 259.35 189.64C256.737 188.333 254.697 186.52 253.23 184.2C251.764 181.853 251.03 179.12 251.03 176C251.03 172.88 251.764 170.16 253.23 167.84C254.697 165.493 256.737 163.667 259.35 162.36C261.99 161.053 265.057 160.4 268.55 160.4C272.044 160.4 275.097 161.053 277.71 162.36C280.35 163.667 282.404 165.493 283.87 167.84C285.337 170.16 286.07 172.88 286.07 176C286.07 179.12 285.337 181.853 283.87 184.2C282.404 186.52 280.35 188.333 277.71 189.64C275.097 190.947 272.044 191.6 268.55 191.6ZM268.55 185.56C270.737 185.56 272.617 185.173 274.19 184.4C275.79 183.627 277.017 182.52 277.87 181.08C278.75 179.64 279.19 177.947 279.19 176C279.19 174.053 278.75 172.36 277.87 170.92C277.017 169.48 275.79 168.373 274.19 167.6C272.617 166.827 270.737 166.44 268.55 166.44C266.39 166.44 264.51 166.827 262.91 167.6C261.31 168.373 260.07 169.48 259.19 170.92C258.337 172.36 257.91 174.053 257.91 176C257.91 177.947 258.337 179.64 259.19 181.08C260.07 182.52 261.31 183.627 262.91 184.4C264.51 185.173 266.39 185.56 268.55 185.56ZM297.953 177.84C297.953 179.44 298.259 180.813 298.873 181.96C299.486 183.107 300.379 184 301.553 184.64C302.753 185.253 304.193 185.56 305.873 185.56C307.579 185.56 309.019 185.253 310.193 184.64C311.366 184 312.259 183.107 312.873 181.96C313.486 180.813 313.793 179.44 313.793 177.84V161H320.593V178.16C320.593 180.853 319.979 183.213 318.753 185.24C317.526 187.24 315.806 188.8 313.593 189.92C311.379 191.04 308.806 191.6 305.873 191.6C302.939 191.6 300.366 191.04 298.153 189.92C295.966 188.8 294.246 187.24 292.993 185.24C291.766 183.213 291.153 180.853 291.153 178.16V161H297.953V177.84ZM336.717 164.04H343.477V191H336.717V164.04ZM324.757 161H355.397V167H324.757V161ZM357.529 181.2H364.409C364.569 182.213 365.009 183.107 365.729 183.88C366.476 184.627 367.463 185.213 368.689 185.64C369.943 186.04 371.383 186.24 373.009 186.24C375.383 186.24 377.249 185.907 378.609 185.24C379.996 184.547 380.689 183.587 380.689 182.36C380.689 181.4 380.289 180.667 379.489 180.16C378.716 179.627 377.263 179.24 375.129 179L369.089 178.32C365.196 177.893 362.369 176.987 360.609 175.6C358.876 174.187 358.009 172.227 358.009 169.72C358.009 167.747 358.583 166.067 359.729 164.68C360.903 163.293 362.543 162.24 364.649 161.52C366.756 160.773 369.236 160.4 372.089 160.4C374.863 160.4 377.329 160.813 379.489 161.64C381.649 162.44 383.369 163.573 384.649 165.04C385.929 166.48 386.623 168.173 386.729 170.12H379.849C379.716 169.24 379.316 168.48 378.649 167.84C378.009 167.173 377.116 166.667 375.969 166.32C374.823 165.947 373.476 165.76 371.929 165.76C369.769 165.76 368.049 166.08 366.769 166.72C365.489 167.36 364.849 168.267 364.849 169.44C364.849 170.347 365.223 171.053 365.969 171.56C366.743 172.04 368.089 172.4 370.009 172.64L376.289 173.4C379.063 173.693 381.263 174.173 382.889 174.84C384.543 175.48 385.716 176.347 386.409 177.44C387.129 178.533 387.489 179.92 387.489 181.6C387.489 183.6 386.876 185.36 385.649 186.88C384.449 188.373 382.756 189.533 380.569 190.36C378.383 191.187 375.823 191.6 372.889 191.6C369.903 191.6 367.276 191.173 365.009 190.32C362.743 189.44 360.956 188.227 359.649 186.68C358.343 185.107 357.636 183.28 357.529 181.2ZM408.899 191.6C405.406 191.6 402.339 190.947 399.699 189.64C397.086 188.333 395.046 186.52 393.579 184.2C392.112 181.853 391.379 179.12 391.379 176C391.379 172.88 392.112 170.16 393.579 167.84C395.046 165.493 397.086 163.667 399.699 162.36C402.339 161.053 405.406 160.4 408.899 160.4C412.392 160.4 415.446 161.053 418.059 162.36C420.699 163.667 422.752 165.493 424.219 167.84C425.686 170.16 426.419 172.88 426.419 176C426.419 179.12 425.686 181.853 424.219 184.2C422.752 186.52 420.699 188.333 418.059 189.64C415.446 190.947 412.392 191.6 408.899 191.6ZM408.899 185.56C411.086 185.56 412.966 185.173 414.539 184.4C416.139 183.627 417.366 182.52 418.219 181.08C419.099 179.64 419.539 177.947 419.539 176C419.539 174.053 419.099 172.36 418.219 170.92C417.366 169.48 416.139 168.373 414.539 167.6C412.966 166.827 411.086 166.44 408.899 166.44C406.739 166.44 404.859 166.827 403.259 167.6C401.659 168.373 400.419 169.48 399.539 170.92C398.686 172.36 398.259 174.053 398.259 176C398.259 177.947 398.686 179.64 399.539 181.08C400.419 182.52 401.659 183.627 403.259 184.4C404.859 185.173 406.739 185.56 408.899 185.56ZM438.301 177.84C438.301 179.44 438.608 180.813 439.221 181.96C439.834 183.107 440.728 184 441.901 184.64C443.101 185.253 444.541 185.56 446.221 185.56C447.928 185.56 449.368 185.253 450.541 184.64C451.714 184 452.608 183.107 453.221 181.96C453.834 180.813 454.141 179.44 454.141 177.84V161H460.941V178.16C460.941 180.853 460.328 183.213 459.101 185.24C457.874 187.24 456.154 188.8 453.941 189.92C451.728 191.04 449.154 191.6 446.221 191.6C443.288 191.6 440.714 191.04 438.501 189.92C436.314 188.8 434.594 187.24 433.341 185.24C432.114 183.213 431.501 180.853 431.501 178.16V161H438.301V177.84ZM472.226 174.32H483.786C485.306 174.32 486.506 173.973 487.386 173.28C488.292 172.56 488.746 171.573 488.746 170.32C488.746 169.067 488.292 168.093 487.386 167.4C486.506 166.707 485.306 166.36 483.786 166.36H471.226L474.306 162.88V191H467.506V161H484.586C486.772 161 488.692 161.4 490.346 162.2C491.999 162.973 493.292 164.053 494.226 165.44C495.159 166.827 495.626 168.453 495.626 170.32C495.626 172.16 495.159 173.773 494.226 175.16C493.292 176.547 491.999 177.64 490.346 178.44C488.692 179.213 486.772 179.6 484.586 179.6H472.226V174.32ZM477.426 176.96H485.186L496.506 191H488.546L477.426 176.96ZM533.715 178.8C533.422 181.333 532.529 183.573 531.035 185.52C529.569 187.44 527.622 188.933 525.195 190C522.795 191.067 520.049 191.6 516.955 191.6C513.542 191.6 510.542 190.947 507.955 189.64C505.395 188.333 503.395 186.52 501.955 184.2C500.515 181.853 499.795 179.12 499.795 176C499.795 172.88 500.515 170.16 501.955 167.84C503.395 165.493 505.395 163.667 507.955 162.36C510.542 161.053 513.542 160.4 516.955 160.4C520.049 160.4 522.795 160.933 525.195 162C527.622 163.067 529.569 164.56 531.035 166.48C532.529 168.4 533.422 170.64 533.715 173.2H526.875C526.609 171.787 526.035 170.573 525.155 169.56C524.275 168.52 523.142 167.72 521.755 167.16C520.369 166.6 518.755 166.32 516.915 166.32C514.809 166.32 512.982 166.72 511.435 167.52C509.915 168.293 508.742 169.413 507.915 170.88C507.089 172.32 506.675 174.027 506.675 176C506.675 177.973 507.089 179.693 507.915 181.16C508.742 182.6 509.915 183.72 511.435 184.52C512.982 185.293 514.809 185.68 516.915 185.68C518.755 185.68 520.369 185.413 521.755 184.88C523.142 184.32 524.275 183.533 525.155 182.52C526.035 181.48 526.609 180.24 526.875 178.8H533.715ZM563.671 173.4V178.6H542.191V173.4H563.671ZM546.751 176L544.751 188.72L541.791 185.36H564.911V191H537.911L540.231 176L537.911 161H564.711V166.64H541.791L544.751 163.28L546.751 176ZM580.317 181.2H587.197C587.357 182.213 587.797 183.107 588.517 183.88C589.263 184.627 590.25 185.213 591.477 185.64C592.73 186.04 594.17 186.24 595.797 186.24C598.17 186.24 600.037 185.907 601.397 185.24C602.783 184.547 603.477 183.587 603.477 182.36C603.477 181.4 603.077 180.667 602.277 180.16C601.503 179.627 600.05 179.24 597.917 179L591.877 178.32C587.983 177.893 585.157 176.987 583.397 175.6C581.663 174.187 580.797 172.227 580.797 169.72C580.797 167.747 581.37 166.067 582.517 164.68C583.69 163.293 585.33 162.24 587.437 161.52C589.543 160.773 592.023 160.4 594.877 160.4C597.65 160.4 600.117 160.813 602.277 161.64C604.437 162.44 606.157 163.573 607.437 165.04C608.717 166.48 609.41 168.173 609.517 170.12H602.637C602.503 169.24 602.103 168.48 601.437 167.84C600.797 167.173 599.903 166.667 598.757 166.32C597.61 165.947 596.263 165.76 594.717 165.76C592.557 165.76 590.837 166.08 589.557 166.72C588.277 167.36 587.637 168.267 587.637 169.44C587.637 170.347 588.01 171.053 588.757 171.56C589.53 172.04 590.877 172.4 592.797 172.64L599.077 173.4C601.85 173.693 604.05 174.173 605.677 174.84C607.33 175.48 608.503 176.347 609.197 177.44C609.917 178.533 610.277 179.92 610.277 181.6C610.277 183.6 609.663 185.36 608.437 186.88C607.237 188.373 605.543 189.533 603.357 190.36C601.17 191.187 598.61 191.6 595.677 191.6C592.69 191.6 590.063 191.173 587.797 190.32C585.53 189.44 583.743 188.227 582.437 186.68C581.13 185.107 580.423 183.28 580.317 181.2ZM640.407 173.4V178.6H618.927V173.4H640.407ZM623.487 176L621.487 188.72L618.527 185.36H641.647V191H614.647L616.967 176L614.647 161H641.447V166.64H618.527L621.487 163.28L623.487 176ZM652.338 174.32H663.898C665.418 174.32 666.618 173.973 667.498 173.28C668.405 172.56 668.858 171.573 668.858 170.32C668.858 169.067 668.405 168.093 667.498 167.4C666.618 166.707 665.418 166.36 663.898 166.36H651.338L654.418 162.88V191H647.618V161H664.698C666.885 161 668.805 161.4 670.458 162.2C672.112 162.973 673.405 164.053 674.338 165.44C675.272 166.827 675.738 168.453 675.738 170.32C675.738 172.16 675.272 173.773 674.338 175.16C673.405 176.547 672.112 177.64 670.458 178.44C668.805 179.213 666.885 179.6 664.698 179.6H652.338V174.32ZM657.538 176.96H665.298L676.618 191H668.658L657.538 176.96ZM696.857 188H693.857L706.097 161H713.297L699.057 191H691.417L677.217 161H684.497L696.857 188ZM717.343 161H724.143V191H717.343V161ZM763.553 178.8C763.26 181.333 762.366 183.573 760.873 185.52C759.406 187.44 757.46 188.933 755.033 190C752.633 191.067 749.886 191.6 746.793 191.6C743.38 191.6 740.38 190.947 737.793 189.64C735.233 188.333 733.233 186.52 731.793 184.2C730.353 181.853 729.633 179.12 729.633 176C729.633 172.88 730.353 170.16 731.793 167.84C733.233 165.493 735.233 163.667 737.793 162.36C740.38 161.053 743.38 160.4 746.793 160.4C749.886 160.4 752.633 160.933 755.033 162C757.46 163.067 759.406 164.56 760.873 166.48C762.366 168.4 763.26 170.64 763.553 173.2H756.713C756.446 171.787 755.873 170.573 754.993 169.56C754.113 168.52 752.98 167.72 751.593 167.16C750.206 166.6 748.593 166.32 746.753 166.32C744.646 166.32 742.82 166.72 741.273 167.52C739.753 168.293 738.58 169.413 737.753 170.88C736.926 172.32 736.513 174.027 736.513 176C736.513 177.973 736.926 179.693 737.753 181.16C738.58 182.6 739.753 183.72 741.273 184.52C742.82 185.293 744.646 185.68 746.753 185.68C748.593 185.68 750.206 185.413 751.593 184.88C752.98 184.32 754.113 183.533 754.993 182.52C755.873 181.48 756.446 180.24 756.713 178.8H763.553ZM793.509 173.4V178.6H772.029V173.4H793.509ZM776.589 176L774.589 188.72L771.629 185.36H794.749V191H767.749L770.069 176L767.749 161H794.549V166.64H771.629L774.589 163.28L776.589 176ZM799.12 181.2H806C806.16 182.213 806.6 183.107 807.32 183.88C808.066 184.627 809.053 185.213 810.28 185.64C811.533 186.04 812.973 186.24 814.6 186.24C816.973 186.24 818.84 185.907 820.2 185.24C821.586 184.547 822.28 183.587 822.28 182.36C822.28 181.4 821.88 180.667 821.08 180.16C820.306 179.627 818.853 179.24 816.72 179L810.68 178.32C806.786 177.893 803.96 176.987 802.2 175.6C800.466 174.187 799.6 172.227 799.6 169.72C799.6 167.747 800.173 166.067 801.32 164.68C802.493 163.293 804.133 162.24 806.24 161.52C808.346 160.773 810.826 160.4 813.68 160.4C816.453 160.4 818.92 160.813 821.08 161.64C823.24 162.44 824.96 163.573 826.24 165.04C827.52 166.48 828.213 168.173 828.32 170.12H821.44C821.306 169.24 820.906 168.48 820.24 167.84C819.6 167.173 818.706 166.667 817.56 166.32C816.413 165.947 815.066 165.76 813.52 165.76C811.36 165.76 809.64 166.08 808.36 166.72C807.08 167.36 806.44 168.267 806.44 169.44C806.44 170.347 806.813 171.053 807.56 171.56C808.333 172.04 809.68 172.4 811.6 172.64L817.88 173.4C820.653 173.693 822.853 174.173 824.48 174.84C826.133 175.48 827.307 176.347 828 177.44C828.72 178.533 829.08 179.92 829.08 181.6C829.08 183.6 828.466 185.36 827.24 186.88C826.04 188.373 824.347 189.533 822.16 190.36C819.973 191.187 817.413 191.6 814.48 191.6C811.493 191.6 808.866 191.173 806.6 190.32C804.333 189.44 802.546 188.227 801.24 186.68C799.933 185.107 799.226 183.28 799.12 181.2Z" fill="#0E5F66"/>
<path fill-rule="evenodd" clip-rule="evenodd" d="M649.322 390.414L656.063 390.259L661.674 390.103C655.089 369.988 657.31 351.507 673.053 335.788C675.703 344.426 681.704 351.546 691.913 356.798C696.784 360.417 701.499 364.774 706.058 369.793C706.876 366.447 703.798 362.44 700.057 358.277C703.525 359.989 706.681 362.362 708.98 366.953C711.63 372.283 711.591 376.797 710.695 382.555C710.266 385.24 709.643 387.73 708.708 390.064H718.021C727.84 369.015 721.606 337.811 701.499 324.622C695.303 320.575 690.9 320.731 683.652 320.731C675.352 320.731 671.105 320.964 664.013 325.672C653.569 332.598 647.14 344.542 644.412 361.156C643.906 369.443 643.516 383.761 649.322 390.414ZM328 465C328.818 442.278 356.095 441.383 377.41 428.116L391.672 465H328ZM420.469 452.511H423.274C425.807 452.511 427.872 450.449 427.872 447.92V440.488C427.872 437.959 425.807 435.897 423.274 435.897H406.635C404.103 435.897 402.037 437.959 402.037 440.488V447.92C402.037 450.449 404.103 452.511 406.635 452.511H409.48L407.025 465H422.846L420.469 452.511ZM391.36 412.086C391.906 407.767 379.125 393.566 376.787 385.706C371.799 377.769 370.006 369.56 375.462 361.156C377.644 357.81 376.709 348.822 376.709 344.231C376.709 298.67 456.708 298.632 456.708 344.231C456.708 349.989 455.383 357.499 458.501 362.051C463.722 369.638 461.033 378.703 456.591 385.745C453.786 394.033 440.42 407.417 441.316 412.125C442.134 435.469 391.204 434.691 391.36 412.086ZM522.952 403.137L542.981 461.848L553.073 426.987L548.125 421.618C545.865 418.35 545.397 415.549 546.644 413.097C549.333 407.845 554.827 408.779 559.971 408.779C565.387 408.779 572.089 407.767 573.765 414.537C574.31 416.833 573.609 419.167 572.05 421.618L567.102 426.987L577.194 461.848L595.314 403.137C618.889 424.342 666.389 411.93 672.118 464.961H439.796C445.836 409.129 499.182 424.536 522.952 403.137ZM506.625 325.4C506.742 328.707 508.456 333.026 511.846 338.045L511.924 338.123L523.108 355.864C527.589 362.985 532.226 370.182 538.071 375.474C543.565 380.532 550.346 383.956 559.191 383.956C568.816 383.995 575.791 380.415 581.519 375.085C587.481 369.521 592.235 361.817 596.911 354.153L609.498 333.493C612.069 327.657 612.849 324.116 611.992 322.404C611.524 321.431 609.77 321.081 606.965 321.198C605.016 321.743 602.756 321.743 600.068 321.003L605.172 301.511C565.738 305.557 543.565 268.712 515.47 296.725L519.133 319.836C514.574 320.77 506.313 317.813 506.625 325.4ZM612.771 314.545C615.421 315.362 617.33 316.84 618.499 319.214C620.408 322.988 619.629 328.629 616.083 336.683C616.005 336.839 615.927 336.955 615.888 337.111L603.146 358.043C598.197 366.136 593.209 374.268 586.507 380.532C579.571 387.068 570.92 391.426 559.152 391.348C548.164 391.309 539.864 387.146 533.083 380.921C526.537 374.968 521.588 367.303 516.873 359.833L505.69 342.091C501.559 335.905 499.416 330.263 499.26 325.594C499.182 323.338 499.572 321.353 500.429 319.525C501.325 317.657 502.65 316.062 504.482 314.817C505.378 314.272 506.391 313.728 507.443 313.339C506.742 303.767 506.508 291.901 506.975 281.979C507.209 279.567 507.677 277.155 508.339 274.703C511.184 264.51 518.393 256.339 527.238 250.659C530.356 248.713 533.785 247.001 537.409 245.717C558.841 238.014 587.286 242.255 602.523 258.712C608.757 265.404 612.654 274.314 613.472 286.103L612.771 314.545ZM674.962 428.66L679.989 411.191L677.534 408.506C676.404 406.911 676.209 405.472 676.794 404.265C678.119 401.62 680.885 402.125 683.457 402.125C686.146 402.125 689.497 401.581 690.354 405.005C690.627 406.133 690.276 407.3 689.536 408.545L687.042 411.269L692.069 428.738L683.496 435.508L674.962 428.66ZM720.008 422.591C716.189 414.965 711.357 408.467 705.707 402.398C716.306 406.483 727.178 410.529 735.166 415.587C740.271 418.778 742.921 421.19 744.947 425.042C749.35 433.29 749.818 440.644 750.441 449.593L752 465H690.042C688.367 457.88 687.432 451.927 683.925 444.029C694.641 433.485 706.058 424.925 720.008 422.591ZM643.983 409.284C649.906 406.678 656.024 404.46 661.363 402.398C658.323 405.705 655.518 409.09 652.985 412.708C650.14 411.541 647.14 410.374 643.983 409.284Z" fill="#0E5F66"/>
<path d="M590.241 623.486C598.838 624.079 604.855 617.796 603.468 609.301C597.638 573.838 589.174 543.854 579.462 521.524C576.025 513.628 565.745 506.38 557.163 505.686C551.512 505.226 545.784 505 540.008 505C534.233 505 528.504 505.234 522.846 505.686C514.264 506.38 503.992 513.636 500.555 521.524C490.827 543.854 482.379 573.83 476.549 609.301C475.153 617.796 481.178 624.079 489.767 623.486C506.439 622.333 523.29 621.748 540.016 621.748C556.742 621.748 573.578 622.333 590.241 623.486Z" fill="url(#paint1_linear_241_603)"/>
<path d="M446.486 666.751C447.079 658.162 440.796 652.137 432.301 653.533C396.838 659.363 366.854 667.819 344.524 677.538C336.628 680.976 329.38 691.248 328.686 699.83C328.234 705.488 328 711.217 328 716.992C328 722.76 328.234 728.496 328.686 734.147C329.38 742.736 336.636 753.009 344.524 756.438C366.854 766.165 396.83 774.614 432.301 780.444C440.796 781.839 447.079 775.807 446.486 767.225C445.34 750.554 444.748 733.703 444.748 716.977C444.748 700.274 445.34 683.423 446.486 666.751Z" fill="url(#paint2_linear_241_603)"/>
<path d="M489.752 810.506C481.163 809.914 475.138 816.196 476.533 824.691C482.363 860.162 490.82 890.131 500.539 912.469C503.976 920.372 514.249 927.613 522.83 928.306C528.489 928.774 534.217 929 539.993 929C545.768 929 551.497 928.758 557.148 928.306C565.737 927.613 576.009 920.356 579.447 912.469C589.174 890.138 597.622 860.162 603.445 824.691C604.84 816.196 598.815 809.914 590.226 810.506C573.554 811.652 556.703 812.252 539.985 812.252C523.259 812.252 506.423 811.659 489.752 810.506Z" fill="url(#paint3_linear_241_603)"/>
<path d="M593.039 647.094C576.095 645.824 558.371 645.13 540 645.13C521.637 645.13 503.914 645.824 486.961 647.094C478.38 647.741 470.734 655.38 470.095 663.961C468.825 680.905 468.131 698.629 468.131 717C468.131 735.371 468.825 753.094 470.095 770.047C470.742 778.628 478.38 786.274 486.961 786.913C503.906 788.184 521.63 788.877 540 788.877C558.363 788.877 576.087 788.184 593.039 786.913C601.621 786.266 609.267 778.628 609.906 770.047C611.176 753.094 611.87 735.378 611.87 717C611.87 698.637 611.176 680.921 609.906 663.961C609.259 655.38 601.613 647.734 593.039 647.094Z" fill="url(#paint4_linear_241_603)"/>
<path d="M452.441 611.865C457.055 581.328 463.719 552.856 472.355 528.741C475.262 520.635 471.326 516.2 463.298 519.318C407.921 540.822 363.822 584.921 342.318 640.306C339.208 648.334 343.635 652.262 351.741 649.363C375.856 640.719 404.328 634.055 434.857 629.441C443.376 628.155 451.155 620.376 452.441 611.865Z" fill="url(#paint5_linear_241_603)"/>
<path d="M434.864 804.559C404.335 799.945 375.855 793.281 351.74 784.645C343.642 781.738 339.199 785.674 342.317 793.702C363.821 849.079 407.92 893.186 463.297 914.674C471.325 917.784 475.253 913.357 472.354 905.251C463.71 881.136 457.046 852.672 452.432 822.127C451.154 813.623 443.383 805.845 434.864 804.559Z" fill="url(#paint6_linear_241_603)"/>
<path d="M751.314 734.163C751.773 728.496 751.999 722.775 751.999 716.992C751.999 711.225 751.766 705.488 751.314 699.83C750.612 691.248 743.356 680.976 735.476 677.538C713.146 667.811 683.162 659.363 647.691 653.533C639.195 652.137 632.913 658.162 633.513 666.751C634.659 683.423 635.251 700.274 635.251 717C635.251 733.718 634.667 750.577 633.513 767.249C632.921 775.838 639.195 781.863 647.691 780.46C683.162 774.63 713.138 766.173 735.476 756.454C743.371 753.024 750.62 742.744 751.314 734.163Z" fill="url(#paint7_linear_241_603)"/>
<path d="M627.559 822.127C622.945 852.657 616.281 881.136 607.645 905.251C604.738 913.357 608.682 917.792 616.702 914.674C672.079 893.17 716.186 849.071 737.69 793.702C740.792 785.674 736.365 781.746 728.267 784.645C704.152 793.289 675.672 799.953 645.135 804.567C636.631 805.845 628.853 813.616 627.559 822.127Z" fill="url(#paint8_linear_241_603)"/>
<path d="M645.134 629.441C675.656 634.055 704.136 640.719 728.251 649.355C736.365 652.262 740.792 648.326 737.674 640.298C716.186 584.921 672.079 540.822 616.694 519.318C608.666 516.208 604.738 520.635 607.637 528.741C616.273 552.856 622.945 581.328 627.559 611.865C628.853 620.376 636.631 628.155 645.134 629.441Z" fill="url(#paint9_linear_241_603)"/>
</g>
<defs>
<radialGradient id="paint0_radial_241_603" cx="0" cy="0" r="1" gradientUnits="userSpaceOnUse" gradientTransform="translate(540 540) rotate(90) scale(540)">
<stop offset="0.745" stop-color="#EBF7F2" stop-opacity="0"/>
<stop offset="1" stop-color="#EBF7F2"/>
</radialGradient>
<linearGradient id="paint1_linear_241_603" x1="540.007" y1="623.525" x2="540.007" y2="505" gradientUnits="userSpaceOnUse">
<stop stop-color="#38AD7E"/>
<stop offset="1" stop-color="#0E5F66"/>
</linearGradient>
<linearGradient id="paint2_linear_241_603" x1="387.262" y1="780.645" x2="387.262" y2="653.332" gradientUnits="userSpaceOnUse">
<stop stop-color="#38AD7E"/>
<stop offset="1" stop-color="#0E5F66"/>
</linearGradient>
<linearGradient id="paint3_linear_241_603" x1="539.989" y1="929" x2="539.989" y2="810.467" gradientUnits="userSpaceOnUse">
<stop stop-color="#38AD7E"/>
<stop offset="1" stop-color="#0E5F66"/>
</linearGradient>
<linearGradient id="paint4_linear_241_603" x1="540" y1="788.877" x2="540" y2="645.13" gradientUnits="userSpaceOnUse">
<stop stop-color="#38AD7E"/>
<stop offset="1" stop-color="#0E5F66"/>
</linearGradient>
<linearGradient id="paint5_linear_241_603" x1="407.314" y1="650.314" x2="407.314" y2="518.315" gradientUnits="userSpaceOnUse">
<stop stop-color="#38AD7E"/>
<stop offset="1" stop-color="#0E5F66"/>
</linearGradient>
<linearGradient id="paint6_linear_241_603" x1="407.31" y1="915.673" x2="407.31" y2="783.69" gradientUnits="userSpaceOnUse">
<stop stop-color="#38AD7E"/>
<stop offset="1" stop-color="#0E5F66"/>
</linearGradient>
<linearGradient id="paint7_linear_241_603" x1="692.737" y1="780.663" x2="692.737" y2="653.332" gradientUnits="userSpaceOnUse">
<stop stop-color="#38AD7E"/>
<stop offset="1" stop-color="#0E5F66"/>
</linearGradient>
<linearGradient id="paint8_linear_241_603" x1="672.688" y1="915.677" x2="672.688" y2="783.694" gradientUnits="userSpaceOnUse">
<stop stop-color="#38AD7E"/>
<stop offset="1" stop-color="#0E5F66"/>
</linearGradient>
<linearGradient id="paint9_linear_241_603" x1="672.681" y1="650.309" x2="672.681" y2="518.318" gradientUnits="userSpaceOnUse">
<stop stop-color="#38AD7E"/>
<stop offset="1" stop-color="#0E5F66"/>
</linearGradient>
<clipPath id="clip0_241_603">
<rect width="1080" height="1080" fill="white"/>
</clipPath>
</defs>
</svg>
