<svg width="492" height="800" viewBox="0 0 492 800" fill="none" xmlns="http://www.w3.org/2000/svg">
<path d="M450.364 416.765L443.065 419.14L404.196 422.569L393.028 440.157L385.026 437.607L353.456 409.554L348.883 394.957L342.639 379.303L323.029 361.716L299.901 357.231L299.374 367.784L322.062 389.944L333.142 402.959L320.655 409.554L310.542 406.564L295.328 400.145V387.921L275.982 379.655L269.387 408.587L249.249 413.072L251.271 429.253L277.653 434.265L282.226 408.499L303.858 411.753L313.883 417.645H330.064L340.881 439.453L370.252 469.177L368.054 480.784L344.398 477.795L303.595 498.372L274.223 533.548L270.442 549.201H259.801L240.191 540.407L221.108 549.201L225.857 569.338L234.123 559.753H248.809L247.754 577.341L259.889 580.858L272.289 594.841L291.635 588.949L314.235 592.466L340.617 599.501L353.632 601.084L375.792 626.235L418.618 651.385L390.918 704.148L361.722 717.691L350.642 747.941L308.343 776.17L303.858 792.438C342.288 783.05 377.889 764.54 407.648 738.477C437.408 712.413 460.449 679.563 474.822 642.707C489.196 605.851 494.477 566.075 490.219 526.746C485.962 487.416 472.291 449.692 450.364 416.765Z" fill="white"/>
<path d="M274.223 682.426L256.635 649.185L272.728 615.329L256.283 610.405L237.816 591.85L196.837 583.056L183.294 553.772V570.656H177.315L142.139 522.818V483.421L116.285 441.387L75.218 448.686H47.4295L33.4473 439.892L51.0349 425.822L33.4473 429.867C11.672 467.261 0.135917 509.734 0.0011937 553.006C-0.13353 596.278 11.1378 638.821 32.6799 676.351C54.2219 713.88 85.2737 745.069 122.707 766.777C160.141 788.484 202.634 799.943 245.906 800C256.23 799.892 266.538 799.158 276.773 797.801L274.223 767.99C274.223 767.99 285.567 724.021 285.567 722.262C285.567 720.503 274.223 682.426 274.223 682.426Z" fill="white"/>
<path d="M91.2229 386.69L135.192 380.534L155.33 369.542L178.018 376.049L214.249 374.027L226.736 354.504L244.763 357.494L288.733 353.361L300.868 339.995L318.456 328.651L342.551 332.256L351.345 330.937C301.911 307.504 246.066 301.258 192.676 313.191C139.287 325.125 91.4156 354.553 56.6631 396.803L91.2229 386.69ZM256.283 331.992L281.082 318.186L297.263 327.507L273.871 345.095L251.535 347.381L241.51 340.874L256.283 331.992ZM181.799 333.927L193.144 338.675L207.477 333.927L215.392 347.645L181.799 356.439L165.707 347.118C165.707 347.118 181.448 337.005 181.799 333.927Z" fill="white"/>
<path fill-rule="evenodd" clip-rule="evenodd" d="M372.589 172.357L380.405 172.176L386.912 171.995C379.276 148.635 381.851 127.173 400.106 108.918C403.178 118.949 410.137 127.218 421.975 133.318C427.623 137.52 433.09 142.581 438.377 148.409C439.326 144.523 435.756 139.869 431.418 135.035C435.44 137.023 439.1 139.779 441.766 145.111C444.838 151.301 444.793 156.542 443.754 163.23C443.257 166.347 442.534 169.239 441.449 171.95H452.248C463.635 147.506 456.405 111.268 433.09 95.9505C425.906 91.2513 420.8 91.432 412.396 91.432C402.772 91.432 397.847 91.7032 389.623 97.1704C377.514 105.213 370.058 119.085 366.895 138.378C366.308 148.003 365.856 164.63 372.589 172.357ZM0 258.975C0.948867 232.587 32.5778 231.548 57.2935 216.14L73.8309 258.975H0ZM107.222 244.471H110.475C113.412 244.471 115.807 242.076 115.807 239.139V230.509C115.807 227.572 113.412 225.177 110.475 225.177H91.1816C88.2447 225.177 85.8499 227.572 85.8499 230.509V239.139C85.8499 242.076 88.2447 244.471 91.1816 244.471H94.4801L91.6335 258.975H109.978L107.222 244.471ZM73.4694 197.524C74.102 192.509 59.2816 176.017 56.5706 166.89C50.787 157.672 48.7085 148.138 55.0343 138.378C57.5646 134.493 56.4802 124.055 56.4802 118.723C56.4802 65.8126 149.243 65.7674 149.243 118.723C149.243 125.411 147.707 134.131 151.322 139.418C157.376 148.229 154.259 158.756 149.108 166.935C145.854 176.559 130.356 192.102 131.396 197.57C132.344 224.68 73.2887 223.776 73.4694 197.524ZM226.056 187.132L249.281 255.315L260.984 214.83L255.245 208.595C252.625 204.799 252.082 201.546 253.528 198.699C256.646 192.599 263.017 193.684 268.981 193.684C275.262 193.684 283.034 192.509 284.976 200.371C285.609 203.037 284.796 205.748 282.988 208.595L277.25 214.83L288.953 255.315L309.963 187.132C337.3 211.757 392.379 197.344 399.021 258.93H129.633C136.637 194.09 198.494 211.983 226.056 187.132ZM207.124 96.8541C207.26 100.695 209.248 105.71 213.179 111.539L213.269 111.629L226.237 132.233C231.433 140.502 236.81 148.861 243.588 155.006C249.959 160.88 257.821 164.856 268.078 164.856C279.238 164.901 287.326 160.745 293.968 154.554C300.881 148.093 306.394 139.147 311.816 130.245L326.41 106.252C329.393 99.4748 330.296 95.3631 329.302 93.375C328.76 92.2454 326.727 91.8387 323.473 91.9743C321.214 92.6068 318.594 92.6068 315.476 91.7483L321.395 69.1111C275.669 73.8102 249.959 31.0208 217.381 63.5534L221.628 90.3928C216.342 91.4772 206.763 88.0432 207.124 96.8541ZM330.206 84.2478C333.278 85.1966 335.492 86.9136 336.848 89.6699C339.062 94.0527 338.158 100.604 334.046 109.958C333.956 110.138 333.866 110.274 333.821 110.455L319.045 134.764C313.307 144.162 307.523 153.605 299.752 160.88C291.709 168.471 281.678 173.532 268.032 173.441C255.29 173.396 245.666 168.561 237.804 161.332C230.213 154.419 224.475 145.517 219.008 136.842L206.04 116.238C201.25 109.054 198.765 102.502 198.584 97.0801C198.494 94.4594 198.946 92.155 199.94 90.0313C200.979 87.8625 202.515 86.0099 204.639 84.5641C205.678 83.9315 206.853 83.2989 208.073 82.8471C207.26 71.7318 206.989 57.9506 207.531 46.4286C207.802 43.6272 208.344 40.8258 209.112 37.9792C212.411 26.1409 220.77 16.6523 231.027 10.0554C234.641 7.79616 238.618 5.80805 242.82 4.31698C267.671 -4.62949 300.655 0.295585 318.322 19.4085C325.552 27.1802 330.07 37.5273 331.019 51.2181L330.206 84.2478ZM402.32 216.773L408.149 196.485L405.302 193.368C403.992 191.515 403.766 189.843 404.443 188.442C405.98 185.37 409.188 185.957 412.17 185.957C415.288 185.957 419.173 185.325 420.167 189.301C420.484 190.611 420.077 191.967 419.219 193.413L416.327 196.576L422.156 216.863L412.215 224.725L402.32 216.773ZM454.553 209.724C450.125 200.868 444.522 193.322 437.97 186.274C450.26 191.018 462.867 195.717 472.129 201.591C478.048 205.296 481.121 208.098 483.471 212.571C488.576 222.15 489.119 230.69 489.841 241.082L491.649 258.975H419.806C417.863 250.706 416.779 243.793 412.712 234.621C425.138 222.376 438.377 212.435 454.553 209.724ZM366.398 194.271C373.266 191.244 380.36 188.668 386.55 186.274C383.026 190.114 379.773 194.045 376.836 198.247C373.537 196.892 370.058 195.536 366.398 194.271Z" fill="white"/>
</svg>
