<svg width="1080" height="1080" viewBox="0 0 1080 1080" fill="none" xmlns="http://www.w3.org/2000/svg">
<g clip-path="url(#clip0_241_513)">
<rect width="1080" height="1080" fill="white"/>
<line y1="26.5" x2="1080" y2="26.5" stroke="#C4C4C4"/>
<line y1="53.5" x2="1080" y2="53.5" stroke="#C4C4C4"/>
<line y1="80.5" x2="1080" y2="80.5" stroke="#C4C4C4"/>
<line y1="107.5" x2="1080" y2="107.5" stroke="#C4C4C4"/>
<line y1="134.5" x2="1080" y2="134.5" stroke="#C4C4C4"/>
<line y1="161.5" x2="1080" y2="161.5" stroke="#C4C4C4"/>
<line y1="188.5" x2="1080" y2="188.5" stroke="#C4C4C4"/>
<line y1="215.5" x2="1080" y2="215.5" stroke="#C4C4C4"/>
<line y1="242.5" x2="1080" y2="242.5" stroke="#C4C4C4"/>
<line y1="269.5" x2="1080" y2="269.5" stroke="#C4C4C4"/>
<line y1="296.5" x2="1080" y2="296.5" stroke="#C4C4C4"/>
<line y1="323.5" x2="1080" y2="323.5" stroke="#C4C4C4"/>
<line y1="350.5" x2="1080" y2="350.5" stroke="#C4C4C4"/>
<line y1="377.5" x2="1080" y2="377.5" stroke="#C4C4C4"/>
<line y1="404.5" x2="1080" y2="404.5" stroke="#C4C4C4"/>
<line y1="431.5" x2="1080" y2="431.5" stroke="#C4C4C4"/>
<line y1="458.5" x2="1080" y2="458.5" stroke="#C4C4C4"/>
<line y1="485.5" x2="1080" y2="485.5" stroke="#C4C4C4"/>
<line y1="512.5" x2="1080" y2="512.5" stroke="#C4C4C4"/>
<line y1="539.5" x2="1080" y2="539.5" stroke="#C4C4C4"/>
<line y1="566.5" x2="1080" y2="566.5" stroke="#C4C4C4"/>
<line y1="593.5" x2="1080" y2="593.5" stroke="#C4C4C4"/>
<line y1="620.5" x2="1080" y2="620.5" stroke="#C4C4C4"/>
<line y1="647.5" x2="1080" y2="647.5" stroke="#C4C4C4"/>
<line y1="674.5" x2="1080" y2="674.5" stroke="#C4C4C4"/>
<line y1="701.5" x2="1080" y2="701.5" stroke="#C4C4C4"/>
<line y1="728.5" x2="1080" y2="728.5" stroke="#C4C4C4"/>
<line y1="755.5" x2="1080" y2="755.5" stroke="#C4C4C4"/>
<line y1="782.5" x2="1080" y2="782.5" stroke="#C4C4C4"/>
<line y1="809.5" x2="1080" y2="809.5" stroke="#C4C4C4"/>
<line y1="836.5" x2="1080" y2="836.5" stroke="#C4C4C4"/>
<line y1="863.5" x2="1080" y2="863.5" stroke="#C4C4C4"/>
<line y1="890.5" x2="1080" y2="890.5" stroke="#C4C4C4"/>
<line y1="917.5" x2="1080" y2="917.5" stroke="#C4C4C4"/>
<line y1="944.5" x2="1080" y2="944.5" stroke="#C4C4C4"/>
<line y1="971.5" x2="1080" y2="971.5" stroke="#C4C4C4"/>
<line y1="998.5" x2="1080" y2="998.5" stroke="#C4C4C4"/>
<line y1="1025.5" x2="1080" y2="1025.5" stroke="#C4C4C4"/>
<line y1="1052.5" x2="1080" y2="1052.5" stroke="#C4C4C4"/>
<line x1="26.5" y1="1080" x2="26.5" stroke="#C4C4C4"/>
<line x1="53.5" y1="1080" x2="53.5" stroke="#C4C4C4"/>
<line x1="80.5" y1="1080" x2="80.5" stroke="#C4C4C4"/>
<line x1="107.5" y1="1080" x2="107.5" stroke="#C4C4C4"/>
<line x1="134.5" y1="1080" x2="134.5" stroke="#C4C4C4"/>
<line x1="161.5" y1="1080" x2="161.5" stroke="#C4C4C4"/>
<line x1="188.5" y1="1080" x2="188.5" stroke="#C4C4C4"/>
<line x1="215.5" y1="1080" x2="215.5" stroke="#C4C4C4"/>
<line x1="242.5" y1="1080" x2="242.5" stroke="#C4C4C4"/>
<line x1="269.5" y1="1080" x2="269.5" stroke="#C4C4C4"/>
<line x1="296.5" y1="1080" x2="296.5" stroke="#C4C4C4"/>
<line x1="323.5" y1="1080" x2="323.5" stroke="#C4C4C4"/>
<line x1="350.5" y1="1080" x2="350.5" stroke="#C4C4C4"/>
<line x1="377.5" y1="1080" x2="377.5" stroke="#C4C4C4"/>
<line x1="404.5" y1="1080" x2="404.5" stroke="#C4C4C4"/>
<line x1="431.5" y1="1080" x2="431.5" stroke="#C4C4C4"/>
<line x1="458.5" y1="1080" x2="458.5" stroke="#C4C4C4"/>
<line x1="485.5" y1="1080" x2="485.5" stroke="#C4C4C4"/>
<line x1="512.5" y1="1080" x2="512.5" stroke="#C4C4C4"/>
<line x1="539.5" y1="1080" x2="539.5" stroke="#C4C4C4"/>
<line x1="566.5" y1="1080" x2="566.5" stroke="#C4C4C4"/>
<line x1="593.5" y1="1080" x2="593.5" stroke="#C4C4C4"/>
<line x1="620.5" y1="1080" x2="620.5" stroke="#C4C4C4"/>
<line x1="647.5" y1="1080" x2="647.5" stroke="#C4C4C4"/>
<line x1="674.5" y1="1080" x2="674.5" stroke="#C4C4C4"/>
<line x1="701.5" y1="1080" x2="701.5" stroke="#C4C4C4"/>
<line x1="728.5" y1="1080" x2="728.5" stroke="#C4C4C4"/>
<line x1="755.5" y1="1080" x2="755.5" stroke="#C4C4C4"/>
<line x1="782.5" y1="1080" x2="782.5" stroke="#C4C4C4"/>
<line x1="809.5" y1="1080" x2="809.5" stroke="#C4C4C4"/>
<line x1="836.5" y1="1080" x2="836.5" stroke="#C4C4C4"/>
<line x1="863.5" y1="1080" x2="863.5" stroke="#C4C4C4"/>
<line x1="890.5" y1="1080" x2="890.5" stroke="#C4C4C4"/>
<line x1="917.5" y1="1080" x2="917.5" stroke="#C4C4C4"/>
<line x1="944.5" y1="1080" x2="944.5" stroke="#C4C4C4"/>
<line x1="971.5" y1="1080" x2="971.5" stroke="#C4C4C4"/>
<line x1="998.5" y1="1080" x2="998.5" stroke="#C4C4C4"/>
<line x1="1025.5" y1="1080" x2="1025.5" stroke="#C4C4C4"/>
<line x1="1052.5" y1="1080" x2="1052.5" stroke="#C4C4C4"/>
<rect width="1080" height="1080" fill="url(#paint0_radial_241_513)"/>
<path d="M268.55 170.6C265.057 170.6 261.99 169.947 259.35 168.64C256.737 167.333 254.697 165.52 253.23 163.2C251.764 160.853 251.03 158.12 251.03 155C251.03 151.88 251.764 149.16 253.23 146.84C254.697 144.493 256.737 142.667 259.35 141.36C261.99 140.053 265.057 139.4 268.55 139.4C272.044 139.4 275.097 140.053 277.71 141.36C280.35 142.667 282.404 144.493 283.87 146.84C285.337 149.16 286.07 151.88 286.07 155C286.07 158.12 285.337 160.853 283.87 163.2C282.404 165.52 280.35 167.333 277.71 168.64C275.097 169.947 272.044 170.6 268.55 170.6ZM268.55 164.56C270.737 164.56 272.617 164.173 274.19 163.4C275.79 162.627 277.017 161.52 277.87 160.08C278.75 158.64 279.19 156.947 279.19 155C279.19 153.053 278.75 151.36 277.87 149.92C277.017 148.48 275.79 147.373 274.19 146.6C272.617 145.827 270.737 145.44 268.55 145.44C266.39 145.44 264.51 145.827 262.91 146.6C261.31 147.373 260.07 148.48 259.19 149.92C258.337 151.36 257.91 153.053 257.91 155C257.91 156.947 258.337 158.64 259.19 160.08C260.07 161.52 261.31 162.627 262.91 163.4C264.51 164.173 266.39 164.56 268.55 164.56ZM297.953 156.84C297.953 158.44 298.259 159.813 298.873 160.96C299.486 162.107 300.379 163 301.553 163.64C302.753 164.253 304.193 164.56 305.873 164.56C307.579 164.56 309.019 164.253 310.193 163.64C311.366 163 312.259 162.107 312.873 160.96C313.486 159.813 313.793 158.44 313.793 156.84V140H320.593V157.16C320.593 159.853 319.979 162.213 318.753 164.24C317.526 166.24 315.806 167.8 313.593 168.92C311.379 170.04 308.806 170.6 305.873 170.6C302.939 170.6 300.366 170.04 298.153 168.92C295.966 167.8 294.246 166.24 292.993 164.24C291.766 162.213 291.153 159.853 291.153 157.16V140H297.953V156.84ZM336.717 143.04H343.477V170H336.717V143.04ZM324.757 140H355.397V146H324.757V140ZM357.529 160.2H364.409C364.569 161.213 365.009 162.107 365.729 162.88C366.476 163.627 367.463 164.213 368.689 164.64C369.943 165.04 371.383 165.24 373.009 165.24C375.383 165.24 377.249 164.907 378.609 164.24C379.996 163.547 380.689 162.587 380.689 161.36C380.689 160.4 380.289 159.667 379.489 159.16C378.716 158.627 377.263 158.24 375.129 158L369.089 157.32C365.196 156.893 362.369 155.987 360.609 154.6C358.876 153.187 358.009 151.227 358.009 148.72C358.009 146.747 358.583 145.067 359.729 143.68C360.903 142.293 362.543 141.24 364.649 140.52C366.756 139.773 369.236 139.4 372.089 139.4C374.863 139.4 377.329 139.813 379.489 140.64C381.649 141.44 383.369 142.573 384.649 144.04C385.929 145.48 386.623 147.173 386.729 149.12H379.849C379.716 148.24 379.316 147.48 378.649 146.84C378.009 146.173 377.116 145.667 375.969 145.32C374.823 144.947 373.476 144.76 371.929 144.76C369.769 144.76 368.049 145.08 366.769 145.72C365.489 146.36 364.849 147.267 364.849 148.44C364.849 149.347 365.223 150.053 365.969 150.56C366.743 151.04 368.089 151.4 370.009 151.64L376.289 152.4C379.063 152.693 381.263 153.173 382.889 153.84C384.543 154.48 385.716 155.347 386.409 156.44C387.129 157.533 387.489 158.92 387.489 160.6C387.489 162.6 386.876 164.36 385.649 165.88C384.449 167.373 382.756 168.533 380.569 169.36C378.383 170.187 375.823 170.6 372.889 170.6C369.903 170.6 367.276 170.173 365.009 169.32C362.743 168.44 360.956 167.227 359.649 165.68C358.343 164.107 357.636 162.28 357.529 160.2ZM408.899 170.6C405.406 170.6 402.339 169.947 399.699 168.64C397.086 167.333 395.046 165.52 393.579 163.2C392.112 160.853 391.379 158.12 391.379 155C391.379 151.88 392.112 149.16 393.579 146.84C395.046 144.493 397.086 142.667 399.699 141.36C402.339 140.053 405.406 139.4 408.899 139.4C412.392 139.4 415.446 140.053 418.059 141.36C420.699 142.667 422.752 144.493 424.219 146.84C425.686 149.16 426.419 151.88 426.419 155C426.419 158.12 425.686 160.853 424.219 163.2C422.752 165.52 420.699 167.333 418.059 168.64C415.446 169.947 412.392 170.6 408.899 170.6ZM408.899 164.56C411.086 164.56 412.966 164.173 414.539 163.4C416.139 162.627 417.366 161.52 418.219 160.08C419.099 158.64 419.539 156.947 419.539 155C419.539 153.053 419.099 151.36 418.219 149.92C417.366 148.48 416.139 147.373 414.539 146.6C412.966 145.827 411.086 145.44 408.899 145.44C406.739 145.44 404.859 145.827 403.259 146.6C401.659 147.373 400.419 148.48 399.539 149.92C398.686 151.36 398.259 153.053 398.259 155C398.259 156.947 398.686 158.64 399.539 160.08C400.419 161.52 401.659 162.627 403.259 163.4C404.859 164.173 406.739 164.56 408.899 164.56ZM438.301 156.84C438.301 158.44 438.608 159.813 439.221 160.96C439.834 162.107 440.728 163 441.901 163.64C443.101 164.253 444.541 164.56 446.221 164.56C447.928 164.56 449.368 164.253 450.541 163.64C451.714 163 452.608 162.107 453.221 160.96C453.834 159.813 454.141 158.44 454.141 156.84V140H460.941V157.16C460.941 159.853 460.328 162.213 459.101 164.24C457.874 166.24 456.154 167.8 453.941 168.92C451.728 170.04 449.154 170.6 446.221 170.6C443.288 170.6 440.714 170.04 438.501 168.92C436.314 167.8 434.594 166.24 433.341 164.24C432.114 162.213 431.501 159.853 431.501 157.16V140H438.301V156.84ZM472.226 153.32H483.786C485.306 153.32 486.506 152.973 487.386 152.28C488.292 151.56 488.746 150.573 488.746 149.32C488.746 148.067 488.292 147.093 487.386 146.4C486.506 145.707 485.306 145.36 483.786 145.36H471.226L474.306 141.88V170H467.506V140H484.586C486.772 140 488.692 140.4 490.346 141.2C491.999 141.973 493.292 143.053 494.226 144.44C495.159 145.827 495.626 147.453 495.626 149.32C495.626 151.16 495.159 152.773 494.226 154.16C493.292 155.547 491.999 156.64 490.346 157.44C488.692 158.213 486.772 158.6 484.586 158.6H472.226V153.32ZM477.426 155.96H485.186L496.506 170H488.546L477.426 155.96ZM533.715 157.8C533.422 160.333 532.529 162.573 531.035 164.52C529.569 166.44 527.622 167.933 525.195 169C522.795 170.067 520.049 170.6 516.955 170.6C513.542 170.6 510.542 169.947 507.955 168.64C505.395 167.333 503.395 165.52 501.955 163.2C500.515 160.853 499.795 158.12 499.795 155C499.795 151.88 500.515 149.16 501.955 146.84C503.395 144.493 505.395 142.667 507.955 141.36C510.542 140.053 513.542 139.4 516.955 139.4C520.049 139.4 522.795 139.933 525.195 141C527.622 142.067 529.569 143.56 531.035 145.48C532.529 147.4 533.422 149.64 533.715 152.2H526.875C526.609 150.787 526.035 149.573 525.155 148.56C524.275 147.52 523.142 146.72 521.755 146.16C520.369 145.6 518.755 145.32 516.915 145.32C514.809 145.32 512.982 145.72 511.435 146.52C509.915 147.293 508.742 148.413 507.915 149.88C507.089 151.32 506.675 153.027 506.675 155C506.675 156.973 507.089 158.693 507.915 160.16C508.742 161.6 509.915 162.72 511.435 163.52C512.982 164.293 514.809 164.68 516.915 164.68C518.755 164.68 520.369 164.413 521.755 163.88C523.142 163.32 524.275 162.533 525.155 161.52C526.035 160.48 526.609 159.24 526.875 157.8H533.715ZM563.671 152.4V157.6H542.191V152.4H563.671ZM546.751 155L544.751 167.72L541.791 164.36H564.911V170H537.911L540.231 155L537.911 140H564.711V145.64H541.791L544.751 142.28L546.751 155ZM580.317 160.2H587.197C587.357 161.213 587.797 162.107 588.517 162.88C589.263 163.627 590.25 164.213 591.477 164.64C592.73 165.04 594.17 165.24 595.797 165.24C598.17 165.24 600.037 164.907 601.397 164.24C602.783 163.547 603.477 162.587 603.477 161.36C603.477 160.4 603.077 159.667 602.277 159.16C601.503 158.627 600.05 158.24 597.917 158L591.877 157.32C587.983 156.893 585.157 155.987 583.397 154.6C581.663 153.187 580.797 151.227 580.797 148.72C580.797 146.747 581.37 145.067 582.517 143.68C583.69 142.293 585.33 141.24 587.437 140.52C589.543 139.773 592.023 139.4 594.877 139.4C597.65 139.4 600.117 139.813 602.277 140.64C604.437 141.44 606.157 142.573 607.437 144.04C608.717 145.48 609.41 147.173 609.517 149.12H602.637C602.503 148.24 602.103 147.48 601.437 146.84C600.797 146.173 599.903 145.667 598.757 145.32C597.61 144.947 596.263 144.76 594.717 144.76C592.557 144.76 590.837 145.08 589.557 145.72C588.277 146.36 587.637 147.267 587.637 148.44C587.637 149.347 588.01 150.053 588.757 150.56C589.53 151.04 590.877 151.4 592.797 151.64L599.077 152.4C601.85 152.693 604.05 153.173 605.677 153.84C607.33 154.48 608.503 155.347 609.197 156.44C609.917 157.533 610.277 158.92 610.277 160.6C610.277 162.6 609.663 164.36 608.437 165.88C607.237 167.373 605.543 168.533 603.357 169.36C601.17 170.187 598.61 170.6 595.677 170.6C592.69 170.6 590.063 170.173 587.797 169.32C585.53 168.44 583.743 167.227 582.437 165.68C581.13 164.107 580.423 162.28 580.317 160.2ZM640.407 152.4V157.6H618.927V152.4H640.407ZM623.487 155L621.487 167.72L618.527 164.36H641.647V170H614.647L616.967 155L614.647 140H641.447V145.64H618.527L621.487 142.28L623.487 155ZM652.338 153.32H663.898C665.418 153.32 666.618 152.973 667.498 152.28C668.405 151.56 668.858 150.573 668.858 149.32C668.858 148.067 668.405 147.093 667.498 146.4C666.618 145.707 665.418 145.36 663.898 145.36H651.338L654.418 141.88V170H647.618V140H664.698C666.885 140 668.805 140.4 670.458 141.2C672.112 141.973 673.405 143.053 674.338 144.44C675.272 145.827 675.738 147.453 675.738 149.32C675.738 151.16 675.272 152.773 674.338 154.16C673.405 155.547 672.112 156.64 670.458 157.44C668.805 158.213 666.885 158.6 664.698 158.6H652.338V153.32ZM657.538 155.96H665.298L676.618 170H668.658L657.538 155.96ZM696.857 167H693.857L706.097 140H713.297L699.057 170H691.417L677.217 140H684.497L696.857 167ZM717.343 140H724.143V170H717.343V140ZM763.553 157.8C763.26 160.333 762.366 162.573 760.873 164.52C759.406 166.44 757.46 167.933 755.033 169C752.633 170.067 749.886 170.6 746.793 170.6C743.38 170.6 740.38 169.947 737.793 168.64C735.233 167.333 733.233 165.52 731.793 163.2C730.353 160.853 729.633 158.12 729.633 155C729.633 151.88 730.353 149.16 731.793 146.84C733.233 144.493 735.233 142.667 737.793 141.36C740.38 140.053 743.38 139.4 746.793 139.4C749.886 139.4 752.633 139.933 755.033 141C757.46 142.067 759.406 143.56 760.873 145.48C762.366 147.4 763.26 149.64 763.553 152.2H756.713C756.446 150.787 755.873 149.573 754.993 148.56C754.113 147.52 752.98 146.72 751.593 146.16C750.206 145.6 748.593 145.32 746.753 145.32C744.646 145.32 742.82 145.72 741.273 146.52C739.753 147.293 738.58 148.413 737.753 149.88C736.926 151.32 736.513 153.027 736.513 155C736.513 156.973 736.926 158.693 737.753 160.16C738.58 161.6 739.753 162.72 741.273 163.52C742.82 164.293 744.646 164.68 746.753 164.68C748.593 164.68 750.206 164.413 751.593 163.88C752.98 163.32 754.113 162.533 754.993 161.52C755.873 160.48 756.446 159.24 756.713 157.8H763.553ZM793.509 152.4V157.6H772.029V152.4H793.509ZM776.589 155L774.589 167.72L771.629 164.36H794.749V170H767.749L770.069 155L767.749 140H794.549V145.64H771.629L774.589 142.28L776.589 155ZM799.12 160.2H806C806.16 161.213 806.6 162.107 807.32 162.88C808.066 163.627 809.053 164.213 810.28 164.64C811.533 165.04 812.973 165.24 814.6 165.24C816.973 165.24 818.84 164.907 820.2 164.24C821.586 163.547 822.28 162.587 822.28 161.36C822.28 160.4 821.88 159.667 821.08 159.16C820.306 158.627 818.853 158.24 816.72 158L810.68 157.32C806.786 156.893 803.96 155.987 802.2 154.6C800.466 153.187 799.6 151.227 799.6 148.72C799.6 146.747 800.173 145.067 801.32 143.68C802.493 142.293 804.133 141.24 806.24 140.52C808.346 139.773 810.826 139.4 813.68 139.4C816.453 139.4 818.92 139.813 821.08 140.64C823.24 141.44 824.96 142.573 826.24 144.04C827.52 145.48 828.213 147.173 828.32 149.12H821.44C821.306 148.24 820.906 147.48 820.24 146.84C819.6 146.173 818.706 145.667 817.56 145.32C816.413 144.947 815.066 144.76 813.52 144.76C811.36 144.76 809.64 145.08 808.36 145.72C807.08 146.36 806.44 147.267 806.44 148.44C806.44 149.347 806.813 150.053 807.56 150.56C808.333 151.04 809.68 151.4 811.6 151.64L817.88 152.4C820.653 152.693 822.853 153.173 824.48 153.84C826.133 154.48 827.307 155.347 828 156.44C828.72 157.533 829.08 158.92 829.08 160.6C829.08 162.6 828.466 164.36 827.24 165.88C826.04 167.373 824.347 168.533 822.16 169.36C819.973 170.187 817.413 170.6 814.48 170.6C811.493 170.6 808.866 170.173 806.6 169.32C804.333 168.44 802.546 167.227 801.24 165.68C799.933 164.107 799.226 162.28 799.12 160.2Z" fill="#0E5F66"/>
<path d="M238.273 575.807C238.109 580.223 238 584.694 238 589.165C238 609.992 240.017 630.111 243.997 649.848C247.759 669.203 253.593 687.85 261.39 706.17C261.39 706.388 261.608 706.715 261.717 706.933C269.459 725.198 278.892 742.263 289.633 758.347C300.319 774.486 312.641 789.316 326.217 802.892C339.793 816.632 354.678 828.79 370.762 839.422C386.9 850.272 404.075 859.541 422.176 867.338C440.66 875.298 459.688 881.077 479.207 885.057C498.671 888.983 518.954 891 539.781 891C560.609 891 580.727 888.983 600.464 885.003C619.82 881.241 638.467 875.407 656.786 867.61C657.004 867.61 657.331 867.392 657.549 867.283C675.651 859.541 692.88 850.109 708.964 839.368C725.103 828.681 739.933 816.359 753.509 802.838C767.248 789.262 779.407 774.377 790.093 758.293C800.943 742.154 810.157 724.98 818.009 706.878C825.969 688.395 831.748 669.367 835.728 649.848C839.708 630.274 841.726 609.992 841.726 589.165C841.726 584.694 841.617 580.277 841.453 575.861C640.975 575.807 439.242 575.807 238.273 575.807ZM264.77 602.359H348.244C351.352 643.632 365.092 685.069 389.518 726.943H301.191C295.576 717.183 290.505 707.042 285.98 696.356C285.762 696.137 285.762 696.028 285.653 695.81C278.783 679.345 273.33 662.279 269.896 644.559C267.115 630.82 265.37 616.862 264.77 602.359ZM318.366 753.386H406.529C431.663 789.589 464.867 826.01 506.141 862.54C498.726 861.667 491.474 860.522 484.441 859.105C466.503 855.452 449.329 850.218 432.645 842.966C415.797 835.769 400.095 827.209 385.374 817.395C370.707 807.636 357.295 796.568 344.809 784.082C335.213 774.486 326.326 764.345 318.366 753.495V753.386ZM573.53 862.54C615.022 825.955 648.117 789.589 673.143 753.386H761.305C753.345 764.236 744.458 774.432 734.862 783.973C722.376 796.459 708.964 807.527 694.297 817.286C679.794 827.046 664.037 835.551 647.027 842.857C646.808 843.075 646.699 843.075 646.481 843.184C630.016 850.054 612.95 855.506 595.23 858.941C587.979 860.413 580.727 861.504 573.53 862.376V862.54ZM778.534 726.943H690.154C714.634 685.124 728.374 643.687 731.427 602.359H814.901C814.192 616.862 812.556 630.82 809.83 644.559C806.177 662.497 800.943 679.672 793.692 696.356C789.166 706.987 784.096 717.183 778.534 726.943ZM553.085 845.365V753.386H640.702C617.694 783.809 588.524 814.396 553.085 845.365ZM553.085 726.943V602.359H704.984C701.549 643.305 686.337 684.742 659.185 726.943H553.085ZM526.641 602.359V726.943H420.541C393.389 684.742 378.177 643.251 374.742 602.359H526.641ZM526.641 753.386V845.365C491.147 814.396 461.978 783.809 438.969 753.386H526.641Z" fill="#38AD7E"/>
<path fill-rule="evenodd" clip-rule="evenodd" d="M692.826 428.978L702.258 428.76L710.109 428.542C700.895 400.354 704.003 374.455 726.03 352.428C729.737 364.532 738.134 374.51 752.418 381.87C759.234 386.941 765.831 393.048 772.21 400.081C773.355 395.392 769.048 389.776 763.814 383.942C768.666 386.341 773.082 389.667 776.299 396.101C780.007 403.57 779.952 409.895 778.698 417.964C778.098 421.726 777.226 425.216 775.918 428.487H788.948C802.688 398.99 793.964 355.264 765.831 336.78C757.162 331.11 751.001 331.328 740.86 331.328C729.246 331.328 723.304 331.655 713.38 338.253C698.768 347.958 689.772 364.696 685.956 387.977C685.247 399.59 684.702 419.654 692.826 428.978ZM243.234 533.497C244.379 501.656 282.545 500.402 312.369 481.81L332.324 533.497H243.234ZM372.616 515.995H376.541C380.085 515.995 382.975 513.106 382.975 509.562V499.148C382.975 495.604 380.085 492.714 376.541 492.714H353.26C349.716 492.714 346.827 495.604 346.827 499.148V509.562C346.827 513.106 349.716 515.995 353.26 515.995H357.241L353.806 533.497H375.942L372.616 515.995ZM331.888 459.347C332.651 453.295 314.768 433.394 311.496 422.381C304.517 411.258 302.009 399.754 309.643 387.977C312.696 383.288 311.387 370.693 311.387 364.26C311.387 300.414 423.322 300.36 423.322 364.26C423.322 372.329 421.468 382.852 425.83 389.231C433.136 399.863 429.374 412.566 423.158 422.435C419.232 434.048 400.531 452.804 401.785 459.401C402.93 492.115 331.67 491.024 331.888 459.347ZM516.01 446.807L544.034 529.081L558.155 480.229L551.231 472.705C548.069 468.125 547.414 464.199 549.159 460.764C552.921 453.404 560.609 454.712 567.806 454.712C575.384 454.712 584.762 453.295 587.107 462.782C587.87 465.998 586.889 469.27 584.708 472.705L577.783 480.229L591.905 529.081L617.258 446.807C650.244 476.521 716.706 459.129 724.721 533.443H399.659C408.11 455.203 482.751 476.794 516.01 446.807ZM493.165 337.871C493.328 342.505 495.727 348.557 500.471 355.591L500.58 355.7L516.228 380.562C522.498 390.539 528.986 400.626 537.164 408.041C544.852 415.129 554.339 419.927 566.715 419.927C580.182 419.982 589.942 414.965 597.957 407.496C606.299 399.699 612.95 388.904 619.493 378.163L637.104 349.212C640.702 341.033 641.793 336.072 640.593 333.673C639.939 332.31 637.485 331.819 633.56 331.983C630.834 332.746 627.671 332.746 623.909 331.71L631.052 304.394C575.875 310.065 544.852 258.432 505.541 297.688L510.666 330.074C504.287 331.383 492.729 327.239 493.165 337.871ZM641.684 322.659C645.391 323.804 648.063 325.876 649.698 329.202C652.37 334.491 651.28 342.396 646.318 353.682C646.209 353.9 646.1 354.064 646.045 354.282L628.217 383.615C621.292 394.956 614.313 406.351 604.936 415.129C595.231 424.289 583.127 430.395 566.661 430.286C551.286 430.232 539.672 424.398 530.185 415.674C521.026 407.332 514.101 396.591 507.504 386.123L491.856 361.261C486.077 352.592 483.078 344.686 482.86 338.144C482.751 334.981 483.296 332.201 484.496 329.638C485.75 327.021 487.603 324.786 490.166 323.041C491.42 322.278 492.838 321.514 494.31 320.969C493.328 307.556 493.001 290.927 493.655 277.024C493.983 273.644 494.637 270.263 495.564 266.828C499.544 252.543 509.631 241.094 522.007 233.133C526.369 230.407 531.167 228.008 536.237 226.209C566.225 215.414 606.026 221.357 627.344 244.42C636.068 253.797 641.52 266.283 642.665 282.803L641.684 322.659ZM728.701 482.573L735.735 458.093L732.3 454.331C730.719 452.095 730.446 450.078 731.264 448.388C733.118 444.68 736.989 445.389 740.587 445.389C744.349 445.389 749.038 444.626 750.238 449.424C750.619 451.005 750.128 452.64 749.093 454.385L745.603 458.202L752.637 482.682L740.642 492.169L728.701 482.573ZM791.729 474.068C786.386 463.381 779.625 454.276 771.719 445.771C786.549 451.495 801.761 457.166 812.938 464.254C820.081 468.725 823.788 472.105 826.623 477.503C832.784 489.061 833.439 499.366 834.311 511.906L836.492 533.497H749.801C747.457 523.519 746.148 515.178 741.241 504.11C756.235 489.334 772.21 477.339 791.729 474.068ZM685.356 455.421C693.643 451.768 702.203 448.66 709.673 445.771C705.42 450.405 701.495 455.148 697.951 460.219C693.971 458.583 689.772 456.948 685.356 455.421Z" fill="#0E5F66"/>
</g>
<defs>
<radialGradient id="paint0_radial_241_513" cx="0" cy="0" r="1" gradientUnits="userSpaceOnUse" gradientTransform="translate(540 540) rotate(90) scale(540)">
<stop offset="0.745" stop-color="white" stop-opacity="0"/>
<stop offset="1" stop-color="white"/>
</radialGradient>
<clipPath id="clip0_241_513">
<rect width="1080" height="1080" fill="white"/>
</clipPath>
</defs>
</svg>
