<svg width="1080" height="1080" viewBox="0 0 1080 1080" fill="none" xmlns="http://www.w3.org/2000/svg">
<g clip-path="url(#clip0_236_498)">
<rect width="1080" height="1080" fill="#EBF7F2"/>
<line y1="26.5" x2="1080" y2="26.5" stroke="#C4C4C4"/>
<line y1="53.5" x2="1080" y2="53.5" stroke="#C4C4C4"/>
<line y1="80.5" x2="1080" y2="80.5" stroke="#C4C4C4"/>
<line y1="107.5" x2="1080" y2="107.5" stroke="#C4C4C4"/>
<line y1="134.5" x2="1080" y2="134.5" stroke="#C4C4C4"/>
<line y1="161.5" x2="1080" y2="161.5" stroke="#C4C4C4"/>
<line y1="188.5" x2="1080" y2="188.5" stroke="#C4C4C4"/>
<line y1="215.5" x2="1080" y2="215.5" stroke="#C4C4C4"/>
<line y1="242.5" x2="1080" y2="242.5" stroke="#C4C4C4"/>
<line y1="269.5" x2="1080" y2="269.5" stroke="#C4C4C4"/>
<line y1="296.5" x2="1080" y2="296.5" stroke="#C4C4C4"/>
<line y1="323.5" x2="1080" y2="323.5" stroke="#C4C4C4"/>
<line y1="350.5" x2="1080" y2="350.5" stroke="#C4C4C4"/>
<line y1="377.5" x2="1080" y2="377.5" stroke="#C4C4C4"/>
<line y1="404.5" x2="1080" y2="404.5" stroke="#C4C4C4"/>
<line y1="431.5" x2="1080" y2="431.5" stroke="#C4C4C4"/>
<line y1="458.5" x2="1080" y2="458.5" stroke="#C4C4C4"/>
<line y1="485.5" x2="1080" y2="485.5" stroke="#C4C4C4"/>
<line y1="512.5" x2="1080" y2="512.5" stroke="#C4C4C4"/>
<line y1="539.5" x2="1080" y2="539.5" stroke="#C4C4C4"/>
<line y1="566.5" x2="1080" y2="566.5" stroke="#C4C4C4"/>
<line y1="593.5" x2="1080" y2="593.5" stroke="#C4C4C4"/>
<line y1="620.5" x2="1080" y2="620.5" stroke="#C4C4C4"/>
<line y1="647.5" x2="1080" y2="647.5" stroke="#C4C4C4"/>
<line y1="674.5" x2="1080" y2="674.5" stroke="#C4C4C4"/>
<line y1="701.5" x2="1080" y2="701.5" stroke="#C4C4C4"/>
<line y1="728.5" x2="1080" y2="728.5" stroke="#C4C4C4"/>
<line y1="755.5" x2="1080" y2="755.5" stroke="#C4C4C4"/>
<line y1="782.5" x2="1080" y2="782.5" stroke="#C4C4C4"/>
<line y1="809.5" x2="1080" y2="809.5" stroke="#C4C4C4"/>
<line y1="836.5" x2="1080" y2="836.5" stroke="#C4C4C4"/>
<line y1="863.5" x2="1080" y2="863.5" stroke="#C4C4C4"/>
<line y1="890.5" x2="1080" y2="890.5" stroke="#C4C4C4"/>
<line y1="917.5" x2="1080" y2="917.5" stroke="#C4C4C4"/>
<line y1="944.5" x2="1080" y2="944.5" stroke="#C4C4C4"/>
<line y1="971.5" x2="1080" y2="971.5" stroke="#C4C4C4"/>
<line y1="998.5" x2="1080" y2="998.5" stroke="#C4C4C4"/>
<line y1="1025.5" x2="1080" y2="1025.5" stroke="#C4C4C4"/>
<line y1="1052.5" x2="1080" y2="1052.5" stroke="#C4C4C4"/>
<line x1="26.5" y1="1080" x2="26.5" stroke="#C4C4C4"/>
<line x1="53.5" y1="1080" x2="53.5" stroke="#C4C4C4"/>
<line x1="80.5" y1="1080" x2="80.5" stroke="#C4C4C4"/>
<line x1="107.5" y1="1080" x2="107.5" stroke="#C4C4C4"/>
<line x1="134.5" y1="1080" x2="134.5" stroke="#C4C4C4"/>
<line x1="161.5" y1="1080" x2="161.5" stroke="#C4C4C4"/>
<line x1="188.5" y1="1080" x2="188.5" stroke="#C4C4C4"/>
<line x1="215.5" y1="1080" x2="215.5" stroke="#C4C4C4"/>
<line x1="242.5" y1="1080" x2="242.5" stroke="#C4C4C4"/>
<line x1="269.5" y1="1080" x2="269.5" stroke="#C4C4C4"/>
<line x1="296.5" y1="1080" x2="296.5" stroke="#C4C4C4"/>
<line x1="323.5" y1="1080" x2="323.5" stroke="#C4C4C4"/>
<line x1="350.5" y1="1080" x2="350.5" stroke="#C4C4C4"/>
<line x1="377.5" y1="1080" x2="377.5" stroke="#C4C4C4"/>
<line x1="404.5" y1="1080" x2="404.5" stroke="#C4C4C4"/>
<line x1="431.5" y1="1080" x2="431.5" stroke="#C4C4C4"/>
<line x1="458.5" y1="1080" x2="458.5" stroke="#C4C4C4"/>
<line x1="485.5" y1="1080" x2="485.5" stroke="#C4C4C4"/>
<line x1="512.5" y1="1080" x2="512.5" stroke="#C4C4C4"/>
<line x1="539.5" y1="1080" x2="539.5" stroke="#C4C4C4"/>
<line x1="566.5" y1="1080" x2="566.5" stroke="#C4C4C4"/>
<line x1="593.5" y1="1080" x2="593.5" stroke="#C4C4C4"/>
<line x1="620.5" y1="1080" x2="620.5" stroke="#C4C4C4"/>
<line x1="647.5" y1="1080" x2="647.5" stroke="#C4C4C4"/>
<line x1="674.5" y1="1080" x2="674.5" stroke="#C4C4C4"/>
<line x1="701.5" y1="1080" x2="701.5" stroke="#C4C4C4"/>
<line x1="728.5" y1="1080" x2="728.5" stroke="#C4C4C4"/>
<line x1="755.5" y1="1080" x2="755.5" stroke="#C4C4C4"/>
<line x1="782.5" y1="1080" x2="782.5" stroke="#C4C4C4"/>
<line x1="809.5" y1="1080" x2="809.5" stroke="#C4C4C4"/>
<line x1="836.5" y1="1080" x2="836.5" stroke="#C4C4C4"/>
<line x1="863.5" y1="1080" x2="863.5" stroke="#C4C4C4"/>
<line x1="890.5" y1="1080" x2="890.5" stroke="#C4C4C4"/>
<line x1="917.5" y1="1080" x2="917.5" stroke="#C4C4C4"/>
<line x1="944.5" y1="1080" x2="944.5" stroke="#C4C4C4"/>
<line x1="971.5" y1="1080" x2="971.5" stroke="#C4C4C4"/>
<line x1="998.5" y1="1080" x2="998.5" stroke="#C4C4C4"/>
<line x1="1025.5" y1="1080" x2="1025.5" stroke="#C4C4C4"/>
<line x1="1052.5" y1="1080" x2="1052.5" stroke="#C4C4C4"/>
<rect width="1080" height="1080" fill="url(#paint0_radial_236_498)"/>
<path d="M194.622 160.2H201.502C201.662 161.213 202.102 162.107 202.822 162.88C203.569 163.627 204.556 164.213 205.782 164.64C207.036 165.04 208.476 165.24 210.102 165.24C212.476 165.24 214.342 164.907 215.702 164.24C217.089 163.547 217.782 162.587 217.782 161.36C217.782 160.4 217.382 159.667 216.582 159.16C215.809 158.627 214.356 158.24 212.222 158L206.182 157.32C202.289 156.893 199.462 155.987 197.702 154.6C195.969 153.187 195.102 151.227 195.102 148.72C195.102 146.747 195.676 145.067 196.822 143.68C197.996 142.293 199.636 141.24 201.742 140.52C203.849 139.773 206.329 139.4 209.182 139.4C211.956 139.4 214.422 139.813 216.582 140.64C218.742 141.44 220.462 142.573 221.742 144.04C223.022 145.48 223.716 147.173 223.822 149.12H216.942C216.809 148.24 216.409 147.48 215.742 146.84C215.102 146.173 214.209 145.667 213.062 145.32C211.916 144.947 210.569 144.76 209.022 144.76C206.862 144.76 205.142 145.08 203.862 145.72C202.582 146.36 201.942 147.267 201.942 148.44C201.942 149.347 202.316 150.053 203.062 150.56C203.836 151.04 205.182 151.4 207.102 151.64L213.382 152.4C216.156 152.693 218.356 153.173 219.982 153.84C221.636 154.48 222.809 155.347 223.502 156.44C224.222 157.533 224.582 158.92 224.582 160.6C224.582 162.6 223.969 164.36 222.742 165.88C221.542 167.373 219.849 168.533 217.662 169.36C215.476 170.187 212.916 170.6 209.982 170.6C206.996 170.6 204.369 170.173 202.102 169.32C199.836 168.44 198.049 167.227 196.742 165.68C195.436 164.107 194.729 162.28 194.622 160.2ZM245.992 170.6C242.499 170.6 239.432 169.947 236.792 168.64C234.179 167.333 232.139 165.52 230.672 163.2C229.205 160.853 228.472 158.12 228.472 155C228.472 151.88 229.205 149.16 230.672 146.84C232.139 144.493 234.179 142.667 236.792 141.36C239.432 140.053 242.499 139.4 245.992 139.4C249.485 139.4 252.539 140.053 255.152 141.36C257.792 142.667 259.845 144.493 261.312 146.84C262.779 149.16 263.512 151.88 263.512 155C263.512 158.12 262.779 160.853 261.312 163.2C259.845 165.52 257.792 167.333 255.152 168.64C252.539 169.947 249.485 170.6 245.992 170.6ZM245.992 164.56C248.179 164.56 250.059 164.173 251.632 163.4C253.232 162.627 254.459 161.52 255.312 160.08C256.192 158.64 256.632 156.947 256.632 155C256.632 153.053 256.192 151.36 255.312 149.92C254.459 148.48 253.232 147.373 251.632 146.6C250.059 145.827 248.179 145.44 245.992 145.44C243.832 145.44 241.952 145.827 240.352 146.6C238.752 147.373 237.512 148.48 236.632 149.92C235.779 151.36 235.352 153.053 235.352 155C235.352 156.947 235.779 158.64 236.632 160.08C237.512 161.52 238.752 162.627 240.352 163.4C241.952 164.173 243.832 164.56 245.992 164.56ZM272.274 152.72H293.954V158.52H272.274V152.72ZM294.634 140V145.84H272.354L275.794 142.36V170H268.994V140H294.634ZM309.549 143.04H316.309V170H309.549V143.04ZM297.589 140H328.229V146H297.589V140ZM369.621 167.24H367.301L375.661 140H382.781L373.141 170H364.461L355.021 143.44H357.981L348.541 170H339.861L330.221 140H337.421L345.701 167.24L343.461 167.2L352.901 140H360.141L369.621 167.24ZM389.439 163.68V158.16H410.239V163.68H389.439ZM404.359 140L418.399 170H411.159L398.879 142.76H401.119L388.839 170H381.599L395.639 140H404.359ZM427.148 153.32H438.708C440.228 153.32 441.428 152.973 442.308 152.28C443.215 151.56 443.668 150.573 443.668 149.32C443.668 148.067 443.215 147.093 442.308 146.4C441.428 145.707 440.228 145.36 438.708 145.36H426.148L429.228 141.88V170H422.428V140H439.508C441.695 140 443.615 140.4 445.268 141.2C446.922 141.973 448.215 143.053 449.148 144.44C450.082 145.827 450.548 147.453 450.548 149.32C450.548 151.16 450.082 152.773 449.148 154.16C448.215 155.547 446.922 156.64 445.268 157.44C443.615 158.213 441.695 158.6 439.508 158.6H427.148V153.32ZM432.348 155.96H440.108L451.428 170H443.468L432.348 155.96ZM481.232 152.4V157.6H459.752V152.4H481.232ZM464.312 155L462.312 167.72L459.352 164.36H482.472V170H455.472L457.792 155L455.472 140H482.272V145.64H459.352L462.312 142.28L464.312 155ZM513.717 140C517.21 140 520.264 140.627 522.877 141.88C525.517 143.133 527.57 144.88 529.037 147.12C530.504 149.36 531.237 151.987 531.237 155C531.237 157.987 530.504 160.613 529.037 162.88C527.57 165.12 525.517 166.867 522.877 168.12C520.264 169.373 517.21 170 513.717 170H499.477V140H513.717ZM506.237 167.32L502.797 164H514.237C516.264 164 518.037 163.627 519.557 162.88C521.104 162.133 522.29 161.08 523.117 159.72C523.944 158.36 524.357 156.787 524.357 155C524.357 153.187 523.944 151.613 523.117 150.28C522.29 148.92 521.104 147.867 519.557 147.12C518.037 146.373 516.264 146 514.237 146H502.797L506.237 142.68V167.32ZM561.21 152.4V157.6H539.73V152.4H561.21ZM544.29 155L542.29 167.72L539.33 164.36H562.45V170H535.45L537.77 155L535.45 140H562.25V145.64H539.33L542.29 142.28L544.29 155ZM584.437 167H581.437L593.677 140H600.877L586.637 170H578.997L564.797 140H572.077L584.437 167ZM629.724 152.4V157.6H608.244V152.4H629.724ZM612.804 155L610.804 167.72L607.844 164.36H630.964V170H603.964L606.284 155L603.964 140H630.764V145.64H607.844L610.804 142.28L612.804 155ZM643.735 140V167L640.655 164H663.175V170H636.935V140H643.735ZM682.251 170.6C678.758 170.6 675.691 169.947 673.051 168.64C670.438 167.333 668.398 165.52 666.931 163.2C665.465 160.853 664.731 158.12 664.731 155C664.731 151.88 665.465 149.16 666.931 146.84C668.398 144.493 670.438 142.667 673.051 141.36C675.691 140.053 678.758 139.4 682.251 139.4C685.745 139.4 688.798 140.053 691.411 141.36C694.051 142.667 696.105 144.493 697.571 146.84C699.038 149.16 699.771 151.88 699.771 155C699.771 158.12 699.038 160.853 697.571 163.2C696.105 165.52 694.051 167.333 691.411 168.64C688.798 169.947 685.745 170.6 682.251 170.6ZM682.251 164.56C684.438 164.56 686.318 164.173 687.891 163.4C689.491 162.627 690.718 161.52 691.571 160.08C692.451 158.64 692.891 156.947 692.891 155C692.891 153.053 692.451 151.36 691.571 149.92C690.718 148.48 689.491 147.373 687.891 146.6C686.318 145.827 684.438 145.44 682.251 145.44C680.091 145.44 678.211 145.827 676.611 146.6C675.011 147.373 673.771 148.48 672.891 149.92C672.038 151.36 671.611 153.053 671.611 155C671.611 156.947 672.038 158.64 672.891 160.08C673.771 161.52 675.011 162.627 676.611 163.4C678.211 164.173 680.091 164.56 682.251 164.56ZM721.613 140C723.987 140 726.04 140.413 727.773 141.24C729.507 142.067 730.827 143.227 731.733 144.72C732.667 146.213 733.133 147.947 733.133 149.92C733.133 151.893 732.667 153.627 731.733 155.12C730.827 156.587 729.507 157.747 727.773 158.6C726.04 159.427 723.987 159.84 721.613 159.84H708.373V154.24H721.253C722.827 154.24 724.053 153.853 724.933 153.08C725.84 152.307 726.293 151.253 726.293 149.92C726.293 148.56 725.84 147.507 724.933 146.76C724.053 145.987 722.827 145.6 721.253 145.6H708.973L712.053 142.36V170H705.253V140H721.613ZM780.009 140V170H773.529V142.28L775.249 142.4L762.449 170H755.449L742.649 142.48L744.329 142.32V170H737.889V140H748.329L760.409 166.72H757.489L769.569 140H780.009ZM811.732 152.4V157.6H790.252V152.4H811.732ZM794.812 155L792.812 167.72L789.852 164.36H812.972V170H785.972L788.292 155L785.972 140H812.772V145.64H789.852L792.812 142.28L794.812 155ZM846.743 165.52L844.383 165.88V140H850.983V170H842.383L823.183 144.12L825.503 143.76V170H818.943V140H827.743L846.743 165.52ZM867.467 143.04H874.227V170H867.467V143.04ZM855.507 140H886.147V146H855.507V140Z" fill="#0E5F66"/>
<path fill-rule="evenodd" clip-rule="evenodd" d="M150 832.062C150 817.186 162.179 805.125 177.201 805.125H902.578C917.599 805.125 929.778 817.186 929.778 832.062C929.778 846.938 917.599 859 902.578 859H177.201C162.179 859 150 846.938 150 832.062Z" fill="#38AD7E"/>
<path fill-rule="evenodd" clip-rule="evenodd" d="M245.339 252.56C213.471 284.119 213.471 334.913 213.471 436.502V616.089C213.471 683.812 213.471 717.676 234.716 738.716C255.962 759.756 290.157 759.756 358.546 759.756H721.234C789.62 759.756 823.817 759.756 845.062 738.716C866.308 717.676 866.308 683.812 866.308 616.089V436.502C866.308 334.913 866.308 284.119 834.44 252.56C802.572 221 751.28 221 648.697 221H431.083C328.5 221 277.208 221 245.339 252.56ZM403.881 652.004C403.881 637.128 416.06 625.067 431.083 625.067H648.697C663.718 625.067 675.897 637.128 675.897 652.004C675.897 666.88 663.718 678.942 648.697 678.942H431.083C416.06 678.942 403.881 666.88 403.881 652.004Z" fill="#0E5F66"/>
<path fill-rule="evenodd" clip-rule="evenodd" d="M499.071 357.706C518.657 333.505 541.23 320.342 558.18 341.871C577.66 342.892 586.011 372.46 572.612 387.042C573.573 387.03 574.476 387.227 575.26 387.656C576.285 388.216 577.061 389.123 577.451 390.407C577.841 391.672 577.841 393.312 577.29 395.349L577.223 395.55C576.978 396.271 576.765 397.186 576.549 398.127C575.65 402.021 574.661 406.301 570.224 406.064C569.987 406.049 569.755 406.025 569.518 405.986C569.357 414.033 565.424 417.737 560.281 422.573C561.66 424.587 563.043 426.616 564.702 428.492L564.706 428.484C573.408 436.319 595.835 437.887 605.416 443.235C608.446 444.922 611.185 447.073 613.388 449.982C613.707 450.4 614.007 450.821 614.295 451.243C614.082 451.227 613.881 451.219 613.7 451.219H466.972C467.252 450.806 467.547 450.392 467.859 449.982C470.062 447.073 472.8 444.922 475.831 443.235C485.112 438.057 506.223 436.421 515.666 429.213C516.253 428.208 516.864 426.939 517.455 425.596C518.219 423.846 518.937 421.99 519.528 420.378C515.784 416.91 512.907 413.162 512.257 406.013L511.811 406.021C510.771 406.005 509.774 405.769 508.84 405.237C506.771 404.062 505.644 401.82 505.1 399.262C504.403 396.011 504.635 392.157 504.97 389.722C504.994 389.552 505.037 389.394 505.1 389.245C505.821 387.223 506.732 386.131 507.871 385.666C507.354 376.007 508.986 360.705 499.071 357.706ZM466.302 456.122H613.7C617.447 456.122 620.505 459.637 619.93 463.925L611.784 524.776C611.225 529.028 608.273 532.579 603.981 532.579H476.02C471.729 532.579 468.785 529.028 468.217 524.776L460.067 463.925C459.504 459.633 462.55 456.122 466.302 456.122ZM539.287 484.295C544.454 484.295 548.647 488.484 548.647 493.651C548.647 498.821 544.454 503.011 539.287 503.011C534.121 503.011 529.932 498.821 529.932 493.651C529.932 488.484 534.121 484.295 539.287 484.295ZM557.825 424.898C552.734 429.639 547.189 431.944 541.557 431.944C535.658 431.948 529.754 429.426 524.265 424.539L522.334 422.853L522.204 422.742C521.695 424.098 521.116 425.548 520.513 426.928C519.685 428.807 518.803 430.577 517.947 431.858C527.193 450.601 554.519 451.255 563.378 431.964C561.152 429.71 559.469 427.302 557.825 424.898ZM555.567 359.987C551.098 364.492 546.369 365.788 541.735 366.194C540.367 366.435 539.035 366.6 537.707 366.766C533.262 367.314 528.824 367.861 522.952 371.928C520.178 373.844 518.33 376.165 517.372 378.864C516.391 381.647 516.324 384.894 517.136 388.587C517.21 388.927 517.192 389.281 517.083 389.612C516.973 389.943 516.777 390.239 516.514 390.468C516.252 390.697 515.932 390.852 515.59 390.915C515.247 390.979 514.893 390.949 514.566 390.829L512.316 390.005C510.487 389.367 509.341 389.154 508.793 390.458C508.513 392.594 508.336 395.814 508.899 398.455C509.234 400.019 509.809 401.324 510.755 401.863C511.09 402.053 511.461 402.139 511.855 402.143C512.351 402.151 512.907 402.041 513.498 401.86C513.668 401.808 513.841 401.781 514.022 401.777C515.094 401.753 515.985 402.6 516.009 403.668C516.221 412.468 520.123 415.83 524.872 419.917L526.85 421.635C531.618 425.879 536.639 428.07 541.557 428.07C546.342 428.067 551.122 425.978 555.583 421.674L557.593 419.767C562.574 415.089 566.243 411.641 565.538 403.243C565.51 402.825 565.609 402.395 565.857 402.021C566.139 401.592 566.581 401.292 567.084 401.188C567.587 401.083 568.111 401.183 568.541 401.465C568.864 401.678 569.187 401.852 569.506 401.974L569.589 402.001C569.881 402.108 570.164 402.171 570.425 402.187C571.611 402.25 572.214 399.637 572.761 397.26C573.006 396.208 573.242 395.184 573.55 394.293C573.885 393.024 573.92 392.129 573.743 391.546C573.668 391.302 573.55 391.14 573.404 391.061C573.171 390.935 572.825 390.896 572.411 390.935C571.422 391.026 570.231 391.55 569.112 392.397C568.901 392.558 568.659 392.673 568.401 392.736C568.144 392.799 567.876 392.808 567.615 392.764C567.107 392.677 566.654 392.392 566.355 391.972C566.057 391.551 565.937 391.03 566.023 390.522C567.855 379.842 567.016 372.882 564.742 368.133C562.748 363.976 559.567 361.453 556.119 359.57L555.567 359.987Z" fill="white"/>
</g>
<defs>
<radialGradient id="paint0_radial_236_498" cx="0" cy="0" r="1" gradientUnits="userSpaceOnUse" gradientTransform="translate(540 540) rotate(90) scale(540)">
<stop offset="0.745" stop-color="#EBF7F2" stop-opacity="0"/>
<stop offset="1" stop-color="#EBF7F2"/>
</radialGradient>
<clipPath id="clip0_236_498">
<rect width="1080" height="1080" fill="white"/>
</clipPath>
</defs>
</svg>
