<svg width="1080" height="1080" viewBox="0 0 1080 1080" fill="none" xmlns="http://www.w3.org/2000/svg">
<g clip-path="url(#clip0_236_498)">
<rect width="1080" height="1080" fill="#EBF7F2"/>
<line y1="26.5" x2="1080" y2="26.5" stroke="#C4C4C4"/>
<line y1="53.5" x2="1080" y2="53.5" stroke="#C4C4C4"/>
<line y1="80.5" x2="1080" y2="80.5" stroke="#C4C4C4"/>
<line y1="107.5" x2="1080" y2="107.5" stroke="#C4C4C4"/>
<line y1="134.5" x2="1080" y2="134.5" stroke="#C4C4C4"/>
<line y1="161.5" x2="1080" y2="161.5" stroke="#C4C4C4"/>
<line y1="188.5" x2="1080" y2="188.5" stroke="#C4C4C4"/>
<line y1="215.5" x2="1080" y2="215.5" stroke="#C4C4C4"/>
<line y1="242.5" x2="1080" y2="242.5" stroke="#C4C4C4"/>
<line y1="269.5" x2="1080" y2="269.5" stroke="#C4C4C4"/>
<line y1="296.5" x2="1080" y2="296.5" stroke="#C4C4C4"/>
<line y1="323.5" x2="1080" y2="323.5" stroke="#C4C4C4"/>
<line y1="350.5" x2="1080" y2="350.5" stroke="#C4C4C4"/>
<line y1="377.5" x2="1080" y2="377.5" stroke="#C4C4C4"/>
<line y1="404.5" x2="1080" y2="404.5" stroke="#C4C4C4"/>
<line y1="431.5" x2="1080" y2="431.5" stroke="#C4C4C4"/>
<line y1="458.5" x2="1080" y2="458.5" stroke="#C4C4C4"/>
<line y1="485.5" x2="1080" y2="485.5" stroke="#C4C4C4"/>
<line y1="512.5" x2="1080" y2="512.5" stroke="#C4C4C4"/>
<line y1="539.5" x2="1080" y2="539.5" stroke="#C4C4C4"/>
<line y1="566.5" x2="1080" y2="566.5" stroke="#C4C4C4"/>
<line y1="593.5" x2="1080" y2="593.5" stroke="#C4C4C4"/>
<line y1="620.5" x2="1080" y2="620.5" stroke="#C4C4C4"/>
<line y1="647.5" x2="1080" y2="647.5" stroke="#C4C4C4"/>
<line y1="674.5" x2="1080" y2="674.5" stroke="#C4C4C4"/>
<line y1="701.5" x2="1080" y2="701.5" stroke="#C4C4C4"/>
<line y1="728.5" x2="1080" y2="728.5" stroke="#C4C4C4"/>
<line y1="755.5" x2="1080" y2="755.5" stroke="#C4C4C4"/>
<line y1="782.5" x2="1080" y2="782.5" stroke="#C4C4C4"/>
<line y1="809.5" x2="1080" y2="809.5" stroke="#C4C4C4"/>
<line y1="836.5" x2="1080" y2="836.5" stroke="#C4C4C4"/>
<line y1="863.5" x2="1080" y2="863.5" stroke="#C4C4C4"/>
<line y1="890.5" x2="1080" y2="890.5" stroke="#C4C4C4"/>
<line y1="917.5" x2="1080" y2="917.5" stroke="#C4C4C4"/>
<line y1="944.5" x2="1080" y2="944.5" stroke="#C4C4C4"/>
<line y1="971.5" x2="1080" y2="971.5" stroke="#C4C4C4"/>
<line y1="998.5" x2="1080" y2="998.5" stroke="#C4C4C4"/>
<line y1="1025.5" x2="1080" y2="1025.5" stroke="#C4C4C4"/>
<line y1="1052.5" x2="1080" y2="1052.5" stroke="#C4C4C4"/>
<line x1="26.5" y1="1080" x2="26.5" stroke="#C4C4C4"/>
<line x1="53.5" y1="1080" x2="53.5" stroke="#C4C4C4"/>
<line x1="80.5" y1="1080" x2="80.5" stroke="#C4C4C4"/>
<line x1="107.5" y1="1080" x2="107.5" stroke="#C4C4C4"/>
<line x1="134.5" y1="1080" x2="134.5" stroke="#C4C4C4"/>
<line x1="161.5" y1="1080" x2="161.5" stroke="#C4C4C4"/>
<line x1="188.5" y1="1080" x2="188.5" stroke="#C4C4C4"/>
<line x1="215.5" y1="1080" x2="215.5" stroke="#C4C4C4"/>
<line x1="242.5" y1="1080" x2="242.5" stroke="#C4C4C4"/>
<line x1="269.5" y1="1080" x2="269.5" stroke="#C4C4C4"/>
<line x1="296.5" y1="1080" x2="296.5" stroke="#C4C4C4"/>
<line x1="323.5" y1="1080" x2="323.5" stroke="#C4C4C4"/>
<line x1="350.5" y1="1080" x2="350.5" stroke="#C4C4C4"/>
<line x1="377.5" y1="1080" x2="377.5" stroke="#C4C4C4"/>
<line x1="404.5" y1="1080" x2="404.5" stroke="#C4C4C4"/>
<line x1="431.5" y1="1080" x2="431.5" stroke="#C4C4C4"/>
<line x1="458.5" y1="1080" x2="458.5" stroke="#C4C4C4"/>
<line x1="485.5" y1="1080" x2="485.5" stroke="#C4C4C4"/>
<line x1="512.5" y1="1080" x2="512.5" stroke="#C4C4C4"/>
<line x1="539.5" y1="1080" x2="539.5" stroke="#C4C4C4"/>
<line x1="566.5" y1="1080" x2="566.5" stroke="#C4C4C4"/>
<line x1="593.5" y1="1080" x2="593.5" stroke="#C4C4C4"/>
<line x1="620.5" y1="1080" x2="620.5" stroke="#C4C4C4"/>
<line x1="647.5" y1="1080" x2="647.5" stroke="#C4C4C4"/>
<line x1="674.5" y1="1080" x2="674.5" stroke="#C4C4C4"/>
<line x1="701.5" y1="1080" x2="701.5" stroke="#C4C4C4"/>
<line x1="728.5" y1="1080" x2="728.5" stroke="#C4C4C4"/>
<line x1="755.5" y1="1080" x2="755.5" stroke="#C4C4C4"/>
<line x1="782.5" y1="1080" x2="782.5" stroke="#C4C4C4"/>
<line x1="809.5" y1="1080" x2="809.5" stroke="#C4C4C4"/>
<line x1="836.5" y1="1080" x2="836.5" stroke="#C4C4C4"/>
<line x1="863.5" y1="1080" x2="863.5" stroke="#C4C4C4"/>
<line x1="890.5" y1="1080" x2="890.5" stroke="#C4C4C4"/>
<line x1="917.5" y1="1080" x2="917.5" stroke="#C4C4C4"/>
<line x1="944.5" y1="1080" x2="944.5" stroke="#C4C4C4"/>
<line x1="971.5" y1="1080" x2="971.5" stroke="#C4C4C4"/>
<line x1="998.5" y1="1080" x2="998.5" stroke="#C4C4C4"/>
<line x1="1025.5" y1="1080" x2="1025.5" stroke="#C4C4C4"/>
<line x1="1052.5" y1="1080" x2="1052.5" stroke="#C4C4C4"/>
<rect width="1080" height="1080" fill="url(#paint0_radial_236_498)"/>
<path d="M188.464 746.764H889.987C916.761 746.764 938.477 725.045 938.477 698.273V285.464C938.477 258.719 916.759 237 889.987 237H188.464C161.69 237 140 258.719 140 285.464V698.273C140 725.045 161.69 746.764 188.464 746.764ZM214.106 486.177C214.106 384.529 296.509 302.127 398.157 302.127H680.292C781.94 302.127 864.342 384.529 864.342 486.177V486.177C864.342 587.826 781.94 670.228 680.292 670.228H398.157C296.509 670.228 214.106 587.826 214.106 486.177V486.177Z" fill="#0E5F66"/>
<path d="M995.249 881.277L908.773 804.516C903.21 799.601 895.217 796.805 886.772 796.805H192.649C184.204 796.805 176.212 799.601 170.648 804.516L84.1738 881.277C79.5413 885.373 77 890.654 77 896.106V922.851C77 929.092 83.5231 934.118 91.5736 934.118H987.851C995.929 934.118 1002.42 929.092 1002.42 922.851V896.106C1002.42 890.654 999.882 885.373 995.249 881.277ZM474.108 890.343C460.22 890.343 452.248 874.533 460.507 863.367V863.367C463.696 859.054 468.743 856.509 474.108 856.509H615.619C620.987 856.509 626.037 859.057 629.226 863.375V863.375C637.476 874.542 629.503 890.343 615.619 890.343H474.108Z" fill="#38AD7E"/>
<path d="M194.622 176.2H201.502C201.662 177.213 202.102 178.107 202.822 178.88C203.569 179.627 204.556 180.213 205.782 180.64C207.036 181.04 208.476 181.24 210.102 181.24C212.476 181.24 214.342 180.907 215.702 180.24C217.089 179.547 217.782 178.587 217.782 177.36C217.782 176.4 217.382 175.667 216.582 175.16C215.809 174.627 214.356 174.24 212.222 174L206.182 173.32C202.289 172.893 199.462 171.987 197.702 170.6C195.969 169.187 195.102 167.227 195.102 164.72C195.102 162.747 195.676 161.067 196.822 159.68C197.996 158.293 199.636 157.24 201.742 156.52C203.849 155.773 206.329 155.4 209.182 155.4C211.956 155.4 214.422 155.813 216.582 156.64C218.742 157.44 220.462 158.573 221.742 160.04C223.022 161.48 223.716 163.173 223.822 165.12H216.942C216.809 164.24 216.409 163.48 215.742 162.84C215.102 162.173 214.209 161.667 213.062 161.32C211.916 160.947 210.569 160.76 209.022 160.76C206.862 160.76 205.142 161.08 203.862 161.72C202.582 162.36 201.942 163.267 201.942 164.44C201.942 165.347 202.316 166.053 203.062 166.56C203.836 167.04 205.182 167.4 207.102 167.64L213.382 168.4C216.156 168.693 218.356 169.173 219.982 169.84C221.636 170.48 222.809 171.347 223.502 172.44C224.222 173.533 224.582 174.92 224.582 176.6C224.582 178.6 223.969 180.36 222.742 181.88C221.542 183.373 219.849 184.533 217.662 185.36C215.476 186.187 212.916 186.6 209.982 186.6C206.996 186.6 204.369 186.173 202.102 185.32C199.836 184.44 198.049 183.227 196.742 181.68C195.436 180.107 194.729 178.28 194.622 176.2ZM245.992 186.6C242.499 186.6 239.432 185.947 236.792 184.64C234.179 183.333 232.139 181.52 230.672 179.2C229.205 176.853 228.472 174.12 228.472 171C228.472 167.88 229.205 165.16 230.672 162.84C232.139 160.493 234.179 158.667 236.792 157.36C239.432 156.053 242.499 155.4 245.992 155.4C249.485 155.4 252.539 156.053 255.152 157.36C257.792 158.667 259.845 160.493 261.312 162.84C262.779 165.16 263.512 167.88 263.512 171C263.512 174.12 262.779 176.853 261.312 179.2C259.845 181.52 257.792 183.333 255.152 184.64C252.539 185.947 249.485 186.6 245.992 186.6ZM245.992 180.56C248.179 180.56 250.059 180.173 251.632 179.4C253.232 178.627 254.459 177.52 255.312 176.08C256.192 174.64 256.632 172.947 256.632 171C256.632 169.053 256.192 167.36 255.312 165.92C254.459 164.48 253.232 163.373 251.632 162.6C250.059 161.827 248.179 161.44 245.992 161.44C243.832 161.44 241.952 161.827 240.352 162.6C238.752 163.373 237.512 164.48 236.632 165.92C235.779 167.36 235.352 169.053 235.352 171C235.352 172.947 235.779 174.64 236.632 176.08C237.512 177.52 238.752 178.627 240.352 179.4C241.952 180.173 243.832 180.56 245.992 180.56ZM272.274 168.72H293.954V174.52H272.274V168.72ZM294.634 156V161.84H272.354L275.794 158.36V186H268.994V156H294.634ZM309.549 159.04H316.309V186H309.549V159.04ZM297.589 156H328.229V162H297.589V156ZM369.621 183.24H367.301L375.661 156H382.781L373.141 186H364.461L355.021 159.44H357.981L348.541 186H339.861L330.221 156H337.421L345.701 183.24L343.461 183.2L352.901 156H360.141L369.621 183.24ZM389.439 179.68V174.16H410.239V179.68H389.439ZM404.359 156L418.399 186H411.159L398.879 158.76H401.119L388.839 186H381.599L395.639 156H404.359ZM427.148 169.32H438.708C440.228 169.32 441.428 168.973 442.308 168.28C443.215 167.56 443.668 166.573 443.668 165.32C443.668 164.067 443.215 163.093 442.308 162.4C441.428 161.707 440.228 161.36 438.708 161.36H426.148L429.228 157.88V186H422.428V156H439.508C441.695 156 443.615 156.4 445.268 157.2C446.922 157.973 448.215 159.053 449.148 160.44C450.082 161.827 450.548 163.453 450.548 165.32C450.548 167.16 450.082 168.773 449.148 170.16C448.215 171.547 446.922 172.64 445.268 173.44C443.615 174.213 441.695 174.6 439.508 174.6H427.148V169.32ZM432.348 171.96H440.108L451.428 186H443.468L432.348 171.96ZM481.232 168.4V173.6H459.752V168.4H481.232ZM464.312 171L462.312 183.72L459.352 180.36H482.472V186H455.472L457.792 171L455.472 156H482.272V161.64H459.352L462.312 158.28L464.312 171ZM513.717 156C517.21 156 520.264 156.627 522.877 157.88C525.517 159.133 527.57 160.88 529.037 163.12C530.504 165.36 531.237 167.987 531.237 171C531.237 173.987 530.504 176.613 529.037 178.88C527.57 181.12 525.517 182.867 522.877 184.12C520.264 185.373 517.21 186 513.717 186H499.477V156H513.717ZM506.237 183.32L502.797 180H514.237C516.264 180 518.037 179.627 519.557 178.88C521.104 178.133 522.29 177.08 523.117 175.72C523.944 174.36 524.357 172.787 524.357 171C524.357 169.187 523.944 167.613 523.117 166.28C522.29 164.92 521.104 163.867 519.557 163.12C518.037 162.373 516.264 162 514.237 162H502.797L506.237 158.68V183.32ZM561.21 168.4V173.6H539.73V168.4H561.21ZM544.29 171L542.29 183.72L539.33 180.36H562.45V186H535.45L537.77 171L535.45 156H562.25V161.64H539.33L542.29 158.28L544.29 171ZM584.437 183H581.437L593.677 156H600.877L586.637 186H578.997L564.797 156H572.077L584.437 183ZM629.724 168.4V173.6H608.244V168.4H629.724ZM612.804 171L610.804 183.72L607.844 180.36H630.964V186H603.964L606.284 171L603.964 156H630.764V161.64H607.844L610.804 158.28L612.804 171ZM643.735 156V183L640.655 180H663.175V186H636.935V156H643.735ZM682.251 186.6C678.758 186.6 675.691 185.947 673.051 184.64C670.438 183.333 668.398 181.52 666.931 179.2C665.465 176.853 664.731 174.12 664.731 171C664.731 167.88 665.465 165.16 666.931 162.84C668.398 160.493 670.438 158.667 673.051 157.36C675.691 156.053 678.758 155.4 682.251 155.4C685.745 155.4 688.798 156.053 691.411 157.36C694.051 158.667 696.105 160.493 697.571 162.84C699.038 165.16 699.771 167.88 699.771 171C699.771 174.12 699.038 176.853 697.571 179.2C696.105 181.52 694.051 183.333 691.411 184.64C688.798 185.947 685.745 186.6 682.251 186.6ZM682.251 180.56C684.438 180.56 686.318 180.173 687.891 179.4C689.491 178.627 690.718 177.52 691.571 176.08C692.451 174.64 692.891 172.947 692.891 171C692.891 169.053 692.451 167.36 691.571 165.92C690.718 164.48 689.491 163.373 687.891 162.6C686.318 161.827 684.438 161.44 682.251 161.44C680.091 161.44 678.211 161.827 676.611 162.6C675.011 163.373 673.771 164.48 672.891 165.92C672.038 167.36 671.611 169.053 671.611 171C671.611 172.947 672.038 174.64 672.891 176.08C673.771 177.52 675.011 178.627 676.611 179.4C678.211 180.173 680.091 180.56 682.251 180.56ZM721.613 156C723.987 156 726.04 156.413 727.773 157.24C729.507 158.067 730.827 159.227 731.733 160.72C732.667 162.213 733.133 163.947 733.133 165.92C733.133 167.893 732.667 169.627 731.733 171.12C730.827 172.587 729.507 173.747 727.773 174.6C726.04 175.427 723.987 175.84 721.613 175.84H708.373V170.24H721.253C722.827 170.24 724.053 169.853 724.933 169.08C725.84 168.307 726.293 167.253 726.293 165.92C726.293 164.56 725.84 163.507 724.933 162.76C724.053 161.987 722.827 161.6 721.253 161.6H708.973L712.053 158.36V186H705.253V156H721.613ZM780.009 156V186H773.529V158.28L775.249 158.4L762.449 186H755.449L742.649 158.48L744.329 158.32V186H737.889V156H748.329L760.409 182.72H757.489L769.569 156H780.009ZM811.732 168.4V173.6H790.252V168.4H811.732ZM794.812 171L792.812 183.72L789.852 180.36H812.972V186H785.972L788.292 171L785.972 156H812.772V161.64H789.852L792.812 158.28L794.812 171ZM846.743 181.52L844.383 181.88V156H850.983V186H842.383L823.183 160.12L825.503 159.76V186H818.943V156H827.743L846.743 181.52ZM867.467 159.04H874.227V186H867.467V159.04ZM855.507 156H886.147V162H855.507V156Z" fill="#0E5F66"/>
<path fill-rule="evenodd" clip-rule="evenodd" d="M513.322 480.804C513.535 480.903 513.706 481.031 513.848 481.188L520.145 488.508C522.675 491.45 525.318 494.435 528.616 496.638C531.786 498.756 535.638 500.192 540.741 500.206C546.256 500.22 550.292 498.728 553.562 496.482C556.959 494.151 559.645 490.967 562.289 487.797L565.743 483.647C566.155 483.149 566.311 482.979 566.468 482.794C566.894 482.296 567.363 481.756 567.832 481.159C567.946 481.017 568.102 480.889 568.287 480.79C568.856 478.956 569.282 477.023 569.581 475.005C570.561 468.452 570.59 463.349 567.633 457.308C565.089 452.092 561.479 449.391 557.57 447.458C561.806 452.177 565.288 456.754 564.378 460.521C559.219 454.849 553.888 449.903 548.373 445.809C536.846 439.854 530.066 431.78 527.053 422.015C509.953 439.1 506.983 459.085 513.322 480.804ZM581.634 524.299C578.621 518.243 575.067 512.814 571.045 507.725C569.964 506.616 567.861 504.769 565.558 502.764C563.099 500.618 560.441 498.287 558.48 496.354C557.684 497.05 556.831 497.704 555.935 498.316C552.055 500.959 547.279 502.722 540.755 502.722C534.657 502.708 530.066 501.016 526.299 498.5C524.594 497.363 523.087 496.084 521.694 494.719C519.519 496.724 516.662 499.083 514.004 501.286C510.65 504.058 507.608 506.574 507.025 507.384C506.954 507.483 506.883 507.569 506.798 507.64C502.747 512.757 499.151 518.229 496.123 524.313L509.086 524L514.559 533.083H477.844C474.731 533.083 472.201 535.997 472.67 539.564L477.915 579.378C474.12 579.406 470.424 579.449 466.857 579.505C459.238 579.633 458.442 580.188 459.252 569.328C469.5 520.83 466.515 518.712 506.556 503.006C507.963 501.755 509.825 500.22 511.773 498.614C514.445 496.411 517.302 494.037 519.292 492.232C518.581 491.45 517.899 490.654 517.217 489.872L511.815 483.604L507.807 483.704L500.174 483.903C493.621 476.355 494.034 460.151 494.659 450.798C497.715 431.993 504.993 418.447 516.833 410.63C524.849 405.3 529.64 405.015 539.007 405.001C547.194 405.001 552.211 404.816 559.176 409.422C581.918 424.389 588.968 459.725 577.853 483.533H569.908C569.737 483.746 569.566 483.945 569.396 484.13L568.685 484.954L565.231 489.105C563.852 490.754 562.474 492.417 560.953 493.98C562.857 495.856 565.43 498.102 567.804 500.178C568.927 501.158 569.993 502.096 570.945 502.949C606.523 517.135 614.326 525.379 618.676 571.247C619.472 579.704 619.401 579.335 611.284 579.505C607.66 579.577 603.907 579.633 600.055 579.676L605.343 539.564C605.812 535.997 603.282 533.083 600.169 533.083H563.199L568.671 524L581.634 524.299ZM538.424 557.232C542.716 557.232 546.185 560.715 546.185 564.993C546.185 569.286 542.702 572.754 538.424 572.754C534.131 572.754 530.663 569.271 530.663 564.993C530.663 560.715 534.131 557.232 538.424 557.232ZM530.094 533.069L534.728 516.964L531.828 513.794C530.521 511.89 530.237 510.227 530.961 508.791C532.525 505.693 535.766 506.261 538.808 506.261C541.977 506.261 545.9 505.664 546.895 509.63C547.222 510.966 546.81 512.345 545.886 513.78L542.986 516.95L547.62 533.054H530.094V533.069Z" fill="#0E5F66"/>
</g>
<defs>
<radialGradient id="paint0_radial_236_498" cx="0" cy="0" r="1" gradientUnits="userSpaceOnUse" gradientTransform="translate(540 540) rotate(90) scale(540)">
<stop offset="0.745" stop-color="#EBF7F2" stop-opacity="0"/>
<stop offset="1" stop-color="#EBF7F2"/>
</radialGradient>
<clipPath id="clip0_236_498">
<rect width="1080" height="1080" fill="white"/>
</clipPath>
</defs>
</svg>
