<svg width="978" height="800" viewBox="0 0 978 800" fill="none" xmlns="http://www.w3.org/2000/svg">
<path fill-rule="evenodd" clip-rule="evenodd" d="M0 766.222C0 747.569 15.2711 732.444 34.1085 732.444H943.671C962.507 732.444 977.778 747.569 977.778 766.222C977.778 784.875 962.507 800 943.671 800H34.1085C15.2711 800 0 784.875 0 766.222Z" fill="white"/>
<path fill-rule="evenodd" clip-rule="evenodd" d="M119.547 39.5733C79.5869 79.1462 79.5869 142.838 79.5869 270.222V495.409C79.5869 580.329 79.5869 622.791 106.227 649.173C132.868 675.556 175.745 675.556 261.499 675.556H716.28C802.031 675.556 844.911 675.556 871.551 649.173C898.191 622.791 898.191 580.329 898.191 495.409V270.222C898.191 142.838 898.192 79.1462 858.232 39.5733C818.271 -2.6491e-06 753.956 0 625.325 0H352.455C223.824 0 159.508 -2.6491e-06 119.547 39.5733ZM318.347 540.445C318.347 521.791 333.618 506.667 352.455 506.667H625.325C644.16 506.667 659.431 521.791 659.431 540.445C659.431 559.098 644.16 574.222 625.325 574.222H352.455C333.618 574.222 318.347 559.098 318.347 540.445Z" fill="white"/>
<path fill-rule="evenodd" clip-rule="evenodd" d="M437.706 171.418C462.266 141.072 490.571 124.567 511.825 151.563C536.251 152.842 546.722 189.919 529.921 208.203C531.127 208.188 532.258 208.435 533.242 208.974C534.526 209.675 535.5 210.812 535.989 212.423C536.478 214.009 536.478 216.065 535.786 218.62L535.702 218.872C535.396 219.776 535.129 220.923 534.857 222.104C533.731 226.986 532.49 232.352 526.926 232.056C526.63 232.036 526.338 232.006 526.042 231.957C525.839 242.048 520.907 246.693 514.459 252.756C516.188 255.281 517.923 257.826 520.003 260.178L520.008 260.168C530.919 269.992 559.041 271.959 571.054 278.665C574.854 280.78 578.289 283.478 581.051 287.125C581.451 287.649 581.827 288.177 582.188 288.706C581.921 288.686 581.669 288.676 581.442 288.676H397.457C397.808 288.158 398.179 287.639 398.569 287.125C401.331 283.478 404.766 280.78 408.566 278.665C420.203 272.172 446.675 270.121 458.515 261.083C459.251 259.823 460.017 258.231 460.759 256.546C461.717 254.352 462.617 252.025 463.358 250.004C458.663 245.655 455.056 240.956 454.241 231.992L453.682 232.002C452.378 231.982 451.127 231.685 449.956 231.018C447.362 229.546 445.949 226.734 445.267 223.527C444.392 219.45 444.684 214.617 445.104 211.563C445.133 211.351 445.188 211.153 445.267 210.965C446.171 208.43 447.313 207.061 448.741 206.478C448.093 194.367 450.139 175.178 437.706 171.418ZM396.617 294.824H581.442C586.141 294.824 589.976 299.232 589.254 304.608L579.04 380.911C578.338 386.243 574.637 390.695 569.256 390.695H408.803C403.422 390.695 399.73 386.243 399.019 380.911L388.799 304.608C388.093 299.227 391.913 294.824 396.617 294.824ZM488.135 330.151C494.613 330.151 499.871 335.404 499.871 341.882C499.871 348.366 494.613 353.619 488.135 353.619C481.656 353.619 476.404 348.366 476.404 341.882C476.404 335.404 481.656 330.151 488.135 330.151ZM511.38 255.672C504.995 261.616 498.043 264.507 490.981 264.507C483.584 264.512 476.181 261.35 469.298 255.222L466.876 253.107L466.713 252.969C466.076 254.669 465.349 256.487 464.593 258.217C463.555 260.574 462.449 262.792 461.376 264.398C472.969 287.901 507.234 288.721 518.343 264.532C515.551 261.705 513.441 258.686 511.38 255.672ZM508.548 174.279C502.945 179.927 497.015 181.553 491.204 182.062C489.489 182.363 487.819 182.571 486.153 182.779C480.579 183.465 475.015 184.152 467.652 189.252C464.173 191.654 461.856 194.564 460.655 197.949C459.424 201.438 459.34 205.51 460.358 210.14C460.452 210.567 460.429 211.011 460.292 211.426C460.155 211.841 459.909 212.212 459.579 212.499C459.25 212.787 458.85 212.98 458.42 213.06C457.99 213.139 457.547 213.102 457.136 212.952L454.315 211.919C452.022 211.118 450.584 210.852 449.897 212.487C449.546 215.166 449.324 219.203 450.03 222.514C450.45 224.476 451.172 226.111 452.358 226.788C452.778 227.025 453.242 227.134 453.737 227.139C454.359 227.149 455.056 227.011 455.797 226.783C456.01 226.719 456.227 226.684 456.454 226.679C457.799 226.65 458.915 227.712 458.945 229.051C459.212 240.086 464.104 244.301 470.059 249.425L472.539 251.58C478.519 256.902 484.814 259.65 490.981 259.65C496.98 259.645 502.974 257.026 508.568 251.629L511.088 249.238C517.335 243.372 521.935 239.048 521.051 228.518C521.016 227.994 521.14 227.455 521.451 226.986C521.805 226.447 522.358 226.071 522.989 225.941C523.62 225.81 524.277 225.935 524.816 226.289C525.221 226.556 525.627 226.773 526.027 226.927L526.131 226.961C526.496 227.095 526.852 227.174 527.178 227.193C528.666 227.272 529.422 223.996 530.109 221.016C530.415 219.697 530.711 218.412 531.097 217.295C531.517 215.704 531.561 214.582 531.339 213.851C531.245 213.545 531.097 213.342 530.914 213.243C530.622 213.085 530.188 213.036 529.669 213.085C528.428 213.199 526.936 213.856 525.533 214.919C525.268 215.119 524.964 215.264 524.641 215.343C524.318 215.422 523.983 215.434 523.655 215.378C523.018 215.269 522.45 214.912 522.076 214.385C521.701 213.858 521.551 213.204 521.658 212.566C523.956 199.175 522.904 190.448 520.052 184.493C517.552 179.28 513.564 176.117 509.24 173.755L508.548 174.279Z" fill="#FF586E"/>
</svg>
