<svg width="1080" height="1080" viewBox="0 0 1080 1080" fill="none" xmlns="http://www.w3.org/2000/svg">
<g clip-path="url(#clip0_236_396)">
<rect width="1080" height="1080" fill="white"/>
<line y1="26.5" x2="1080" y2="26.5" stroke="#C4C4C4"/>
<line y1="53.5" x2="1080" y2="53.5" stroke="#C4C4C4"/>
<line y1="80.5" x2="1080" y2="80.5" stroke="#C4C4C4"/>
<line y1="107.5" x2="1080" y2="107.5" stroke="#C4C4C4"/>
<line y1="134.5" x2="1080" y2="134.5" stroke="#C4C4C4"/>
<line y1="161.5" x2="1080" y2="161.5" stroke="#C4C4C4"/>
<line y1="188.5" x2="1080" y2="188.5" stroke="#C4C4C4"/>
<line y1="215.5" x2="1080" y2="215.5" stroke="#C4C4C4"/>
<line y1="242.5" x2="1080" y2="242.5" stroke="#C4C4C4"/>
<line y1="269.5" x2="1080" y2="269.5" stroke="#C4C4C4"/>
<line y1="296.5" x2="1080" y2="296.5" stroke="#C4C4C4"/>
<line y1="323.5" x2="1080" y2="323.5" stroke="#C4C4C4"/>
<line y1="350.5" x2="1080" y2="350.5" stroke="#C4C4C4"/>
<line y1="377.5" x2="1080" y2="377.5" stroke="#C4C4C4"/>
<line y1="404.5" x2="1080" y2="404.5" stroke="#C4C4C4"/>
<line y1="431.5" x2="1080" y2="431.5" stroke="#C4C4C4"/>
<line y1="458.5" x2="1080" y2="458.5" stroke="#C4C4C4"/>
<line y1="485.5" x2="1080" y2="485.5" stroke="#C4C4C4"/>
<line y1="512.5" x2="1080" y2="512.5" stroke="#C4C4C4"/>
<line y1="539.5" x2="1080" y2="539.5" stroke="#C4C4C4"/>
<line y1="566.5" x2="1080" y2="566.5" stroke="#C4C4C4"/>
<line y1="593.5" x2="1080" y2="593.5" stroke="#C4C4C4"/>
<line y1="620.5" x2="1080" y2="620.5" stroke="#C4C4C4"/>
<line y1="647.5" x2="1080" y2="647.5" stroke="#C4C4C4"/>
<line y1="674.5" x2="1080" y2="674.5" stroke="#C4C4C4"/>
<line y1="701.5" x2="1080" y2="701.5" stroke="#C4C4C4"/>
<line y1="728.5" x2="1080" y2="728.5" stroke="#C4C4C4"/>
<line y1="755.5" x2="1080" y2="755.5" stroke="#C4C4C4"/>
<line y1="782.5" x2="1080" y2="782.5" stroke="#C4C4C4"/>
<line y1="809.5" x2="1080" y2="809.5" stroke="#C4C4C4"/>
<line y1="836.5" x2="1080" y2="836.5" stroke="#C4C4C4"/>
<line y1="863.5" x2="1080" y2="863.5" stroke="#C4C4C4"/>
<line y1="890.5" x2="1080" y2="890.5" stroke="#C4C4C4"/>
<line y1="917.5" x2="1080" y2="917.5" stroke="#C4C4C4"/>
<line y1="944.5" x2="1080" y2="944.5" stroke="#C4C4C4"/>
<line y1="971.5" x2="1080" y2="971.5" stroke="#C4C4C4"/>
<line y1="998.5" x2="1080" y2="998.5" stroke="#C4C4C4"/>
<line y1="1025.5" x2="1080" y2="1025.5" stroke="#C4C4C4"/>
<line y1="1052.5" x2="1080" y2="1052.5" stroke="#C4C4C4"/>
<line x1="26.5" y1="1080" x2="26.5" stroke="#C4C4C4"/>
<line x1="53.5" y1="1080" x2="53.5" stroke="#C4C4C4"/>
<line x1="80.5" y1="1080" x2="80.5" stroke="#C4C4C4"/>
<line x1="107.5" y1="1080" x2="107.5" stroke="#C4C4C4"/>
<line x1="134.5" y1="1080" x2="134.5" stroke="#C4C4C4"/>
<line x1="161.5" y1="1080" x2="161.5" stroke="#C4C4C4"/>
<line x1="188.5" y1="1080" x2="188.5" stroke="#C4C4C4"/>
<line x1="215.5" y1="1080" x2="215.5" stroke="#C4C4C4"/>
<line x1="242.5" y1="1080" x2="242.5" stroke="#C4C4C4"/>
<line x1="269.5" y1="1080" x2="269.5" stroke="#C4C4C4"/>
<line x1="296.5" y1="1080" x2="296.5" stroke="#C4C4C4"/>
<line x1="323.5" y1="1080" x2="323.5" stroke="#C4C4C4"/>
<line x1="350.5" y1="1080" x2="350.5" stroke="#C4C4C4"/>
<line x1="377.5" y1="1080" x2="377.5" stroke="#C4C4C4"/>
<line x1="404.5" y1="1080" x2="404.5" stroke="#C4C4C4"/>
<line x1="431.5" y1="1080" x2="431.5" stroke="#C4C4C4"/>
<line x1="458.5" y1="1080" x2="458.5" stroke="#C4C4C4"/>
<line x1="485.5" y1="1080" x2="485.5" stroke="#C4C4C4"/>
<line x1="512.5" y1="1080" x2="512.5" stroke="#C4C4C4"/>
<line x1="539.5" y1="1080" x2="539.5" stroke="#C4C4C4"/>
<line x1="566.5" y1="1080" x2="566.5" stroke="#C4C4C4"/>
<line x1="593.5" y1="1080" x2="593.5" stroke="#C4C4C4"/>
<line x1="620.5" y1="1080" x2="620.5" stroke="#C4C4C4"/>
<line x1="647.5" y1="1080" x2="647.5" stroke="#C4C4C4"/>
<line x1="674.5" y1="1080" x2="674.5" stroke="#C4C4C4"/>
<line x1="701.5" y1="1080" x2="701.5" stroke="#C4C4C4"/>
<line x1="728.5" y1="1080" x2="728.5" stroke="#C4C4C4"/>
<line x1="755.5" y1="1080" x2="755.5" stroke="#C4C4C4"/>
<line x1="782.5" y1="1080" x2="782.5" stroke="#C4C4C4"/>
<line x1="809.5" y1="1080" x2="809.5" stroke="#C4C4C4"/>
<line x1="836.5" y1="1080" x2="836.5" stroke="#C4C4C4"/>
<line x1="863.5" y1="1080" x2="863.5" stroke="#C4C4C4"/>
<line x1="890.5" y1="1080" x2="890.5" stroke="#C4C4C4"/>
<line x1="917.5" y1="1080" x2="917.5" stroke="#C4C4C4"/>
<line x1="944.5" y1="1080" x2="944.5" stroke="#C4C4C4"/>
<line x1="971.5" y1="1080" x2="971.5" stroke="#C4C4C4"/>
<line x1="998.5" y1="1080" x2="998.5" stroke="#C4C4C4"/>
<line x1="1025.5" y1="1080" x2="1025.5" stroke="#C4C4C4"/>
<line x1="1052.5" y1="1080" x2="1052.5" stroke="#C4C4C4"/>
<rect width="1080" height="1080" fill="url(#paint0_radial_236_396)"/>
<path d="M194.622 206.2H201.502C201.662 207.213 202.102 208.107 202.822 208.88C203.569 209.627 204.556 210.213 205.782 210.64C207.036 211.04 208.476 211.24 210.102 211.24C212.476 211.24 214.342 210.907 215.702 210.24C217.089 209.547 217.782 208.587 217.782 207.36C217.782 206.4 217.382 205.667 216.582 205.16C215.809 204.627 214.356 204.24 212.222 204L206.182 203.32C202.289 202.893 199.462 201.987 197.702 200.6C195.969 199.187 195.102 197.227 195.102 194.72C195.102 192.747 195.676 191.067 196.822 189.68C197.996 188.293 199.636 187.24 201.742 186.52C203.849 185.773 206.329 185.4 209.182 185.4C211.956 185.4 214.422 185.813 216.582 186.64C218.742 187.44 220.462 188.573 221.742 190.04C223.022 191.48 223.716 193.173 223.822 195.12H216.942C216.809 194.24 216.409 193.48 215.742 192.84C215.102 192.173 214.209 191.667 213.062 191.32C211.916 190.947 210.569 190.76 209.022 190.76C206.862 190.76 205.142 191.08 203.862 191.72C202.582 192.36 201.942 193.267 201.942 194.44C201.942 195.347 202.316 196.053 203.062 196.56C203.836 197.04 205.182 197.4 207.102 197.64L213.382 198.4C216.156 198.693 218.356 199.173 219.982 199.84C221.636 200.48 222.809 201.347 223.502 202.44C224.222 203.533 224.582 204.92 224.582 206.6C224.582 208.6 223.969 210.36 222.742 211.88C221.542 213.373 219.849 214.533 217.662 215.36C215.476 216.187 212.916 216.6 209.982 216.6C206.996 216.6 204.369 216.173 202.102 215.32C199.836 214.44 198.049 213.227 196.742 211.68C195.436 210.107 194.729 208.28 194.622 206.2ZM245.992 216.6C242.499 216.6 239.432 215.947 236.792 214.64C234.179 213.333 232.139 211.52 230.672 209.2C229.205 206.853 228.472 204.12 228.472 201C228.472 197.88 229.205 195.16 230.672 192.84C232.139 190.493 234.179 188.667 236.792 187.36C239.432 186.053 242.499 185.4 245.992 185.4C249.485 185.4 252.539 186.053 255.152 187.36C257.792 188.667 259.845 190.493 261.312 192.84C262.779 195.16 263.512 197.88 263.512 201C263.512 204.12 262.779 206.853 261.312 209.2C259.845 211.52 257.792 213.333 255.152 214.64C252.539 215.947 249.485 216.6 245.992 216.6ZM245.992 210.56C248.179 210.56 250.059 210.173 251.632 209.4C253.232 208.627 254.459 207.52 255.312 206.08C256.192 204.64 256.632 202.947 256.632 201C256.632 199.053 256.192 197.36 255.312 195.92C254.459 194.48 253.232 193.373 251.632 192.6C250.059 191.827 248.179 191.44 245.992 191.44C243.832 191.44 241.952 191.827 240.352 192.6C238.752 193.373 237.512 194.48 236.632 195.92C235.779 197.36 235.352 199.053 235.352 201C235.352 202.947 235.779 204.64 236.632 206.08C237.512 207.52 238.752 208.627 240.352 209.4C241.952 210.173 243.832 210.56 245.992 210.56ZM272.274 198.72H293.954V204.52H272.274V198.72ZM294.634 186V191.84H272.354L275.794 188.36V216H268.994V186H294.634ZM309.549 189.04H316.309V216H309.549V189.04ZM297.589 186H328.229V192H297.589V186ZM369.621 213.24H367.301L375.661 186H382.781L373.141 216H364.461L355.021 189.44H357.981L348.541 216H339.861L330.221 186H337.421L345.701 213.24L343.461 213.2L352.901 186H360.141L369.621 213.24ZM389.439 209.68V204.16H410.239V209.68H389.439ZM404.359 186L418.399 216H411.159L398.879 188.76H401.119L388.839 216H381.599L395.639 186H404.359ZM427.148 199.32H438.708C440.228 199.32 441.428 198.973 442.308 198.28C443.215 197.56 443.668 196.573 443.668 195.32C443.668 194.067 443.215 193.093 442.308 192.4C441.428 191.707 440.228 191.36 438.708 191.36H426.148L429.228 187.88V216H422.428V186H439.508C441.695 186 443.615 186.4 445.268 187.2C446.922 187.973 448.215 189.053 449.148 190.44C450.082 191.827 450.548 193.453 450.548 195.32C450.548 197.16 450.082 198.773 449.148 200.16C448.215 201.547 446.922 202.64 445.268 203.44C443.615 204.213 441.695 204.6 439.508 204.6H427.148V199.32ZM432.348 201.96H440.108L451.428 216H443.468L432.348 201.96ZM481.232 198.4V203.6H459.752V198.4H481.232ZM464.312 201L462.312 213.72L459.352 210.36H482.472V216H455.472L457.792 201L455.472 186H482.272V191.64H459.352L462.312 188.28L464.312 201ZM513.717 186C517.21 186 520.264 186.627 522.877 187.88C525.517 189.133 527.57 190.88 529.037 193.12C530.504 195.36 531.237 197.987 531.237 201C531.237 203.987 530.504 206.613 529.037 208.88C527.57 211.12 525.517 212.867 522.877 214.12C520.264 215.373 517.21 216 513.717 216H499.477V186H513.717ZM506.237 213.32L502.797 210H514.237C516.264 210 518.037 209.627 519.557 208.88C521.104 208.133 522.29 207.08 523.117 205.72C523.944 204.36 524.357 202.787 524.357 201C524.357 199.187 523.944 197.613 523.117 196.28C522.29 194.92 521.104 193.867 519.557 193.12C518.037 192.373 516.264 192 514.237 192H502.797L506.237 188.68V213.32ZM561.21 198.4V203.6H539.73V198.4H561.21ZM544.29 201L542.29 213.72L539.33 210.36H562.45V216H535.45L537.77 201L535.45 186H562.25V191.64H539.33L542.29 188.28L544.29 201ZM584.437 213H581.437L593.677 186H600.877L586.637 216H578.997L564.797 186H572.077L584.437 213ZM629.724 198.4V203.6H608.244V198.4H629.724ZM612.804 201L610.804 213.72L607.844 210.36H630.964V216H603.964L606.284 201L603.964 186H630.764V191.64H607.844L610.804 188.28L612.804 201ZM643.735 186V213L640.655 210H663.175V216H636.935V186H643.735ZM682.251 216.6C678.758 216.6 675.691 215.947 673.051 214.64C670.438 213.333 668.398 211.52 666.931 209.2C665.465 206.853 664.731 204.12 664.731 201C664.731 197.88 665.465 195.16 666.931 192.84C668.398 190.493 670.438 188.667 673.051 187.36C675.691 186.053 678.758 185.4 682.251 185.4C685.745 185.4 688.798 186.053 691.411 187.36C694.051 188.667 696.105 190.493 697.571 192.84C699.038 195.16 699.771 197.88 699.771 201C699.771 204.12 699.038 206.853 697.571 209.2C696.105 211.52 694.051 213.333 691.411 214.64C688.798 215.947 685.745 216.6 682.251 216.6ZM682.251 210.56C684.438 210.56 686.318 210.173 687.891 209.4C689.491 208.627 690.718 207.52 691.571 206.08C692.451 204.64 692.891 202.947 692.891 201C692.891 199.053 692.451 197.36 691.571 195.92C690.718 194.48 689.491 193.373 687.891 192.6C686.318 191.827 684.438 191.44 682.251 191.44C680.091 191.44 678.211 191.827 676.611 192.6C675.011 193.373 673.771 194.48 672.891 195.92C672.038 197.36 671.611 199.053 671.611 201C671.611 202.947 672.038 204.64 672.891 206.08C673.771 207.52 675.011 208.627 676.611 209.4C678.211 210.173 680.091 210.56 682.251 210.56ZM721.613 186C723.987 186 726.04 186.413 727.773 187.24C729.507 188.067 730.827 189.227 731.733 190.72C732.667 192.213 733.133 193.947 733.133 195.92C733.133 197.893 732.667 199.627 731.733 201.12C730.827 202.587 729.507 203.747 727.773 204.6C726.04 205.427 723.987 205.84 721.613 205.84H708.373V200.24H721.253C722.827 200.24 724.053 199.853 724.933 199.08C725.84 198.307 726.293 197.253 726.293 195.92C726.293 194.56 725.84 193.507 724.933 192.76C724.053 191.987 722.827 191.6 721.253 191.6H708.973L712.053 188.36V216H705.253V186H721.613ZM780.009 186V216H773.529V188.28L775.249 188.4L762.449 216H755.449L742.649 188.48L744.329 188.32V216H737.889V186H748.329L760.409 212.72H757.489L769.569 186H780.009ZM811.732 198.4V203.6H790.252V198.4H811.732ZM794.812 201L792.812 213.72L789.852 210.36H812.972V216H785.972L788.292 201L785.972 186H812.772V191.64H789.852L792.812 188.28L794.812 201ZM846.743 211.52L844.383 211.88V186H850.983V216H842.383L823.183 190.12L825.503 189.76V216H818.943V186H827.743L846.743 211.52ZM867.467 189.04H874.227V216H867.467V189.04ZM855.507 186H886.147V192H855.507V186Z" fill="#0E5F66"/>
<path fill-rule="evenodd" clip-rule="evenodd" d="M150 878.062C150 863.186 162.179 851.125 177.201 851.125H902.578C917.599 851.125 929.778 863.186 929.778 878.062C929.778 892.938 917.599 905 902.578 905H177.201C162.179 905 150 892.938 150 878.062Z" fill="#38AD7E"/>
<path fill-rule="evenodd" clip-rule="evenodd" d="M245.339 298.56C213.471 330.119 213.471 380.913 213.471 482.502V662.089C213.471 729.812 213.471 763.676 234.716 784.716C255.962 805.756 290.157 805.756 358.546 805.756H721.234C789.62 805.756 823.817 805.756 845.062 784.716C866.308 763.676 866.308 729.812 866.308 662.089V482.502C866.308 380.913 866.308 330.119 834.44 298.56C802.572 267 751.28 267 648.697 267H431.083C328.5 267 277.208 267 245.339 298.56ZM403.881 698.004C403.881 683.128 416.06 671.067 431.083 671.067H648.697C663.718 671.067 675.897 683.128 675.897 698.004C675.897 712.88 663.718 724.942 648.697 724.942H431.083C416.06 724.942 403.881 712.88 403.881 698.004Z" fill="#0E5F66"/>
<path fill-rule="evenodd" clip-rule="evenodd" d="M499.071 403.706C518.657 379.505 541.23 366.342 558.18 387.871C577.66 388.892 586.011 418.46 572.612 433.042C573.573 433.03 574.476 433.227 575.26 433.656C576.285 434.216 577.061 435.123 577.451 436.407C577.841 437.672 577.841 439.312 577.29 441.349L577.223 441.55C576.978 442.271 576.765 443.186 576.549 444.127C575.65 448.021 574.661 452.301 570.224 452.064C569.987 452.049 569.755 452.025 569.518 451.986C569.357 460.033 565.424 463.737 560.281 468.573C561.66 470.587 563.043 472.616 564.702 474.492L564.706 474.484C573.408 482.319 595.835 483.887 605.416 489.235C608.446 490.922 611.185 493.073 613.388 495.982C613.707 496.4 614.007 496.821 614.295 497.243C614.082 497.227 613.881 497.219 613.7 497.219H466.972C467.252 496.806 467.547 496.392 467.859 495.982C470.062 493.073 472.8 490.922 475.831 489.235C485.112 484.057 506.223 482.421 515.666 475.213C516.253 474.208 516.864 472.939 517.455 471.596C518.219 469.846 518.937 467.99 519.528 466.378C515.784 462.91 512.907 459.162 512.257 452.013L511.811 452.021C510.771 452.005 509.774 451.769 508.84 451.237C506.771 450.062 505.644 447.82 505.1 445.262C504.403 442.011 504.635 438.157 504.97 435.722C504.994 435.552 505.037 435.394 505.1 435.245C505.821 433.223 506.732 432.131 507.871 431.666C507.354 422.007 508.986 406.705 499.071 403.706ZM466.302 502.122H613.7C617.447 502.122 620.505 505.637 619.93 509.925L611.784 570.776C611.225 575.028 608.273 578.579 603.981 578.579H476.02C471.729 578.579 468.785 575.028 468.217 570.776L460.067 509.925C459.504 505.633 462.55 502.122 466.302 502.122ZM539.287 530.295C544.454 530.295 548.647 534.484 548.647 539.651C548.647 544.821 544.454 549.011 539.287 549.011C534.121 549.011 529.932 544.821 529.932 539.651C529.932 534.484 534.121 530.295 539.287 530.295ZM557.825 470.898C552.734 475.639 547.189 477.944 541.557 477.944C535.658 477.948 529.754 475.426 524.265 470.539L522.334 468.853L522.204 468.742C521.695 470.098 521.116 471.548 520.513 472.928C519.685 474.807 518.803 476.577 517.947 477.858C527.193 496.601 554.519 497.255 563.378 477.964C561.152 475.71 559.469 473.302 557.825 470.898ZM555.567 405.987C551.098 410.492 546.369 411.788 541.735 412.194C540.367 412.435 539.035 412.6 537.707 412.766C533.262 413.314 528.824 413.861 522.952 417.928C520.178 419.844 518.33 422.165 517.372 424.864C516.391 427.647 516.324 430.894 517.136 434.587C517.21 434.927 517.192 435.281 517.083 435.612C516.973 435.943 516.777 436.239 516.514 436.468C516.252 436.697 515.932 436.852 515.59 436.915C515.247 436.979 514.893 436.949 514.566 436.829L512.316 436.005C510.487 435.367 509.341 435.154 508.793 436.458C508.513 438.594 508.336 441.814 508.899 444.455C509.234 446.019 509.809 447.324 510.755 447.863C511.09 448.053 511.461 448.139 511.855 448.143C512.351 448.151 512.907 448.041 513.498 447.86C513.668 447.808 513.841 447.781 514.022 447.777C515.094 447.753 515.985 448.6 516.009 449.668C516.221 458.468 520.123 461.83 524.872 465.917L526.85 467.635C531.618 471.879 536.639 474.07 541.557 474.07C546.342 474.067 551.122 471.978 555.583 467.674L557.593 465.767C562.574 461.089 566.243 457.641 565.538 449.243C565.51 448.825 565.609 448.395 565.857 448.021C566.139 447.592 566.581 447.292 567.084 447.188C567.587 447.083 568.111 447.183 568.541 447.465C568.864 447.678 569.187 447.852 569.506 447.974L569.589 448.001C569.881 448.108 570.164 448.171 570.425 448.187C571.611 448.25 572.214 445.637 572.761 443.26C573.006 442.208 573.242 441.184 573.55 440.293C573.885 439.024 573.92 438.129 573.743 437.546C573.668 437.302 573.55 437.14 573.404 437.061C573.171 436.935 572.825 436.896 572.411 436.935C571.422 437.026 570.231 437.55 569.112 438.397C568.901 438.558 568.659 438.673 568.401 438.736C568.144 438.799 567.876 438.808 567.615 438.764C567.107 438.677 566.654 438.392 566.355 437.972C566.057 437.551 565.937 437.03 566.023 436.522C567.855 425.842 567.016 418.882 564.742 414.133C562.748 409.976 559.567 407.453 556.119 405.57L555.567 405.987Z" fill="white"/>
</g>
<defs>
<radialGradient id="paint0_radial_236_396" cx="0" cy="0" r="1" gradientUnits="userSpaceOnUse" gradientTransform="translate(540 540) rotate(90) scale(540)">
<stop offset="0.745" stop-color="white" stop-opacity="0"/>
<stop offset="1" stop-color="white"/>
</radialGradient>
<clipPath id="clip0_236_396">
<rect width="1080" height="1080" fill="white"/>
</clipPath>
</defs>
</svg>
