<svg width="1080" height="1080" viewBox="0 0 1080 1080" fill="none" xmlns="http://www.w3.org/2000/svg">
<g clip-path="url(#clip0_244_6)">
<rect width="1080" height="1080" fill="#EBF7F2"/>
<line y1="26.5" x2="1080" y2="26.5" stroke="#C4C4C4"/>
<line y1="53.5" x2="1080" y2="53.5" stroke="#C4C4C4"/>
<line y1="80.5" x2="1080" y2="80.5" stroke="#C4C4C4"/>
<line y1="107.5" x2="1080" y2="107.5" stroke="#C4C4C4"/>
<line y1="134.5" x2="1080" y2="134.5" stroke="#C4C4C4"/>
<line y1="161.5" x2="1080" y2="161.5" stroke="#C4C4C4"/>
<line y1="188.5" x2="1080" y2="188.5" stroke="#C4C4C4"/>
<line y1="215.5" x2="1080" y2="215.5" stroke="#C4C4C4"/>
<line y1="242.5" x2="1080" y2="242.5" stroke="#C4C4C4"/>
<line y1="269.5" x2="1080" y2="269.5" stroke="#C4C4C4"/>
<line y1="296.5" x2="1080" y2="296.5" stroke="#C4C4C4"/>
<line y1="323.5" x2="1080" y2="323.5" stroke="#C4C4C4"/>
<line y1="350.5" x2="1080" y2="350.5" stroke="#C4C4C4"/>
<line y1="377.5" x2="1080" y2="377.5" stroke="#C4C4C4"/>
<line y1="404.5" x2="1080" y2="404.5" stroke="#C4C4C4"/>
<line y1="431.5" x2="1080" y2="431.5" stroke="#C4C4C4"/>
<line y1="458.5" x2="1080" y2="458.5" stroke="#C4C4C4"/>
<line y1="485.5" x2="1080" y2="485.5" stroke="#C4C4C4"/>
<line y1="512.5" x2="1080" y2="512.5" stroke="#C4C4C4"/>
<line y1="539.5" x2="1080" y2="539.5" stroke="#C4C4C4"/>
<line y1="566.5" x2="1080" y2="566.5" stroke="#C4C4C4"/>
<line y1="593.5" x2="1080" y2="593.5" stroke="#C4C4C4"/>
<line y1="620.5" x2="1080" y2="620.5" stroke="#C4C4C4"/>
<line y1="647.5" x2="1080" y2="647.5" stroke="#C4C4C4"/>
<line y1="674.5" x2="1080" y2="674.5" stroke="#C4C4C4"/>
<line y1="701.5" x2="1080" y2="701.5" stroke="#C4C4C4"/>
<line y1="728.5" x2="1080" y2="728.5" stroke="#C4C4C4"/>
<line y1="755.5" x2="1080" y2="755.5" stroke="#C4C4C4"/>
<line y1="782.5" x2="1080" y2="782.5" stroke="#C4C4C4"/>
<line y1="809.5" x2="1080" y2="809.5" stroke="#C4C4C4"/>
<line y1="836.5" x2="1080" y2="836.5" stroke="#C4C4C4"/>
<line y1="863.5" x2="1080" y2="863.5" stroke="#C4C4C4"/>
<line y1="890.5" x2="1080" y2="890.5" stroke="#C4C4C4"/>
<line y1="917.5" x2="1080" y2="917.5" stroke="#C4C4C4"/>
<line y1="944.5" x2="1080" y2="944.5" stroke="#C4C4C4"/>
<line y1="971.5" x2="1080" y2="971.5" stroke="#C4C4C4"/>
<line y1="998.5" x2="1080" y2="998.5" stroke="#C4C4C4"/>
<line y1="1025.5" x2="1080" y2="1025.5" stroke="#C4C4C4"/>
<line y1="1052.5" x2="1080" y2="1052.5" stroke="#C4C4C4"/>
<line x1="26.5" y1="1080" x2="26.5" stroke="#C4C4C4"/>
<line x1="53.5" y1="1080" x2="53.5" stroke="#C4C4C4"/>
<line x1="80.5" y1="1080" x2="80.5" stroke="#C4C4C4"/>
<line x1="107.5" y1="1080" x2="107.5" stroke="#C4C4C4"/>
<line x1="134.5" y1="1080" x2="134.5" stroke="#C4C4C4"/>
<line x1="161.5" y1="1080" x2="161.5" stroke="#C4C4C4"/>
<line x1="188.5" y1="1080" x2="188.5" stroke="#C4C4C4"/>
<line x1="215.5" y1="1080" x2="215.5" stroke="#C4C4C4"/>
<line x1="242.5" y1="1080" x2="242.5" stroke="#C4C4C4"/>
<line x1="269.5" y1="1080" x2="269.5" stroke="#C4C4C4"/>
<line x1="296.5" y1="1080" x2="296.5" stroke="#C4C4C4"/>
<line x1="323.5" y1="1080" x2="323.5" stroke="#C4C4C4"/>
<line x1="350.5" y1="1080" x2="350.5" stroke="#C4C4C4"/>
<line x1="377.5" y1="1080" x2="377.5" stroke="#C4C4C4"/>
<line x1="404.5" y1="1080" x2="404.5" stroke="#C4C4C4"/>
<line x1="431.5" y1="1080" x2="431.5" stroke="#C4C4C4"/>
<line x1="458.5" y1="1080" x2="458.5" stroke="#C4C4C4"/>
<line x1="485.5" y1="1080" x2="485.5" stroke="#C4C4C4"/>
<line x1="512.5" y1="1080" x2="512.5" stroke="#C4C4C4"/>
<line x1="539.5" y1="1080" x2="539.5" stroke="#C4C4C4"/>
<line x1="566.5" y1="1080" x2="566.5" stroke="#C4C4C4"/>
<line x1="593.5" y1="1080" x2="593.5" stroke="#C4C4C4"/>
<line x1="620.5" y1="1080" x2="620.5" stroke="#C4C4C4"/>
<line x1="647.5" y1="1080" x2="647.5" stroke="#C4C4C4"/>
<line x1="674.5" y1="1080" x2="674.5" stroke="#C4C4C4"/>
<line x1="701.5" y1="1080" x2="701.5" stroke="#C4C4C4"/>
<line x1="728.5" y1="1080" x2="728.5" stroke="#C4C4C4"/>
<line x1="755.5" y1="1080" x2="755.5" stroke="#C4C4C4"/>
<line x1="782.5" y1="1080" x2="782.5" stroke="#C4C4C4"/>
<line x1="809.5" y1="1080" x2="809.5" stroke="#C4C4C4"/>
<line x1="836.5" y1="1080" x2="836.5" stroke="#C4C4C4"/>
<line x1="863.5" y1="1080" x2="863.5" stroke="#C4C4C4"/>
<line x1="890.5" y1="1080" x2="890.5" stroke="#C4C4C4"/>
<line x1="917.5" y1="1080" x2="917.5" stroke="#C4C4C4"/>
<line x1="944.5" y1="1080" x2="944.5" stroke="#C4C4C4"/>
<line x1="971.5" y1="1080" x2="971.5" stroke="#C4C4C4"/>
<line x1="998.5" y1="1080" x2="998.5" stroke="#C4C4C4"/>
<line x1="1025.5" y1="1080" x2="1025.5" stroke="#C4C4C4"/>
<line x1="1052.5" y1="1080" x2="1052.5" stroke="#C4C4C4"/>
<rect width="1080" height="1080" fill="url(#paint0_radial_244_6)"/>
<path d="M318.264 201.24H315.944L324.304 174H331.424L321.784 204H313.104L303.664 177.44H306.624L297.184 204H288.504L278.864 174H286.064L294.344 201.24L292.104 201.2L301.544 174H308.784L318.264 201.24ZM360.58 186.4V191.6H339.1V186.4H360.58ZM343.66 189L341.66 201.72L338.7 198.36H361.82V204H334.82L337.14 189L334.82 174H361.62V179.64H338.7L341.66 176.28L343.66 189ZM387.031 189.2L387.671 187.84C389.991 187.893 391.911 188.267 393.431 188.96C394.951 189.627 396.071 190.547 396.791 191.72C397.511 192.867 397.871 194.187 397.871 195.68C397.871 197.28 397.484 198.707 396.711 199.96C395.964 201.213 394.858 202.2 393.391 202.92C391.924 203.64 390.084 204 387.871 204H366.831L369.151 188.6L366.831 174H387.111C389.884 174 392.031 174.653 393.551 175.96C395.098 177.24 395.871 179.013 395.871 181.28C395.871 182.507 395.578 183.693 394.991 184.84C394.431 185.987 393.498 186.96 392.191 187.76C390.911 188.533 389.191 189.013 387.031 189.2ZM373.551 202.28L370.951 199H386.471C387.911 199 389.018 198.667 389.791 198C390.591 197.307 390.991 196.347 390.991 195.12C390.991 193.867 390.538 192.88 389.631 192.16C388.724 191.413 387.391 191.04 385.631 191.04H372.991V186.16H384.831C386.031 186.16 387.018 185.827 387.791 185.16C388.591 184.467 388.991 183.507 388.991 182.28C388.991 181.347 388.658 180.573 387.991 179.96C387.324 179.32 386.364 179 385.111 179H370.951L373.551 175.72L375.671 188.6L373.551 202.28ZM428.475 174C431.968 174 435.021 174.627 437.635 175.88C440.275 177.133 442.328 178.88 443.795 181.12C445.261 183.36 445.995 185.987 445.995 189C445.995 191.987 445.261 194.613 443.795 196.88C442.328 199.12 440.275 200.867 437.635 202.12C435.021 203.373 431.968 204 428.475 204H414.235V174H428.475ZM420.995 201.32L417.555 198H428.995C431.021 198 432.795 197.627 434.315 196.88C435.861 196.133 437.048 195.08 437.875 193.72C438.701 192.36 439.115 190.787 439.115 189C439.115 187.187 438.701 185.613 437.875 184.28C437.048 182.92 435.861 181.867 434.315 181.12C432.795 180.373 431.021 180 428.995 180H417.555L420.995 176.68V201.32ZM475.967 186.4V191.6H454.487V186.4H475.967ZM459.047 189L457.047 201.72L454.087 198.36H477.207V204H450.207L452.527 189L450.207 174H477.007V179.64H454.087L457.047 176.28L459.047 189ZM499.195 201H496.195L508.435 174H515.635L501.395 204H493.755L479.555 174H486.835L499.195 201ZM544.482 186.4V191.6H523.002V186.4H544.482ZM527.562 189L525.562 201.72L522.602 198.36H545.722V204H518.722L521.042 189L518.722 174H545.522V179.64H522.602L525.562 176.28L527.562 189ZM558.492 174V201L555.412 198H577.932V204H551.692V174H558.492ZM597.009 204.6C593.516 204.6 590.449 203.947 587.809 202.64C585.196 201.333 583.156 199.52 581.689 197.2C580.222 194.853 579.489 192.12 579.489 189C579.489 185.88 580.222 183.16 581.689 180.84C583.156 178.493 585.196 176.667 587.809 175.36C590.449 174.053 593.516 173.4 597.009 173.4C600.502 173.4 603.556 174.053 606.169 175.36C608.809 176.667 610.862 178.493 612.329 180.84C613.796 183.16 614.529 185.88 614.529 189C614.529 192.12 613.796 194.853 612.329 197.2C610.862 199.52 608.809 201.333 606.169 202.64C603.556 203.947 600.502 204.6 597.009 204.6ZM597.009 198.56C599.196 198.56 601.076 198.173 602.649 197.4C604.249 196.627 605.476 195.52 606.329 194.08C607.209 192.64 607.649 190.947 607.649 189C607.649 187.053 607.209 185.36 606.329 183.92C605.476 182.48 604.249 181.373 602.649 180.6C601.076 179.827 599.196 179.44 597.009 179.44C594.849 179.44 592.969 179.827 591.369 180.6C589.769 181.373 588.529 182.48 587.649 183.92C586.796 185.36 586.369 187.053 586.369 189C586.369 190.947 586.796 192.64 587.649 194.08C588.529 195.52 589.769 196.627 591.369 197.4C592.969 198.173 594.849 198.56 597.009 198.56ZM636.371 174C638.745 174 640.798 174.413 642.531 175.24C644.265 176.067 645.585 177.227 646.491 178.72C647.425 180.213 647.891 181.947 647.891 183.92C647.891 185.893 647.425 187.627 646.491 189.12C645.585 190.587 644.265 191.747 642.531 192.6C640.798 193.427 638.745 193.84 636.371 193.84H623.131V188.24H636.011C637.585 188.24 638.811 187.853 639.691 187.08C640.598 186.307 641.051 185.253 641.051 183.92C641.051 182.56 640.598 181.507 639.691 180.76C638.811 179.987 637.585 179.6 636.011 179.6H623.731L626.811 176.36V204H620.011V174H636.371ZM694.767 174V204H688.287V176.28L690.007 176.4L677.207 204H670.207L657.407 176.48L659.087 176.32V204H652.647V174H663.087L675.167 200.72H672.247L684.327 174H694.767ZM726.489 186.4V191.6H705.009V186.4H726.489ZM709.569 189L707.569 201.72L704.609 198.36H727.729V204H700.729L703.049 189L700.729 174H727.529V179.64H704.609L707.569 176.28L709.569 189ZM761.5 199.52L759.14 199.88V174H765.74V204H757.14L737.94 178.12L740.26 177.76V204H733.7V174H742.5L761.5 199.52ZM782.224 177.04H788.984V204H782.224V177.04ZM770.264 174H800.904V180H770.264V174Z" fill="#0E5F66"/>
<path d="M457 250H623.667C717.947 250 765.087 250 794.377 279.289C823.667 308.579 823.667 355.719 823.667 450V683.333H695.89C670.647 683.333 646.083 691.52 625.89 706.667L594.777 730C591.893 732.163 588.383 733.333 584.777 733.333H495.89C492.283 733.333 488.773 732.163 485.89 730L454.778 706.667C434.583 691.52 410.021 683.333 384.778 683.333H257V450C257 355.719 257 308.579 286.289 279.289C315.579 250 362.719 250 457 250Z" fill="#0E5F66"/>
<path d="M307 916.667H773.667C828.897 916.667 873.667 871.897 873.667 816.667V766.667C873.667 748.257 858.743 733.333 840.333 733.333H695.89C681.463 733.333 667.43 738.013 655.89 746.667L624.777 770C613.237 778.654 599.203 783.333 584.777 783.333H495.89C481.463 783.333 467.429 778.654 455.889 770L424.778 746.667C413.238 738.013 399.202 733.333 384.778 733.333H240.333C221.924 733.333 207 748.257 207 766.667V816.667C207 871.897 251.772 916.667 307 916.667Z" fill="#38AD7E"/>
<path fill-rule="evenodd" clip-rule="evenodd" d="M578.422 534.207L582.457 520.231L580.488 518.067C579.593 516.766 579.398 515.627 579.902 514.651C580.976 512.536 583.189 512.926 585.255 512.926C587.419 512.926 590.087 512.519 590.771 515.22C590.998 516.131 590.706 517.075 590.071 518.051L588.102 520.215L592.137 534.191L585.288 539.592L578.422 534.207ZM495.234 503.717C491.85 499.861 491.557 495.826 495.234 491.564C499.481 492.638 503.369 494.476 506.949 496.965C507.729 496.624 508.624 496.494 509.503 496.542C513.229 493.907 517.979 492.833 522.128 490.848C527.091 495.68 526.554 500.122 521.673 504.254C518.956 503.636 516.352 502.66 513.879 501.407C513.814 502.042 513.652 502.741 513.343 503.506L514.612 514.049H504.492L505.761 503.506C504.964 502.172 504.671 501.033 504.703 500.073C501.775 501.83 498.57 502.969 495.234 503.717ZM481.73 447.407C480.25 447.473 479.111 447.782 478.346 448.286C477.907 448.579 477.581 448.953 477.37 449.409C477.142 449.913 477.028 450.515 477.045 451.215C477.11 453.265 478.167 455.933 480.25 459.008L480.282 459.057L487.002 469.73C489.703 474.009 492.517 478.369 496.031 481.59C499.399 484.682 503.499 486.764 508.901 486.78C514.758 486.797 519.053 484.633 522.535 481.363C526.147 477.978 529.01 473.325 531.825 468.705L539.391 456.242C540.806 453.021 541.31 450.873 540.985 449.604C540.79 448.856 539.96 448.481 538.545 448.416C538.252 448.4 537.943 448.4 537.617 448.4C537.275 448.416 536.934 448.432 536.56 448.465C536.364 448.481 536.169 448.465 535.974 448.432C535.307 448.465 534.607 448.416 533.891 448.319L536.478 436.848C517.264 439.875 502.881 425.606 482.56 434.001L484.024 447.521C483.227 447.538 482.446 447.521 481.73 447.407ZM490.646 495.078C490.516 495.257 490.353 495.42 490.174 495.55C490.809 500.675 491.704 507.248 492.761 514.049H452.803C449.939 514.049 447.612 516.733 448.052 520.003L453.6 562.061H448.524C443.854 561.703 441.479 559.295 441.072 555.097C441.3 536.306 434.157 513.577 453.958 502.546C461.198 498.495 479.892 497.128 488.043 491.792C489.231 489.546 490.549 485.625 491.378 483.087C491.313 483.266 491.541 482.583 491.492 482.746L491.574 482.502C488.58 479.28 486.123 475.489 483.78 471.747L477.061 461.074C474.604 457.413 473.335 454.062 473.254 451.312C473.221 450.027 473.433 448.839 473.921 447.814C474.425 446.74 475.19 445.829 476.231 445.13C476.719 444.804 477.256 444.528 477.858 444.3C477.419 438.508 477.256 431.203 477.549 425.102C477.695 423.654 477.972 422.206 478.379 420.758C480.835 411.972 488.385 405.643 497.008 402.665C501.189 401.217 499.578 397.768 503.808 398.012C513.831 398.565 529.303 405.025 535.242 411.874C543.572 421.473 541.424 433.302 541.148 445.016C543.002 445.585 544.206 446.757 544.694 448.677C545.231 450.792 544.646 453.785 542.856 457.853C542.823 457.934 542.791 457.999 542.742 458.064L535.095 470.673C532.15 475.538 529.157 480.403 525.154 484.145L524.959 484.324C525.333 484.877 525.756 485.479 526.196 486.113C527.53 488.066 529.043 490.278 530.442 492.019C538.756 497.193 557.06 498.576 564.202 502.578C565.91 503.538 567.407 504.612 568.709 505.8C569.815 504.824 570.873 503.88 571.719 503.099C571.328 502.66 570.938 502.204 570.547 501.765L566.87 497.486L564.137 497.551L558.931 497.681C554.456 492.54 554.733 481.477 555.172 475.099C557.255 462.278 562.217 453.037 570.287 447.7C575.754 444.088 579.024 443.877 585.418 443.877C590.998 443.877 594.415 443.747 599.182 446.887C614.687 457.104 619.503 481.2 611.921 497.437H606.504L606.162 497.844L605.674 498.413L603.315 501.244C602.371 502.367 601.427 503.506 600.402 504.563C601.704 505.832 603.461 507.378 605.072 508.794C605.836 509.461 606.569 510.095 607.219 510.681C631.478 520.345 636.814 525.974 639.775 557.261C640.329 563.037 640.263 562.777 634.732 562.891C614.248 563.297 588.135 562.891 564.511 562.793L564.609 562.061L570.157 520.003C570.596 516.733 568.269 514.049 565.406 514.049H563.323H555.123H526.342C527.302 507.167 528.002 500.61 528.343 495.648C526.521 493.63 524.569 490.767 522.909 488.31C522.535 487.773 522.177 487.236 521.835 486.748C518.321 489.107 514.14 490.555 508.901 490.555C503.06 490.539 498.521 488.538 494.746 485.479C493.689 488.651 492.143 492.996 490.646 495.078ZM570.319 507.459C578.536 516.815 577.25 531.571 576.925 544.913L585.271 558.774L605.609 525.031L614.443 525.242C612.393 521.11 609.953 517.417 607.219 513.951C606.487 513.203 605.039 511.934 603.477 510.567C601.802 509.103 599.996 507.508 598.645 506.19C598.092 506.662 597.523 507.118 596.904 507.524C594.269 509.33 590.998 510.534 586.557 510.518C582.392 510.518 579.268 509.347 576.697 507.638C575.428 506.792 574.306 505.816 573.281 504.791C572.402 505.605 571.377 506.516 570.319 507.459ZM508.527 536.273C512.48 536.273 515.669 539.478 515.669 543.416C515.669 547.369 512.464 550.558 508.527 550.558C504.573 550.558 501.384 547.353 501.384 543.416C501.384 539.478 504.573 536.273 508.527 536.273ZM567.846 495.566C563.519 480.744 565.552 467.127 577.218 455.477C579.284 462.148 583.905 467.647 591.763 471.715C595.521 474.513 599.15 477.881 602.68 481.753C603.298 479.182 600.923 476.059 598.043 472.837C600.712 474.155 603.168 475.994 604.909 479.557C606.927 483.673 606.894 487.155 606.227 491.629C606.015 493.012 605.723 494.313 605.348 495.566C605.235 495.631 605.121 495.713 605.039 495.81C604.714 496.201 604.405 496.575 604.112 496.917C603.998 497.047 603.9 497.161 603.624 497.502L601.248 500.333C599.442 502.497 597.62 504.677 595.294 506.255C593.065 507.785 590.315 508.794 586.54 508.794C583.075 508.794 580.439 507.801 578.275 506.369C576.03 504.873 574.224 502.823 572.5 500.821L568.204 495.826C568.107 495.729 567.977 495.631 567.846 495.566Z" fill="white"/>
</g>
<defs>
<radialGradient id="paint0_radial_244_6" cx="0" cy="0" r="1" gradientUnits="userSpaceOnUse" gradientTransform="translate(540 540) rotate(90) scale(540)">
<stop offset="0.745" stop-color="#EBF7F2" stop-opacity="0"/>
<stop offset="1" stop-color="#EBF7F2"/>
</radialGradient>
<clipPath id="clip0_244_6">
<rect width="1080" height="1080" fill="white"/>
</clipPath>
</defs>
</svg>
