<svg width="942" height="800" viewBox="0 0 942 800" fill="none" xmlns="http://www.w3.org/2000/svg">
<path fill-rule="evenodd" clip-rule="evenodd" d="M912.522 627.567C914.616 629.732 915.666 630.814 916.645 631.887C931.755 648.48 940.438 669.92 941.129 692.348C941.176 693.803 941.176 695.308 941.176 698.32C941.176 705.341 941.176 708.852 940.988 711.817C938 759.125 900.301 796.824 852.993 799.812C850.028 800 846.518 800 839.496 800H101.679C94.6579 800 91.1473 800 88.1826 799.812C40.8776 796.824 3.176 759.125 0.18729 711.817C-3.70338e-06 708.852 0 705.341 0 698.32C0 695.308 5.25375e-06 693.803 0.0451817 692.348C0.738358 669.92 9.42212 648.48 24.5304 631.887C25.5096 630.814 26.5567 629.732 28.6508 627.572L89.5581 564.706H851.619L912.522 627.567ZM317.647 705.883C317.647 686.391 333.449 670.588 352.941 670.588H588.235C607.727 670.588 623.529 686.391 623.529 705.883C623.529 725.374 607.727 741.177 588.235 741.177H352.941C333.449 741.177 317.647 725.374 317.647 705.883Z" fill="white"/>
<path fill-rule="evenodd" clip-rule="evenodd" d="M110.727 188.235C110.727 99.5002 110.727 55.1327 138.294 27.5666C165.86 -2.80492e-06 210.227 0 298.962 0H642.217C730.951 0 775.318 -2.80492e-06 802.885 27.5666C830.452 55.1327 830.452 99.5002 830.452 188.235V517.647H110.727V188.235ZM470.589 164.706C490.08 164.706 505.883 148.904 505.883 129.412C505.883 109.92 490.08 94.1176 470.589 94.1176C451.097 94.1176 435.295 109.92 435.295 129.412C435.295 148.904 451.097 164.706 470.589 164.706Z" fill="white"/>
<path fill-rule="evenodd" clip-rule="evenodd" d="M431.278 298.204C429.089 298.282 427.447 298.731 426.314 299.493C425.669 299.923 425.2 300.471 424.887 301.135C424.555 301.858 424.399 302.757 424.418 303.773C424.496 306.763 426.079 310.672 429.108 315.166L429.147 315.225L438.977 330.859C442.925 337.132 447.048 343.522 452.188 348.212C457.132 352.726 463.112 355.775 471.046 355.794C479.625 355.814 485.898 352.648 490.998 347.88C496.294 342.916 500.476 336.115 504.599 329.334L515.68 311.101C517.751 306.392 518.494 303.246 518.025 301.389C517.751 300.295 516.54 299.748 514.468 299.65C514.038 299.63 513.569 299.63 513.12 299.63C512.631 299.65 512.104 299.669 511.576 299.728C511.283 299.748 510.99 299.728 510.716 299.669C509.739 299.728 508.723 299.65 507.687 299.513L511.478 282.726C483.338 287.162 462.291 266.272 432.548 278.544L434.697 298.321C433.447 298.399 432.313 298.36 431.278 298.204ZM503.232 430.64V440.079L483.826 451.081V440.079L496.314 435.33L483.826 430.64V419.638L503.232 430.64ZM469.619 454.189H461.353L471.554 414.44H479.82L469.619 454.189ZM455.822 430.64L443.335 435.33L455.822 440.079V451.081L436.417 440.079V430.64L455.822 419.638V430.64ZM518.201 294.667C518.611 277.528 521.757 260.214 509.563 246.163C500.867 236.138 478.237 226.699 463.561 225.898C457.366 225.566 459.731 230.608 453.614 232.718C440.99 237.076 429.949 246.339 426.333 259.198C425.747 261.308 425.337 263.438 425.122 265.568C424.711 274.519 424.946 285.189 425.591 293.67C424.711 294.002 423.91 294.413 423.207 294.882C421.682 295.898 420.569 297.227 419.826 298.809C419.122 300.314 418.81 302.034 418.868 303.93C418.986 307.955 420.842 312.841 424.438 318.215L434.268 333.848C437.707 339.32 441.303 344.89 445.68 349.599C445.465 350.225 445.7 349.541 445.563 349.951C444.351 353.625 442.319 359.761 440.501 363.201C428.561 371.017 401.222 373.03 390.611 378.952C361.649 395.093 372.104 428.373 371.752 455.869C372.319 462.005 375.798 465.523 382.637 466.051H390.044L381.934 404.493C381.308 399.705 384.709 395.777 388.891 395.777H426.939H471.847C470.303 385.811 444.527 376.196 443.609 368.692C443.863 368.516 444.097 368.282 444.293 368.008C446.481 364.959 448.748 358.608 450.312 353.977C455.842 358.452 462.486 361.383 471.026 361.403C478.687 361.422 484.803 359.292 489.943 355.833C490.451 356.556 490.959 357.318 491.506 358.12C493.949 361.715 496.802 365.878 499.46 368.848C498.893 377.388 476.537 377.486 473.997 395.777H553.611C557.793 395.777 561.213 399.705 560.568 404.493L552.458 466.051H559.864C566.704 465.523 570.183 462.005 570.769 455.869C568.834 429.898 578.566 393.804 551.911 378.952C541.436 373.108 514.664 371.076 502.489 363.513C500.437 360.973 498.229 357.729 496.275 354.876C495.649 353.938 495.043 353.058 494.477 352.257L494.77 352.003C500.613 346.531 505.01 339.398 509.329 332.285L520.526 313.837C520.585 313.74 520.644 313.622 520.702 313.525C523.321 307.564 524.181 303.187 523.399 300.099C522.676 297.227 520.937 295.507 518.201 294.667Z" fill="#FFA808"/>
</svg>
