<svg width="1080" height="1080" viewBox="0 0 1080 1080" fill="none" xmlns="http://www.w3.org/2000/svg">
<g clip-path="url(#clip0_235_124)">
<mask id="mask0_235_124" style="mask-type:luminance" maskUnits="userSpaceOnUse" x="0" y="0" width="1080" height="1080">
<path d="M1080 0H0V1080H1080V0Z" fill="white"/>
</mask>
<g mask="url(#mask0_235_124)">
<path d="M1080 0H0V1080H1080V0Z" fill="#EBF7F2"/>
<path d="M0 26.5H1080" stroke="#C4C4C4"/>
<path d="M0 53.5H1080" stroke="#C4C4C4"/>
<path d="M0 80.5H1080" stroke="#C4C4C4"/>
<path d="M0 107.5H1080" stroke="#C4C4C4"/>
<path d="M0 134.5H1080" stroke="#C4C4C4"/>
<path d="M0 161.5H1080" stroke="#C4C4C4"/>
<path d="M0 188.5H1080" stroke="#C4C4C4"/>
<path d="M0 215.5H1080" stroke="#C4C4C4"/>
<path d="M0 242.5H1080" stroke="#C4C4C4"/>
<path d="M0 269.5H1080" stroke="#C4C4C4"/>
<path d="M0 296.5H1080" stroke="#C4C4C4"/>
<path d="M0 323.5H1080" stroke="#C4C4C4"/>
<path d="M0 350.5H1080" stroke="#C4C4C4"/>
<path d="M0 377.5H1080" stroke="#C4C4C4"/>
<path d="M0 404.5H1080" stroke="#C4C4C4"/>
<path d="M0 431.5H1080" stroke="#C4C4C4"/>
<path d="M0 458.5H1080" stroke="#C4C4C4"/>
<path d="M0 485.5H1080" stroke="#C4C4C4"/>
<path d="M0 512.5H1080" stroke="#C4C4C4"/>
<path d="M0 539.5H1080" stroke="#C4C4C4"/>
<path d="M0 566.5H1080" stroke="#C4C4C4"/>
<path d="M0 593.5H1080" stroke="#C4C4C4"/>
<path d="M0 620.5H1080" stroke="#C4C4C4"/>
<path d="M0 647.5H1080" stroke="#C4C4C4"/>
<path d="M0 674.5H1080" stroke="#C4C4C4"/>
<path d="M0 701.5H1080" stroke="#C4C4C4"/>
<path d="M0 728.5H1080" stroke="#C4C4C4"/>
<path d="M0 755.5H1080" stroke="#C4C4C4"/>
<path d="M0 782.5H1080" stroke="#C4C4C4"/>
<path d="M0 809.5H1080" stroke="#C4C4C4"/>
<path d="M0 836.5H1080" stroke="#C4C4C4"/>
<path d="M0 863.5H1080" stroke="#C4C4C4"/>
<path d="M0 890.5H1080" stroke="#C4C4C4"/>
<path d="M0 917.5H1080" stroke="#C4C4C4"/>
<path d="M0 944.5H1080" stroke="#C4C4C4"/>
<path d="M0 971.5H1080" stroke="#C4C4C4"/>
<path d="M0 998.5H1080" stroke="#C4C4C4"/>
<path d="M0 1025.5H1080" stroke="#C4C4C4"/>
<path d="M0 1052.5H1080" stroke="#C4C4C4"/>
<path d="M26.5 1080V0" stroke="#C4C4C4"/>
<path d="M53.5 1080V0" stroke="#C4C4C4"/>
<path d="M80.5 1080V0" stroke="#C4C4C4"/>
<path d="M107.5 1080V0" stroke="#C4C4C4"/>
<path d="M134.5 1080V0" stroke="#C4C4C4"/>
<path d="M161.5 1080V0" stroke="#C4C4C4"/>
<path d="M188.5 1080V0" stroke="#C4C4C4"/>
<path d="M215.5 1080V0" stroke="#C4C4C4"/>
<path d="M242.5 1080V0" stroke="#C4C4C4"/>
<path d="M269.5 1080V0" stroke="#C4C4C4"/>
<path d="M296.5 1080V0" stroke="#C4C4C4"/>
<path d="M323.5 1080V0" stroke="#C4C4C4"/>
<path d="M350.5 1080V0" stroke="#C4C4C4"/>
<path d="M377.5 1080V0" stroke="#C4C4C4"/>
<path d="M404.5 1080V0" stroke="#C4C4C4"/>
<path d="M431.5 1080V0" stroke="#C4C4C4"/>
<path d="M458.5 1080V0" stroke="#C4C4C4"/>
<path d="M485.5 1080V0" stroke="#C4C4C4"/>
<path d="M512.5 1080V0" stroke="#C4C4C4"/>
<path d="M539.5 1080V0" stroke="#C4C4C4"/>
<path d="M566.5 1080V0" stroke="#C4C4C4"/>
<path d="M593.5 1080V0" stroke="#C4C4C4"/>
<path d="M620.5 1080V0" stroke="#C4C4C4"/>
<path d="M647.5 1080V0" stroke="#C4C4C4"/>
<path d="M674.5 1080V0" stroke="#C4C4C4"/>
<path d="M701.5 1080V0" stroke="#C4C4C4"/>
<path d="M728.5 1080V0" stroke="#C4C4C4"/>
<path d="M755.5 1080V0" stroke="#C4C4C4"/>
<path d="M782.5 1080V0" stroke="#C4C4C4"/>
<path d="M809.5 1080V0" stroke="#C4C4C4"/>
<path d="M836.5 1080V0" stroke="#C4C4C4"/>
<path d="M863.5 1080V0" stroke="#C4C4C4"/>
<path d="M890.5 1080V0" stroke="#C4C4C4"/>
<path d="M917.5 1080V0" stroke="#C4C4C4"/>
<path d="M944.5 1080V0" stroke="#C4C4C4"/>
<path d="M971.5 1080V0" stroke="#C4C4C4"/>
<path d="M998.5 1080V0" stroke="#C4C4C4"/>
<path d="M1025.5 1080V0" stroke="#C4C4C4"/>
<path d="M1052.5 1080V0" stroke="#C4C4C4"/>
<path d="M1080 0H0V1080H1080V0Z" fill="url(#paint0_radial_235_124)"/>
<path fill-rule="evenodd" clip-rule="evenodd" d="M892.166 721.093C893.835 722.818 894.671 723.68 895.451 724.535C907.493 737.758 914.411 754.843 914.963 772.715C915 773.874 915 775.074 915 777.474C915 783.069 915 785.866 914.85 788.229C912.469 825.928 882.428 855.969 844.729 858.35C842.366 858.5 839.569 858.5 833.974 858.5H246.025C240.43 858.5 237.633 858.5 235.27 858.35C197.574 855.969 167.531 825.928 165.149 788.229C165 785.866 165 783.069 165 777.474C165 775.074 165 773.874 165.036 772.715C165.588 754.843 172.508 737.758 184.548 724.535C185.328 723.68 186.162 722.817 187.831 721.096L236.367 671H843.634L892.166 721.093ZM418.125 783.5C418.125 767.967 430.717 755.375 446.25 755.375H633.75C649.283 755.375 661.875 767.967 661.875 783.5C661.875 799.033 649.283 811.625 633.75 811.625H446.25C430.717 811.625 418.125 799.033 418.125 783.5Z" fill="#38AD7E"/>
<path fill-rule="evenodd" clip-rule="evenodd" d="M253.236 371C253.236 300.289 253.236 264.934 275.203 242.967C297.17 221 332.525 221 403.236 221H676.767C747.477 221 782.832 221 804.799 242.967C826.767 264.934 826.767 300.289 826.767 371V633.5H253.236V371ZM540.001 352.25C555.533 352.25 568.126 339.658 568.126 324.125C568.126 308.592 555.533 296 540.001 296C524.468 296 511.876 308.592 511.876 324.125C511.876 339.658 524.468 352.25 540.001 352.25Z" fill="#0E5F66"/>
<path d="M318.264 167.24H315.944L324.304 140H331.424L321.784 170H313.104L303.664 143.44H306.624L297.184 170H288.504L278.864 140H286.064L294.344 167.24L292.104 167.2L301.544 140H308.784L318.264 167.24ZM360.58 152.4V157.6H339.1V152.4H360.58ZM343.66 155L341.66 167.72L338.7 164.36H361.82V170H334.82L337.14 155L334.82 140H361.62V145.64H338.7L341.66 142.28L343.66 155ZM387.031 155.2L387.671 153.84C389.991 153.893 391.911 154.267 393.431 154.96C394.951 155.627 396.071 156.547 396.791 157.72C397.511 158.867 397.871 160.187 397.871 161.68C397.871 163.28 397.484 164.707 396.711 165.96C395.964 167.213 394.858 168.2 393.391 168.92C391.924 169.64 390.084 170 387.871 170H366.831L369.151 154.6L366.831 140H387.111C389.884 140 392.031 140.653 393.551 141.96C395.098 143.24 395.871 145.013 395.871 147.28C395.871 148.507 395.578 149.693 394.991 150.84C394.431 151.987 393.498 152.96 392.191 153.76C390.911 154.533 389.191 155.013 387.031 155.2ZM373.551 168.28L370.951 165H386.471C387.911 165 389.018 164.667 389.791 164C390.591 163.307 390.991 162.347 390.991 161.12C390.991 159.867 390.538 158.88 389.631 158.16C388.724 157.413 387.391 157.04 385.631 157.04H372.991V152.16H384.831C386.031 152.16 387.018 151.827 387.791 151.16C388.591 150.467 388.991 149.507 388.991 148.28C388.991 147.347 388.658 146.573 387.991 145.96C387.324 145.32 386.364 145 385.111 145H370.951L373.551 141.72L375.671 154.6L373.551 168.28ZM428.475 140C431.968 140 435.021 140.627 437.635 141.88C440.275 143.133 442.328 144.88 443.795 147.12C445.261 149.36 445.995 151.987 445.995 155C445.995 157.987 445.261 160.613 443.795 162.88C442.328 165.12 440.275 166.867 437.635 168.12C435.021 169.373 431.968 170 428.475 170H414.235V140H428.475ZM420.995 167.32L417.555 164H428.995C431.021 164 432.795 163.627 434.315 162.88C435.861 162.133 437.048 161.08 437.875 159.72C438.701 158.36 439.115 156.787 439.115 155C439.115 153.187 438.701 151.613 437.875 150.28C437.048 148.92 435.861 147.867 434.315 147.12C432.795 146.373 431.021 146 428.995 146H417.555L420.995 142.68V167.32ZM475.967 152.4V157.6H454.487V152.4H475.967ZM459.047 155L457.047 167.72L454.087 164.36H477.207V170H450.207L452.527 155L450.207 140H477.007V145.64H454.087L457.047 142.28L459.047 155ZM499.195 167H496.195L508.435 140H515.635L501.395 170H493.755L479.555 140H486.835L499.195 167ZM544.482 152.4V157.6H523.002V152.4H544.482ZM527.562 155L525.562 167.72L522.602 164.36H545.722V170H518.722L521.042 155L518.722 140H545.522V145.64H522.602L525.562 142.28L527.562 155ZM558.492 140V167L555.412 164H577.932V170H551.692V140H558.492ZM597.009 170.6C593.516 170.6 590.449 169.947 587.809 168.64C585.196 167.333 583.156 165.52 581.689 163.2C580.222 160.853 579.489 158.12 579.489 155C579.489 151.88 580.222 149.16 581.689 146.84C583.156 144.493 585.196 142.667 587.809 141.36C590.449 140.053 593.516 139.4 597.009 139.4C600.502 139.4 603.556 140.053 606.169 141.36C608.809 142.667 610.862 144.493 612.329 146.84C613.796 149.16 614.529 151.88 614.529 155C614.529 158.12 613.796 160.853 612.329 163.2C610.862 165.52 608.809 167.333 606.169 168.64C603.556 169.947 600.502 170.6 597.009 170.6ZM597.009 164.56C599.196 164.56 601.076 164.173 602.649 163.4C604.249 162.627 605.476 161.52 606.329 160.08C607.209 158.64 607.649 156.947 607.649 155C607.649 153.053 607.209 151.36 606.329 149.92C605.476 148.48 604.249 147.373 602.649 146.6C601.076 145.827 599.196 145.44 597.009 145.44C594.849 145.44 592.969 145.827 591.369 146.6C589.769 147.373 588.529 148.48 587.649 149.92C586.796 151.36 586.369 153.053 586.369 155C586.369 156.947 586.796 158.64 587.649 160.08C588.529 161.52 589.769 162.627 591.369 163.4C592.969 164.173 594.849 164.56 597.009 164.56ZM636.371 140C638.745 140 640.798 140.413 642.531 141.24C644.265 142.067 645.585 143.227 646.491 144.72C647.425 146.213 647.891 147.947 647.891 149.92C647.891 151.893 647.425 153.627 646.491 155.12C645.585 156.587 644.265 157.747 642.531 158.6C640.798 159.427 638.745 159.84 636.371 159.84H623.131V154.24H636.011C637.585 154.24 638.811 153.853 639.691 153.08C640.598 152.307 641.051 151.253 641.051 149.92C641.051 148.56 640.598 147.507 639.691 146.76C638.811 145.987 637.585 145.6 636.011 145.6H623.731L626.811 142.36V170H620.011V140H636.371ZM694.767 140V170H688.287V142.28L690.007 142.4L677.207 170H670.207L657.407 142.48L659.087 142.32V170H652.647V140H663.087L675.167 166.72H672.247L684.327 140H694.767ZM726.489 152.4V157.6H705.009V152.4H726.489ZM709.569 155L707.569 167.72L704.609 164.36H727.729V170H700.729L703.049 155L700.729 140H727.529V145.64H704.609L707.569 142.28L709.569 155ZM761.5 165.52L759.14 165.88V140H765.74V170H757.14L737.94 144.12L740.26 143.76V170H733.7V140H742.5L761.5 165.52ZM782.224 143.04H788.984V170H782.224V143.04ZM770.264 140H800.904V146H770.264V140Z" fill="#0E5F66"/>
<path fill-rule="evenodd" clip-rule="evenodd" d="M508.674 458.631C506.93 458.693 505.622 459.052 504.719 459.659C504.205 460.001 503.831 460.438 503.582 460.967C503.317 461.543 503.193 462.26 503.208 463.069C503.27 465.452 504.532 468.566 506.946 472.148L506.977 472.195L514.81 484.653C517.955 489.652 521.241 494.744 525.337 498.481C529.277 502.079 534.042 504.508 540.364 504.524C547.201 504.539 552.2 502.016 556.264 498.217C560.484 494.261 563.817 488.842 567.103 483.438L575.932 468.909C577.583 465.156 578.175 462.649 577.801 461.169C577.583 460.297 576.617 459.861 574.967 459.783C574.624 459.768 574.25 459.768 573.892 459.768C573.503 459.783 573.082 459.799 572.662 459.846C572.428 459.861 572.195 459.846 571.977 459.799C571.198 459.846 570.388 459.783 569.563 459.674L572.584 446.298C550.16 449.833 533.388 433.185 509.686 442.965L511.399 458.725C510.403 458.787 509.499 458.756 508.674 458.631ZM566.012 564.167V571.688L550.549 580.456V571.688L560.5 567.904L550.549 564.167V555.399L566.012 564.167ZM539.228 582.932H532.64L540.769 551.257H547.356L539.228 582.932ZM528.233 564.167L518.282 567.904L528.233 571.688V580.456L512.77 571.688V564.167L528.233 555.399V564.167ZM577.941 455.812C578.268 442.155 580.775 428.358 571.058 417.161C564.128 409.173 546.095 401.651 534.4 401.012C529.464 400.748 531.348 404.765 526.474 406.447C516.414 409.92 507.615 417.301 504.734 427.548C504.267 429.23 503.94 430.927 503.769 432.625C503.442 439.757 503.629 448.26 504.143 455.018C503.442 455.283 502.803 455.61 502.243 455.984C501.028 456.794 500.14 457.852 499.549 459.114C498.988 460.313 498.739 461.683 498.786 463.194C498.879 466.402 500.358 470.295 503.224 474.577L511.057 487.036C513.798 491.396 516.663 495.834 520.151 499.587C519.98 500.085 520.167 499.54 520.058 499.867C519.092 502.795 517.473 507.685 516.024 510.426C506.51 516.655 484.723 518.259 476.268 522.977C453.189 535.84 461.52 562.36 461.24 584.271C461.692 589.161 464.464 591.964 469.914 592.384H475.816L469.353 543.33C468.855 539.515 471.565 536.385 474.897 536.385H505.217H541.003C539.773 528.443 519.232 520.781 518.5 514.801C518.703 514.661 518.89 514.474 519.045 514.256C520.79 511.827 522.596 506.766 523.842 503.075C528.249 506.641 533.544 508.977 540.349 508.993C546.453 509.008 551.327 507.311 555.423 504.555C555.828 505.131 556.233 505.738 556.669 506.377C558.615 509.242 560.889 512.559 563.007 514.926C562.555 521.731 544.74 521.809 542.716 536.385H606.159C609.491 536.385 612.216 539.515 611.702 543.33L605.24 592.384H611.142C616.592 591.964 619.364 589.161 619.831 584.271C618.29 563.575 626.045 534.812 604.804 522.977C596.457 518.321 575.122 516.701 565.421 510.675C563.786 508.65 562.026 506.065 560.469 503.792C559.97 503.044 559.488 502.343 559.036 501.705L559.27 501.502C563.926 497.142 567.43 491.458 570.871 485.79L579.794 471.089C579.841 471.011 579.888 470.918 579.934 470.84C582.021 466.09 582.706 462.602 582.083 460.142C581.507 457.852 580.121 456.482 577.941 455.812Z" fill="#F7F7F7"/>
</g>
</g>
<defs>
<radialGradient id="paint0_radial_235_124" cx="0" cy="0" r="1" gradientUnits="userSpaceOnUse" gradientTransform="translate(540 540) rotate(90) scale(540)">
<stop offset="0.745" stop-color="#EBF7F2" stop-opacity="0"/>
<stop offset="1" stop-color="#EBF7F2"/>
</radialGradient>
<clipPath id="clip0_235_124">
<rect width="1080" height="1080" fill="white"/>
</clipPath>
</defs>
</svg>
