<svg width="1080" height="1080" viewBox="0 0 1080 1080" fill="none" xmlns="http://www.w3.org/2000/svg">
<g clip-path="url(#clip0_223_4)">
<rect width="1080" height="1080" fill="white"/>
<line y1="26.5" x2="1080" y2="26.5" stroke="#C4C4C4"/>
<line y1="53.5" x2="1080" y2="53.5" stroke="#C4C4C4"/>
<line y1="80.5" x2="1080" y2="80.5" stroke="#C4C4C4"/>
<line y1="107.5" x2="1080" y2="107.5" stroke="#C4C4C4"/>
<line y1="134.5" x2="1080" y2="134.5" stroke="#C4C4C4"/>
<line y1="161.5" x2="1080" y2="161.5" stroke="#C4C4C4"/>
<line y1="188.5" x2="1080" y2="188.5" stroke="#C4C4C4"/>
<line y1="215.5" x2="1080" y2="215.5" stroke="#C4C4C4"/>
<line y1="242.5" x2="1080" y2="242.5" stroke="#C4C4C4"/>
<line y1="269.5" x2="1080" y2="269.5" stroke="#C4C4C4"/>
<line y1="296.5" x2="1080" y2="296.5" stroke="#C4C4C4"/>
<line y1="323.5" x2="1080" y2="323.5" stroke="#C4C4C4"/>
<line y1="350.5" x2="1080" y2="350.5" stroke="#C4C4C4"/>
<line y1="377.5" x2="1080" y2="377.5" stroke="#C4C4C4"/>
<line y1="404.5" x2="1080" y2="404.5" stroke="#C4C4C4"/>
<line y1="431.5" x2="1080" y2="431.5" stroke="#C4C4C4"/>
<line y1="458.5" x2="1080" y2="458.5" stroke="#C4C4C4"/>
<line y1="485.5" x2="1080" y2="485.5" stroke="#C4C4C4"/>
<line y1="512.5" x2="1080" y2="512.5" stroke="#C4C4C4"/>
<line y1="539.5" x2="1080" y2="539.5" stroke="#C4C4C4"/>
<line y1="566.5" x2="1080" y2="566.5" stroke="#C4C4C4"/>
<line y1="593.5" x2="1080" y2="593.5" stroke="#C4C4C4"/>
<line y1="620.5" x2="1080" y2="620.5" stroke="#C4C4C4"/>
<line y1="647.5" x2="1080" y2="647.5" stroke="#C4C4C4"/>
<line y1="674.5" x2="1080" y2="674.5" stroke="#C4C4C4"/>
<line y1="701.5" x2="1080" y2="701.5" stroke="#C4C4C4"/>
<line y1="728.5" x2="1080" y2="728.5" stroke="#C4C4C4"/>
<line y1="755.5" x2="1080" y2="755.5" stroke="#C4C4C4"/>
<line y1="782.5" x2="1080" y2="782.5" stroke="#C4C4C4"/>
<line y1="809.5" x2="1080" y2="809.5" stroke="#C4C4C4"/>
<line y1="836.5" x2="1080" y2="836.5" stroke="#C4C4C4"/>
<line y1="863.5" x2="1080" y2="863.5" stroke="#C4C4C4"/>
<line y1="890.5" x2="1080" y2="890.5" stroke="#C4C4C4"/>
<line y1="917.5" x2="1080" y2="917.5" stroke="#C4C4C4"/>
<line y1="944.5" x2="1080" y2="944.5" stroke="#C4C4C4"/>
<line y1="971.5" x2="1080" y2="971.5" stroke="#C4C4C4"/>
<line y1="998.5" x2="1080" y2="998.5" stroke="#C4C4C4"/>
<line y1="1025.5" x2="1080" y2="1025.5" stroke="#C4C4C4"/>
<line y1="1052.5" x2="1080" y2="1052.5" stroke="#C4C4C4"/>
<line x1="26.5" y1="1080" x2="26.5" stroke="#C4C4C4"/>
<line x1="53.5" y1="1080" x2="53.5" stroke="#C4C4C4"/>
<line x1="80.5" y1="1080" x2="80.5" stroke="#C4C4C4"/>
<line x1="107.5" y1="1080" x2="107.5" stroke="#C4C4C4"/>
<line x1="134.5" y1="1080" x2="134.5" stroke="#C4C4C4"/>
<line x1="161.5" y1="1080" x2="161.5" stroke="#C4C4C4"/>
<line x1="188.5" y1="1080" x2="188.5" stroke="#C4C4C4"/>
<line x1="215.5" y1="1080" x2="215.5" stroke="#C4C4C4"/>
<line x1="242.5" y1="1080" x2="242.5" stroke="#C4C4C4"/>
<line x1="269.5" y1="1080" x2="269.5" stroke="#C4C4C4"/>
<line x1="296.5" y1="1080" x2="296.5" stroke="#C4C4C4"/>
<line x1="323.5" y1="1080" x2="323.5" stroke="#C4C4C4"/>
<line x1="350.5" y1="1080" x2="350.5" stroke="#C4C4C4"/>
<line x1="377.5" y1="1080" x2="377.5" stroke="#C4C4C4"/>
<line x1="404.5" y1="1080" x2="404.5" stroke="#C4C4C4"/>
<line x1="431.5" y1="1080" x2="431.5" stroke="#C4C4C4"/>
<line x1="458.5" y1="1080" x2="458.5" stroke="#C4C4C4"/>
<line x1="485.5" y1="1080" x2="485.5" stroke="#C4C4C4"/>
<line x1="512.5" y1="1080" x2="512.5" stroke="#C4C4C4"/>
<line x1="539.5" y1="1080" x2="539.5" stroke="#C4C4C4"/>
<line x1="566.5" y1="1080" x2="566.5" stroke="#C4C4C4"/>
<line x1="593.5" y1="1080" x2="593.5" stroke="#C4C4C4"/>
<line x1="620.5" y1="1080" x2="620.5" stroke="#C4C4C4"/>
<line x1="647.5" y1="1080" x2="647.5" stroke="#C4C4C4"/>
<line x1="674.5" y1="1080" x2="674.5" stroke="#C4C4C4"/>
<line x1="701.5" y1="1080" x2="701.5" stroke="#C4C4C4"/>
<line x1="728.5" y1="1080" x2="728.5" stroke="#C4C4C4"/>
<line x1="755.5" y1="1080" x2="755.5" stroke="#C4C4C4"/>
<line x1="782.5" y1="1080" x2="782.5" stroke="#C4C4C4"/>
<line x1="809.5" y1="1080" x2="809.5" stroke="#C4C4C4"/>
<line x1="836.5" y1="1080" x2="836.5" stroke="#C4C4C4"/>
<line x1="863.5" y1="1080" x2="863.5" stroke="#C4C4C4"/>
<line x1="890.5" y1="1080" x2="890.5" stroke="#C4C4C4"/>
<line x1="917.5" y1="1080" x2="917.5" stroke="#C4C4C4"/>
<line x1="944.5" y1="1080" x2="944.5" stroke="#C4C4C4"/>
<line x1="971.5" y1="1080" x2="971.5" stroke="#C4C4C4"/>
<line x1="998.5" y1="1080" x2="998.5" stroke="#C4C4C4"/>
<line x1="1025.5" y1="1080" x2="1025.5" stroke="#C4C4C4"/>
<line x1="1052.5" y1="1080" x2="1052.5" stroke="#C4C4C4"/>
<rect width="1080" height="1080" fill="url(#paint0_radial_223_4)"/>
<path fill-rule="evenodd" clip-rule="evenodd" d="M892.166 767.093C893.835 768.818 894.671 769.68 895.451 770.535C907.493 783.758 914.411 800.843 914.963 818.715C915 819.874 915 821.074 915 823.474C915 829.069 915 831.866 914.85 834.229C912.469 871.928 882.428 901.969 844.729 904.35C842.366 904.5 839.569 904.5 833.974 904.5H246.025C240.43 904.5 237.633 904.5 235.271 904.35C197.574 901.969 167.531 871.928 165.149 834.229C165 831.866 165 829.069 165 823.474C165 821.074 165 819.874 165.036 818.715C165.588 800.843 172.508 783.758 184.548 770.535C185.328 769.68 186.162 768.817 187.831 767.096L236.367 717H843.634L892.166 767.093ZM418.125 829.5C418.125 813.967 430.717 801.375 446.25 801.375H633.75C649.283 801.375 661.875 813.967 661.875 829.5C661.875 845.033 649.283 857.625 633.75 857.625H446.25C430.717 857.625 418.125 845.033 418.125 829.5Z" fill="#38AD7E"/>
<path fill-rule="evenodd" clip-rule="evenodd" d="M253.236 417C253.236 346.289 253.236 310.934 275.203 288.967C297.17 267 332.525 267 403.236 267H676.767C747.477 267 782.832 267 804.799 288.967C826.767 310.934 826.767 346.289 826.767 417V679.5H253.236V417ZM540.001 398.25C555.533 398.25 568.126 385.658 568.126 370.125C568.126 354.592 555.533 342 540.001 342C524.468 342 511.876 354.592 511.876 370.125C511.876 385.658 524.468 398.25 540.001 398.25Z" fill="#0E5F66"/>
<path d="M318.264 213.24H315.944L324.304 186H331.424L321.784 216H313.104L303.664 189.44H306.624L297.184 216H288.504L278.864 186H286.064L294.344 213.24L292.104 213.2L301.544 186H308.784L318.264 213.24ZM360.58 198.4V203.6H339.1V198.4H360.58ZM343.66 201L341.66 213.72L338.7 210.36H361.82V216H334.82L337.14 201L334.82 186H361.62V191.64H338.7L341.66 188.28L343.66 201ZM387.031 201.2L387.671 199.84C389.991 199.893 391.911 200.267 393.431 200.96C394.951 201.627 396.071 202.547 396.791 203.72C397.511 204.867 397.871 206.187 397.871 207.68C397.871 209.28 397.484 210.707 396.711 211.96C395.964 213.213 394.858 214.2 393.391 214.92C391.924 215.64 390.084 216 387.871 216H366.831L369.151 200.6L366.831 186H387.111C389.884 186 392.031 186.653 393.551 187.96C395.098 189.24 395.871 191.013 395.871 193.28C395.871 194.507 395.578 195.693 394.991 196.84C394.431 197.987 393.498 198.96 392.191 199.76C390.911 200.533 389.191 201.013 387.031 201.2ZM373.551 214.28L370.951 211H386.471C387.911 211 389.018 210.667 389.791 210C390.591 209.307 390.991 208.347 390.991 207.12C390.991 205.867 390.538 204.88 389.631 204.16C388.724 203.413 387.391 203.04 385.631 203.04H372.991V198.16H384.831C386.031 198.16 387.018 197.827 387.791 197.16C388.591 196.467 388.991 195.507 388.991 194.28C388.991 193.347 388.658 192.573 387.991 191.96C387.324 191.32 386.364 191 385.111 191H370.951L373.551 187.72L375.671 200.6L373.551 214.28ZM428.475 186C431.968 186 435.021 186.627 437.635 187.88C440.275 189.133 442.328 190.88 443.795 193.12C445.261 195.36 445.995 197.987 445.995 201C445.995 203.987 445.261 206.613 443.795 208.88C442.328 211.12 440.275 212.867 437.635 214.12C435.021 215.373 431.968 216 428.475 216H414.235V186H428.475ZM420.995 213.32L417.555 210H428.995C431.021 210 432.795 209.627 434.315 208.88C435.861 208.133 437.048 207.08 437.875 205.72C438.701 204.36 439.115 202.787 439.115 201C439.115 199.187 438.701 197.613 437.875 196.28C437.048 194.92 435.861 193.867 434.315 193.12C432.795 192.373 431.021 192 428.995 192H417.555L420.995 188.68V213.32ZM475.967 198.4V203.6H454.487V198.4H475.967ZM459.047 201L457.047 213.72L454.087 210.36H477.207V216H450.207L452.527 201L450.207 186H477.007V191.64H454.087L457.047 188.28L459.047 201ZM499.195 213H496.195L508.435 186H515.635L501.395 216H493.755L479.555 186H486.835L499.195 213ZM544.482 198.4V203.6H523.002V198.4H544.482ZM527.562 201L525.562 213.72L522.602 210.36H545.722V216H518.722L521.042 201L518.722 186H545.522V191.64H522.602L525.562 188.28L527.562 201ZM558.492 186V213L555.412 210H577.932V216H551.692V186H558.492ZM597.009 216.6C593.516 216.6 590.449 215.947 587.809 214.64C585.196 213.333 583.156 211.52 581.689 209.2C580.222 206.853 579.489 204.12 579.489 201C579.489 197.88 580.222 195.16 581.689 192.84C583.156 190.493 585.196 188.667 587.809 187.36C590.449 186.053 593.516 185.4 597.009 185.4C600.502 185.4 603.556 186.053 606.169 187.36C608.809 188.667 610.862 190.493 612.329 192.84C613.796 195.16 614.529 197.88 614.529 201C614.529 204.12 613.796 206.853 612.329 209.2C610.862 211.52 608.809 213.333 606.169 214.64C603.556 215.947 600.502 216.6 597.009 216.6ZM597.009 210.56C599.196 210.56 601.076 210.173 602.649 209.4C604.249 208.627 605.476 207.52 606.329 206.08C607.209 204.64 607.649 202.947 607.649 201C607.649 199.053 607.209 197.36 606.329 195.92C605.476 194.48 604.249 193.373 602.649 192.6C601.076 191.827 599.196 191.44 597.009 191.44C594.849 191.44 592.969 191.827 591.369 192.6C589.769 193.373 588.529 194.48 587.649 195.92C586.796 197.36 586.369 199.053 586.369 201C586.369 202.947 586.796 204.64 587.649 206.08C588.529 207.52 589.769 208.627 591.369 209.4C592.969 210.173 594.849 210.56 597.009 210.56ZM636.371 186C638.745 186 640.798 186.413 642.531 187.24C644.265 188.067 645.585 189.227 646.491 190.72C647.425 192.213 647.891 193.947 647.891 195.92C647.891 197.893 647.425 199.627 646.491 201.12C645.585 202.587 644.265 203.747 642.531 204.6C640.798 205.427 638.745 205.84 636.371 205.84H623.131V200.24H636.011C637.585 200.24 638.811 199.853 639.691 199.08C640.598 198.307 641.051 197.253 641.051 195.92C641.051 194.56 640.598 193.507 639.691 192.76C638.811 191.987 637.585 191.6 636.011 191.6H623.731L626.811 188.36V216H620.011V186H636.371ZM694.767 186V216H688.287V188.28L690.007 188.4L677.207 216H670.207L657.407 188.48L659.087 188.32V216H652.647V186H663.087L675.167 212.72H672.247L684.327 186H694.767ZM726.489 198.4V203.6H705.009V198.4H726.489ZM709.569 201L707.569 213.72L704.609 210.36H727.729V216H700.729L703.049 201L700.729 186H727.529V191.64H704.609L707.569 188.28L709.569 201ZM761.5 211.52L759.14 211.88V186H765.74V216H757.14L737.94 190.12L740.26 189.76V216H733.7V186H742.5L761.5 211.52ZM782.224 189.04H788.984V216H782.224V189.04ZM770.264 186H800.904V192H770.264V186Z" fill="#0E5F66"/>
<path fill-rule="evenodd" clip-rule="evenodd" d="M508.674 504.631C506.93 504.693 505.622 505.052 504.719 505.659C504.205 506.001 503.831 506.438 503.582 506.967C503.317 507.543 503.193 508.26 503.208 509.069C503.27 511.452 504.532 514.566 506.946 518.148L506.977 518.195L514.81 530.653C517.955 535.652 521.241 540.744 525.337 544.481C529.277 548.079 534.042 550.508 540.364 550.524C547.201 550.539 552.2 548.016 556.264 544.217C560.484 540.261 563.817 534.842 567.103 529.438L575.932 514.909C577.583 511.156 578.175 508.649 577.801 507.169C577.583 506.297 576.617 505.861 574.967 505.783C574.624 505.768 574.25 505.768 573.892 505.768C573.503 505.783 573.082 505.799 572.662 505.846C572.428 505.861 572.195 505.846 571.977 505.799C571.198 505.846 570.388 505.783 569.563 505.674L572.584 492.298C550.16 495.833 533.388 479.185 509.686 488.965L511.399 504.725C510.403 504.787 509.5 504.756 508.674 504.631ZM566.012 610.167V617.688L550.549 626.456V617.688L560.5 613.904L550.549 610.167V601.399L566.012 610.167ZM539.228 628.932H532.64L540.769 597.257H547.356L539.228 628.932ZM528.233 610.167L518.282 613.904L528.233 617.688V626.456L512.77 617.688V610.167L528.233 601.399V610.167ZM577.941 501.812C578.268 488.155 580.775 474.358 571.058 463.161C564.128 455.173 546.095 447.651 534.4 447.012C529.464 446.748 531.348 450.765 526.474 452.447C516.414 455.92 507.615 463.301 504.734 473.548C504.267 475.23 503.94 476.927 503.769 478.625C503.442 485.757 503.629 494.26 504.143 501.018C503.442 501.283 502.803 501.61 502.243 501.984C501.028 502.794 500.14 503.852 499.549 505.114C498.988 506.313 498.739 507.683 498.786 509.194C498.879 512.402 500.358 516.295 503.224 520.577L511.057 533.036C513.798 537.396 516.663 541.834 520.151 545.587C519.98 546.085 520.167 545.54 520.058 545.867C519.092 548.795 517.473 553.685 516.024 556.426C506.51 562.655 484.723 564.259 476.268 568.977C453.189 581.84 461.52 608.36 461.24 630.271C461.692 635.161 464.464 637.964 469.914 638.384H475.816L469.353 589.33C468.855 585.515 471.565 582.385 474.897 582.385H505.217H541.003C539.773 574.443 519.232 566.781 518.5 560.801C518.703 560.661 518.89 560.474 519.045 560.256C520.79 557.827 522.596 552.766 523.842 549.075C528.249 552.641 533.544 554.977 540.349 554.993C546.453 555.008 551.327 553.311 555.423 550.555C555.828 551.131 556.233 551.738 556.669 552.377C558.615 555.242 560.889 558.559 563.007 560.926C562.555 567.731 544.74 567.809 542.716 582.385H606.159C609.491 582.385 612.216 585.515 611.702 589.33L605.24 638.384H611.142C616.592 637.964 619.364 635.161 619.831 630.271C618.29 609.575 626.045 580.812 604.804 568.977C596.457 564.321 575.122 562.701 565.421 556.675C563.786 554.65 562.026 552.065 560.469 549.792C559.97 549.044 559.488 548.343 559.036 547.705L559.27 547.502C563.926 543.142 567.43 537.458 570.871 531.79L579.794 517.089C579.841 517.011 579.888 516.918 579.934 516.84C582.021 512.09 582.706 508.602 582.083 506.142C581.507 503.852 580.121 502.482 577.941 501.812Z" fill="#F7F7F7"/>
</g>
<defs>
<radialGradient id="paint0_radial_223_4" cx="0" cy="0" r="1" gradientUnits="userSpaceOnUse" gradientTransform="translate(540 540) rotate(90) scale(540)">
<stop offset="0.745" stop-color="white" stop-opacity="0"/>
<stop offset="1" stop-color="white"/>
</radialGradient>
<clipPath id="clip0_223_4">
<rect width="1080" height="1080" fill="white"/>
</clipPath>
</defs>
</svg>
